<?xml version="1.0" encoding="UTF-8" standalone="no"?>
<!-- Created with Inkscape (http://www.inkscape.org/) -->

<svg
   width="8.5in"
   height="11in"
   viewBox="0 0 215.9 279.4"
   version="1.1"
   id="svg961"
   inkscape:version="1.1.2 (b8e25be833, 2022-02-05)"
   sodipodi:docname="E.svg"
   xmlns:inkscape="http://www.inkscape.org/namespaces/inkscape"
   xmlns:sodipodi="http://sodipodi.sourceforge.net/DTD/sodipodi-0.dtd"
   xmlns="http://www.w3.org/2000/svg"
   xmlns:svg="http://www.w3.org/2000/svg">
  <sodipodi:namedview
     id="namedview963"
     pagecolor="#ffffff"
     bordercolor="#666666"
     borderopacity="1.0"
     inkscape:pageshadow="2"
     inkscape:pageopacity="0.0"
     inkscape:pagecheckerboard="0"
     inkscape:document-units="in"
     showgrid="false"
     units="in"
     inkscape:zoom="0.1702178"
     inkscape:cx="848.91239"
     inkscape:cy="-164.49514"
     inkscape:window-width="1920"
     inkscape:window-height="1017"
     inkscape:window-x="-8"
     inkscape:window-y="-8"
     inkscape:window-maximized="1"
     inkscape:current-layer="layer1" />
  <defs
     id="defs958">
    <rect
       x="1.4687065"
       y="10.280946"
       width="1496.612"
       height="2188.3728"
       id="rect19473" />
    <rect
       x="0"
       y="-2.9374131"
       width="810.72601"
       height="1050.1252"
       id="rect14297" />
    <rect
       x="157.1516"
       y="318.70932"
       width="440.61196"
       height="652.1057"
       id="rect6129" />
  </defs>
  <g
     inkscape:label="Layer 1"
     inkscape:groupmode="layer"
     id="layer1">
    <text
       xml:space="preserve"
       transform="scale(0.26458333)"
       id="text6127"
       style="line-height:1.25;font-family:'Square Peg';font-size:40px;-inkscape-font-specification:'Square Peg';white-space:pre;shape-inside:url(#rect6129)" />
    <text
       xml:space="preserve"
       transform="scale(0.26458333)"
       id="text14295"
       style="line-height:1.25;font-family:'Square Peg';font-size:40px;-inkscape-font-specification:'Square Peg';white-space:pre;shape-inside:url(#rect14297)" />
    <g
       aria-label="e"
       transform="matrix(0.26458333,0,0,0.26458333,-96.371627,-43.911265)"
       id="text19471"
       style="font-size:1333.33px;font-family:'Square Peg';-inkscape-font-specification:'Square Peg, Normal';white-space:pre;fill:none;stroke:#000000;stroke-opacity:1;stroke-width:4.80000006;stroke-miterlimit:4;stroke-dasharray:none">
      <g
         id="g87190">
        <path
           d="m 759.77398,1134.238 q -58.66652,0 -95.99976,-35.9999 -35.9999,-35.9999 -35.9999,-97.3331 0,-13.3333 1.33333,-26.6666 2.66666,-13.3333 5.33332,-26.66659 14.66663,-57.33319 81.33312,-122.66636 74.66648,-70.66649 129.33301,-70.66649 45.33322,0 42.66656,50.66654 -1.33333,65.33317 -71.99982,127.99968 -30.66659,25.33326 -63.99984,46.66654 -31.99992,21.33328 -67.99983,21.33328 h -1.33333 q 3.99999,86.6665 89.33311,86.6665 27.99993,0 62.66651,-13.3333 2.66666,-1.3334 7.99998,-1.3334 17.33329,0 17.33329,17.3333 0,12 -11.99997,18.6666 -37.33324,25.3333 -87.99978,25.3333 z M 718.44075,938.2385 q 41.33323,-9.33331 70.66649,-34.66658 51.99987,-43.99989 51.99987,-83.99979 v -2.66666 q 0,-9.33331 -6.66665,-14.66663 -6.66665,-5.33332 -9.33331,-2.66666 -41.33323,0 -87.99978,59.99985 -6.66665,9.33331 -15.99996,25.33327 -9.33331,14.66663 -19.99995,35.99991 -1.33333,2.66666 -1.33333,5.33332 0,11.99997 18.66662,11.99997 z"
           id="path87128"
           style="fill:none;stroke:#000000;stroke-opacity:1;stroke-width:4.80000006;stroke-miterlimit:4;stroke-dasharray:none" />
        <path
           style="stroke:#000000;fill:none;stroke-width:4.80000006"
           d="M 749.286395,796.870775 l -73.328797,73.328797 M 663.035780,889.909614 l 107.677505,-107.677505 M 786.959048,772.774570 l -135.505474,135.505474 M 646.699502,919.822342 l 152.299920,-152.299920 M 810.327553,762.982515 l -167.908184,167.908184 M 638.573065,941.525227 l 181.096611,-181.096611 M 828.551425,758.335092 l -190.433831,190.433831 M 768.463566,825.211175 l 67.318447,-67.318447 M 748.757072,844.917669 l -112.336535,112.336535 M 795.686647,804.776318 l 47.026467,-47.026467 M 724.397478,876.065487 l -89.673998,89.673998 M 806.752788,800.498402 l 42.345781,-42.345781 M 715.938699,891.312491 l -83.823617,83.823617 M 817.000989,797.038426 l 38.487883,-38.487883 M 705.791227,908.248187 l -73.740467,73.740467 M 824.820980,796.006659 l 36.199515,-36.199515 M 697.704952,923.122687 l -65.840579,65.840579 M 831.475107,796.140757 l 34.202135,-34.202135 M 696.696244,930.919619 l -65.051010,65.051010 M 835.895726,798.508362 l 34.107398,-34.107398 M 698.960338,935.443750 l -67.362855,67.362855 M 839.480476,801.711837 l 34.246519,-34.246519 M 702.561294,938.631019 l -71.086920,71.086920 M 842.298775,805.681762 l 34.564970,-34.564970 M 707.610809,940.369728 l -75.423583,75.423583 M 843.847983,810.920778 l 35.564348,-35.564348 M 713.578848,941.189913 l -80.799863,80.799863 M 844.437868,817.119118 l 36.952457,-36.952457 M 721.205077,940.351909 l -87.633137,87.633137 M 843.757632,824.587579 l 39.238731,-39.238731 M 731.050441,937.294769 l -96.819809,96.819809 M 842.720725,832.412710 l 40.988872,-40.988872 M 740.856485,934.276950 l -105.056635,105.056635 M 839.302012,842.619647 l 44.815320,-44.815320 M 754.160275,927.761385 l -116.980120,116.980120 M 830.839469,857.870415 l 53.653916,-53.653916 M 769.164414,919.545471 l -78.302064,78.302064 M 638.552276,1050.157609 l 41.286245,-41.286245 M 884.136525,811.361583 l -184.865286,184.865286 M 640.528701,1054.969407 l 39.368727,-39.368727 M 883.010753,819.275580 l -176.804055,176.804055 M 642.452790,1059.833543 l 38.495276,-38.495276 M 883.192740,825.881818 l -168.355633,168.355633 M 644.574837,1064.499721 l 37.431987,-37.431987 M 880.280705,835.582077 l -155.057384,155.057384 M 646.846188,1069.016594 l 36.539420,-36.539420 M 878.616818,844.034189 l -142.726287,142.726287 M 649.274212,1073.376794 l 36.008115,-36.008115 M 873.640622,855.798609 l -123.375621,123.375621 M 651.891653,1077.547578 l 34.970959,-34.970959 M 868.209658,868.017798 l -97.537862,97.537862 M 654.642568,1081.584887 l 34.285604,-34.285604 M 858.877372,884.138308 l -64.099932,64.099932 M 657.561763,1085.453917 l 33.692091,-33.692091 M 693.785843,1056.018061 l -33.165187,33.165187 M 663.830266,1092.761863 l 32.734707,-32.734707 M 699.566976,1063.813377 l -32.371330,32.371330 M 670.740731,1099.427847 l 32.062590,-32.062590 M 706.280050,1070.676753 l -31.855981,31.855981 M 678.233124,1105.511903 l 31.746306,-31.746306 M 713.937177,1076.596074 l -31.741830,31.741830 M 686.282482,1111.038994 l 31.848084,-31.848084 M 722.554549,1081.555152 l -32.012198,32.012198 M 694.948141,1115.949784 l 32.292673,-32.292673 M 732.151769,1085.534381 l -32.651442,32.651442 M 704.235583,1120.238791 l 33.515688,-33.515688 M 742.750495,1088.512104 l -33.666668,33.666668 M 714.194528,1123.856295 l 34.832510,-34.832510 M 754.373089,1090.465958 l -34.913910,34.913910 M 724.608164,1127.019108 l 36.711626,-36.711626 M 767.041704,1091.373792 l -36.518360,36.518360 M 736.378906,1128.824815 l 37.395103,-37.395103 M 780.868015,1091.123931 l -38.425099,38.425099 M 748.066659,1130.713511 l 40.328992,-40.328992 M 796.401764,1089.166630 l -41.455521,41.455521 M 761.937930,1130.418689 l 44.950418,-44.950418 M 815.393105,1083.751738 l -46.937224,46.937224 M 774.903859,1131.029209 l 49.300750,-49.300750 M 836.360041,1076.361251 l -52.862139,52.862139 M 791.922129,1127.587388 l 51.134843,-51.134843 M 848.882816,1077.414925 l -50.364969,50.364969 M 809.112940,1123.973026 l 43.808203,-43.808203 M 855.363050,1084.511140 l -37.665978,37.665978 M 828.350524,1118.311891 l 28.481616,-28.481616 M 856.338414,1097.112225 l -13.244053,13.244053"
           id="path87188" />
      </g>
    </g>
    <rect
       style="fill:none;stroke:#000000;stroke-width:1.27;stroke-linejoin:round;paint-order:markers fill stroke"
       id="rect1210"
       width="215.89999"
       height="279.39999"
       x="0.63499999"
       y="0.63499999" />
  </g>
</svg>
