<?xml version="1.0" encoding="UTF-8" standalone="no"?>
<!-- Created with Inkscape (http://www.inkscape.org/) -->

<svg
   width="8.5in"
   height="11in"
   viewBox="0 0 215.9 279.4"
   version="1.1"
   id="svg961"
   inkscape:version="1.1.2 (b8e25be833, 2022-02-05)"
   sodipodi:docname="i.svg"
   xmlns:inkscape="http://www.inkscape.org/namespaces/inkscape"
   xmlns:sodipodi="http://sodipodi.sourceforge.net/DTD/sodipodi-0.dtd"
   xmlns="http://www.w3.org/2000/svg"
   xmlns:svg="http://www.w3.org/2000/svg">
  <sodipodi:namedview
     id="namedview963"
     pagecolor="#ffffff"
     bordercolor="#666666"
     borderopacity="1.0"
     inkscape:pageshadow="2"
     inkscape:pageopacity="0.0"
     inkscape:pagecheckerboard="0"
     inkscape:document-units="in"
     showgrid="false"
     units="in"
     inkscape:zoom="0.1702178"
     inkscape:cx="848.91239"
     inkscape:cy="-164.49514"
     inkscape:window-width="1920"
     inkscape:window-height="1017"
     inkscape:window-x="-8"
     inkscape:window-y="-8"
     inkscape:window-maximized="1"
     inkscape:current-layer="layer1" />
  <defs
     id="defs958">
    <rect
       x="1.4687065"
       y="10.280946"
       width="1496.612"
       height="2188.3728"
       id="rect19473" />
    <rect
       x="0"
       y="-2.9374131"
       width="810.72601"
       height="1050.1252"
       id="rect14297" />
    <rect
       x="157.1516"
       y="318.70932"
       width="440.61196"
       height="652.1057"
       id="rect6129" />
  </defs>
  <g
     inkscape:label="Layer 1"
     inkscape:groupmode="layer"
     id="layer1">
    <text
       xml:space="preserve"
       transform="scale(0.26458333)"
       id="text6127"
       style="line-height:1.25;font-family:'Square Peg';font-size:40px;-inkscape-font-specification:'Square Peg';white-space:pre;shape-inside:url(#rect6129)" />
    <text
       xml:space="preserve"
       transform="scale(0.26458333)"
       id="text14295"
       style="line-height:1.25;font-family:'Square Peg';font-size:40px;-inkscape-font-specification:'Square Peg';white-space:pre;shape-inside:url(#rect14297)" />
    <g
       aria-label="i"
       transform="matrix(0.26458333,0,0,0.26458333,-96.371627,-43.911265)"
       id="text19471"
       style="font-size:1333.33px;font-family:'Square Peg';-inkscape-font-specification:'Square Peg, Normal';white-space:pre;fill:none;fill-opacity:1;stroke:#000000;stroke-opacity:1;stroke-width:4.80000006;stroke-miterlimit:4;stroke-dasharray:none">
      <g
         id="g1043">
        <path
           d="m 764.4416,664.90585 q -19.99995,0 -18.66662,-23.99993 l 13.3333,-50.66654 q 3.99999,-14.66663 18.66662,-14.66663 30.66659,0 25.33327,25.33327 -1.33333,18.66662 -9.33331,41.33323 -7.99998,22.6666 -29.33326,22.6666 z m -46.66655,419.99895 q -11.99996,0 -15.99995,-10.6666 -5.33332,-14.6667 -6.66665,-36 -1.33333,-21.3332 0,-47.99984 2.66666,-30.66659 14.66662,-77.33313 13.3333,-46.66655 35.99991,-107.99973 5.33332,-13.3333 18.66662,-13.3333 25.33327,0 17.33329,22.66661 -5.33332,17.33329 -9.33331,34.66658 -3.99999,17.33329 -7.99998,34.66658 -6.66665,30.66659 -10.66664,54.66653 -3.99999,23.99993 -3.99999,42.66655 0,65.33315 1.33333,67.99985 3.99999,13.3333 -7.99998,25.3333 -11.99997,10.6666 -25.33327,10.6666 z"
           id="path950"
           style="fill:none;fill-opacity:1;stroke:#000000;stroke-opacity:1;stroke-width:4.80000006;stroke-miterlimit:4;stroke-dasharray:none" />
        <path
           style="stroke:#000000;fill:none;stroke-width:4.80000006"
           d="M 766.990682,579.807074 l -3.558632,3.558632 M 762.983453,590.602528 l 12.145043,-12.145043 M 780.952124,579.422081 l -20.393037,20.393037 M 758.134721,609.027708 l 28.914422,-28.914422 M 792.267623,581.683031 l -36.557268,36.557268 M 753.285989,627.452889 l 43.122528,-43.122528 M 799.162157,588.364946 l -50.083927,50.083927 M 749.051809,645.263518 l 51.620583,-51.620583 M 800.669392,600.434160 l -50.508412,50.508412 M 752.191662,655.700114 l 47.483109,-47.483109 M 797.169317,617.510684 l -41.553872,41.553872 M 760.350414,661.117811 l 35.660769,-35.660769 M 794.480582,633.775868 l -27.637122,27.637122 M 773.467333,661.577342 l 16.995917,-16.995917 M 754.435049,796.009441 l -4.841533,4.841533 M 748.444119,808.788596 l 13.634092,-13.634092 M 768.910850,795.110090 l -24.395356,24.395356 M 738.433366,832.375798 l 35.871540,-35.871540 M 778.222172,799.375217 l -41.221125,41.221125 M 730.994628,853.390985 l 49.401357,-49.401357 M 779.875127,811.298711 l -49.951767,49.951767 M 724.443765,873.518297 l 52.632667,-52.632667 M 774.963017,829.787270 l -51.642775,51.642775 M 718.785356,892.753155 l 51.524656,-51.524656 M 768.211440,850.115296 l -50.977429,50.977429 M 714.042647,911.072313 l 52.145338,-52.145338 M 764.151517,867.751667 l -54.091749,54.091749 M 709.752581,928.938828 l 52.362468,-52.362468 M 760.095980,885.383653 l -53.038540,53.038540 M 704.123045,948.144813 l 54.888393,-54.888393 M 758.100604,900.955478 l -53.967694,53.967694 M 702.593544,963.250763 l 52.243479,-52.243479 M 753.218082,919.414450 l -52.340435,52.340435 M 699.432241,979.988515 l 52.258985,-52.258985 M 751.613737,934.595243 l -53.191432,53.191432 M 698.480014,994.517191 l 50.489784,-50.489784 M 747.878989,951.906440 l -49.390951,49.390951 M 698.332081,1008.241574 l 50.120558,-50.120558 M 746.418465,966.943414 l -48.140023,48.140023 M 698.331538,1021.818565 l 48.210712,-48.210712 M 746.091131,980.847196 l -47.595082,47.595082 M 698.100154,1035.626398 l 47.844144,-47.844144 M 745.953496,994.561280 l -46.795102,46.795102 M 699.085274,1048.217727 l 46.894117,-46.894117 M 746.010915,1008.080310 l -45.442163,45.442163 M 701.240505,1059.638945 l 44.824628,-44.824628 M 746.126398,1021.541276 l -43.252397,43.252397 M 704.384667,1070.071232 l 41.847068,-41.847068 M 746.374269,1034.869855 l -40.074810,40.074810 M 709.365646,1078.666702 l 37.960624,-37.960624 M 746.945656,1047.874917 l -33.190995,33.190995 M 720.185586,1081.423211 l 28.248663,-28.248663 M 748.808068,1059.588954 l -21.802842,21.802842 M 738.126132,1077.059114 l 7.934158,-7.934158"
           id="path1041" />
      </g>
    </g>
    <rect
       style="fill:none;stroke:#000000;stroke-width:0.127;stroke-linejoin:round;paint-order:markers fill stroke"
       id="rect851"
       width="215.89999"
       height="279.39999"
       x="0.063500002"
       y="0.063500002" />
  </g>
</svg>
