<?xml version="1.0" encoding="UTF-8" standalone="no"?>
<!-- Created with Inkscape (http://www.inkscape.org/) -->

<svg
   width="8.5in"
   height="11in"
   viewBox="0 0 215.9 279.4"
   version="1.1"
   id="svg961"
   inkscape:version="1.1.2 (b8e25be833, 2022-02-05)"
   sodipodi:docname="L.svg"
   xmlns:inkscape="http://www.inkscape.org/namespaces/inkscape"
   xmlns:sodipodi="http://sodipodi.sourceforge.net/DTD/sodipodi-0.dtd"
   xmlns="http://www.w3.org/2000/svg"
   xmlns:svg="http://www.w3.org/2000/svg">
  <sodipodi:namedview
     id="namedview963"
     pagecolor="#ffffff"
     bordercolor="#666666"
     borderopacity="1.0"
     inkscape:pageshadow="2"
     inkscape:pageopacity="0.0"
     inkscape:pagecheckerboard="0"
     inkscape:document-units="in"
     showgrid="false"
     units="in"
     inkscape:zoom="0.3404356"
     inkscape:cx="544.89013"
     inkscape:cy="798.97637"
     inkscape:window-width="1920"
     inkscape:window-height="1017"
     inkscape:window-x="-8"
     inkscape:window-y="-8"
     inkscape:window-maximized="1"
     inkscape:current-layer="layer1" />
  <defs
     id="defs958">
    <rect
       x="1.4687065"
       y="10.280946"
       width="1496.612"
       height="2188.3728"
       id="rect19473" />
    <rect
       x="0"
       y="-2.9374131"
       width="810.72601"
       height="1050.1252"
       id="rect14297" />
    <rect
       x="157.1516"
       y="318.70932"
       width="440.61196"
       height="652.1057"
       id="rect6129" />
  </defs>
  <g
     inkscape:label="Layer 1"
     inkscape:groupmode="layer"
     id="layer1">
    <text
       xml:space="preserve"
       transform="scale(0.26458333)"
       id="text6127"
       style="line-height:1.25;font-family:'Square Peg';font-size:40px;-inkscape-font-specification:'Square Peg';white-space:pre;shape-inside:url(#rect6129)" />
    <text
       xml:space="preserve"
       transform="scale(0.26458333)"
       id="text14295"
       style="line-height:1.25;font-family:'Square Peg';font-size:40px;-inkscape-font-specification:'Square Peg';white-space:pre;shape-inside:url(#rect14297)" />
    <g
       aria-label="L"
       transform="matrix(0.26458333,0,0,0.26458333,-96.371627,-43.911265)"
       id="text19471"
       style="font-size:1333.33px;font-family:'Square Peg';-inkscape-font-specification:'Square Peg, Normal';white-space:pre;fill:none;stroke:#000000;stroke-opacity:1;stroke-width:4.80000006;stroke-miterlimit:4;stroke-dasharray:none">
      <g
         id="g87020">
        <path
           d="m 590.44165,1134.238 q -18.66662,0 -17.33329,-16 -5.33332,-7.9999 -15.99996,-35.9999 v 1.3334 q 0,7.9999 -1.33333,-1.3334 -1.33333,-10.6666 -2.66666,-26.6666 -1.33333,-15.9999 -1.33333,-25.3332 l 10.66664,-106.66643 q 6.66665,-55.99986 19.99995,-113.33305 l 26.6666,-105.33307 q 18.66662,-70.66648 55.99985,-227.99942 2.66666,-26.6666 9.33331,-70.66649 7.99998,-43.99989 17.33329,-105.33306 5.33332,-33.33325 29.33326,-33.33325 19.99995,0 19.99995,33.33325 v 1.33333 q 0,29.33326 -10.66664,77.33313 -9.33331,46.66655 -19.99995,113.33305 -5.33332,25.33327 -13.3333,54.66653 -6.66665,27.99993 -17.33329,61.33318 -10.66664,34.66658 -18.66662,62.6665 -7.99997,27.99993 -11.99996,46.66655 -7.99998,31.99992 -18.66662,83.99979 -9.33331,51.99987 -22.66661,123.99969 -3.99999,34.66657 -6.66665,61.33317 -2.66666,25.3333 -2.66666,42.6666 0,7.9999 0,14.6666 1.33333,5.3333 2.66666,9.3333 0,-2.6667 13.3333,22.6666 17.33329,-8 70.66648,-15.9999 l 45.33322,1.3333 q 17.33329,1.3333 27.99993,2.6666 11.99997,1.3334 17.33329,1.3334 h 3.99999 q 15.99996,0 39.9999,-8 13.3333,-5.3333 22.66661,-6.6667 10.66664,-2.6666 15.99996,-3.9999 90.66644,-12 122.66635,-34.6666 10.66664,-9.3333 19.99998,-9.3333 13.3333,0 13.3333,22.6666 0,39.9999 -19.99998,55.9998 -6.66665,5.3334 -18.66662,10.6667 -10.66664,4 -26.66659,6.6666 l -86.66645,18.6666 q -29.33326,5.3334 -51.99987,9.3333 -22.66661,5.3334 -39.9999,5.3334 -9.33331,0 -19.99995,-1.3334 -10.66664,0 -23.99994,-1.3333 -29.33326,-4 -43.99989,-4 -29.33325,-2.6666 -91.99976,8 z"
           id="path86958"
           style="fill:none;stroke:#000000;stroke-opacity:1;stroke-width:4.80000006;stroke-miterlimit:4;stroke-dasharray:none" />
        <path
           style="stroke:#000000;fill:none;stroke-width:4.80000006"
           d="M 706.413273,272.988429 l -5.066558,5.066558 M 697.236892,288.953034 l 18.324090,-18.324090 M 722.066089,270.912062 l -27.379171,27.379171 M 695.079340,304.687035 l 32.138159,-32.138159 M 731.061245,275.493355 l -38.139092,38.139092 M 692.602824,320.740000 l 41.164789,-41.164789 M 735.589869,284.541180 l -44.236972,44.236972 M 690.065060,336.854214 l 46.608963,-46.608963 M 737.945947,295.761551 l -49.168129,49.168129 M 687.457885,353.037837 l 49.856423,-49.856423 M 737.088654,310.195293 l -50.962019,50.962019 M 684.781737,369.290435 l 52.850320,-52.850320 M 736.257980,324.602416 l -52.869761,52.869761 M 681.985130,385.663491 l 53.085893,-53.085893 M 735.562243,338.874602 l -55.003071,55.003071 M 677.518269,403.706800 l 55.438544,-55.438544 M 731.192120,356.821174 l -53.474398,53.474398 M 676.528141,418.273377 l 53.845450,-53.845450 M 727.774675,373.815068 l -52.407858,52.407858 M 673.770437,434.607530 l 52.897178,-52.897178 M 724.310617,390.855575 l -52.495368,52.495368 M 672.143009,449.811408 l 50.574708,-50.574708 M 722.253230,406.489411 l -51.094369,51.094369 M 670.236049,465.294817 l 49.385057,-49.385057 M 718.136518,424.182572 l -50.117674,50.117674 M 668.072598,481.034716 l 48.584435,-48.584435 M 715.237087,440.658452 l -49.285503,49.285503 M 663.830570,498.853193 l 50.859508,-50.859508 M 712.439551,457.032437 l -50.729995,50.729995 M 659.586494,516.673718 l 53.221947,-53.221947 M 709.730334,473.318102 l -52.285268,52.285268 M 655.303638,534.533024 l 53.104722,-53.104722 M 707.098170,489.526715 l -53.935961,53.935961 M 651.017198,552.395913 l 54.402829,-54.402829 M 703.469996,506.731339 l -54.618155,54.618155 M 646.686483,570.303076 l 55.670663,-55.670663 M 699.150569,524.627215 l -55.853492,55.853492 M 642.341208,588.224800 l 54.489240,-54.489240 M 695.071360,542.282873 l -54.923945,54.923945 M 637.953622,606.188836 l 56.097982,-56.097982 M 689.745502,561.185180 l -53.992106,53.992106 M 633.525253,624.193653 l 53.745654,-53.745654 M 685.563739,578.943392 l -54.266628,54.266628 M 629.061549,642.233806 l 55.074964,-55.074964 M 678.775901,599.307679 l -51.984816,51.984816 M 623.029384,661.842421 l 52.618132,-52.618132 M 672.684099,618.975930 l -50.459381,50.459381 M 619.900822,678.547432 l 50.753459,-50.753459 M 666.811086,638.425392 l -49.240391,49.240391 M 615.177218,696.847485 l 48.773896,-48.773896 M 661.109531,657.703396 l -48.324102,48.324102 M 610.484336,715.116815 l 47.879606,-47.879606 M 658.209714,674.179661 l -50.026472,50.026472 M 605.882150,733.295450 l 47.181587,-47.181587 M 652.343995,693.621830 l -48.762938,48.762938 M 601.279964,751.474085 l 47.051948,-47.051948 M 648.554334,710.987939 l -49.575464,49.575464 M 596.677778,769.652721 l 49.058327,-49.058327 M 644.031854,729.086868 l -49.655170,49.655170 M 592.075591,787.831356 l 49.814705,-49.814705 M 639.316963,747.378209 l -49.542464,49.542464 M 585.673894,807.809502 l 50.635448,-50.635448 M 634.111004,766.160616 l -49.258029,49.258029 M 583.313626,823.746220 l 48.944441,-48.944441 M 630.435780,783.412289 l -48.984047,48.984047 M 579.679093,840.957201 l 49.386905,-49.386905 M 626.868366,800.556153 l -50.122947,50.122947 M 576.087260,858.125483 l 49.255918,-49.255918 M 623.848755,817.152213 l -48.986533,48.986533 M 573.437758,874.351434 l 48.916574,-48.916574 M 622.523182,832.054235 l -50.430522,50.430522 M 570.825270,890.540371 l 48.513682,-48.513682 M 617.827875,850.325991 l -49.633971,49.633971 M 567.717652,907.224438 l 48.599145,-48.599145 M 614.791464,866.938851 l -47.523092,47.523092 M 566.451339,922.067200 l 46.814923,-46.814923 M 611.741059,883.565704 l -46.043967,46.043967 M 564.942845,937.152143 l 45.273012,-45.273012 M 608.676940,900.206273 l -44.488342,44.488342 M 563.434351,952.237086 l 43.705255,-43.705255 M 605.602273,916.857388 l -42.922169,42.922169 M 561.925857,967.322029 l 42.139083,-42.139083 M 603.153641,932.882470 l -41.982030,41.982030 M 560.417363,982.406972 l 41.864047,-41.864047 M 601.430026,948.182533 l -41.766910,41.766910 M 558.908869,997.491915 l 41.677649,-41.677649 M 599.764008,963.425000 l -41.609386,41.609386 M 557.400375,1012.576857 l 41.552461,-41.552461 M 598.167171,978.598287 l -41.521042,41.521042 M 555.583390,1027.970292 l 41.809285,-41.809285 M 596.630823,993.711083 l -41.806148,41.806148 M 555.952009,1041.178122 l 40.003183,-40.003183 M 596.076049,1007.842306 l -39.731505,39.731505 M 556.816675,1053.889905 l 38.176324,-38.176324 M 594.692179,1022.802626 l -37.847623,37.847623 M 557.929182,1066.353847 l 36.677533,-36.677533 M 594.601630,1036.469623 l -36.057709,36.057709 M 559.218375,1078.641103 l 35.383255,-35.383255 M 595.556232,1049.091470 l -34.001180,34.001180 M 563.450714,1087.985213 l 33.636057,-33.636057 M 599.839880,1058.384271 l -34.461997,34.461997 M 567.265500,1097.746876 l 35.091179,-35.091179 M 604.787321,1067.013280 l -35.527933,35.527933 M 571.496619,1107.092206 l 35.676391,-35.676391 M 609.533198,1075.843852 l -35.795664,35.795664 M 576.387385,1115.777889 l 35.670372,-35.670372 M 622.899670,1076.053828 l -46.473389,46.473389 M 578.863844,1126.877879 l 51.768452,-51.768452 M 639.389858,1073.140090 l -56.351703,56.351703 M 588.613236,1130.704936 l 59.621201,-59.621201 M 658.150756,1067.955641 l -61.328298,61.328298 M 604.892807,1128.001814 l 59.945941,-59.945941 M 672.994251,1066.688594 l -60.119944,60.119944 M 620.760000,1125.711070 l 61.762985,-61.762985 M 688.415460,1064.843834 l -59.995850,59.995850 M 635.201554,1124.845965 l 59.808186,-59.808186 M 701.604019,1065.231724 l -57.918350,57.918350 M 651.073469,1122.550499 l 57.124830,-57.124830 M 714.792578,1065.619614 l -56.776358,56.776358 M 665.292736,1121.907681 l 56.094122,-56.094122 M 728.088079,1065.900562 l -55.953386,55.953386 M 678.662959,1122.113906 l 55.705824,-55.705824 M 740.630455,1066.934636 l -55.772838,55.772838 M 691.666867,1122.686448 l 55.180438,-55.180438 M 753.001675,1068.139864 l -55.100702,55.100702 M 703.467744,1124.462019 l 55.627937,-55.627937 M 766.069816,1068.648172 l -55.716425,55.716425 M 716.429754,1125.076458 l 55.466703,-55.466703 M 779.176635,1069.117802 l -57.212158,57.212158 M 728.452540,1126.630122 l 57.457577,-57.457577 M 793.233267,1068.637620 l -58.482765,58.482765 M 741.142979,1127.516132 l 61.933464,-61.933464 M 811.724747,1063.722588 l -64.345297,64.345297 M 754.098921,1128.136639 l 69.462248,-69.462248 M 832.527288,1056.496496 l -72.216035,72.216035 M 765.925229,1129.886780 l 74.451022,-74.451022 M 848.613694,1053.986539 l -75.673676,75.673676 M 779.703905,1129.684553 l 78.159539,-78.159539 M 867.031383,1049.145299 l -80.179122,80.179122 M 796.217447,1126.747460 l 77.433904,-77.433904 M 882.916595,1046.836536 l -78.683141,78.683141 M 812.632236,1123.909120 l 77.215398,-77.215398 M 898.198529,1045.131051 l -76.542716,76.542716 M 829.914800,1120.203005 l 77.351811,-77.351811 M 916.064947,1040.841082 l -78.954574,78.954574 M 846.472587,1117.221667 l 78.130024,-78.130024 M 935.671952,1034.810527 l -80.913724,80.913724 M 863.043868,1114.226835 l 83.101475,-83.101475 M 956.064722,1027.994205 l -84.309614,84.309614 M 880.406765,1110.440387 l 89.176957,-89.176957 M 988.842986,1008.792390 l -99.784565,99.784565 M 897.710077,1106.713523 l 99.775774,-99.775774 M 1003.621759,1007.590066 l -97.260026,97.260026 M 915.013389,1102.986660 l 92.418646,-92.418646 M 1009.683186,1015.105088 l -86.018141,86.018141 M 932.316702,1099.259797 l 78.239927,-78.239927 M 1010.628336,1027.736387 l -69.659978,69.659978 M 949.620014,1095.532934 l 61.779298,-61.779298 M 1011.125047,1040.816125 l -53.203625,53.203625 M 965.910110,1092.819286 l 43.591158,-43.591158 M 1008.169982,1057.347639 l -32.957801,32.957801 M 986.476295,1085.829551 l 17.983949,-17.983949"
           id="path87018" />
      </g>
    </g>
    <rect
       style="fill:none;stroke:#000000;stroke-width:1.27;stroke-linejoin:round;paint-order:markers fill stroke"
       id="rect1022"
       x="0.63499999"
       y="0.63499999"
       width="215.89999"
       height="279.39999" />
  </g>
</svg>
