<?xml version="1.0" encoding="UTF-8" standalone="no"?>
<!-- Created with Inkscape (http://www.inkscape.org/) -->

<svg
   width="8.5in"
   height="11in"
   viewBox="0 0 215.9 279.4"
   version="1.1"
   id="svg961"
   inkscape:version="1.1.2 (b8e25be833, 2022-02-05)"
   sodipodi:docname="n.svg"
   xmlns:inkscape="http://www.inkscape.org/namespaces/inkscape"
   xmlns:sodipodi="http://sodipodi.sourceforge.net/DTD/sodipodi-0.dtd"
   xmlns="http://www.w3.org/2000/svg"
   xmlns:svg="http://www.w3.org/2000/svg">
  <sodipodi:namedview
     id="namedview963"
     pagecolor="#ffffff"
     bordercolor="#666666"
     borderopacity="1.0"
     inkscape:pageshadow="2"
     inkscape:pageopacity="0.0"
     inkscape:pagecheckerboard="0"
     inkscape:document-units="in"
     showgrid="false"
     units="in"
     inkscape:zoom="0.1702178"
     inkscape:cx="848.91239"
     inkscape:cy="-164.49514"
     inkscape:window-width="1920"
     inkscape:window-height="1017"
     inkscape:window-x="-8"
     inkscape:window-y="-8"
     inkscape:window-maximized="1"
     inkscape:current-layer="layer1" />
  <defs
     id="defs958">
    <rect
       x="1.4687065"
       y="10.280946"
       width="1496.612"
       height="2188.3728"
       id="rect19473" />
    <rect
       x="0"
       y="-2.9374131"
       width="810.72601"
       height="1050.1252"
       id="rect14297" />
    <rect
       x="157.1516"
       y="318.70932"
       width="440.61196"
       height="652.1057"
       id="rect6129" />
  </defs>
  <g
     inkscape:label="Layer 1"
     inkscape:groupmode="layer"
     id="layer1">
    <text
       xml:space="preserve"
       transform="scale(0.26458333)"
       id="text6127"
       style="line-height:1.25;font-family:'Square Peg';font-size:40px;-inkscape-font-specification:'Square Peg';white-space:pre;shape-inside:url(#rect6129)" />
    <text
       xml:space="preserve"
       transform="scale(0.26458333)"
       id="text14295"
       style="line-height:1.25;font-family:'Square Peg';font-size:40px;-inkscape-font-specification:'Square Peg';white-space:pre;shape-inside:url(#rect14297)" />
    <g
       aria-label="n"
       transform="matrix(0.26458333,0,0,0.26458333,-96.371627,-43.911265)"
       id="text19471"
       style="font-size:1333.33px;font-family:'Square Peg';-inkscape-font-specification:'Square Peg, Normal';white-space:pre;fill:none;stroke:#000000;stroke-opacity:1;stroke-width:4.80000006;stroke-miterlimit:4;stroke-dasharray:none">
      <g
         id="g2180">
        <path
           d="m 569.10793,1096.9048 q -19.99995,0 -14.66663,-35.9999 3.99999,-46.6666 13.3333,-114.66642 10.66664,-69.33316 25.33327,-159.9996 6.66665,-19.99995 21.33328,-19.99995 18.66662,0 18.66662,17.33329 0,1.33333 0,5.33332 0,2.66666 -1.33333,6.66665 -2.66666,11.99997 -5.33332,26.6666 -1.33333,13.3333 -1.33333,29.33326 0,18.66662 1.33333,39.9999 2.66666,21.33328 7.99998,45.33322 7.99998,0 65.33317,-57.33319 57.33318,-54.66653 93.33309,-65.33317 v -1.33333 q 3.99999,-1.33333 7.99998,-1.33333 3.99999,0 6.66665,0 25.33327,0 33.33325,23.99994 l 18.66662,123.99968 q 11.99997,81.33313 43.99989,81.33313 13.3333,0 26.6666,-9.3333 18.66662,-13.3333 35.99991,-27.9999 17.33329,-16 30.66659,-33.33329 7.99995,-2.66666 10.66665,-2.66666 9.3333,0 9.3333,11.99997 0,7.99998 -10.6666,21.33328 -17.33333,21.3333 -35.99995,43.9999 -18.66662,21.3333 -37.33324,33.3332 -25.33327,14.6667 -42.66656,14.6667 -35.99991,0 -54.66653,-58.6665 L 813.10731,926.23853 q -11.99997,-54.66653 -30.66659,-49.33321 -1.33333,0 -3.99999,0 -1.33333,-1.33333 -3.99999,-1.33333 -5.33332,0 -13.3333,2.66666 -6.66665,2.66666 -13.3333,9.33331 l -31.99991,33.33325 q -41.33323,42.66655 -69.33316,82.66649 -27.99993,39.9999 -45.33322,74.6664 -10.66664,18.6667 -31.99992,18.6667 z"
           id="path2117"
           style="fill:none;stroke:#000000;stroke-opacity:1;stroke-width:4.80000006;stroke-miterlimit:4;stroke-dasharray:none" />
        <path
           style="stroke:#000000;fill:none;stroke-width:4.80000006"
           d="M 604.899746,770.215495 l -5.625954,5.625954 M 597.253025,784.650441 l 15.637482,-15.637482 M 618.449952,770.241738 l -22.499408,22.499408 M 594.648063,800.831852 l 28.985675,-28.985675 M 627.244563,775.023576 l -33.898981,33.898981 M 592.043101,817.013263 l 37.052120,-37.052120 M 629.797565,786.047023 l -39.056945,39.056945 M 589.442918,833.189894 l 40.895796,-40.895796 M 626.189668,803.231369 l -38.032769,38.032769 M 586.870881,849.338381 l 38.782286,-38.782286 M 622.941293,820.056193 l -37.356431,37.356431 M 584.298844,865.486867 l 37.782855,-37.782855 M 621.764729,834.809206 l -38.748696,38.748696 M 581.748666,881.613493 l 39.623309,-39.623309 M 621.267657,848.882727 l -40.786357,40.786357 M 579.213933,897.724675 l 42.071876,-42.071876 M 621.367587,862.359246 l -45.207915,45.207915 M 576.687148,913.827910 l 45.374040,-45.374040 M 621.770561,875.532721 l -46.329471,46.329471 M 574.195032,929.896474 l 47.861960,-47.861960 M 622.397912,888.481819 l -49.448938,49.448938 M 571.683762,945.984193 l 51.791997,-51.791997 M 623.806336,900.649844 l -53.182008,53.182008 M 569.555362,961.689043 l 55.150765,-55.150765 M 625.672641,912.359988 l -57.133481,57.133481 M 567.510499,977.310354 l 59.190461,-59.190461 M 627.786639,923.822438 l -61.245886,61.245886 M 565.558893,992.838409 l 63.366757,-63.366757 M 630.114331,935.071196 l -65.475133,65.475133 M 563.711828,1008.261924 l 68.611431,-68.611431 M 666.140611,912.621364 l -103.294396,103.294396 M 561.982487,1023.567713 l 178.276411,-178.276411 M 760.745928,831.592496 l -199.570432,199.570432 M 560.386372,1038.740278 l 215.954198,-215.954198 M 788.170211,817.744663 l -228.918484,228.918484 M 558.941826,1053.761272 l 239.457139,-239.457139 M 805.100585,814.390738 l -248.271987,248.271987 M 557.231797,1069.047751 l 254.012678,-254.012678 M 816.772926,816.294846 l -259.675367,259.675367 M 765.469329,874.386668 l 56.389095,-56.389095 M 679.427976,960.428020 l -121.708331,121.708331 M 774.090232,872.553988 l 52.111935,-52.111935 M 650.646981,995.997240 l -91.331997,91.331997 M 780.154711,873.277734 l 49.707048,-49.707048 M 632.905385,1020.527060 l -70.582226,70.582226 M 786.312300,873.908369 l 46.594144,-46.594144 M 620.536429,1039.684241 l -53.441738,53.441738 M 792.729387,874.279507 l 42.653131,-42.653131 M 612.843401,1054.165494 l -39.788873,39.788873 M 796.664110,877.133009 l 40.708379,-40.708379 M 602.146966,1071.650153 l -21.551413,21.551413 M 799.949961,880.635382 l 38.293171,-38.293171 M 596.297275,1084.288068 l -3.914705,3.914705 M 802.749813,884.623755 l 36.381498,-36.381498 M 840.019490,854.142302 l -34.893672,34.893672 M 807.345277,893.604740 l 33.562392,-33.562392 M 841.795848,865.942393 l -32.520380,32.520380 M 811.030191,903.496274 l 31.653836,-31.653836 M 843.572206,877.742484 l -30.934027,30.934027 M 814.122257,913.980657 l 30.338127,-30.338127 M 845.348564,889.542575 l -29.873580,29.873580 M 816.755131,924.924233 l 29.481612,-29.481612 M 847.124922,901.342666 l -29.192242,29.192242 M 819.110228,936.145584 l 28.902873,-28.902873 M 848.901280,913.142757 l -28.613503,28.613503 M 821.465326,947.366936 l 28.324133,-28.324133 M 850.677638,924.942848 l -28.034763,28.034763 M 823.820423,958.588287 l 27.745393,-27.745393 M 852.453996,936.742939 l -27.456024,27.456024 M 826.175521,969.809639 l 27.166654,-27.166654 M 854.230354,948.543031 l -26.877284,26.877284 M 828.530618,981.030990 l 26.587914,-26.587914 M 856.006711,960.343122 l -26.298544,26.298544 M 830.885716,992.252342 l 26.026331,-26.026331 M 857.995645,971.930637 l -25.932380,25.932380 M 833.240814,1003.473693 l 25.753549,-25.753549 M 860.159100,983.343631 l -25.740737,25.740737 M 835.595911,1014.695044 l 25.822102,-25.822102 M 863.136649,993.942531 l -26.363189,26.363189 M 837.951009,1025.916396 l 26.352652,-26.352652 M 865.916617,1004.739012 l -26.940566,26.940566 M 840.654996,1036.788858 l 27.058716,-27.058716 M 869.634771,1014.597307 l -27.424380,27.424380 M 844.330664,1046.689639 l 27.449560,-27.449560 M 874.123843,1023.684684 l -27.812537,27.812537 M 848.544609,1056.052143 l 28.138100,-28.138100 M 879.557299,1031.827677 l -28.683086,28.683086 M 853.399019,1064.774182 l 29.356828,-29.356828 M 886.341578,1038.619847 l -30.228431,30.228431 M 859.049518,1072.700132 l 31.386297,-31.386297 M 895.323014,1043.214859 l -33.081723,33.081723 M 865.728274,1079.597825 l 35.523949,-35.523949 M 909.396734,1042.717589 l -39.838269,39.838269 M 873.790008,1085.112540 l 45.728452,-45.728452 M 941.562694,1024.128078 l -62.996733,62.996733 M 883.905753,1088.573244 l 117.319319,-117.319319 M 1008.290041,970.977180 l -118.168237,118.168237 M 897.135912,1088.919533 l 115.164726,-115.164726 M 1013.587969,979.255701 l -109.057972,109.057972 M 914.758102,1084.873792 l 98.512138,-98.512138 M 1006.130279,1000.289840 l -79.813977,79.813977 M 942.680382,1070.527961 l 23.923757,-23.923757"
           id="path2178" />
      </g>
    </g>
    <rect
       style="fill:none;stroke:#000000;stroke-width:1.27;stroke-linejoin:round;paint-order:markers fill stroke"
       id="rect2018"
       width="215.89999"
       height="279.39999"
       x="0.63499999"
       y="0.63499999" />
  </g>
</svg>
