<?xml version="1.0" encoding="UTF-8" standalone="no"?>
<!-- Created with Inkscape (http://www.inkscape.org/) -->

<svg
   width="8.5in"
   height="11in"
   viewBox="0 0 215.9 279.4"
   version="1.1"
   id="svg961"
   inkscape:version="1.1.2 (b8e25be833, 2022-02-05)"
   sodipodi:docname="o.svg"
   xmlns:inkscape="http://www.inkscape.org/namespaces/inkscape"
   xmlns:sodipodi="http://sodipodi.sourceforge.net/DTD/sodipodi-0.dtd"
   xmlns="http://www.w3.org/2000/svg"
   xmlns:svg="http://www.w3.org/2000/svg">
  <sodipodi:namedview
     id="namedview963"
     pagecolor="#ffffff"
     bordercolor="#666666"
     borderopacity="1.0"
     inkscape:pageshadow="2"
     inkscape:pageopacity="0.0"
     inkscape:pagecheckerboard="0"
     inkscape:document-units="in"
     showgrid="false"
     units="in"
     inkscape:zoom="0.1702178"
     inkscape:cx="848.91239"
     inkscape:cy="-164.49514"
     inkscape:window-width="1920"
     inkscape:window-height="1017"
     inkscape:window-x="-8"
     inkscape:window-y="-8"
     inkscape:window-maximized="1"
     inkscape:current-layer="layer1" />
  <defs
     id="defs958">
    <rect
       x="1.4687065"
       y="10.280946"
       width="1496.612"
       height="2188.3728"
       id="rect19473" />
    <rect
       x="0"
       y="-2.9374131"
       width="810.72601"
       height="1050.1252"
       id="rect14297" />
    <rect
       x="157.1516"
       y="318.70932"
       width="440.61196"
       height="652.1057"
       id="rect6129" />
  </defs>
  <g
     inkscape:label="Layer 1"
     inkscape:groupmode="layer"
     id="layer1">
    <text
       xml:space="preserve"
       transform="scale(0.26458333)"
       id="text6127"
       style="line-height:1.25;font-family:'Square Peg';font-size:40px;-inkscape-font-specification:'Square Peg';white-space:pre;shape-inside:url(#rect6129)" />
    <text
       xml:space="preserve"
       transform="scale(0.26458333)"
       id="text14295"
       style="line-height:1.25;font-family:'Square Peg';font-size:40px;-inkscape-font-specification:'Square Peg';white-space:pre;shape-inside:url(#rect14297)" />
    <g
       aria-label="o"
       transform="matrix(0.26458333,0,0,0.26458333,-96.371627,-43.911265)"
       id="text19471"
       style="font-size:1333.33px;font-family:'Square Peg';-inkscape-font-specification:'Square Peg, Normal';white-space:pre;fill:none;stroke:#000000;stroke-opacity:1;stroke-width:4.80000006;stroke-miterlimit:4;stroke-dasharray:none">
      <g
         id="g1886">
        <path
           d="m 697.77439,1126.238 q -42.66656,0 -71.99981,-33.3332 -26.6666,-30.6666 -26.6666,-69.3332 0,-71.9998 65.33316,-153.33293 26.6666,-34.66658 57.33319,-61.33318 30.66659,-26.6666 63.99984,-47.99988 6.66665,-3.99999 18.66662,-3.99999 38.66657,0 38.66657,18.66662 0,5.33332 -7.99998,11.99997 v 1.33333 q 19.99995,27.99993 39.9999,58.66652 19.99995,30.66659 19.99995,71.99982 0,34.66657 -18.66662,70.66648 -17.33329,35.99994 -47.99988,67.99984 -29.33326,30.6666 -63.99984,49.3332 -34.66658,18.6666 -66.6665,18.6666 z m 1.33333,-41.3332 q 33.33325,-1.3333 70.66649,-26.6666 37.33324,-26.6666 63.99984,-63.99985 27.99993,-37.33324 29.33326,-70.66648 2.66666,-51.99987 -53.3332,-117.33304 -57.33319,41.33323 -101.33308,97.33309 -51.99987,67.99982 -51.99987,122.66638 0,58.6665 42.66656,58.6665 z"
           id="path1811"
           style="fill:none;stroke:#000000;stroke-opacity:1;stroke-width:4.80000006;stroke-miterlimit:4;stroke-dasharray:none" />
        <path
           style="stroke:#000000;fill:none;stroke-width:4.80000006"
           d="M 715.370217,815.122617 l -27.586556,27.586556 M 659.450007,877.831052 l 91.220857,-91.220857 M 774.886076,769.183208 l -129.149185,129.149185 M 633.106811,917.750697 l 156.826898,-156.826898 M 797.558649,760.087084 l -172.280477,172.280477 M 621.717313,942.716644 l 182.584482,-182.584482 M 810.928509,760.293673 l -196.096711,196.096711 M 611.918004,966.092402 l 205.048901,-205.048901 M 822.641187,762.157444 l -213.388009,213.388009 M 606.818410,984.768446 l 221.379390,-221.379390 M 832.807792,765.567288 l -228.206443,228.206443 M 604.210298,1000.953007 l 232.447943,-232.447943 M 839.118014,772.833515 l -40.987876,40.987876 M 602.346108,1009.605421 l 103.347152,-103.347152 M 839.958194,778.781559 l -26.209823,26.209823 M 602.241370,1016.498383 l 85.463689,-85.463689 M 832.982428,792.545550 l -16.133768,16.133768 M 602.145684,1023.382294 l 76.010261,-76.010261 M 835.801068,796.515134 l -15.894037,15.894037 M 603.077070,1029.239133 l 66.459850,-66.459850 M 838.608371,800.496056 l -15.687354,15.687354 M 603.593061,1035.511366 l 61.065888,-61.065888 M 841.407639,804.485012 l -15.519681,15.519681 M 604.491543,1041.401108 l 55.791816,-55.791816 M 844.191557,808.489319 l -15.386583,15.386583 M 605.650730,1047.030146 l 50.723013,-50.723013 M 846.971717,812.497384 l -15.302775,15.302775 M 607.119239,1052.349861 l 48.352977,-48.352977 M 849.732856,816.524469 l -15.256379,15.256379 M 608.692631,1057.564694 l 46.115283,-46.115283 M 852.490399,820.555150 l -15.266506,15.266506 M 610.746083,1062.299467 l 41.977324,-41.977324 M 855.233116,824.600658 l -15.325934,15.325934 M 612.895860,1066.937914 l 39.689930,-39.689930 M 857.968793,828.653205 l -15.446831,15.446831 M 615.235912,1071.386087 l 37.547216,-37.547216 M 860.693164,832.717059 l -15.629720,15.629720 M 617.753508,1075.656715 l 36.254092,-36.254092 M 863.407533,836.790914 l -15.881151,15.881151 M 620.436993,1079.761455 l 34.015875,-34.015875 M 866.113802,840.872870 l -16.208792,16.208792 M 623.275672,1083.711000 l 32.038776,-32.038776 M 868.807407,844.967490 l -16.614423,16.614423 M 626.259720,1087.515176 l 30.338269,-30.338269 M 871.495812,849.067309 l -17.103368,17.103368 M 629.386067,1091.177054 l 28.943258,-28.943258 M 874.119483,853.231862 l -17.661267,17.661267 M 632.664390,1094.686955 l 27.826705,-27.826705 M 876.592747,857.546823 l -18.186965,18.186965 M 636.089311,1098.050259 l 26.989902,-26.989902 M 878.906257,862.021537 l -18.664263,18.664263 M 639.672032,1101.255763 l 26.284630,-26.284630 M 881.029778,866.686240 l -19.141800,19.141800 M 643.423284,1104.292735 l 25.870214,-25.870214 M 882.994546,871.509697 l -19.589566,19.589566 M 647.351016,1107.153227 l 25.704010,-25.704010 M 884.780095,876.512373 l -20.112195,20.112195 M 651.467490,1109.824977 l 25.831888,-25.831888 M 886.709165,881.371527 l -20.962115,20.962115 M 655.786045,1112.294648 l 26.233168,-26.233168 M 887.740105,887.128812 l -21.177660,21.177660 M 660.321206,1114.547711 l 27.342138,-27.342138 M 889.032563,892.624578 l -22.096899,22.096899 M 665.088826,1116.568316 l 28.772261,-28.772261 M 889.859888,898.585478 l -22.815205,22.815205 M 670.106236,1118.339130 l 30.632101,-30.632101 M 890.754393,904.479197 l -25.077815,25.077815 M 675.092417,1120.141173 l 32.392237,-32.392237 M 891.055401,910.966414 l -27.080273,27.080273 M 681.037818,1120.983997 l 34.994247,-34.994247 M 891.835328,916.974711 l -29.948948,29.948948 M 686.953927,1121.856112 l 39.611785,-39.611785 M 891.506585,924.091679 l -35.567984,35.567984 M 692.543351,1123.054913 l 45.101892,-45.101892 M 891.625153,930.761335 l -42.545448,42.545448 M 699.961942,1122.424546 l 51.205464,-51.205464 M 890.047170,939.127542 l -52.931545,52.931545 M 706.299791,1122.874922 l 61.295152,-61.295152 M 889.856311,946.106627 l -175.657716,175.657716 M 722.331882,1120.419280 l 165.561499,-165.561499 M 885.688975,963.850411 l -154.960651,154.960651 M 739.412971,1116.914639 l 142.114486,-142.114486 M 876.966584,986.149252 l -125.303785,125.303785 M 762.814124,1107.089936 l 105.694327,-105.694327 M 857.989795,1018.702489 l -78.333663,78.333663 M 800.397100,1083.083408 l 42.836144,-42.836144"
           id="path1884" />
      </g>
    </g>
    <rect
       style="fill:none;stroke:#000000;stroke-width:1.27;stroke-linejoin:round;paint-order:markers fill stroke"
       id="rect1729"
       width="215.89999"
       height="279.39999"
       x="0.63499999"
       y="0.63499999" />
  </g>
</svg>
