<?xml version="1.0" encoding="UTF-8" standalone="no"?>
<!-- Created with Inkscape (http://www.inkscape.org/) -->

<svg
   width="8.5in"
   height="11in"
   viewBox="0 0 215.9 279.4"
   version="1.1"
   id="svg961"
   inkscape:version="1.1.2 (b8e25be833, 2022-02-05)"
   sodipodi:docname="s.svg"
   xmlns:inkscape="http://www.inkscape.org/namespaces/inkscape"
   xmlns:sodipodi="http://sodipodi.sourceforge.net/DTD/sodipodi-0.dtd"
   xmlns="http://www.w3.org/2000/svg"
   xmlns:svg="http://www.w3.org/2000/svg">
  <sodipodi:namedview
     id="namedview963"
     pagecolor="#ffffff"
     bordercolor="#666666"
     borderopacity="1.0"
     inkscape:pageshadow="2"
     inkscape:pageopacity="0.0"
     inkscape:pagecheckerboard="0"
     inkscape:document-units="in"
     showgrid="false"
     units="in"
     inkscape:zoom="0.1702178"
     inkscape:cx="848.91239"
     inkscape:cy="-164.49514"
     inkscape:window-width="1920"
     inkscape:window-height="1017"
     inkscape:window-x="-8"
     inkscape:window-y="-8"
     inkscape:window-maximized="1"
     inkscape:current-layer="layer1" />
  <defs
     id="defs958">
    <rect
       x="1.4687065"
       y="10.280946"
       width="1496.612"
       height="2188.3728"
       id="rect19473" />
    <rect
       x="0"
       y="-2.9374131"
       width="810.72601"
       height="1050.1252"
       id="rect14297" />
    <rect
       x="157.1516"
       y="318.70932"
       width="440.61196"
       height="652.1057"
       id="rect6129" />
  </defs>
  <g
     inkscape:label="Layer 1"
     inkscape:groupmode="layer"
     id="layer1">
    <text
       xml:space="preserve"
       transform="scale(0.26458333)"
       id="text6127"
       style="line-height:1.25;font-family:'Square Peg';font-size:40px;-inkscape-font-specification:'Square Peg';white-space:pre;shape-inside:url(#rect6129)" />
    <text
       xml:space="preserve"
       transform="scale(0.26458333)"
       id="text14295"
       style="line-height:1.25;font-family:'Square Peg';font-size:40px;-inkscape-font-specification:'Square Peg';white-space:pre;shape-inside:url(#rect14297)" />
    <g
       aria-label="s"
       transform="matrix(0.26458333,0,0,0.26458333,-96.371627,-43.911265)"
       id="text19471"
       style="font-size:1333.33px;font-family:'Square Peg';-inkscape-font-specification:'Square Peg, Normal';white-space:pre;fill:none;stroke:#000000;stroke-opacity:1;stroke-width:4.80000006;stroke-miterlimit:4;stroke-dasharray:none">
      <g
         id="g1320">
        <path
           d="m 681.10739,1135.5713 q -33.33325,0 -57.33319,-11.9999 -22.66661,-12 -22.66661,-33.3333 0,-14.6666 13.3333,-14.6666 -1.33333,0 21.33328,9.3333 22.66661,8 47.99988,8 77.33314,0 97.33309,-71.9998 7.99998,-30.66664 -55.99986,-101.33312 -45.33322,-49.33321 -45.33322,-111.99972 0,-21.33328 18.66662,-49.33321 18.66662,-29.33326 45.33322,-50.66654 26.6666,-22.66661 50.66654,-22.66661 42.66656,0 47.99988,21.33328 1.33333,3.99999 1.33333,7.99998 1.33333,3.99999 1.33333,7.99998 0,21.33328 -15.99996,21.33328 -9.33331,0 -14.66663,-6.66665 -6.66665,-6.66665 -18.66662,-6.66665 -2.66666,0 -6.66665,0 -3.99999,0 -6.66665,2.66666 -47.99988,23.99994 -54.66653,66.6665 -5.33332,37.33324 57.33319,103.99974 55.99986,59.99984 55.99986,111.99968 0,57.3332 -58.66652,91.9998 -45.33322,27.9999 -101.33308,27.9999 z"
           id="path1257"
           style="fill:none;stroke:#000000;stroke-opacity:1;stroke-width:4.80000006;stroke-miterlimit:4;stroke-dasharray:none" />
        <path
           style="stroke:#000000;fill:none;stroke-width:4.80000006"
           d="M 752.686350,701.563915 l -43.702511,43.702511 M 695.061856,765.976634 l 72.276974,-72.276974 M 778.157637,689.669077 l -89.349908,89.349908 M 685.024060,789.590879 l 100.967419,-100.967419 M 792.671256,688.731907 l -109.436144,109.436144 M 683.089787,805.101600 l 116.578284,-116.578284 M 806.462749,688.516863 l -122.807359,122.807359 M 683.915503,817.852333 l 127.982945,-127.982945 M 817.617131,690.938930 l -46.792139,46.792139 M 684.226531,824.329530 l 51.518644,-51.518644 M 822.901559,692.442727 l -37.746585,37.746585 M 685.184678,830.159608 l 43.457007,-43.457007 M 827.684299,694.448211 l -31.950809,31.950809 M 686.108996,836.023514 l 39.336780,-39.336780 M 831.889193,697.031542 l -30.514720,30.514720 M 687.272321,841.648414 l 37.166060,-37.166060 M 835.348645,700.360314 l -27.803182,27.803182 M 688.572886,847.136073 l 35.373926,-35.373926 M 837.901492,704.595692 l -25.723678,25.723678 M 690.080783,852.416401 l 35.163854,-35.163854 M 839.519364,709.766044 l -23.424617,23.424617 M 691.709743,857.575665 l 34.819932,-34.819932 M 840.371216,715.702417 l -20.889780,20.889780 M 693.527152,862.546480 l 34.313711,-34.313711 M 841.943156,720.918701 l -18.106761,18.106761 M 695.473247,867.388610 l 34.288570,-34.288570 M 842.178237,727.471844 l -12.794966,12.794966 M 697.540530,872.109552 l 34.312983,-34.312983 M 840.458974,735.979332 l -4.143755,4.143755 M 699.754276,876.684030 l 34.333225,-34.333225 M 736.445895,846.780635 l -34.364971,34.364971 M 704.516326,885.498429 l 34.429830,-34.429830 M 741.527277,855.275703 l -34.451255,34.451255 M 709.735405,893.855799 l 34.458200,-34.458200 M 746.936993,863.442435 l -34.455322,34.455322 M 715.345240,901.822413 l 34.405064,-34.405064 M 752.636265,871.319612 l -34.338926,34.338926 M 721.335059,909.409043 l 34.237549,-34.237549 M 758.560619,878.971707 l -34.105008,34.105008 M 727.656326,916.664225 l 33.939829,-33.939829 M 764.675502,886.433274 l -33.807517,33.807517 M 734.057996,923.839004 l 33.737329,-33.737329 M 770.954107,893.731117 l -33.731898,33.731898 M 740.358435,931.115014 l 33.792539,-33.792539 M 777.380668,900.881006 l -33.916444,33.916444 M 746.536836,938.513062 l 34.104034,-34.104034 M 783.903820,907.934303 l -34.330630,34.330630 M 604.173501,1087.664621 l 8.494575,-8.494575 M 787.136580,911.489767 l -34.566768,34.566768 M 604.597473,1094.028874 l 12.715052,-12.715052 M 790.322472,915.092100 l -34.799704,34.799704 M 606.168191,1099.246381 l 15.901895,-15.901895 M 793.458887,918.743909 l -35.031300,35.031300 M 608.145449,1104.057347 l 18.701637,-18.701637 M 796.543018,922.448003 l -35.263853,35.263853 M 610.770681,1108.220340 l 20.872876,-20.872876 M 799.571843,926.207402 l -35.500193,35.500193 M 613.932228,1111.847017 l 22.604346,-22.604346 M 802.542103,930.025366 l -35.743806,35.743806 M 617.533851,1115.033618 l 24.240329,-24.240329 M 805.450281,933.905413 l -35.998989,35.998989 M 621.524264,1117.831430 l 25.968635,-25.968635 M 808.292569,937.851350 l -36.271037,36.271037 M 625.827092,1120.316826 l 26.737822,-26.737822 M 811.064846,941.867296 l -36.567547,36.567547 M 630.490008,1122.442135 l 27.781263,-27.781263 M 813.762643,945.957725 l -36.920584,36.920584 M 635.321021,1124.399347 l 28.863866,-28.863866 M 816.381099,950.127493 l -37.314898,37.314898 M 640.410693,1126.097899 l 29.910862,-29.910862 M 818.889052,954.407765 l -37.990886,37.990886 M 645.664080,1127.632737 l 31.034653,-31.034653 M 821.315575,958.769466 l -38.417273,38.417273 M 651.203249,1128.881792 l 32.563860,-32.563860 M 823.642267,963.230998 l -39.660563,39.660563 M 656.412463,1130.460802 l 34.412111,-34.412111 M 825.911761,967.749729 l -41.090963,41.090963 M 662.902754,1130.758736 l 34.914162,-34.914162 M 827.916735,972.532979 l -42.967361,42.967361 M 669.136883,1131.312831 l 37.161088,-37.161088 M 829.865063,977.372876 l -47.652148,47.652148 M 675.341615,1131.896324 l 39.337508,-39.337508 M 831.624297,982.401866 l -53.083679,53.083679 M 682.281782,1131.744382 l 43.563448,-43.563448 M 833.238720,987.575668 l -63.921008,63.921008 M 689.220853,1131.593535 l 51.764433,-51.764433 M 834.609923,992.992689 l -138.213844,138.213844 M 703.833623,1130.557213 l 132.174490,-132.174490 M 836.657595,1004.521466 l -125.856628,125.856628 M 719.869357,1128.097929 l 117.310850,-117.310850 M 837.298106,1017.457405 l -110.102057,110.102057 M 736.618909,1124.924825 l 100.318722,-100.318722 M 836.525631,1031.806328 l -90.425189,90.425189 M 755.669585,1119.450599 l 80.529894,-80.529894 M 833.385836,1048.522573 l -65.705737,65.705737 M 782.227543,1106.469090 l 46.998448,-46.998448 M 817.387723,1078.097134 l -15.350159,15.350159"
           id="path1318" />
      </g>
    </g>
    <rect
       style="fill:none;stroke:#000000;stroke-width:1.27;stroke-linejoin:round;paint-order:markers fill stroke"
       id="rect1175"
       width="215.89999"
       height="279.39999"
       x="0.63499999"
       y="0.63499999" />
  </g>
</svg>
