<?xml version="1.0" encoding="UTF-8" standalone="no"?>
<!-- Created with Inkscape (http://www.inkscape.org/) -->

<svg
   width="8.5in"
   height="11in"
   viewBox="0 0 215.9 279.4"
   version="1.1"
   id="svg961"
   inkscape:version="1.1.2 (b8e25be833, 2022-02-05)"
   sodipodi:docname="smile.svg"
   xmlns:inkscape="http://www.inkscape.org/namespaces/inkscape"
   xmlns:sodipodi="http://sodipodi.sourceforge.net/DTD/sodipodi-0.dtd"
   xmlns="http://www.w3.org/2000/svg"
   xmlns:svg="http://www.w3.org/2000/svg">
  <sodipodi:namedview
     id="namedview963"
     pagecolor="#ffffff"
     bordercolor="#666666"
     borderopacity="1.0"
     inkscape:pageshadow="2"
     inkscape:pageopacity="0.0"
     inkscape:pagecheckerboard="0"
     inkscape:document-units="in"
     showgrid="false"
     units="in"
     inkscape:zoom="0.9628973"
     inkscape:cx="418.00927"
     inkscape:cy="600.2717"
     inkscape:window-width="1920"
     inkscape:window-height="1017"
     inkscape:window-x="-8"
     inkscape:window-y="-8"
     inkscape:window-maximized="1"
     inkscape:current-layer="layer1" />
  <defs
     id="defs958">
    <rect
       x="1.4687065"
       y="10.280946"
       width="1496.612"
       height="2188.3728"
       id="rect19473" />
    <rect
       x="0"
       y="-2.9374131"
       width="810.72601"
       height="1050.1252"
       id="rect14297" />
    <rect
       x="157.1516"
       y="318.70932"
       width="440.61196"
       height="652.1057"
       id="rect6129" />
  </defs>
  <g
     inkscape:label="Layer 1"
     inkscape:groupmode="layer"
     id="layer1">
    <text
       xml:space="preserve"
       transform="scale(0.26458333)"
       id="text6127"
       style="line-height:1.25;font-family:'Square Peg';font-size:40px;-inkscape-font-specification:'Square Peg';white-space:pre;shape-inside:url(#rect6129)" />
    <text
       xml:space="preserve"
       transform="scale(0.26458333)"
       id="text14295"
       style="line-height:1.25;font-family:'Square Peg';font-size:40px;-inkscape-font-specification:'Square Peg';white-space:pre;shape-inside:url(#rect14297)" />
    <g
       aria-label=":D"
       transform="matrix(0,0.24683264,-0.24655549,0,281.41964,-52.279962)"
       id="text19471"
       style="font-size:1333.33px;font-family:'Square Peg';-inkscape-font-specification:'Square Peg, Normal';white-space:pre;fill:none;stroke:#000000;stroke-opacity:1;stroke-width:5.14807764;stroke-miterlimit:4;stroke-dasharray:none">
      <g
         id="g86839">
        <path
           d="m 457.1081,790.23887 q -10.66664,0 -19.99995,-5.33332 -7.99998,-5.33332 -7.99998,-26.6666 0,-22.66661 7.99998,-39.9999 9.33331,-18.66662 22.66661,-18.66662 31.99992,0 31.99992,41.33323 0,21.33328 -9.33331,35.99991 -9.33331,13.3333 -25.33327,13.3333 z m -15.99996,294.66593 q -10.66664,0 -19.99995,-5.3333 -7.99998,-5.3333 -7.99998,-26.6666 0,-22.6666 7.99998,-39.9999 9.33331,-18.66665 22.66661,-18.66665 31.99992,0 31.99992,41.33325 0,21.3333 -9.33331,35.9999 -9.33331,13.3333 -25.33327,13.3333 z"
           id="path86514"
           style="fill:none;stroke:#000000;stroke-opacity:1;stroke-width:5.14807764;stroke-miterlimit:4;stroke-dasharray:none" />
        <path
           style="stroke:#000000;fill:none;stroke-width:5.14807764"
           d="M 417.225866,1069.526039 l 10.812025,10.824179 M 436.888179,1081.925883 l -19.253951,-19.275594 M 417.202078,1054.933082 l 25.846244,25.875297 M 449.322769,1079.805308 l -32.466960,-32.503455 M 417.814609,1040.977159 l 36.501581,36.542612 M 458.507975,1074.431696 l -40.035362,-40.080365 M 419.976198,1028.572035 l 42.028290,42.075533 M 464.819563,1066.181237 l -43.209982,-43.258553 M 423.543122,1017.573826 l 43.626463,43.675503 M 469.024059,1055.821317 l -43.132045,-43.180529 M 428.671067,1008.138393 l 41.982446,42.029638 M 471.341339,1043.572058 l -39.423887,-39.468203 M 435.859057,1000.765320 l 35.826156,35.866427 M 472.564924,1030.227876 l -31.667176,-31.702773 M 448.097744,998.448622 l 22.838620,22.864293 M 469.862251,1012.953022 l -14.245344,-14.261357 M 435.178220,781.546579 l 1.505522,1.507214 M 447.676214,786.774051 l -14.179454,-14.195393 M 433.424080,765.221325 l 21.145686,21.169455 M 461.816105,786.360694 l -28.634884,-28.667072 M 432.819112,750.046534 l 34.326227,34.364813 M 471.870439,781.857187 l -37.792017,-37.834499 M 434.651522,737.311861 l 41.152172,41.198431 M 479.088451,774.514170 l -42.591506,-42.639382 M 438.252892,726.348137 l 43.429185,43.478004 M 483.874415,764.736371 l -43.606395,-43.655412 M 442.809503,716.340728 l 42.756253,42.804314 M 486.941694,753.237956 l -41.195378,-41.241685 M 449.200346,708.169612 l 38.327289,38.370372 M 487.678833,739.406781 l -34.208273,-34.246726 M 458.597982,703.008670 l 30.004137,30.037865 M 487.109141,724.267306 l -20.874519,-20.897984 M 474.944745,704.804665 l 9.837849,9.848907"
           id="path86837" />
      </g>
      <g
         id="g86844">
        <path
           d="m 741.1071,1140.9046 q -18.66662,0 -18.66662,-26.6666 0,-17.3332 13.3333,-22.6666 34.66658,-10.6666 107.99973,-39.9999 14.66663,-9.3333 34.66658,-23.9999 21.33328,-14.6666 46.66654,-35.99991 17.33329,-13.3333 43.99989,-35.99991 26.6666,-23.99993 59.99988,-61.33317 l 37.3332,-42.66656 q 13.3333,-17.33329 20,-45.33322 2.6666,-11.99997 3.9999,-26.6666 1.3334,-14.66663 1.3334,-31.99992 0,-29.33326 -4,-66.6665 -5.3333,-50.66653 -23.9999,-83.99978 -10.6667,-22.66661 -45.3333,-69.33316 -22.66658,-33.33325 -103.99971,-81.33313 -19.99994,-13.3333 -105.33306,-45.33322 -77.33314,-31.99992 -89.33311,-43.99989 l -33.33325,-33.33324 5.33332,-5.33332 -6.66665,2.66666 q -5.33332,-5.33332 -5.33332,-17.33329 0,-37.33324 25.33327,-37.33324 2.66666,0 7.99998,2.66666 h 2.66666 q 5.33332,6.66665 11.99997,15.99996 6.66665,9.33331 14.66663,19.99995 5.33332,5.33332 85.33312,35.99991 42.66656,14.66662 69.33316,26.66659 27.99992,11.99997 41.33322,19.99995 l 57.33319,37.33324 q 27.99998,21.33328 50.66658,57.33319 33.3332,37.33324 53.3332,82.66646 19.9999,45.33322 29.3332,95.99975 6.6667,41.33323 9.3333,66.6665 4,25.33327 4,31.99992 0,30.66659 -8,61.33318 -11.9999,46.66655 -37.3332,74.66648 l -45.3332,46.66655 q -22.6666,22.6666 -49.3332,49.3332 -25.3333,26.66661 -58.66655,53.33321 -45.33321,37.3332 -91.99976,63.9998 -22.66661,13.3333 -51.99987,17.3333 -34.66658,6.6667 -50.66654,12 -5.33332,2.6666 -7.99998,2.6666 z m -94.66643,-90.6664 q -7.99998,0 -17.33329,-17.3333 -18.66662,-34.66656 -18.66662,-94.6664 v -3.99999 q 0,-33.33325 6.66665,-78.66647 7.99998,-45.33322 21.33328,-102.66641 l 25.33327,-113.33304 q 11.99997,-39.9999 27.99993,-109.33306 l 14.66663,-110.66639 q 3.99999,-33.33325 23.99994,-33.33325 19.99995,0 17.33329,34.66658 l -9.33331,110.66639 q 0,1.33333 -7.99998,33.33325 -6.66665,31.99992 -21.33328,93.33309 -7.99998,23.99994 -21.33328,70.66649 -13.3333,45.33322 -23.99994,98.66642 -10.66664,51.99987 -10.66664,95.99976 0,51.99986 21.33328,81.33313 l -3.99999,1.3333 q 2.66666,14.6667 -5.33332,29.3333 -7.99998,14.6666 -18.66662,14.6666 z"
           id="path86516"
           style="fill:none;stroke:#000000;stroke-opacity:1;stroke-width:5.14807764;stroke-miterlimit:4;stroke-dasharray:none" />
        <path
           style="stroke:#000000;fill:none;stroke-width:5.14807764"
           d="M 634.478559,1039.766590 l 7.119286,7.127289 M 731.076710,1136.473326 l -3.080989,-3.084453 M 628.310656,1026.307182 l 19.785431,19.807671 M 739.697826,1137.819561 l -13.270488,-13.285405 M 623.377023,1014.083432 l 29.763714,29.797171 M 744.933952,1135.777002 l -18.883816,-18.905044 M 620.009673,1003.427726 l 36.922950,36.964455 M 750.041281,1133.605501 l -23.346601,-23.372845 M 618.455496,994.587231 l 41.551121,41.597828 M 755.635817,1131.921754 l -27.625613,-27.656667 M 616.727557,985.572778 l 45.866931,45.918490 M 761.377053,1130.384873 l -30.511920,-30.546219 M 617.041214,978.602216 l 47.709648,47.763278 M 767.203780,1128.933578 l -32.368773,-32.405158 M 615.048936,969.323128 l 51.290356,51.348011 M 773.532684,1127.985025 l -33.418844,-33.456410 M 615.225213,962.215031 l 52.246111,52.304841 M 779.079206,1126.253211 l -33.457963,-33.495572 M 614.914589,954.619487 l 52.563737,52.622823 M 785.081287,1124.977467 l -33.997616,-34.035833 M 614.651588,947.071619 l 55.018491,55.080337 M 791.120654,1123.739052 l -34.611222,-34.650128 M 614.556909,939.692262 l 48.466653,48.521134 M 797.141470,1122.482064 l -35.236558,-35.276167 M 614.540706,932.391470 l 42.438272,42.485977 M 804.097437,1122.161279 l -36.822347,-36.863738 M 613.642928,924.208112 l 40.560557,40.606150 M 809.609643,1120.395110 l -36.985729,-37.027304 M 614.909018,918.191053 l 38.254216,38.297217 M 815.559985,1119.067570 l -37.605435,-37.647707 M 614.419247,910.416160 l 35.617519,35.657556 M 821.361879,1117.591414 l -38.353697,-38.396810 M 615.713652,904.427449 l 35.002528,35.041874 M 826.810551,1115.761640 l -38.251099,-38.294096 M 616.259231,897.689070 l 32.986542,33.023622 M 832.155259,1113.827784 l -38.302975,-38.346031 M 616.470528,890.616033 l 33.386169,33.423698 M 837.313701,1111.707454 l -38.189888,-38.232817 M 617.543759,884.405900 l 31.504740,31.540154 M 842.249564,1109.364294 l -37.865365,-37.907929 M 618.291026,877.869435 l 31.755296,31.790992 M 847.030902,1106.866435 l -37.386317,-37.428343 M 619.091257,871.385995 l 30.517078,30.551382 M 851.656045,1104.212206 l -36.771359,-36.812693 M 619.940753,864.951874 l 30.096910,30.130741 M 856.258735,1101.535498 l -36.141048,-36.181674 M 620.581980,858.309251 l 29.984335,30.018040 M 860.828754,1098.826083 l -35.478068,-35.517948 M 621.878125,852.322282 l 29.309448,29.342395 M 865.350554,1096.068394 l -34.780439,-34.819535 M 622.984037,846.144865 l 28.911276,28.943775 M 869.845653,1093.283975 l -34.065963,-34.104257 M 624.142495,840.020054 l 28.794973,28.827341 M 874.310246,1090.469016 l -33.320982,-33.358437 M 625.294710,833.888993 l 28.727988,28.760281 M 878.745035,1087.624218 l -32.546196,-32.582780 M 626.493084,827.804143 l 28.591914,28.624054 M 883.139761,1084.739314 l -32.601535,-32.638182 M 627.685224,821.713052 l 28.437457,28.469424 M 887.504350,1081.824237 l -32.589657,-32.626290 M 628.920675,815.665320 l 28.213445,28.245159 M 891.841093,1078.881284 l -32.587187,-32.623818 M 630.147335,809.608788 l 27.970407,28.001848 M 896.150618,1075.911082 l -32.589815,-32.626448 M 631.417315,803.595624 l 27.654718,27.685804 M 900.423948,1072.904644 l -32.584461,-32.621089 M 632.206362,797.100986 l 27.880954,27.912295 M 904.667594,1069.868489 l -32.574204,-32.610820 M 633.976112,791.588155 l 27.341859,27.372594 M 908.885798,1066.806863 l -32.558228,-32.594827 M 635.278328,785.607263 l 27.296576,27.327259 M 913.079121,1063.720328 l -32.542817,-32.579398 M 636.591061,779.636901 l 27.264240,27.294888 M 917.236357,1060.597666 l -32.420094,-32.456537 M 637.923440,773.686206 l 27.236095,27.266710 M 921.367765,1057.449147 l -32.303085,-32.339396 M 639.256905,767.736599 l 27.231078,27.261688 M 925.475906,1054.277335 l -32.198784,-32.234978 M 640.617570,761.814221 l 27.223465,27.254066 M 929.561282,1051.082732 l -32.104401,-32.140490 M 641.781102,755.694490 l 27.437980,27.468823 M 933.607389,1047.848816 l -32.018060,-32.054051 M 643.319339,749.949886 l 27.303190,27.333881 M 937.634494,1044.595876 l -31.939140,-31.975043 M 644.649901,743.997372 l 27.401889,27.432691 M 941.647004,1041.328325 l -31.869646,-31.905470 M 645.980463,738.044859 l 27.526822,27.557764 M 945.675468,1038.076746 l -31.852099,-31.887903 M 647.311025,732.092345 l 27.678419,27.709532 M 949.676804,1034.798009 l -31.832594,-31.868377 M 648.641587,726.139831 l 27.857120,27.888434 M 953.650309,1031.491410 l -31.803010,-31.838760 M 649.972149,720.187318 l 28.063375,28.094921 M 957.595255,1028.156219 l -31.778190,-31.813911 M 651.302711,714.234804 l 28.297643,28.329453 M 961.510888,1024.791682 l -31.656537,-31.692122 M 652.633273,708.282290 l 28.560395,28.592499 M 965.396428,1021.397018 l -31.458648,-31.494011 M 653.963835,702.329777 l 28.852110,28.884542 M 969.251065,1017.971417 l -31.254402,-31.289535 M 655.294397,696.377263 l 29.155957,29.188731 M 973.073963,1014.514041 l -31.038379,-31.073268 M 656.624959,690.424750 l 29.450729,29.483834 M 976.864253,1011.024020 l -30.813889,-30.848526 M 657.955521,684.472236 l 29.751410,29.784853 M 980.621035,1007.500454 l -30.569920,-30.604283 M 659.286083,678.519722 l 30.061401,30.095193 M 984.343376,1003.942408 l -30.303298,-30.337361 M 660.616645,672.567209 l 30.380153,30.414303 M 988.030308,1000.348913 l -30.015460,-30.049200 M 661.947207,666.614695 l 30.707444,30.741961 M 991.680825,996.718962 l -29.704043,-29.737433 M 663.277769,660.662181 l 31.049498,31.084400 M 995.293884,993.051511 l -29.362073,-29.395079 M 664.608331,654.709668 l 31.396623,31.431915 M 998.868402,989.345476 l -28.994232,-29.026824 M 665.938893,648.757154 l 31.769062,31.804773 M 1002.495262,985.691842 l -28.743448,-28.775758 M 666.897537,642.432305 l 32.526668,32.563231 M 1006.135502,982.051602 l -28.589153,-28.621290 M 668.818688,637.071044 l 32.333094,32.369439 M 1009.775741,978.411363 l -28.469781,-28.501783 M 670.462107,631.431739 l 32.454850,32.491332 M 1013.415981,974.771123 l -28.382968,-28.414873 M 672.056192,625.743044 l 32.654743,32.691450 M 1017.056221,971.130883 l -28.326558,-28.358400 M 673.660599,620.064684 l 32.542298,32.578878 M 1020.696460,967.490644 l -28.298582,-28.330393 M 675.206621,614.327872 l 32.391618,32.428029 M 1024.336700,963.850404 l -28.297238,-28.329047 M 676.464308,608.302401 l 32.529273,32.565839 M 1027.976940,960.210164 l -28.320872,-28.352707 M 678.271915,602.827470 l 32.117007,32.153109 M 1031.617179,956.569925 l -28.367964,-28.399852 M 679.775890,597.048563 l 32.008375,32.044355 M 1035.257419,952.929685 l -28.437116,-28.469082 M 681.267066,591.256845 l 31.896485,31.932340 M 1038.897659,949.289445 l -28.527038,-28.559105 M 682.733945,585.440801 l 31.806966,31.842720 M 1042.537898,945.649206 l -28.636540,-28.668730 M 684.203741,579.627678 l 31.704687,31.740326 M 1046.178138,942.008966 l -28.764519,-28.796853 M 685.637650,573.778627 l 31.633806,31.669365 M 1049.804249,938.354582 l -28.895827,-28.928308 M 687.071559,567.929577 l 31.552184,31.587652 M 1053.391760,934.661554 l -29.006276,-29.038882 M 688.495570,562.070617 l 31.474435,31.509816 M 1056.979271,930.968526 l -29.141357,-29.174115 M 689.899983,556.192037 l 31.401278,31.436576 M 1060.566782,927.275499 l -29.276439,-29.309348 M 690.959053,549.967727 l 31.668597,31.704195 M 1064.154293,923.582471 l -29.452123,-29.485230 M 692.692428,544.418480 l 31.236951,31.272064 M 1067.741804,919.889444 l -29.641952,-29.675272 M 694.070297,538.513326 l 31.147836,31.182849 M 1071.329315,916.196416 l -29.831781,-29.865314 M 695.592980,532.753149 l 30.898223,30.932955 M 1074.916826,912.503388 l -30.021609,-30.055356 M 696.445318,526.321874 l 31.504234,31.539648 M 1078.504337,908.810361 l -30.211438,-30.245398 M 697.297656,519.890598 l 32.101582,32.137667 M 1082.091848,905.117333 l -30.401267,-30.435440 M 698.149993,513.459323 l 32.685412,32.722153 M 1085.679359,901.424305 l -30.591095,-30.625482 M 699.002331,507.028048 l 33.261107,33.298495 M 1089.266870,897.731278 l -30.780924,-30.815524 M 699.854669,500.596772 l 33.794558,33.832546 M 1092.854381,894.038250 l -30.970753,-31.005566 M 700.707006,494.165497 l 34.545563,34.584395 M 1096.320196,890.223390 l -31.038885,-31.073776 M 701.559344,487.734221 l 33.609789,33.647570 M 1099.603744,886.226058 l -30.924751,-30.959514 M 702.411682,481.302946 l 33.323980,33.361439 M 1102.741433,882.082702 l -30.892817,-30.927543 M 703.264020,474.871670 l 33.038170,33.075308 M 1105.736045,877.796109 l -30.979723,-31.014547 M 704.116357,468.440395 l 32.752361,32.789177 M 1108.590302,873.369004 l -31.133260,-31.168257 M 704.968695,462.009119 l 32.466551,32.503047 M 1111.292150,868.789317 l -31.487795,-31.523190 M 705.821033,455.577844 l 32.180742,32.216916 M 1113.869347,864.084840 l -31.643573,-31.679143 M 706.673370,449.146568 l 31.894932,31.930785 M 1116.314512,859.248183 l -31.976658,-32.012602 M 707.525708,442.715293 l 31.609123,31.644654 M 1118.630114,854.281816 l -32.356143,-32.392514 M 708.378046,436.284017 l 31.323313,31.358524 M 1120.818562,849.188153 l -33.180553,-33.217851 M 709.230384,429.852742 l 31.037504,31.072393 M 1122.882206,843.969545 l -33.294162,-33.331587 M 710.082721,423.421466 l 30.751695,30.786262 M 1124.823341,838.628291 l -33.844728,-33.882773 M 710.420597,416.475151 l 30.980347,31.015172 M 1126.644202,833.166628 l -34.503268,-34.542053 M 712.063160,410.834989 l 29.904312,29.937928 M 1128.346973,827.586741 l -35.215883,-35.255468 M 713.419018,404.907800 l 29.114982,29.147710 M 1129.933780,821.890761 l -36.055569,-36.096099 M 715.877779,400.084753 l 27.222750,27.253351 M 1131.411604,816.085674 l -37.397257,-37.439294 M 718.784045,395.709715 l 24.883012,24.910983 M 1133.037679,810.429006 l -37.915061,-37.957681 M 722.691352,392.336843 l 21.707539,21.731940 M 1134.030634,804.138506 l -38.520453,-38.563753 M 728.036089,390.403016 l 16.169136,16.187312 M 1135.129866,797.954402 l -39.387676,-39.431951 M 734.434297,389.523845 l 9.023633,9.033777 M 1136.116771,791.657845 l -41.216396,-41.262727 M 1094.758710,742.968723 l 42.153675,42.201059 M 1137.545191,778.518729 l -41.801181,-41.848170 M 691.325485,324.512861 l 36.085065,36.125628 M 1138.498979,772.189018 l -42.984343,-43.032661 M 683.268630,309.162378 l 57.644176,57.708973 M 1138.336932,764.742217 l -43.159815,-43.208331 M 683.198910,301.808008 l 74.483492,74.567218 M 1138.340325,757.461043 l -43.603822,-43.652837 M 684.129764,295.455337 l 87.566718,87.665150 M 1137.767023,749.602525 l -43.569481,-43.618457 M 685.123297,289.165417 l 95.602437,95.709902 M 1136.973402,741.523440 l -43.408707,-43.457502 M 686.685632,283.444936 l 110.260655,110.384597 M 1135.016721,732.279988 l -42.174558,-42.221966 M 689.084910,278.562340 l 117.968120,118.100726 M 1134.965964,724.944604 l -42.927971,-42.976226 M 692.389785,274.586358 l 125.386706,125.527651 M 1132.915207,715.606970 l -41.830106,-41.877126 M 696.829512,271.746505 l 132.119621,132.268135 M 1131.846651,707.252642 l -42.411722,-42.459396 M 702.728060,270.367113 l 142.149794,142.309583 M 1130.697317,698.817444 l -42.256032,-42.303532 M 709.329316,269.691217 l 22.216765,22.241739 M 854.144010,414.668695 l -101.888572,-102.003104 M 1084.519661,645.303309 l 44.959945,45.010484 M 868.681959,421.938415 l -104.418154,-104.535529 M 1081.334358,634.829855 l 46.869144,46.921829 M 881.759016,427.745601 l -101.642282,-101.756537 M 1078.329115,624.536662 l 48.548021,48.602594 M 893.398878,432.113976 l -100.043772,-100.156230 M 1073.685656,612.603412 l 51.821541,51.879793 M 911.680350,443.131426 l -106.378130,-106.497708 M 1065.263737,596.887455 l 58.633078,58.698987 M 927.036345,451.220111 l -109.867410,-109.990911 M 1058.402512,582.733946 l 63.607503,63.679003 M 948.960307,465.884147 l -119.947738,-120.082570 M 1044.578009,561.609331 l 77.575000,77.662201 M 975.143906,484.812607 l -135.264567,-135.416617 M 1026.078717,535.804674 l 91.772403,91.875564 M 1114.451618,616.992342 l -264.314678,-264.611791 M 860.060550,355.030745 l 253.638964,253.924076 M 1109.381333,597.347215 l -234.420771,-234.684280 M 884.970203,365.399256 l 220.077381,220.324767 M 1100.686564,574.073530 l -201.760953,-201.987750 M 911.979733,377.870004 l 184.306832,184.514009 M 1087.486905,546.289891 l -163.748989,-163.933057 M 937.483213,388.833010 l 145.500983,145.664539 M 1069.684699,513.898531 l -102.719472,-102.834938 M 987.780589,424.617783 l 59.590075,59.657059 M 1028.744429,458.343098 l -30.252242,-30.286248"
           id="path86842" />
      </g>
    </g>
  </g>
</svg>
