<?xml version="1.0" encoding="utf-8" ?>
<svg xmlns="http://www.w3.org/2000/svg" xmlns:cc="http://creativecommons.org/ns" xmlns:dc="http://purl.org/dc/elements/1.1/" xmlns:ev="http://www.w3.org/2001/xml-events" xmlns:inkscape="http://www.inkscape.org/namespaces/inkscape" xmlns:rdf="http://www.w3.org/1999/02/22-rdf-syntax-ns" xmlns:sodipodi="http://sodipodi.sourceforge.net/DTD/sodipodi-0.dtd" xmlns:xlink="http://www.w3.org/1999/xlink" baseProfile="tiny" height="21.59cm" version="1.2" viewBox="0 0 1056.0 816.0" width="27.94cm">
  <metadata>
    <rdf:RDF>
      <cc:Work>
        <dc:format>image/svg+xml</dc:format>
        <dc:source>vpype read -a stroke --no-crop 'C:/Users/lewi0/Desktop/lewi0622.github.io/images/Logo Letters/smile.svg' scaleto 8.5in 11in rotate 90 layout -l 8.5x11in linemerge linesort reloop linesimplify write 'C:/Users/lewi0/Desktop/lewi0622.github.io/images/Logo Letters/smile_PROCESSED.svg'
</dc:source>
        <dc:date>2023-04-29T13:44:50.482245</dc:date>
      </cc:Work>
    </rdf:RDF>
  </metadata>
  <defs/>
  <g fill="none" id="layer1" inkscape:groupmode="layer" inkscape:label="1" stroke="#000000" stroke-width="4.8" style="display:inline">
    <polygon points="853.1882,367.1636 852.2917,374.1039 850.8304,381.0869 848.9583,387.3775 846.4672,393.6747 843.8156,398.5984 840.8144,402.94 837.627,406.4132 834.2533,409.0182 830.3883,410.8604 826.3046,411.6834 820.6985,411.5158 815.3667,410.5254 810.9519,408.8765 807.0792,406.5281 803.7487,403.4802 801.1416,400.0237 799.3007,396.6278 797.7945,392.8001 796.6231,388.5405 795.7268,383.4012 795.2289,377.7479 795.1261,371.8793 795.4145,366.0278 796.1066,360.4644 797.1108,355.5562 798.463,350.8964 800.1634,346.485 802.3839,342.012 804.074,339.2469 806.8681,335.8319 809.6536,333.2176 812.3604,331.2639 816.2639,329.2471 820.1376,327.989 824.686,327.2607 829.4361,327.1941 834.3719,327.7661 838.7843,328.868 843.7578,330.8498 847.1895,332.8967 848.9978,334.8905 850.6445,337.7677 851.8303,341.0052 852.7196,344.8349 853.3125,349.2567 853.6223,354.8048"/>
    <line x1="827.1751" x2="845.6306" y1="334.842" y2="353.2974"/>
    <line x1="844.5205" x2="817.8253" y1="365.7793" y2="339.0841"/>
    <line x1="811.0886" x2="842.3253" y1="345.9394" y2="377.1761"/>
    <line x1="839.118" x2="806.9184" y1="387.5608" y2="355.3612"/>
    <line x1="803.7084" x2="833.9979" y1="365.7431" y2="396.0326"/>
    <line x1="826.6584" x2="803.6389" y1="402.2851" y2="379.2657"/>
    <line x1="803.552" x2="814.8931" y1="392.7707" y2="404.1119"/>
    <line x1="845.4696" x2="840.3815" y1="339.5444" y2="334.4563"/>
    <line x1="662.139" x2="644.7524" y1="298.5387" y2="281.1521"/>
    <line x1="646.6662" x2="664.3833" y1="269.474" y2="287.191"/>
    <line x1="666.5536" x2="648.672" y1="275.7693" y2="257.8877"/>
    <line x1="650.7568" x2="668.6411" y1="246.3806" y2="264.2649"/>
    <line x1="670.2928" x2="652.7291" y1="252.3245" y2="234.7609"/>
    <line x1="651.3722" x2="671.7761" y1="219.812" y2="240.2159"/>
    <line x1="674.5761" x2="651.5494" y1="229.4239" y2="206.3972"/>
    <line x1="650.7466" x2="674.6957" y1="192.0025" y2="215.9516"/>
    <line x1="675.2898" x2="648.4611" y1="202.9536" y2="176.125"/>
    <line x1="644.8973" x2="676.3272" y1="158.9692" y2="190.3991"/>
    <line x1="675.6442" x2="633.5262" y1="176.1241" y2="134.0061"/>
    <line x1="635.0977" x2="675.7392" y1="121.9856" y2="162.6271"/>
    <line x1="673.9893" x2="638.0194" y1="147.2853" y2="111.3153"/>
    <line x1="642.1342" x2="672.7222" y1="101.8382" y2="132.4262"/>
    <line x1="668.1256" x2="648.5318" y1="114.2376" y2="94.6438"/>
    <polygon points="633.3497,297.8663 638.8005,268.7234 640.8392,254.778 642.3843,241.5473 643.524,228.2753 644.2078,215.3449 644.4353,202.2945 644.1534,191.5052 643.3948,181.6838 642.1582,172.3698 640.4436,163.563 638.2509,155.2636 635.5803,147.4715 632.4316,140.1867 628.6364,133.1261 624.5109,126.878 628.2468,125.6341 627.627,118.3365 627.89,114.3229 628.501,110.6741 630.9371,103.0116 634.722,95.7089 638.3953,90.7667 642.331,87.266 646.5291,85.2068 648.7265,84.7177 651.1456,84.6022 653.1049,85.006 655.1057,85.9483 657.4061,87.6521 659.495,89.7386 663.7972,95.5271 668.4127,103.7704 672.4192,112.7994 675.844,122.617 678.6871,133.2233 680.9484,144.6182 682.5828,156.3964 683.6725,168.9132 684.2079,181.7148 684.2615,196.6948 683.8551,209.9288 682.9453,224.0677 681.5323,239.1114 679.616,255.06 678.0589,266.1951 675.94,277.8759 667.7673,318.7787 634.4733,467.7073 628.5923,488.2351 622.3317,511.8658 608.322,569.7073 594.4109,674.6094 592.9069,682.6861 591.3714,687.8955 589.3138,692.7188 586.8463,696.6889 584.2047,699.5965 581.2138,701.7772 577.5794,703.3194 573.5352,704.0084 569.2679,703.8283 566.3394,703.0661 563.7673,701.7595 561.3495,699.6934 559.5257,697.2435 557.9312,693.9198 556.8558,690.3266 556.0845,685.7453 555.7575,681.0088 556.0194,671.7073 564.7746,568.1397 572.2083,537.3658 580.3028,500.6707 592.1331,450.2927 603.2156,414.7274 617.5119,365.0442 625.7536,332.4225"/>
    <line x1="570.4005" x2="552.8249" y1="30.1045" y2="12.5288"/>
    <line x1="562.7493" x2="572.2312" y1="8.8613" y2="18.3432"/>
    <line x1="564.0263" x2="542.046" y1="37.3222" y2="15.342"/>
    <line x1="531.6309" x2="553.4512" y1="18.5188" y2="40.3392"/>
    <line x1="543.3184" x2="520.4467" y1="43.7983" y2="20.9266"/>
    <line x1="507.4919" x2="533.2911" y1="21.5638" y2="47.363"/>
    <line x1="523.3384" x2="497.366" y1="51.0022" y2="25.0299"/>
    <line x1="486.7323" x2="513.447" y1="27.9882" y2="54.7028"/>
    <line x1="503.595" x2="476.5769" y1="58.4428" y2="31.4248"/>
    <line x1="467.5436" x2="493.7688" y1="35.9834" y2="62.2086"/>
    <line x1="483.9996" x2="458.9048" y1="66.0314" y2="40.9365"/>
    <line x1="450.4014" x2="474.2477" y1="46.0251" y2="69.8715"/>
    <line x1="464.5165" x2="442.0117" y1="73.7322" y2="51.2274"/>
    <line x1="433.7553" x2="455.8767" y1="56.5631" y2="78.6844"/>
    <line x1="447.7514" x2="425.6108" y1="84.1511" y2="62.0105"/>
    <line x1="417.5867" x2="439.744" y1="67.5784" y2="89.7357"/>
    <line x1="431.821" x2="409.6694" y1="95.4047" y2="73.2531"/>
    <line x1="401.8639" x2="423.8831" y1="79.0396" y2="101.0588"/>
    <line x1="415.9999" x2="394.1574" y1="106.7675" y2="84.925"/>
    <line x1="386.558" x2="408.244" y1="90.9176" y2="112.6036"/>
    <line x1="400.6085" x2="379.0473" y1="118.56" y2="96.9989"/>
    <line x1="371.5415" x2="393.0789" y1="103.085" y2="124.6224"/>
    <line x1="385.6364" x2="364.1404" y1="130.7719" y2="109.2759"/>
    <line x1="356.8497" x2="378.0406" y1="115.5772" y2="136.7681"/>
    <line x1="370.4809" x2="349.6755" y1="142.8004" y2="121.995"/>
    <line x1="342.6242" x2="362.9998" y1="128.5356" y2="148.9112"/>
    <line x1="355.5638" x2="335.7028" y1="155.0673" y2="135.2062"/>
    <line x1="328.9189" x2="348.1728" y1="142.0143" y2="161.2682"/>
    <line x1="340.8785" x2="322.1927" y1="167.5659" y2="148.8801"/>
    <line x1="315.3929" x2="333.8259" y1="155.6723" y2="174.1053"/>
    <line x1="326.8939" x2="308.5931" y1="180.7652" y2="162.4645"/>
    <line x1="301.7933" x2="320.0671" y1="169.2566" y2="187.5304"/>
    <line x1="313.333" x2="294.9935" y1="194.3883" y2="176.0488"/>
    <line x1="288.1937" x2="306.6807" y1="182.841" y2="201.328"/>
    <line x1="300.1012" x2="281.3939" y1="208.3405" y2="189.6331"/>
    <line x1="274.6569" x2="293.5872" y1="196.4882" y2="215.4185"/>
    <line x1="287.1382" x2="267.9556" y1="222.5615" y2="203.3788"/>
    <line x1="261.2543" x2="280.7747" y1="210.2695" y2="229.7899"/>
    <line x1="274.428" x2="254.553" y1="237.0352" y2="217.1602"/>
    <line x1="247.8517" x2="268.0813" y1="224.0508" y2="244.2805"/>
    <line x1="261.7346" x2="241.1503" y1="251.5257" y2="230.9415"/>
    <line x1="234.5744" x2="255.3878" y1="237.9576" y2="258.771"/>
    <line x1="249.197" x2="228.6106" y1="266.1721" y2="245.5857"/>
    <line x1="223.1181" x2="243.8331" y1="253.6852" y2="274.4002"/>
    <line x1="239.2533" x2="218.3601" y1="283.4124" y2="262.5192"/>
    <line x1="214.0022" x2="235.466" y1="271.7532" y2="293.217"/>
    <line x1="232.0138" x2="210.1319" y1="303.3569" y2="281.4749"/>
    <line x1="206.7301" x2="229.7226" y1="291.6651" y2="314.6576"/>
    <line x1="228.6879" x2="203.7443" y1="327.2149" y2="302.2713"/>
    <line x1="200.269" x2="226.1494" y1="312.3879" y2="338.2684"/>
    <line x1="226.9469" x2="199.232" y1="352.6579" y2="324.9429"/>
    <line x1="197.5547" x2="227.8655" y1="336.8576" y2="367.1684"/>
    <line x1="225.2299" x2="195.1682" y1="378.1248" y2="348.0631"/>
    <line x1="195.5252" x2="225.7723" y1="362.0121" y2="392.2591"/>
    <line x1="226.8268" x2="196.5931" y1="406.9056" y2="376.672"/>
    <line x1="198.468" x2="229.6539" y1="392.1388" y2="423.3247"/>
    <line x1="232.8378" x2="203.4408" y1="440.1006" y2="410.7036"/>
    <line x1="205.4539" x2="237.4285" y1="426.3087" y2="458.2833"/>
    <line x1="243.2104" x2="208.8466" y1="477.6572" y2="443.2934"/>
    <line x1="210.8358" x2="255.4132" y1="458.8745" y2="503.4519"/>
    <line x1="222.3635" x2="432.1387" y1="511.1782" y2="720.9534"/>
    <line x1="410.7693" x2="230.4842" y1="713.176" y2="532.8909"/>
    <line x1="242.8124" x2="387.5951" y1="558.811" y2="703.5938"/>
    <line x1="407.0118" x2="494.546" y1="655.0506" y2="742.5847"/>
    <line x1="475.8491" x2="372.1932" y1="737.4798" y2="633.8239"/>
    <line x1="331.6206" x2="259.4393" y1="661.2112" y2="589.0299"/>
    <line x1="274.7332" x2="210.435" y1="536.3639" y2="472.0658"/>
    <line x1="218.4582" x2="456.3368" y1="493.6809" y2="731.5596"/>
    <line x1="485.0409" x2="599.4687" y1="692.3037" y2="806.7315"/>
    <line x1="606.6576" x2="504.7314" y1="800.3284" y2="698.4023"/>
    <line x1="529.3206" x2="609.9093" y1="709.3994" y2="789.9882"/>
    <line x1="612.2533" x2="550.8425" y1="778.7402" y2="717.3294"/>
    <line x1="570.1054" x2="563.4299" y1="695.8163" y2="689.1409"/>
    <line x1="565.1915" x2="579.0032" y1="677.3104" y2="691.1222"/>
    <line x1="584.0284" x2="566.2497" y1="682.5553" y2="664.7767"/>
    <line x1="567.308" x2="586.8288" y1="652.243" y2="671.7638"/>
    <line x1="586.8823" x2="568.3662" y1="658.2254" y2="639.7093"/>
    <line x1="569.4245" x2="588.4745" y1="627.1755" y2="646.2255"/>
    <line x1="590.0666" x2="570.4827" y1="634.2257" y2="614.6418"/>
    <line x1="571.541" x2="591.6587" y1="602.1081" y2="622.2258"/>
    <line x1="593.2508" x2="572.5992" y1="610.226" y2="589.5743"/>
    <line x1="571.7915" x2="594.843" y1="575.1746" y2="598.2261"/>
    <line x1="596.4351" x2="575.2767" y1="586.2263" y2="565.0679"/>
    <line x1="577.9393" x2="598.0272" y1="554.1384" y2="574.2264"/>
    <line x1="600.6134" x2="580.7603" y1="563.2206" y2="543.3675"/>
    <line x1="583.1351" x2="602.6637" y1="532.1503" y2="551.6789"/>
    <line x1="605.2874" x2="585.5753" y1="540.7106" y2="520.9985"/>
    <line x1="588.0641" x2="607.9463" y1="509.8954" y2="529.7775"/>
    <line x1="610.6248" x2="590.5902" y1="518.864" y2="498.8294"/>
    <line x1="593.1453" x2="613.3866" y1="487.7926" y2="508.0339"/>
    <line x1="616.2052" x2="595.7262" y1="497.2605" y2="476.7815"/>
    <line x1="598.3326" x2="619.0918" y1="465.7959" y2="486.5551"/>
    <line x1="622.0608" x2="600.8085" y1="475.9322" y2="454.6799"/>
    <line x1="604.0321" x2="625.579" y1="444.3115" y2="465.8584"/>
    <line x1="627.6227" x2="607.3995" y1="454.3101" y2="434.0869"/>
    <line x1="610.5692" x2="630.1081" y1="423.6646" y2="443.2035"/>
    <line x1="632.5935" x2="613.6903" y1="432.097" y2="413.1938"/>
    <line x1="616.7723" x2="635.079" y1="402.6838" y2="420.9904"/>
    <line x1="637.5644" x2="619.8221" y1="409.8839" y2="392.1416"/>
    <line x1="622.8719" x2="640.0498" y1="381.5994" y2="398.7774"/>
    <line x1="642.5353" x2="625.8538" y1="387.6708" y2="370.9893"/>
    <line x1="628.731" x2="645.0207" y1="360.2745" y2="376.5643"/>
    <line x1="647.5061" x2="631.5068" y1="365.4577" y2="349.4584"/>
    <line x1="634.1846" x2="650.9366" y1="338.5442" y2="355.2962"/>
    <line x1="652.5611" x2="636.7673" y1="343.3287" y2="327.5349"/>
    <line x1="639.2579" x2="655.034" y1="316.4335" y2="332.2096"/>
    <line x1="657.4581" x2="641.3248" y1="321.0418" y2="304.9085"/>
    <line x1="642.9424" x2="659.8284" y1="292.9341" y2="309.82"/>
    <line x1="824.8098" x2="819.6602" y1="128.597" y2="123.4474"/>
    <line x1="817.136" x2="838.5291" y1="107.3311" y2="128.7243"/>
    <line x1="846.9446" x2="818.5206" y1="123.5478" y2="95.1238"/>
    <line x1="820.9538" x2="852.426" y1="83.965" y2="115.4372"/>
    <line x1="856.1006" x2="824.5348" y1="105.5198" y2="73.954"/>
    <line x1="830.2655" x2="859.5018" y1="66.0928" y2="95.3291"/>
    <line x1="861.0119" x2="838.8436" y1="83.2471" y2="61.0789"/>
    <polygon points="859.0008,123.2949 856.5258,127.0335 854.1876,129.8827 851.4667,132.4756 848.9074,134.2936 845.9407,135.7408 843.1601,136.5277 840.6005,136.8172 836.7832,136.715 832.3684,136.1154 828.6714,135.1143 825.3091,133.6814 822.2815,131.8166 819.5886,129.52 817.2304,126.7915 815.207,123.6312 813.5182,120.039 812.1642,116.015 811.1448,111.5591 810.4146,106.2056 810.0951,100.8468 810.1264,94.854 810.5147,89.5064 811.3221,84.0252 812.4334,79.1935 813.7681,74.9539 815.5488,70.5998 817.6777,66.4941 819.7516,63.357 822.3501,60.3692 825.1824,57.8483 828.2483,55.7942 831.5479,54.2069 836.56,52.769 841.6242,52.2532 847.0576,52.5193 852.6377,53.6384 857.2996,55.3046 861.5328,57.5116 864.1059,60.22 865.975,63.7743 867.5876,69.5227 868.4414,76.7873 868.5303,85.8266 867.8857,94.6097 866.6091,102.553 864.6864,110.0662 861.8393,117.8013"/>
    <line x1="850.4572" x2="860.2848" y1="59.1006" y2="68.9281"/>
    <polygon points="371.9248,630.554 403.7961,650.2101 417.8739,657.493 430.7251,663.3207 446.3939,669.9525 470.0618,679.4197 498.7356,690.3659 530.8037,704.0241 547.7584,711.7346 561.1825,718.3025 571.5393,723.9324 578.8288,728.6244 582.0786,731.3233 613.3032,762.5122 608.322,767.4878 614.5485,765.0 616.1622,766.9657 617.6012,769.647 618.8188,773.5998 619.4412,778.2959 619.4761,784.4088 618.9917,790.8828 618.0975,796.2007 616.7741,800.8867 615.0214,804.9409 613.0378,808.1022 610.4625,810.9454 607.7247,812.9966 604.6263,814.517 601.1672,815.5064 598.0688,815.921 595.0658,815.944 591.9837,815.1044 588.3972,813.5122 585.9066,813.5122 561.0006,779.9268 558.7254,778.3483 552.9234,775.3727 543.5267,771.1499 515.3014,759.5657 481.3013,746.3415 454.1249,736.6557 431.2711,727.7667 405.6448,716.6925 388.7814,708.7121 377.9414,702.8049 324.3934,667.9756 313.8129,659.1793 303.6566,649.2177 296.8738,641.6387 290.0545,633.189 283.4539,624.1387 277.072,614.4878 269.8185,606.0683 262.9198,597.4363 256.3758,588.5916 250.1865,579.5344 242.0414,566.3666 234.7783,553.1104 228.19,539.4498 221.7695,524.2884 215.749,508.1451 210.3057,491.2974 205.578,474.0922 201.566,456.5296 199.8634,447.8049 194.9748,415.8335 191.1463,385.6097 188.4663,367.2914 187.4702,357.6097 187.7842,342.957 189.1813,327.8992 191.6133,312.8414 195.0999,297.6969 199.4168,283.139 204.3359,269.9954 209.967,257.8475 216.5019,246.3914 222.9431,237.0925 229.7506,228.878 272.0908,185.3414 326.645,130.6416 337.4728,120.1801 350.6978,108.1876 364.791,96.1951 384.9508,79.9166 401.6352,67.2189 417.1688,56.1411 433.0972,45.5146 449.4255,35.3795 464.2757,26.8799 470.5299,23.8784 477.0272,21.2167 484.1289,18.7822 491.1251,16.8182 498.752,15.1181 518.5255,11.4879 536.5714,7.5126 551.2966,3.591 560.8449,0.1555 564.1091,0.0751 567.8376,0.7691 570.2293,1.7304 572.1009,2.8871 573.7662,4.3381 575.4168,6.357 577.7853,11.1787 579.2064,17.3524 579.6696,25.8061 578.9242,32.1666 578.0453,35.1263 576.8317,37.785 575.2832,40.1427 573.4,42.1994 570.5751,44.347 567.2271,46.0244 548.7811,52.0884 525.8208,60.3292 498.3464,70.7469 466.3577,83.3415 443.677,98.7246 422.7026,113.7542 408.7252,124.3902 372.6115,153.4549 349.2995,172.9024 330.2924,190.9006 309.6269,212.212 293.2609,230.1219 257.7888,270.7215 253.406,277.2078 249.297,284.7181 245.6621,292.9861 242.5013,302.0119 239.9171,311.3726 238.3179,319.2329 236.7973,329.4257 235.7063,340.2883 235.0274,351.7856 234.7391,364.4781 234.8653,377.5635 235.4124,391.672 236.4125,407.0191 237.8989,423.6715 239.3289,436.4865 241.0837,448.1396 243.257,459.2492 245.8488,469.8153 248.8591,479.838 252.2879,489.3172 256.5723,499.1781 262.9333,511.6454 272.144,527.5409 279.6838,539.1332 288.6984,552.1987 304.9932,574.6893 309.0525,579.8075 314.1988,585.5129 320.1487,591.4189 334.1751,603.6041 351.3016,616.5636"/>
    <line x1="434.9577" x2="521.7342" y1="669.4045" y2="756.1809"/>
    <line x1="547.756" x2="460.7495" y1="768.6108" y2="681.6043"/>
    <line x1="579.1158" x2="604.6632" y1="732.0107" y2="757.5581"/>
    <line x1="575.2533" x2="587.848" y1="796.1081" y2="808.7029"/>
    <line x1="317.7763" x2="297.6766" y1="660.9589" y2="640.8592"/>
  </g>
</svg>
