<?xml version="1.0" encoding="UTF-8" standalone="no"?>
<!-- Created with Inkscape (http://www.inkscape.org/) -->

<svg
   width="8.5in"
   height="11in"
   viewBox="0 0 215.9 279.4"
   version="1.1"
   id="svg961"
   inkscape:version="1.1.2 (b8e25be833, 2022-02-05)"
   sodipodi:docname="t.svg"
   xmlns:inkscape="http://www.inkscape.org/namespaces/inkscape"
   xmlns:sodipodi="http://sodipodi.sourceforge.net/DTD/sodipodi-0.dtd"
   xmlns="http://www.w3.org/2000/svg"
   xmlns:svg="http://www.w3.org/2000/svg">
  <sodipodi:namedview
     id="namedview963"
     pagecolor="#ffffff"
     bordercolor="#666666"
     borderopacity="1.0"
     inkscape:pageshadow="2"
     inkscape:pageopacity="0.0"
     inkscape:pagecheckerboard="0"
     inkscape:document-units="in"
     showgrid="false"
     units="in"
     inkscape:zoom="0.1702178"
     inkscape:cx="848.91239"
     inkscape:cy="-164.49514"
     inkscape:window-width="1920"
     inkscape:window-height="1017"
     inkscape:window-x="-8"
     inkscape:window-y="-8"
     inkscape:window-maximized="1"
     inkscape:current-layer="layer1" />
  <defs
     id="defs958">
    <rect
       x="1.4687065"
       y="10.280946"
       width="1496.612"
       height="2188.3728"
       id="rect19473" />
    <rect
       x="0"
       y="-2.9374131"
       width="810.72601"
       height="1050.1252"
       id="rect14297" />
    <rect
       x="157.1516"
       y="318.70932"
       width="440.61196"
       height="652.1057"
       id="rect6129" />
  </defs>
  <g
     inkscape:label="Layer 1"
     inkscape:groupmode="layer"
     id="layer1">
    <text
       xml:space="preserve"
       transform="scale(0.26458333)"
       id="text6127"
       style="line-height:1.25;font-family:'Square Peg';font-size:40px;-inkscape-font-specification:'Square Peg';white-space:pre;shape-inside:url(#rect6129)" />
    <text
       xml:space="preserve"
       transform="scale(0.26458333)"
       id="text14295"
       style="line-height:1.25;font-family:'Square Peg';font-size:40px;-inkscape-font-specification:'Square Peg';white-space:pre;shape-inside:url(#rect14297)" />
    <g
       aria-label="t"
       transform="matrix(0.26458333,0,0,0.26458333,-96.371627,-43.911265)"
       id="text19471"
       style="font-size:1333.33px;font-family:'Square Peg';-inkscape-font-specification:'Square Peg, Normal';white-space:pre;fill:none;stroke:#000000;stroke-opacity:1;stroke-width:4.80000006;stroke-miterlimit:4;stroke-dasharray:none">
      <g
         id="g1597">
        <path
           d="m 719.77462,1186.2379 q -33.33325,0 -33.33325,-39.9999 0,-198.66619 27.99993,-422.66563 -13.3333,-2.66666 -27.99993,-3.99999 -13.3333,-2.66666 -26.6666,-5.33332 -37.33323,-5.33332 -37.33323,-21.33328 0,-15.99996 15.99995,-19.99995 h -1.33332 q -11.99997,0 3.99998,-1.33333 15.99996,-2.66666 41.33323,-5.33332 25.33327,-2.66666 39.9999,-2.66666 7.99998,-46.66654 31.99992,-110.66638 13.3333,-38.66657 21.33328,-66.6665 9.33331,-29.33326 14.66663,-46.66655 6.66665,-26.6666 34.66658,-26.6666 11.99997,0 9.33331,11.99997 -10.66664,37.33324 -26.6666,97.33309 -15.99996,58.66652 -34.66658,139.99964 11.99997,0 29.33326,0 18.66662,0 42.66656,1.33333 23.99994,1.33333 41.33323,2.66666 18.66662,0 29.33326,0 11.99997,0 11.99997,9.33331 0,7.99998 -10.66664,17.33329 -9.33331,9.33331 -21.33328,9.33331 -15.99996,0 -47.99988,5.33332 -31.99992,3.99999 -81.33313,13.3333 -19.99995,163.99959 -19.99995,445.33219 0,20 -26.6666,20 z"
           id="path1534"
           style="fill:none;stroke:#000000;stroke-opacity:1;stroke-width:4.80000006;stroke-miterlimit:4;stroke-dasharray:none" />
        <path
           style="stroke:#000000;fill:none;stroke-width:4.80000006"
           d="M 804.638773,419.722031 l -8.138865,8.138865 M 793.864185,437.284844 l 20.538104,-20.538104 M 821.146690,416.790563 l -30.020506,30.020506 M 787.265569,457.459909 l 40.742501,-40.742501 M 831.308801,420.204901 l -44.780656,44.780656 M 783.385449,474.916478 l 47.656451,-47.656451 M 828.222977,436.867174 l -48.071288,48.071288 M 777.369433,494.508943 l 47.500047,-47.500047 M 821.396581,457.270019 l -49.095335,49.095335 M 770.463847,514.990977 l 48.340246,-48.340246 M 816.268330,475.974719 l -48.090441,48.090441 M 764.843248,534.188025 l 48.890811,-48.890811 M 811.199789,494.619709 l -49.795202,49.795202 M 754.381440,558.226282 l 54.339961,-54.339961 M 636.802816,675.804906 l -11.495590,11.495590 M 752.676988,566.718959 l 53.556299,-53.556299 M 644.492640,674.903307 l -18.424103,18.424103 M 750.149382,576.034790 l 53.595791,-53.595791 M 652.480333,673.703838 l -24.460671,24.460671 M 744.188476,588.783920 l 57.056417,-57.056417 M 660.304780,672.667616 l -28.824169,28.824169 M 743.030236,596.730384 l 57.206209,-57.206209 M 668.237829,671.522791 l -32.558754,32.558754 M 740.317901,606.230944 l 56.058865,-56.058865 M 675.723644,670.825201 l -35.158428,35.158428 M 736.113323,617.223746 l 57.911931,-57.911931 M 683.328087,670.008983 l -37.577757,37.577757 M 734.885202,625.240092 l 56.804071,-56.804071 M 691.919789,668.205505 l -40.679442,40.679442 M 730.360317,636.553201 l 59.062177,-59.062177 M 698.332460,668.581058 l -41.356977,41.356977 M 730.167376,643.534366 l 56.988708,-56.988708 M 705.648170,668.053573 l -43.235482,43.235482 M 728.543636,651.946331 l 56.415408,-56.415408 M 712.861665,667.628302 l -44.426742,44.426742 M 674.091777,713.186415 l 108.663979,-108.663979 M 780.616399,613.450018 l -100.867768,100.867768 M 685.405484,715.449156 l 93.065153,-93.065153 M 776.379192,631.263673 l -84.936476,84.936476 M 697.508756,716.922334 l 76.777321,-76.777321 M 772.234558,648.984756 l -68.944844,68.944844 M 709.311170,718.696369 l 60.878631,-60.878631 M 770.037961,664.757802 l -55.015864,55.015864 M 718.352364,723.231623 l 57.152434,-57.152434 M 782.293023,666.079190 l -64.895050,64.895050 M 716.446381,738.714056 l 72.634867,-72.634867 M 795.869472,666.079190 l -80.346792,80.346792 M 714.607785,754.129100 l 88.048928,-88.048928 M 809.706513,665.818598 l -97.055644,97.055644 M 712.836493,769.476842 l 103.239641,-103.239641 M 822.678517,666.423043 l -49.278394,49.278394 M 711.964203,777.137356 l 49.852702,-49.852702 M 829.230195,666.659589 l -48.449345,48.449345 M 711.132419,784.757365 l 50.964957,-50.964957 M 836.538637,666.139371 l -46.534390,46.534390 M 710.296676,792.381332 l 49.774923,-49.774923 M 842.609186,666.857047 l -44.385985,44.385985 M 709.495478,799.970754 l 49.775016,-49.775016 M 848.632702,667.621755 l -42.236163,42.236163 M 708.696223,807.558234 l 49.800518,-49.800518 M 855.057424,667.985258 l -41.344518,41.344518 M 707.925586,815.117096 l 49.810781,-49.810781 M 861.449256,668.381651 l -38.849913,38.849913 M 707.162760,822.668147 l 49.871017,-49.871017 M 867.837924,668.781207 l -37.257489,37.257489 M 705.205157,831.413973 l 51.146950,-51.146950 M 874.771658,668.635697 l -36.285976,36.285976 M 705.696202,837.711153 l 49.985099,-49.985099 M 880.539220,669.656360 l -34.235927,34.235927 M 704.793662,845.401917 l 50.266758,-50.266758 M 886.904625,670.079180 l -32.540773,32.540773 M 704.296465,852.687339 l 50.159008,-50.159008 M 893.692849,670.079180 l -31.340283,31.340283 M 703.612117,860.159911 l 50.253389,-50.253389 M 900.481074,670.079180 l -30.275460,30.275460 M 702.963465,867.596788 l 50.349433,-50.349433 M 907.269298,670.079180 l -29.433318,29.433318 M 702.315339,875.033139 l 50.466696,-50.466696 M 914.682436,669.454266 l -30.564168,30.564168 M 701.697118,882.439585 l 50.558567,-50.558567 M 920.434644,670.490283 l -28.728932,28.728932 M 701.085155,889.839772 l 50.675337,-50.675337 M 923.896484,673.816667 l -25.495803,25.495803 M 699.034426,898.678725 l 52.243597,-52.243597 M 924.422105,680.079271 l -17.613799,17.613799 M 699.921481,904.579894 l 50.902958,-50.902958 M 750.374622,860.914979 l -51.489744,51.489744 M 698.824236,919.253589 l 51.134995,-51.134995 M 749.540646,875.325403 l -51.250560,51.250560 M 697.793334,933.860940 l 51.367018,-51.367018 M 749.230922,889.211576 l -51.935781,51.935781 M 696.828693,948.402030 l 51.594973,-51.594973 M 749.021907,902.997040 l -52.655508,52.655508 M 695.930229,962.876943 l 51.815143,-51.815143 M 748.667406,916.927990 l -53.163627,53.163627 M 694.248542,978.135079 l 52.873430,-52.873430 M 746.831015,932.340830 l -52.123821,52.123821 M 694.322055,991.638014 l 52.228188,-52.228188 M 747.518441,945.229853 l -53.541877,53.541877 M 693.627122,1005.909397 l 52.400089,-52.400089 M 746.722360,959.602383 l -53.410554,53.410554 M 692.998003,1020.114965 l 52.552119,-52.552119 M 745.777547,974.123645 l -53.064710,53.064710 M 692.434616,1034.254800 l 52.681812,-52.681812 M 744.906106,988.571535 l -52.726531,52.726531 M 691.936880,1048.328986 l 52.786888,-52.786888 M 744.535223,1002.518867 l -53.225406,53.225406 M 691.504712,1062.337603 l 52.865234,-52.865234 M 744.202401,1016.428138 l -52.899553,52.899553 M 691.138030,1076.280733 l 52.914892,-52.914892 M 743.905641,1030.301347 l -52.934093,52.934093 M 690.836753,1090.158459 l 52.934042,-52.934042 M 743.643079,1044.140358 l -52.937484,52.937484 M 690.600799,1103.970862 l 52.962186,-52.962186 M 743.412982,1057.946904 l -52.908072,52.908072 M 689.471665,1118.676446 l 53.832504,-53.832504 M 743.213726,1071.722609 l -52.844316,52.844316 M 690.214890,1131.509669 l 52.908297,-52.908297 M 743.043800,1085.468984 l -52.744785,52.744785 M 689.281382,1146.019627 l 53.689554,-53.689554 M 742.898072,1099.191161 l -52.479289,52.479289 M 691.102109,1157.775348 l 51.743916,-51.743916 M 742.790267,1112.875415 l -50.437094,50.437094 M 694.214494,1168.239413 l 48.532663,-48.532663 M 742.707961,1126.534170 l -45.975322,45.975322 M 699.954961,1176.075395 l 42.713804,-42.713804 M 742.649961,1140.168619 l -38.725086,38.725086 M 708.678712,1180.928093 l 33.948099,-33.948099 M 742.615147,1153.779882 l -28.368318,28.368318 M 720.235488,1182.947765 l 22.372061,-22.372061 M 742.599951,1167.371527 l -15.540787,15.540787 M 735.174557,1181.585145 l 8.008948,-8.008948"
           id="path1595" />
      </g>
    </g>
    <rect
       style="fill:none;stroke:#000000;stroke-width:1.27;stroke-linejoin:round;paint-order:markers fill stroke"
       id="rect1452"
       width="215.89999"
       height="279.39999"
       x="0.63499999"
       y="0.63499999" />
  </g>
</svg>
