<?xml version="1.0" encoding="UTF-8" standalone="no"?>
<!-- Created with Inkscape (http://www.inkscape.org/) -->

<svg
   width="8.5in"
   height="11in"
   viewBox="0 0 215.9 279.4"
   version="1.1"
   id="svg961"
   inkscape:version="1.1.2 (b8e25be833, 2022-02-05)"
   sodipodi:docname="W.svg"
   xmlns:inkscape="http://www.inkscape.org/namespaces/inkscape"
   xmlns:sodipodi="http://sodipodi.sourceforge.net/DTD/sodipodi-0.dtd"
   xmlns="http://www.w3.org/2000/svg"
   xmlns:svg="http://www.w3.org/2000/svg">
  <sodipodi:namedview
     id="namedview963"
     pagecolor="#ffffff"
     bordercolor="#666666"
     borderopacity="1.0"
     inkscape:pageshadow="2"
     inkscape:pageopacity="0.0"
     inkscape:pagecheckerboard="0"
     inkscape:document-units="in"
     showgrid="false"
     units="in"
     inkscape:zoom="0.3404356"
     inkscape:cx="656.51183"
     inkscape:cy="334.8651"
     inkscape:window-width="1920"
     inkscape:window-height="1017"
     inkscape:window-x="-8"
     inkscape:window-y="-8"
     inkscape:window-maximized="1"
     inkscape:current-layer="layer1" />
  <defs
     id="defs958">
    <rect
       x="1.4687065"
       y="10.280946"
       width="1496.612"
       height="2188.3728"
       id="rect19473" />
    <rect
       x="0"
       y="-2.9374131"
       width="810.72601"
       height="1050.1252"
       id="rect14297" />
    <rect
       x="157.1516"
       y="318.70932"
       width="440.61196"
       height="652.1057"
       id="rect6129" />
  </defs>
  <g
     inkscape:label="Layer 1"
     inkscape:groupmode="layer"
     id="layer1">
    <text
       xml:space="preserve"
       transform="scale(0.26458333)"
       id="text6127"
       style="line-height:1.25;font-family:'Square Peg';font-size:40px;-inkscape-font-specification:'Square Peg';white-space:pre;shape-inside:url(#rect6129)" />
    <text
       xml:space="preserve"
       transform="scale(0.26458333)"
       id="text14295"
       style="line-height:1.25;font-family:'Square Peg';font-size:40px;-inkscape-font-specification:'Square Peg';white-space:pre;shape-inside:url(#rect14297)" />
    <g
       aria-label="w"
       transform="matrix(0.26458333,0,0,0.26458333,-96.371627,-43.911265)"
       id="text19471"
       style="font-size:1333.33px;font-family:'Square Peg';-inkscape-font-specification:'Square Peg, Normal';white-space:pre;fill:none;stroke:#000000;stroke-opacity:1;stroke-width:4.80000006;stroke-miterlimit:4;stroke-dasharray:none">
      <g
         id="g891">
        <path
           d="m 803.10698,1136.9047 q -38.66657,0 -63.99984,-49.3332 -6.66665,-14.6667 -11.99997,-36 -5.33332,-22.6666 -10.66664,-51.99983 -7.99998,-46.66655 -13.3333,-45.33322 -17.33328,2.66666 -42.66655,31.99992 L 559.1076,1104.9047 q -10.66664,10.6667 -21.33328,10.6667 -17.33329,0 -21.33328,-24 -1.33333,-10.6666 -2.66666,-22.6666 0,-13.3333 0,-27.9999 0,-85.33312 19.99995,-206.66614 2.66666,-18.66662 21.33328,-18.66662 17.33329,0 17.33329,18.66662 -1.33333,29.33326 -3.99999,70.66649 -1.33333,39.9999 -2.66666,93.33309 2.66666,2.66666 5.33332,2.66666 38.66657,0 158.66626,-174.66622 6.66665,-7.99998 21.33328,-7.99998 33.33325,0 27.99993,29.33326 -19.99995,87.99978 -19.99995,127.99967 0,23.99994 10.66664,62.66647 14.66663,47.9999 35.99991,47.9999 47.99988,0 105.33307,-139.99962 14.66663,-38.66657 19.99995,-79.9998 -14.66663,-10.66664 -14.66663,-46.66655 0,-35.99991 23.99994,-35.99991 13.3333,0 31.99992,13.3333 19.99995,13.3333 30.66661,37.33324 h 1.3333 q 4,9.33331 4,18.66662 0,22.66661 -15.99996,25.33327 l -17.33329,-2.66666 q -6.66665,14.66663 -17.33329,39.9999 -10.66664,25.33327 -25.33327,62.6665 -55.99986,158.66631 -129.33301,158.66631 z"
           id="path829"
           style="fill:none;stroke:#000000;stroke-opacity:1;stroke-width:4.80000006;stroke-miterlimit:4;stroke-dasharray:none" />
        <path
           style="stroke:#000000;fill:none;stroke-width:4.80000006"
           d="M 547.110405,819.058130 l -10.211868,10.211868 M 537.461342,835.495418 l 17.057867,-17.057867 M 560.030345,819.714639 l -23.873352,23.873352 M 534.868809,851.664400 l 29.596139,-29.596139 M 567.312160,826.009273 l -35.360162,35.360162 M 532.432584,867.677074 l 36.281121,-36.281121 M 568.388604,838.509278 l -37.728887,37.728887 M 530.157478,883.528629 l 37.884002,-37.884002 M 568.371338,852.102994 l -39.315121,39.315121 M 528.048499,899.214057 l 39.237495,-39.237495 M 566.897085,867.153696 l -39.856501,39.856501 M 526.095753,914.743251 l 40.373135,-40.373135 M 566.044624,881.582605 l -40.849366,40.849366 M 523.358568,931.056886 l 43.434803,-43.434803 M 565.148819,896.054859 l -41.856484,41.856484 M 522.757453,945.234450 l 41.936797,-41.936797 M 564.424534,910.355593 l -42.377011,42.377011 M 521.385945,960.182407 l 42.814185,-42.814185 M 563.975726,924.380851 l -43.202213,43.202213 M 519.556142,975.588659 l 44.209282,-44.209282 M 563.558150,938.374875 l -43.871406,43.871406 M 519.234356,989.486894 l 44.116520,-44.116520 M 563.152506,952.356968 l -44.317640,44.317640 M 517.318691,1004.979008 l 45.641242,-45.641242 M 562.767358,966.318565 l -44.767550,44.767550 M 517.954734,1017.919414 l 44.620051,-44.620051 M 562.396785,980.265587 l -44.611130,44.611130 M 516.594111,1032.856486 l 45.622854,-45.622854 M 562.037144,994.201677 l -44.444712,44.444712 M 718.103075,844.923970 l 23.460217,-23.460217 M 562.369484,1000.657562 l -44.755104,44.755104 M 704.620811,865.194459 l 43.906551,-43.906551 M 566.427373,1003.387897 l -48.812994,48.812994 M 684.491025,892.112469 l 70.094190,-70.094190 M 573.588298,1003.015196 l -55.973919,55.973919 M 660.033656,923.358063 l 100.536673,-100.536673 M 585.822700,997.569019 l -68.804841,68.804841 M 518.012275,1072.167669 l 247.884597,-247.884597 M 770.278769,826.689399 l -251.581775,251.581775 M 519.430858,1084.325535 l 254.142486,-254.142486 M 775.765822,834.778795 l -255.737547,255.737547 M 521.275667,1096.057175 l 255.743283,-255.743283 M 775.983183,848.137883 l -252.967117,252.967117 M 525.422425,1105.486866 l 247.392618,-247.392618 M 770.937775,866.759740 l -242.198566,242.198566 M 533.238754,1111.246985 l 235.886739,-235.886739 M 767.383682,883.890282 l -69.752849,69.752849 M 539.152385,1112.121579 l 59.855492,-59.855492 M 767.077496,890.984692 l -60.363114,60.363114 M 546.820715,1111.241473 l 12.502066,-12.502066 M 764.803497,900.046917 l -55.339543,55.339543 M 711.611501,960.027136 l 51.213894,-51.213894 M 761.222402,917.204460 l -48.124674,48.124674 M 714.595185,970.619902 l 45.345530,-45.345530 M 758.775767,933.227544 l -43.331961,43.331961 M 717.054143,981.737393 l 40.846882,-40.846882 M 757.427164,948.152596 l -39.267599,39.267599 M 719.214169,993.153816 l 38.047875,-38.047875 M 932.170825,786.985384 l -9.681090,9.681090 M 720.226833,998.929376 l 35.402922,-35.402922 M 939.463421,786.481013 l -18.580820,18.580820 M 721.277287,1004.667147 l 34.605298,-34.605298 M 944.986541,787.746117 l -25.049588,25.049588 M 722.360695,1010.371963 l 32.891646,-32.891646 M 950.458423,789.062459 l -30.182329,30.182329 M 723.458588,1016.062295 l 32.058984,-32.058984 M 955.189054,791.120053 l -34.814632,34.814632 M 724.579229,1021.729878 l 31.490588,-31.490588 M 959.709694,793.387638 l -38.910035,38.910035 M 725.724468,1027.372863 l 31.093582,-31.093582 M 963.998572,795.886984 l -42.816006,42.816006 M 726.896363,1032.989193 l 31.055134,-31.055134 M 968.108840,798.564941 l -45.474754,45.474754 M 728.097206,1038.576575 l 30.617473,-30.617473 M 972.111368,801.350637 l -48.046128,48.046128 M 729.329560,1044.132445 l 30.486882,-30.486882 M 975.973660,804.276569 l -49.828574,49.828574 M 730.581175,1049.669054 l 30.457131,-30.457131 M 979.626063,807.412391 l -50.941660,50.941660 M 731.966399,1055.072055 l 30.348177,-30.348177 M 983.061108,810.765570 l -51.174035,51.174035 M 733.437098,1060.389581 l 30.219623,-30.219623 M 986.279648,814.335255 l -51.201770,51.201770 M 735.000427,1065.614476 l 30.057687,-30.057687 M 989.297582,818.105546 l -56.132374,56.132374 M 736.664369,1070.738758 l 29.913451,-29.913451 M 992.109067,822.082285 l -59.398432,59.398432 M 738.437856,1075.753496 l 29.783175,-29.783175 M 994.710776,826.268800 l -63.638236,63.638236 M 740.330914,1080.648662 l 29.669256,-29.669256 M 997.134244,830.633557 l -68.984405,68.984405 M 742.325838,1085.441963 l 29.573712,-29.573712 M 999.331345,835.224681 l -74.141373,74.141373 M 744.684150,1089.871875 l 29.251980,-29.251980 M 1002.251650,839.092600 l -80.067701,80.067701 M 747.140242,1094.204008 l 28.989936,-28.989936 M 1003.722016,844.410458 l -84.599130,84.599130 M 749.737373,1098.395101 l 28.768740,-28.768740 M 1005.183208,849.737491 l -23.032966,23.032966 M 915.998041,938.922658 l 52.706577,-52.706577 M 781.156088,1073.764611 l -28.699454,28.699454 M 988.033369,873.675554 l 16.959174,-16.959174 M 959.084014,902.624909 l -43.966099,43.966099 M 755.326351,1106.382572 l 28.641479,-28.641479 M 1005.107089,863.390059 l -11.190592,11.190592 M 907.481421,961.015727 l 46.619560,-46.619560 M 787.145289,1081.351859 l -28.787870,28.787870 M 905.166801,970.118572 l 44.099738,-44.099738 M 790.715500,1084.569872 l -29.154737,29.154737 M 897.353400,984.720197 l 47.217036,-47.217036 M 794.810542,1087.263055 l -29.853390,29.853390 M 890.111976,998.749845 l 52.588376,-52.588376 M 799.554217,1089.307605 l -30.983540,30.983540 M 883.531260,1012.118785 l 51.893471,-51.893471 M 806.316498,1089.333548 l -33.900545,33.900545 M 870.703180,1031.735090 l 60.295503,-60.295503 M 815.387834,1087.050436 l -38.844686,38.844686 M 852.391966,1056.834529 l 76.456267,-76.456267 M 832.491355,1076.735140 l -51.472177,51.472177 M 785.834089,1130.180630 l 139.818789,-139.818789 M 922.644110,1000.158834 l -131.579439,131.579439 M 796.318808,1133.272361 l 120.082436,-120.082436 M 910.560319,1025.819074 l -107.466175,107.466175 M 810.002390,1133.165227 l 95.105492,-95.105492 M 900.028021,1049.927821 l -83.001296,83.001296 M 825.950679,1130.793387 l 66.560736,-66.560736 M 883.053448,1080.478842 l -46.035747,46.035747 M 860.406790,1109.913726 l 2.877631,-2.877631"
           id="path889" />
      </g>
    </g>
    <rect
       style="fill:none;stroke:#000000;stroke-width:1.27;stroke-linejoin:round;stroke-miterlimit:4;stroke-dasharray:none;stroke-opacity:1;paint-order:markers fill stroke"
       id="rect1328"
       width="215.89999"
       height="279.39999"
       x="0.63499999"
       y="0.63499999" />
  </g>
</svg>
