<?xml version="1.0" standalone="no"?>
<!DOCTYPE svg PUBLIC "-//W3C//DTD SVG 20010904//EN"
 "http://www.w3.org/TR/2001/REC-SVG-20010904/DTD/svg10.dtd">
<svg version="1.0" xmlns="http://www.w3.org/2000/svg"
 width="700.000000pt" height="700.000000pt" viewBox="0 0 700.000000 700.000000"
 preserveAspectRatio="xMidYMid meet">
<metadata>
Created by potrace 1.14, written by Peter Selinger 2001-2017
</metadata>
<g transform="translate(0.000000,700.000000) scale(0.100000,-0.100000)"
fill="#000000" stroke="none">
<path d="M2862 5635 c-106 -19 -145 -49 -157 -118 -12 -66 3 -124 41 -167 50
-55 109 -75 214 -74 177 3 290 79 290 194 0 95 -67 151 -201 170 -80 12 -96
11 -187 -5z"/>
<path d="M1065 5417 c-109 -29 -141 -66 -139 -163 2 -78 36 -129 114 -170 49
-26 213 -27 288 -1 99 35 142 90 142 181 0 106 -77 155 -255 162 -62 2 -119
-1 -150 -9z"/>
<path d="M5853 4620 c-63 -13 -106 -38 -100 -59 3 -13 0 -17 -12 -14 -21 5
-175 -215 -208 -297 -34 -84 -105 -370 -163 -655 -70 -341 -98 -445 -168 -620
-81 -203 -132 -311 -205 -435 -54 -93 -83 -126 -242 -285 -99 -100 -220 -211
-270 -248 -157 -117 -328 -190 -613 -262 -380 -95 -624 -108 -815 -44 -116 39
-613 355 -817 520 -191 154 -489 420 -595 530 -90 94 -114 128 -236 334 -76
127 -156 265 -179 307 -23 43 -53 87 -67 98 -46 36 -165 22 -223 -26 -41 -35
-40 -80 4 -164 19 -36 60 -130 91 -210 96 -244 118 -279 288 -468 236 -263
492 -478 912 -769 419 -289 528 -360 606 -398 229 -108 597 -132 862 -54 160
47 505 165 598 204 264 113 516 276 689 446 127 125 342 365 395 442 49 72
201 406 249 550 29 85 74 273 101 420 55 298 106 556 132 662 l26 110 98 101
c99 102 99 102 99 153 0 106 -96 158 -237 131z"/>
<path d="M2281 4400 c-130 -9 -292 -32 -401 -56 -274 -62 -530 -211 -530 -311
0 -12 14 -35 31 -52 42 -42 119 -64 213 -58 66 3 79 8 109 34 89 78 242 138
447 173 160 28 543 38 822 21 178 -11 554 -49 708 -71 36 -5 238 -19 450 -31
l385 -23 260 23 c553 49 591 56 619 122 18 43 5 98 -31 126 -52 42 -99 44
-487 27 -381 -18 -550 -13 -906 21 -377 37 -1446 72 -1689 55z"/>
</g>
</svg>
