<svg version="1.1" xmlns="http://www.w3.org/2000/svg" xmlns:xlink="http://www.w3.org/1999/xlink" width="576" height="576" viewBox="0 0 576 576"><defs/><g><g><path fill="#FFFFFF" stroke="#000000" paint-order="fill stroke markers" d=" M 502.9672544586241 291.75226738401597 L 177.26681389433838 472.29096965095414 L 183.76593164703743 99.95676296502995 L 502.9672544586241 291.75226738401597 L 502.9672544586241 291.75226738401597 Z" stroke-linecap="square" stroke-miterlimit="10" stroke-dasharray="" id="0.01"/><path fill="#FFFFFF" stroke="#000000" paint-order="fill stroke markers" d=" M 500.4815941667822 295.4200207711373 L 175.33327643219585 468.3044479994802 L 188.1851294010219 100.27553122938264 L 500.4815941667822 295.4200207711373 L 500.4815941667822 295.4200207711373 Z" stroke-linecap="square" stroke-miterlimit="10" stroke-dasharray="" id="0.02"/><path fill="#FFFFFF" stroke="#000000" paint-order="fill stroke markers" d=" M 497.93411997285045 299.00218102351664 L 173.5047717501743 464.30719050586026 L 192.56110827697515 100.69062847062315 L 497.93411997285045 299.00218102351664 L 497.93411997285045 299.00218102351664 Z" stroke-linecap="square" stroke-miterlimit="10" stroke-dasharray="" id="0.03"/><path fill="#FFFFFF" stroke="#000000" paint-order="fill stroke markers" d=" M 495.32706177900013 302.4977204598207 L 171.78107489532982 460.3016421626895 L 196.89186332567 101.20063737748984 L 495.32706177900013 302.4977204598207 L 495.32706177900013 302.4977204598207 Z" stroke-linecap="square" stroke-miterlimit="10" stroke-dasharray="" id="0.04"/><path fill="#FFFFFF" stroke="#000000" paint-order="fill stroke markers" d=" M 492.66266630795974 305.90566314893556 L 170.16190768743513 456.2902366544829 L 201.1754260046051 101.80410019658163 L 492.66266630795974 305.90566314893556 L 492.66266630795974 305.90566314893556 Z" stroke-linecap="square" stroke-miterlimit="10" stroke-dasharray="" id="0.05"/><path fill="#FFFFFF" stroke="#000000" paint-order="fill stroke markers" d=" M 489.9431959761688 309.22508518018185 L 168.64693904838953 452.2753952466907 L 205.4098649754416 102.49951957312749 L 489.9431959761688 309.22508518018185 L 489.9431959761688 309.22508518018185 Z" stroke-linecap="square" stroke-miterlimit="10" stroke-dasharray="" id="0.060000000000000005"/><path fill="#FFFFFF" stroke="#000000" paint-order="fill stroke markers" d=" M 487.170927762692 312.45511490996626 L 167.23578535415567 448.25952568282344 L 209.5932868831523 103.28535940721031 L 487.170927762692 312.45511490996626 L 487.170927762692 312.45511490996626 Z" stroke-linecap="square" stroke-miterlimit="10" stroke-dasharray="" id="0.07"/><path fill="#FFFFFF" stroke="#000000" paint-order="fill stroke markers" d=" M 484.3481520743703 315.59493318480406 L 165.92801080904033 444.24502109013287 L 213.72383711658932 104.1600457250631 L 484.3481520743703 315.59493318480406 L 484.3481520743703 315.59493318480406 Z" stroke-linecap="square" stroke-miterlimit="10" stroke-dasharray="" id="0.08"/><path fill="#FFFFFF" stroke="#000000" paint-order="fill stroke markers" d=" M 481.477171607692 318.6437735406586 L 164.7231278421263 440.23425889429336 L 217.79970055018163 105.12196756504815 L 481.477171607692 318.6437735406586 L 481.477171607692 318.6437735406586 Z" stroke-linecap="square" stroke-miterlimit="10" stroke-dasharray="" id="0.09"/><path fill="#FFFFFF" stroke="#000000" paint-order="fill stroke markers" d=" M 478.5603002078623 321.60092237855105 L 163.62059752565466 436.22959974352233 L 221.819102266483 106.16947787792671 L 478.5603002078623 321.60092237855105 L 478.5603002078623 321.60092237855105 Z" stroke-linecap="square" stroke-miterlimit="10" stroke-dasharray="" id="0.09999999999999999"/><path fill="#FFFFFF" stroke="#000000" paint-order="fill stroke markers" d=" M 475.59986172555364 324.4657191164064 L 162.6198300151475 432.2333864425743 L 225.7803082592988 107.30089444101944 L 475.59986172555364 324.4657191164064 L 475.59986172555364 324.4657191164064 Z" stroke-linecap="square" stroke-miterlimit="10" stroke-dasharray="" id="0.10999999999999999"/><path fill="#FFFFFF" stroke="#000000" paint-order="fill stroke markers" d=" M 472.5981888718188 327.23755631710713 L 161.72018501105325 428.2479428970394 L 229.68162611712785 108.51450078585347 L 472.5981888718188 327.23755631710713 L 472.5981888718188 327.23755631710713 Z" stroke-linecap="square" stroke-miterlimit="10" stroke-dasharray="" id="0.11999999999999998"/><path fill="#FFFFFF" stroke="#000000" paint-order="fill stroke markers" d=" M 469.5576220716489 329.9158797927402 L 160.92097224168776 424.2755730683722 L 233.52140568666326 109.80854713888766 L 469.5576220716489 329.9158797927402 L 469.5576220716489 329.9158797927402 Z" stroke-linecap="square" stroke-miterlimit="10" stroke-dasharray="" id="0.12999999999999998"/><path fill="#FFFFFF" stroke="#000000" paint-order="fill stroke markers" d=" M 466.48050831665705 332.5001886850278 L 160.22145196723665 420.3185599400709 L 237.2980397161063 111.1812513749014 L 466.48050831665705 332.5001886850278 L 466.48050831665705 332.5001886850278 Z" stroke-linecap="square" stroke-miterlimit="10" stroke-dasharray="" id="0.13999999999999999"/><path fill="#FFFFFF" stroke="#000000" paint-order="fill stroke markers" d=" M 463.36920001737093 334.99003552194654 L 159.6208355045757 416.3791644954244 L 241.00996447805332 112.6307999826291 L 463.36920001737093 334.99003552194654 L 463.36920001737093 334.99003552194654 Z" stroke-linecap="square" stroke-miterlimit="10" stroke-dasharray="" id="0.15"/><path fill="#FFFFFF" stroke="#000000" paint-order="fill stroke markers" d=" M 460.2260538556156 337.3850262505457 L 159.11828577265828 412.45962470723714 L 244.65566037172607 114.15534904221718 L 460.2260538556156 337.3850262505457 L 460.2260538556156 337.3850262505457 Z" stroke-linecap="square" stroke-miterlimit="10" stroke-dasharray="" id="0.16"/><path fill="#FFFFFF" stroke="#000000" paint-order="fill stroke markers" d=" M 457.05342963746557 339.68482024598603 L 158.71291785821103 408.5621545399373 L 248.2336525043233 115.75302521407667 L 457.05342963746557 339.68482024598603 L 457.05342963746557 339.68482024598603 Z" stroke-linecap="square" stroke-miterlimit="10" stroke-dasharray="" id="0.17"/><path fill="#FFFFFF" stroke="#000000" paint-order="fill stroke markers" d=" M 453.8536891472494 341.8891302968311 L 158.40379960146993 404.6889429644699 L 251.74251125128063 117.42192673869903 L 453.8536891472494 341.8891302968311 L 453.8536891472494 341.8891302968311 Z" stroke-linecap="square" stroke-miterlimit="10" stroke-dasharray="" id="0.18000000000000002"/><path fill="#FFFFFF" stroke="#000000" paint-order="fill stroke markers" d=" M 450.6291950030826 343.99772256663096 L 158.18995220168316 400.84215298636735 L 255.1808527952342 119.16012444700169 L 450.6291950030826 343.99772256663096 L 450.6291950030826 343.99772256663096 Z" stroke-linecap="square" stroke-miterlimit="10" stroke-dasharray="" id="0.19000000000000003"/><path fill="#FFFFFF" stroke="#000000" paint-order="fill stroke markers" d=" M 447.38230951441005 346.0104165318482 L 158.07035084209772 397.02392068738925 L 258.5473396434922 120.96566278076259 L 447.38230951441005 346.0104165318482 L 447.38230951441005 346.0104165318482 Z" stroke-linecap="square" stroke-miterlimit="10" stroke-dasharray="" id="0.20000000000000004"/><path fill="#FFFFFF" stroke="#000000" paint-order="fill stroke markers" d=" M 444.11539354203217 347.9270848961864 L 158.0439253341398 393.23635428111186 L 261.84068112382795 122.83656082270187 L 444.11539354203217 347.9270848961864 L 444.11539354203217 347.9270848961864 Z" stroke-linecap="square" stroke-miterlimit="10" stroke-dasharray="" id="0.21000000000000005"/><path fill="#FFFFFF" stroke="#000000" paint-order="fill stroke markers" d=" M 440.8308053610923 349.74765348138953 L 158.10956078049193 389.48153318284614 L 265.05963385841574 124.77081333576436 L 440.8308053610923 349.74765348138953 L 440.8308053610923 349.74765348138953 Z" stroke-linecap="square" stroke-miterlimit="10" stroke-dasharray="" id="0.22000000000000006"/><path fill="#FFFFFF" stroke="#000000" paint-order="fill stroke markers" d=" M 437.53089952749656 351.472101094591 L 158.26609825676192 385.7615070942551 L 268.2030022157415 126.766391811154 L 437.53089952749656 351.472101094591 L 437.53089952749656 351.472101094591 Z" stroke-linecap="square" stroke-miterlimit="10" stroke-dasharray="" id="0.23000000000000007"/><path fill="#FFFFFF" stroke="#000000" paint-order="fill stroke markers" d=" M 434.21802574824085 353.10045937229893 L 158.51233551143196 382.0782951030343 L 271.26963874032714 128.82124552466678 L 434.21802574824085 353.10045937229893 L 434.21802574824085 353.10045937229893 Z" stroke-linecap="square" stroke-miterlimit="10" stroke-dasharray="" id="0.24000000000000007"/><path fill="#FFFFFF" stroke="#000000" paint-order="fill stroke markers" d=" M 430.8945277561119 354.632812601117 L 158.84702768376889 378.433884798015 L 274.25844456011913 130.933302600868 L 430.8945277561119 354.632812601117 L 430.8945277561119 354.632812601117 Z" stroke-linecap="square" stroke-miterlimit="10" stroke-dasharray="" id="0.25000000000000006"/><path fill="#FFFFFF" stroke="#000000" paint-order="fill stroke markers" d=" M 427.5627421892319 356.069297515304 L 159.2688880393698 374.8302314000411 L 277.1683697713982 133.10047108465494 L 427.5627421892319 356.069297515304 L 427.5627421892319 356.069297515304 Z" stroke-linecap="square" stroke-miterlimit="10" stroke-dasharray="" id="0.26000000000000006"/><path fill="#FFFFFF" stroke="#000000" paint-order="fill stroke markers" d=" M 424.22499747591064 357.4101030712908 L 159.77658872301063 371.2692569089643 L 279.9984138010787 135.320640019745 L 424.22499747591064 357.4101030712908 L 424.22499747591064 357.4101030712908 Z" stroke-linecap="square" stroke-miterlimit="10" stroke-dasharray="" id="0.2700000000000001"/><path fill="#FFFFFF" stroke="#000000" paint-order="fill stroke markers" d=" M 420.8836127252687 358.65547019927664 L 160.36876152845778 367.7528492670975 L 282.7476257462735 137.59168053362595 L 420.8836127252687 358.65547019927664 L 420.8836127252687 358.65547019927664 Z" stroke-linecap="square" stroke-miterlimit="10" stroke-dasharray="" id="0.2800000000000001"/><path fill="#FFFFFF" stroke="#000000" paint-order="fill stroke markers" d=" M 417.5408966240907 359.8056915320409 L 161.04399868489816 364.2828615394559 L 285.41510469101115 139.91144692850324 L 417.5408966240907 359.8056915320409 L 417.5408966240907 359.8056915320409 Z" stroke-linecap="square" stroke-miterlimit="10" stroke-dasharray="" id="0.2900000000000001"/><path fill="#FFFFFF" stroke="#000000" paint-order="fill stroke markers" d=" M 414.1991463403658 360.8611111111112 L 161.80085365963419 360.8611111111112 L 287.9999999999999 142.2777777777776 L 414.1991463403658 360.8611111111112 L 414.1991463403658 360.8611111111112 Z" stroke-linecap="square" stroke-miterlimit="10" stroke-dasharray="" id="0.3000000000000001"/><path fill="#FFFFFF" stroke="#000000" paint-order="fill stroke markers" d=" M 410.8606464339696 361.8221240704412 L 162.63784197668647 357.4893789019751 L 290.5015115893439 144.68849702758376 L 410.8606464339696 361.8221240704412 L 410.8606464339696 361.8221240704412 Z" stroke-linecap="square" stroke-miterlimit="10" stroke-dasharray="" id="0.3100000000000001"/><path fill="#FFFFFF" stroke="#000000" paint-order="fill stroke markers" d=" M 407.5276677749364 362.6891762977579 L 163.5534420509389 354.1694085993226 L 292.91889017412467 147.14141510291952 L 407.5276677749364 362.6891762977579 L 407.5276677749364 362.6891762977579 Z" stroke-linecap="square" stroke-miterlimit="10" stroke-dasharray="" id="0.3200000000000001"/><path fill="#FFFFFF" stroke="#000000" paint-order="fill stroke markers" d=" M 404.20246646977165 363.4627640737488 L 164.54609603745604 350.9029059083573 L 295.25143749277225 149.6343300178939 L 404.20246646977165 363.4627640737488 L 404.20246646977165 363.4627640737488 Z" stroke-linecap="square" stroke-miterlimit="10" stroke-dasharray="" id="0.3300000000000001"/><path fill="#FFFFFF" stroke="#000000" paint-order="fill stroke markers" d=" M 400.887282796245 364.1434336892668 L 165.61421069559663 347.6915378211128 L 297.49850650815836 152.16502848962043 L 400.887282796245 364.1434336892668 L 400.887282796245 364.1434336892668 Z" stroke-linecap="square" stroke-miterlimit="10" stroke-dasharray="" id="0.34000000000000014"/><path fill="#FFFFFF" stroke="#000000" paint-order="fill stroke markers" d=" M 397.58434014710525 364.73178104074003 L 166.75615826754137 344.5369319039781 L 299.6595015853533 154.7312870552819 L 397.58434014710525 364.73178104074003 L 397.58434014710525 364.73178104074003 Z" stroke-linecap="square" stroke-miterlimit="10" stroke-dasharray="" id="0.35000000000000014"/><path fill="#FFFFFF" stroke="#000000" paint-order="fill stroke markers" d=" M 394.2958439831529 365.22845120398335 L 167.97027737084704 341.44067560412606 L 301.733878646 157.33087319189062 L 394.2958439831529 365.22845120398335 L 394.2958439831529 365.22845120398335 Z" stroke-linecap="square" stroke-miterlimit="10" stroke-dasharray="" id="0.36000000000000015"/><path fill="#FFFFFF" stroke="#000000" paint-order="fill stroke markers" d=" M 391.0239807961009 365.63413798661435 L 169.25487390463508 338.40431557511636 L 303.721145299264 159.9615464382693 L 391.0239807961009 365.63413798661435 L 391.0239807961009 365.63413798661435 Z" stroke-linecap="square" stroke-miterlimit="10" stroke-dasharray="" id="0.37000000000000016"/><path fill="#FFFFFF" stroke="#000000" paint-order="fill stroke markers" d=" M 387.7709170816512 365.9495834592876 L 170.60822196901606 335.42935702193694 L 305.6208609493327 162.62105951877547 L 387.7709170816512 365.9495834592876 L 387.7709170816512 365.9495834592876 Z" stroke-linecap="square" stroke-miterlimit="10" stroke-dasharray="" id="0.38000000000000017"/><path fill="#FFFFFF" stroke="#000000" paint-order="fill stroke markers" d=" M 384.53879832321053 366.1755774659688 L 172.02856479734746 332.51726306573846 L 307.432636879442 165.30715946829272 L 384.53879832321053 366.1755774659688 L 384.53879832321053 366.1755774659688 Z" stroke-linecap="square" stroke-miterlimit="10" stroke-dasharray="" id="0.3900000000000002"/><path fill="#FFFFFF" stroke="#000000" paint-order="fill stroke markers" d=" M 381.32974798666226 366.31295711347684 L 173.51411570091668 329.6694541285107 L 309.156136312421 168.0175887580125 L 381.32974798666226 366.31295711347684 L 381.32974798666226 366.31295711347684 Z" stroke-linecap="square" stroke-miterlimit="10" stroke-dasharray="" id="0.4000000000000002"/><path fill="#FFFFFF" stroke="#000000" paint-order="fill stroke markers" d=" M 378.145866526609 366.3626062405329 L 175.06305902563702 326.88730733793824 L 310.79107444775394 170.75008642152886 L 378.145866526609 366.3626062405329 L 378.145866526609 366.3626062405329 Z" stroke-linecap="square" stroke-miterlimit="10" stroke-dasharray="" id="0.4100000000000002"/><path fill="#FFFFFF" stroke="#000000" paint-order="fill stroke markers" d=" M 374.9892304044929 366.32545486656204 L 176.6735511203394 324.17215595266754 L 312.3372184751677 173.50238918077048 L 374.9892304044929 366.32545486656204 L 374.9892304044929 366.32545486656204 Z" stroke-linecap="square" stroke-miterlimit="10" stroke-dasharray="" id="0.4200000000000002"/><path fill="#FFFFFF" stroke="#000000" paint-order="fill stroke markers" d=" M 371.86189111899836 366.20247862049996 L 178.34372131623843 321.5252888082072 L 313.79438756476316 176.27223257129285 L 371.86189111899836 366.20247862049996 L 371.86189111899836 366.20247862049996 Z" stroke-linecap="square" stroke-miterlimit="10" stroke-dasharray="" id="0.4300000000000002"/><path fill="#FFFFFF" stroke="#000000" paint-order="fill stroke markers" d=" M 368.76587424913424 365.99469814986867 L 180.0716729171475 318.94794978367537 L 315.16245283371825 179.05735206645602 L 368.76587424913424 365.99469814986867 L 368.76587424913424 365.99469814986867 Z" stroke-linecap="square" stroke-miterlimit="10" stroke-dasharray="" id="0.4400000000000002"/><path fill="#FFFFFF" stroke="#000000" paint-order="fill stroke markers" d=" M 365.7031785103885 365.7031785103885 L 181.85548420001223 316.4413372895993 L 316.44133728959923 181.8554842000122 L 365.7031785103885 365.7031785103885 L 365.7031785103885 365.7031785103885 Z" stroke-linecap="square" stroke-miterlimit="10" stroke-dasharray="" id="0.45000000000000023"/><path fill="#FFFFFF" stroke="#000000" paint-order="fill stroke markers" d=" M 362.67577482434234 365.3290285364051 L 183.69320942533022 314.00660377696437 L 317.6310157503274 184.66436768663056 L 362.67577482434234 365.3290285364051 L 362.67577482434234 365.3290285364051 Z" stroke-linecap="square" stroke-miterlimit="10" stroke-dasharray="" id="0.46000000000000024"/><path fill="#FFFFFF" stroke="#000000" paint-order="fill stroke markers" d=" M 359.68560540212496 364.87340019241515 L 185.58287985701844 311.64485526769965 L 318.73151474085654 187.4817445398852 L 359.68560540212496 364.87340019241515 L 359.68560540212496 364.87340019241515 Z" stroke-linecap="square" stroke-miterlimit="10" stroke-dasharray="" id="0.47000000000000025"/><path fill="#FFFFFF" stroke="#000000" paint-order="fill stroke markers" d=" M 356.73458284208505 364.33748790598355 L 187.52250479128838 309.3571509067799 L 319.7429123666265 190.30536118723657 L 356.73458284208505 364.33748790598355 L 356.73458284208505 364.33748790598355 Z" stroke-linecap="square" stroke-miterlimit="10" stroke-dasharray="" id="0.48000000000000026"/><path fill="#FFFFFF" stroke="#000000" paint-order="fill stroke markers" d=" M 353.82458924204764 363.7225278823516 L 189.51007259408425 307.14450253611335 L 320.66533816386806 193.13296958153504 L 353.82458924204764 363.7225278823516 L 353.82458924204764 363.7225278823516 Z" stroke-linecap="square" stroke-miterlimit="10" stroke-dasharray="" id="0.49000000000000027"/><path fill="#FFFFFF" stroke="#000000" paint-order="fill stroke markers" d=" M 350.9574753265206 363.0297974010423 L 191.54355174663743 305.00787429037774 L 321.49897292684193 195.96232830858003 L 350.9574753265206 363.0297974010423 L 350.9574753265206 363.0297974010423 Z" stroke-linecap="square" stroke-miterlimit="10" stroke-dasharray="" id="0.5000000000000002"/><path fill="#FFFFFF" stroke="#000000" paint-order="fill stroke markers" d=" M 348.1350595892068 362.26061409477734 L 193.6208918986867 302.9481822149554 L 322.2440485121065 198.79120369026722 L 348.1350595892068 362.26061409477734 L 348.1350595892068 362.26061409477734 Z" stroke-linecap="square" stroke-miterlimit="10" stroke-dasharray="" id="0.5100000000000002"/><path fill="#FFFFFF" stroke="#000000" paint-order="fill stroke markers" d=" M 345.35912745117395 361.4163352110264 L 195.7400249289102 300.9662939061128 L 322.9008476199158 201.6173708828608 L 345.35912745117395 361.4163352110264 L 345.35912745117395 361.4163352110264 Z" stroke-linecap="square" stroke-miterlimit="10" stroke-dasharray="" id="0.5200000000000002"/><path fill="#FFFFFF" stroke="#000000" paint-order="fill stroke markers" d=" M 342.6314304350249 360.4983568565155 L 197.89886601211538 299.0630281735562 L 323.46970355285964 204.4386149699283 L 342.6314304350249 360.4983568565155 L 342.6314304350249 360.4983568565155 Z" stroke-linecap="square" stroke-miterlimit="10" stroke-dasharray="" id="0.5300000000000002"/><path fill="#FFFFFF" stroke="#000000" paint-order="fill stroke markers" d=" M 339.953685355407 359.50811322503023 L 200.09531469272636 297.23915472549095 L 323.9509999518666 207.25273204947885 L 339.953685355407 359.50811322503023 L 339.953685355407 359.50811322503023 Z" stroke-linecap="square" stroke-miterlimit="10" stroke-dasharray="" id="0.5400000000000003"/><path fill="#FFFFFF" stroke="#000000" paint-order="fill stroke markers" d=" M 337.32757352619006 358.4470758088534 L 202.32725596410972 295.49539387629864 L 324.3451705097002 210.05753031484795 L 337.32757352619006 358.4470758088534 L 337.32757352619006 358.4470758088534 Z" stroke-linecap="square" stroke-miterlimit="10" stroke-dasharray="" id="0.5500000000000003"/><path fill="#FFFFFF" stroke="#000000" paint-order="fill stroke markers" d=" M 334.7547399846375 357.3167525941856 L 204.59256135327564 293.8324162769394 L 324.6526986620868 212.85083112887503 L 334.7547399846375 357.3167525941856 L 334.7547399846375 357.3167525941856 Z" stroke-linecap="square" stroke-miterlimit="10" stroke-dasharray="" id="0.5600000000000003"/><path fill="#FFFFFF" stroke="#000000" paint-order="fill stroke markers" d=" M 332.2367927328873 356.1186872409007 L 206.88909001048944 292.2508426681769 L 324.8741172566232 215.63047009092242 L 332.2367927328873 356.1186872409007 L 332.2367927328873 356.1186872409007 Z" stroke-linecap="square" stroke-miterlimit="10" stroke-dasharray="" id="0.5700000000000003"/><path fill="#FFFFFF" stroke="#000000" paint-order="fill stroke markers" d=" M 329.7753019970511 354.8544582469984 L 209.2146898033278 290.7512436567139 L 325.0100081996211 218.39429809628774 L 329.7753019970511 354.8544582469984 L 329.7753019970511 354.8544582469984 Z" stroke-linecap="square" stroke-miterlimit="10" stroke-dasharray="" id="0.5800000000000003"/><path fill="#FFFFFF" stroke="#000000" paint-order="fill stroke markers" d=" M 327.37179950423536 353.52567809811717 L 211.5671984147113 289.3341395143168 L 325.06100208105335 221.14018238756603 L 327.37179950423536 353.52567809811717 L 327.37179950423536 353.52567809811717 Z" stroke-linecap="square" stroke-miterlimit="10" stroke-dasharray="" id="0.5900000000000003"/><path fill="#FFFFFF" stroke="#000000" paint-order="fill stroke markers" d=" M 325.0277777777778 352.13399240248106 L 213.9444444444443 288 L 325.0277777777778 223.86600759751892 L 325.0277777777778 352.13399240248106 L 325.0277777777778 352.13399240248106 Z" stroke-linecap="square" stroke-miterlimit="10" stroke-dasharray="" id="0.6000000000000003"/><path fill="#FFFFFF" stroke="#000000" paint-order="fill stroke markers" d=" M 322.74468945098755 350.68107901165683 L 216.3442485137918 286.749244205328 L 324.9110620352206 226.56967678301513 L 322.74468945098755 350.68107901165683 L 322.74468945098755 350.68107901165683 Z" stroke-linecap="square" stroke-miterlimit="10" stroke-dasharray="" id="0.6100000000000003"/><path fill="#FFFFFF" stroke="#000000" paint-order="fill stroke markers" d=" M 320.52394659966706 349.1686471275047 L 218.7644243726214 285.5822404228879 L 324.7116290277115 229.24911244960745 L 320.52394659966706 349.1686471275047 L 320.52394659966706 349.1686471275047 Z" stroke-linecap="square" stroke-miterlimit="10" stroke-dasharray="" id="0.6200000000000003"/><path fill="#FFFFFF" stroke="#000000" paint-order="fill stroke markers" d=" M 318.36692009368977 347.59843639571096 L 221.20278000863834 284.499306037972 L 324.43029989767183 231.90225756631705 L 318.36692009368977 347.59843639571096 L 318.36692009368977 347.59843639571096 Z" stroke-linecap="square" stroke-miterlimit="10" stroke-dasharray="" id="0.6300000000000003"/><path fill="#FFFFFF" stroke="#000000" paint-order="fill stroke markers" d=" M 316.27493896789554 345.9722159862964 L 223.6571187582412 283.5007074435039 L 324.0679422738632 234.52707657019965 L 316.27493896789554 345.9722159862964 L 316.27493896789554 345.9722159862964 Z" stroke-linecap="square" stroke-miterlimit="10" stroke-dasharray="" id="0.6400000000000003"/><path fill="#FFFFFF" stroke="#000000" paint-order="fill stroke markers" d=" M 314.2492898125613 344.2917836614987 L 226.12524041852367 282.5866599782288 L 323.625469768915 237.12155636027248 L 314.2492898125613 344.2917836614987 L 314.2492898125613 344.2917836614987 Z" stroke-linecap="square" stroke-miterlimit="10" stroke-dasharray="" id="0.6500000000000004"/><path fill="#FFFFFF" stroke="#000000" paint-order="fill stroke markers" d=" M 312.2912161836937 342.55896483143323 L 228.6049423599502 281.7573278881818 L 323.10384145635607 239.68370728038497 L 312.2912161836937 342.55896483143323 L 312.2912161836937 342.55896483143323 Z" stroke-linecap="square" stroke-miterlimit="10" stroke-dasharray="" id="0.6600000000000004"/><path fill="#FFFFFF" stroke="#000000" paint-order="fill stroke markers" d=" M 310.4019180333851 340.77561159794004 L 231.09402063923073 281.01282431143824 L 322.50406132738414 242.21156409062175 L 310.4019180333851 340.77561159794004 L 310.4019180333851 340.77561159794004 Z" stroke-linecap="square" stroke-miterlimit="10" stroke-dasharray="" id="0.6700000000000004"/><path fill="#FFFFFF" stroke="#000000" paint-order="fill stroke markers" d=" M 308.5825511604632 338.9436017870308 L 233.5902711119214 280.3532112861386 L 321.8271777276154 244.70318692683054 L 308.5825511604632 338.9436017870308 L 308.5825511604632 338.9436017870308 Z" stroke-linecap="square" stroke-miterlimit="10" stroke-dasharray="" id="0.6800000000000004"/><path fill="#FFFFFF" stroke="#000000" paint-order="fill stroke markers" d=" M 306.8342266816586 337.06483797035304 L 236.09149054427763 279.77849978177454 L 321.0742827740637 247.15666224787242 L 306.8342266816586 337.06483797035304 L 306.8342266816586 337.06483797035304 Z" stroke-linecap="square" stroke-miterlimit="10" stroke-dasharray="" id="0.6900000000000004"/><path fill="#FFFFFF" stroke="#000000" paint-order="fill stroke markers" d=" M 305.1580105235044 335.14124647609316 L 238.59547772388746 279.288649753709 L 320.2465117526081 249.57010377019785 L 305.1580105235044 335.14124647609316 L 305.1580105235044 335.14124647609316 Z" stroke-linecap="square" stroke-miterlimit="10" stroke-dasharray="" id="0.7000000000000004"/><path fill="#FFFFFF" stroke="#000000" paint-order="fill stroke markers" d=" M 303.5549229351753 333.17477638974526 L 241.1000345686115 278.88357022089843 L 319.3450424962132 251.94165338935636 L 303.5549229351753 333.17477638974526 L 303.5549229351753 333.17477638974526 Z" stroke-linecap="square" stroke-miterlimit="10" stroke-dasharray="" id="0.7100000000000004"/><path fill="#FFFFFF" stroke="#000000" paint-order="fill stroke markers" d=" M 302.0259380224629 331.1673985451746 L 243.60296723335995 278.5631193667717 L 318.3710947441771 254.26948208805373 L 302.0259380224629 331.1673985451746 L 302.0259380224629 331.1673985451746 Z" stroke-linecap="square" stroke-miterlimit="10" stroke-dasharray="" id="0.7200000000000004"/><path fill="#FFFFFF" stroke="#000000" paint-order="fill stroke markers" d=" M 300.57198330307773 329.12110450641063 L 246.10208721423479 278.3271046632138 L 317.3259294826875 256.5517908303756 L 300.57198330307773 329.12110450641063 L 300.57198330307773 329.12110450641063 Z" stroke-linecap="square" stroke-miterlimit="10" stroke-dasharray="" id="0.7300000000000004"/><path fill="#FFFFFF" stroke="#000000" paint-order="fill stroke markers" d=" M 299.19393928345704 327.0379055406063 L 248.59521244956915 278.17528301759125 L 316.21084826697376 258.78681144180246 L 299.19393928345704 327.0379055406063 L 299.19393928345704 327.0379055406063 Z" stroke-linecap="square" stroke-miterlimit="10" stroke-dasharray="" id="0.7400000000000004"/><path fill="#FFFFFF" stroke="#000000" paint-order="fill stroke markers" d=" M 297.8926390572519 324.9198315826045 L 251.08016841739553 278.1073609427481 L 315.0271925253525 260.9728074746474 L 297.8926390572519 324.9198315826045 L 297.8926390572519 324.9198315826045 Z" stroke-linecap="square" stroke-miterlimit="10" stroke-dasharray="" id="0.7500000000000004"/><path fill="#FFFFFF" stroke="#000000" paint-order="fill stroke markers" d=" M 296.6688679256548 322.7689301915566 L 253.55478922887684 278.12299474989084 L 313.7763428454684 263.1080750585525 L 296.6688679256548 322.7689301915566 L 296.6688679256548 322.7689301915566 Z" stroke-linecap="square" stroke-miterlimit="10" stroke-dasharray="" id="0.7600000000000005"/><path fill="#FFFFFF" stroke="#000000" paint-order="fill stroke markers" d=" M 295.5233630397226 320.5872655000396 L 256.01691871723614 278.2217907642729 L 312.4597182430412 265.1909437356875 L 295.5233630397226 320.5872655000396 L 295.5233630397226 320.5872655000396 Z" stroke-linecap="square" stroke-miterlimit="10" stroke-dasharray="" id="0.7700000000000005"/><path fill="#FFFFFF" stroke="#000000" paint-order="fill stroke markers" d=" M 294.45681306484045 318.37691715612215 L 258.46441152172264 278.403305563578 L 311.0787754134369 267.2197772802998 L 294.45681306484045 318.37691715612215 L 294.45681306484045 318.37691715612215 Z" stroke-linecap="square" stroke-miterlimit="10" stroke-dasharray="" id="0.7800000000000005"/><path fill="#FFFFFF" stroke="#000000" paint-order="fill stroke markers" d=" M 293.469857867461 316.1399792588331 L 260.89513416615284 278.66704623889484 L 309.6350079663862 269.1929745022721 L 293.469857867461 316.1399792588331 L 293.469857867461 316.1399792588331 Z" stroke-linecap="square" stroke-miterlimit="10" stroke-dasharray="" id="0.7900000000000005"/><path fill="#FFFFFF" stroke="#000000" paint-order="fill stroke markers" d=" M 292.5630882242477 313.8785592874875 L 263.3069661315702 279.01247067816433 L 308.12994564418204 271.1089700343481 L 292.5630882242477 313.8785592874875 L 292.5630882242477 313.8785592874875 Z" stroke-linecap="square" stroke-miterlimit="10" stroke-dasharray="" id="0.8000000000000005"/><path fill="#FFFFFF" stroke="#000000" paint-order="fill stroke markers" d=" M 291.7370455537389 311.59477702532837 L 265.6978009225668 279.4389878719734 L 306.56515352369433 272.96623510269825 L 291.7370455537389 311.59477702532837 L 291.7370455537389 311.59477702532837 Z" stroke-linecap="square" stroke-miterlimit="10" stroke-dasharray="" id="0.8100000000000005"/><path fill="#FFFFFF" stroke="#000000" paint-order="fill stroke markers" d=" M 290.9922216706414 309.2907634779438 L 268.065547126814 279.9459582415579 L 304.9422312025446 274.7632782804983 L 290.9922216706414 309.2907634779438 L 290.9922216706414 309.2907634779438 Z" stroke-linecap="square" stroke-miterlimit="10" stroke-dasharray="" id="0.8200000000000005"/><path fill="#FFFFFF" stroke="#000000" paint-order="fill stroke markers" d=" M 290.32905856285396 306.9686597869231 L 270.4081294673533 280.53269398887164 L 303.2628119697927 276.49864622420523 L 290.32905856285396 306.9686597869231 L 290.32905856285396 306.9686597869231 Z" stroke-linecap="square" stroke-miterlimit="10" stroke-dasharray="" id="0.8300000000000005"/><path fill="#FFFFFF" stroke="#000000" paint-order="fill stroke markers" d=" M 289.7479481913091 304.63061613921394 L 272.7234898471987 281.1984594685658 L 301.5285619614922 278.1709243922203 L 289.7479481913091 304.63061613921394 L 289.7479481913091 304.63061613921394 Z" stroke-linecap="square" stroke-miterlimit="10" stroke-dasharray="" id="0.8400000000000005"/><path fill="#FFFFFF" stroke="#000000" paint-order="fill stroke markers" d=" M 289.24923231271646 302.2787906726484 L 275.00958838580794 281.94247158171663 L 299.7411793014756 279.778737745635 L 289.24923231271646 302.2787906726484 L 289.24923231271646 302.2787906726484 Z" stroke-linecap="square" stroke-miterlimit="10" stroke-dasharray="" id="0.8500000000000005"/><path fill="#FFFFFF" stroke="#000000" paint-order="fill stroke markers" d=" M 288.83320232527706 299.9153483781035 L 277.26440444698216 282.76390019113046 L 297.9023932277408 281.32075143076605 L 288.83320232527706 299.9153483781035 L 288.83320232527706 299.9153483781035 Z" stroke-linecap="square" stroke-miterlimit="10" stroke-dasharray="" id="0.8600000000000005"/><path fill="#FFFFFF" stroke="#000000" paint-order="fill stroke markers" d=" M 288.5000991374326 297.54245999876593 L 279.4859376577556 283.6618685580443 L 296.01396320481183 282.79567144318975 L 288.5000991374326 297.54245999876593 L 288.5000991374326 297.54245999876593 Z" stroke-linecap="square" stroke-miterlimit="10" stroke-dasharray="" id="0.8700000000000006"/><path fill="#FFFFFF" stroke="#000000" paint-order="fill stroke markers" d=" M 288.2501130597013 295.1623009269702 L 281.67220891784433 284.63545380003444 L 294.0776780224544 284.20224527299536 L 288.2501130597013 295.1623009269702 L 288.2501130597013 295.1623009269702 Z" stroke-linecap="square" stroke-miterlimit="10" stroke-dasharray="" id="0.8800000000000006"/><path fill="#FFFFFF" stroke="#000000" paint-order="fill stroke markers" d=" M 288.0833837196448 292.77705009908055 L 283.82126139922286 285.68368736993415 L 292.0953548811323 285.5392625309853 L 288.0833837196448 292.77705009908055 L 288.0833837196448 292.77705009908055 Z" stroke-linecap="square" stroke-miterlimit="10" stroke-dasharray="" id="0.8900000000000006"/><path fill="#FFFFFF" stroke="#000000" paint-order="fill stroke markers" d=" M 288 290.3888888888889 L 285.9311615354038 286.80555555555554 L 290.0688384645962 286.80555555555554 L 288 290.3888888888889 L 288 290.3888888888889 Z" stroke-linecap="square" stroke-miterlimit="10" stroke-dasharray="" id="0.9000000000000006"/></g></g></svg>