<?xml version="1.0" encoding="utf-8" ?>
<svg xmlns="http://www.w3.org/2000/svg" xmlns:cc="http://creativecommons.org/ns" xmlns:dc="http://purl.org/dc/elements/1.1/" xmlns:ev="http://www.w3.org/2001/xml-events" xmlns:inkscape="http://www.inkscape.org/namespaces/inkscape" xmlns:rdf="http://www.w3.org/1999/02/22-rdf-syntax-ns" xmlns:sodipodi="http://sodipodi.sourceforge.net/DTD/sodipodi-0.dtd" xmlns:xlink="http://www.w3.org/1999/xlink" baseProfile="tiny" height="21.59cm" version="1.2" viewBox="0 0 1056.0 816.0" width="27.94cm">
  <metadata>
    <rdf:RDF>
      <cc:Work>
        <dc:format>image/svg+xml</dc:format>
        <dc:source>vpype read -a stroke --no-crop 'C:/Users/lewi0/Desktop/lewi0622.github.io/images/Email List Signup.svg' scaleto 8.5in 11in rotate 90 layout -l 8.5x11in linemerge linesort reloop linesimplify write 'C:/Users/lewi0/Desktop/lewi0622.github.io/images/Email List Signup_PROCESSED.svg'
</dc:source>
        <dc:date>2023-05-18T20:41:19.100919</dc:date>
      </cc:Work>
    </rdf:RDF>
  </metadata>
  <defs/>
  <g fill="none" id="layer1" inkscape:groupmode="layer" inkscape:label="1" stroke="#000000" stroke-width="1.0" style="display:inline">
    <polygon points="1038.9015,141.0367 1039.6449,139.9216 1041.1912,139.4458 1043.11,139.6553 1044.8252,140.5872 1049.4332,146.3645 1051.6169,150.6856 1052.2132,152.6138 1052.4688,158.2282 1054.0485,162.5028 1054.2542,164.4778 1053.3621,167.5506 1051.3043,171.102 1050.3258,171.7848 1048.9376,172.0123 1047.2855,171.737 1046.0581,171.1747 1045.389,170.2827 1045.6616,168.9941 1047.9944,165.2913 1048.2387,162.9427 1047.079,158.6309 1046.5834,157.8874 1046.6163,156.4613 1046.0189,153.5761 1043.9815,147.3557 1040.8839,143.3909 1039.2732,141.904"/>
    <polygon points="998.5092,146.7362 1017.9583,150.3558 1028.6679,151.8242 1043.3118,153.3266 1045.0423,154.197 1045.4406,155.8149 1045.2195,156.4907 1044.473,157.1666 1042.7035,157.4369 1028.0327,156.0686 1019.4387,154.9113 996.9295,150.887 978.8615,145.3843 975.4286,143.7923 972.4897,141.7801 969.7434,138.7596 967.9924,135.7806 967.4097,133.8504 967.5336,134.4699 968.9164,129.6897 970.5486,126.2648 974.0094,123.0798 978.3991,120.8614 981.9063,119.7255 983.9197,119.406 986.0639,119.4364 987.6058,120.0972 988.6763,121.3659 988.6728,122.059 988.2873,122.6372 980.147,125.4054 978.0382,126.6647 976.0945,128.3962 974.6425,130.1701 973.7713,131.8229 973.4809,133.3548 973.7773,134.8079 974.9154,136.7537 976.5158,138.5434 978.6166,140.3944 980.5589,141.571 992.0073,145.2425"/>
    <polygon points="975.2775,178.8889 974.8506,176.2259 975.1528,173.4727 976.0795,171.3392 977.9414,169.1625 980.2703,167.6099 982.4455,166.8757 985.3929,166.7186 988.4769,167.2309 992.0065,168.521 995.2759,170.331 999.5829,173.5075 1002.7789,176.4071 1005.8483,179.9081 1008.7932,184.0308 1009.1649,185.7655 1008.9355,187.9036 1008.0037,189.2399 1007.086,189.276 1006.1912,188.6152 1000.4198,192.5331 998.0106,193.6172 994.0488,194.1908 990.6031,193.7047 985.7469,191.5226 981.1629,187.9957 977.5687,183.7096 976.172,181.2469"/>
    <polygon points="979.5109,179.5336 981.4012,182.8722 984.6108,186.4594 988.6338,189.5254 991.9275,190.9571 994.9447,191.1904 997.9478,190.4663 1001.1597,188.8232 1004.5805,186.2611 1000.5355,181.386 995.8497,177.0934 991.3377,174.0933 987.4326,172.4842 985.0999,172.0548 983.0492,172.0562 981.237,172.4077 979.9081,173.1106 979.0624,174.165 978.7,175.5708 978.8501,177.3722"/>
    <polygon points="1004.3307,207.9576 997.3941,206.2094 991.0206,205.0286 980.8222,204.9704 979.6761,204.227 979.1254,203.4698 978.7124,202.2824 978.7468,201.3617 979.2424,200.6183 980.3963,200.1614 984.5287,199.7091 988.8219,199.9194 994.6683,201.1294 1005.1504,204.7028 1005.8938,205.7435 1005.8117,207.1929 1005.4168,207.7892"/>
    <polygon points="981.008,243.109 983.3931,242.141 996.1964,239.2224 997.8815,238.066 998.11,236.0836 997.6832,234.7895 997.0224,233.9635 989.8684,227.3302 984.7759,223.5457 978.6191,219.8447 977.9124,218.9269 977.5911,217.7888 977.7035,216.7113 978.105,216.2504 980.2795,215.922 991.5707,217.2366 1006.439,219.5908 1007.9562,220.5415 1008.2528,222.1032 1007.8949,222.8742 1007.179,223.2597 1003.0936,222.6883 999.5846,222.5706 996.6507,222.6883 992.438,223.4318 993.5169,225.0292 999.1813,231.0381 1001.7098,234.1739 1003.961,238.1761 1004.0626,239.9938 1003.5273,241.4905 1001.8546,242.6366 987.9314,244.8154 984.831,245.863 983.288,247.0351 982.7736,248.4601 983.1591,250.1121 986.2429,254.2835 989.3405,257.1332 989.5883,258.1244 989.3095,258.7749 988.156,258.9521 986.4907,258.0005 981.3851,253.709 979.0454,250.7225 978.0641,248.2544 978.0641,246.2537 979.0454,244.5364"/>
    <polygon points="1018.3642,208.0297 1017.7401,206.6347 1017.8535,205.404 1018.5853,204.6606 1019.4217,204.4748 1025.0691,205.8652 1025.9777,207.0217 1025.6389,209.193 1024.5089,209.867 1020.6481,209.2079"/>
    <polygon points="980.7363,321.3584 989.9324,318.5339 991.2541,317.8317 991.6671,317.2871 991.2154,315.0746 989.4999,311.7597 985.8095,306.3259 982.1789,302.2487 981.7824,300.6231 981.9201,299.0674 982.5319,297.807 990.6191,294.9682 991.9361,293.9579 992.0302,292.8852 991.6236,291.2493 990.7653,289.6887 988.0821,287.0693 984.5293,285.0361 977.8175,282.6572 976.8263,282.0515 976.2455,280.7212 976.4684,278.9952 976.9334,278.4139 978.0669,277.978 982.7601,278.1638 992.0019,279.1867 1004.8007,281.1015 1005.3789,281.6798 1005.5269,282.9498 1005.169,283.5555 1004.4531,283.8584 992.5619,283.7723 991.6327,284.0201 991.3229,284.7635 991.6533,285.4244 995.5103,288.4074 997.7847,291.1853 998.8244,293.7598 998.9286,296.1142 998.0708,297.5952 996.6984,298.516 988.6005,300.6472 987.8846,301.0877 987.5267,301.721 987.6207,302.7839 988.5227,304.3649 994.945,312.7601 997.897,317.1107 998.8536,319.2046 998.5846,320.4748 997.4467,321.5823 995.0406,322.7163 985.3449,325.0119 982.2483,326.3344 981.724,326.9488 981.2868,329.3684 981.4933,332.7104 981.1629,333.4263 980.0478,333.8289 978.468,333.1475 977.4272,331.621 976.7575,329.6713 976.6129,327.1107 976.8374,325.1132 977.4376,323.8432 978.863,322.4299"/>
    <polygon points="956.1017,337.2076 952.4469,333.4013 948.5239,330.0709 944.9364,327.7286 941.3812,326.0889 937.2743,325.0642 933.4344,325.0112 931.1447,325.8364 929.8363,327.4867 929.5092,329.0454 929.6296,330.9891 931.0448,334.5675 934.3203,338.4222 938.9521,341.9604 945.4201,345.5032 952.9441,348.3256 957.984,349.4652 961.2146,349.4407 962.7166,348.9021 963.3993,348.1359 963.197,346.467"/>
    <polygon points="976.3429,340.6156 977.2362,338.7466 979.278,337.1537 981.9579,336.2351 985.4715,335.7599 992.2125,335.7763 998.637,336.3186 1004.0111,337.354 1007.9556,338.8049 1008.6246,339.8457 1008.5668,341.0911 1008.0293,342.0127 1006.5957,342.6681 1003.0141,342.5297 993.1505,340.5197 988.5781,340.1544 985.8313,340.3784 983.8268,340.9224 982.5647,341.7864 982.0451,342.9704 982.309,344.5698 983.3795,346.3837 987.7793,350.7144 991.1439,353.3184 995.2878,355.7597 1004.3624,360.1112 1005.0315,361.0776 1004.7575,362.7109 1004.1911,363.1661 1003.0317,363.2558 995.3572,360.473 988.1124,358.7196 972.6136,356.751 974.8439,363.4417 974.682,364.2913 974.1965,364.8577 972.3581,365.1066 971.4985,364.0612 969.2683,356.2553 957.903,354.5016 949.1961,351.9738 940.6732,348.1645 936.607,345.6793 933.6323,343.3998 929.7285,339.3897 927.2151,335.1786 926.0921,330.7665 926.0558,328.4881 926.3881,326.5138 927.2741,324.5718 928.4186,323.3095 930.2792,322.222 932.2359,321.6718 935.0712,321.4387 937.6602,321.6409 940.5738,322.3305 943.2821,323.3819 946.607,325.1775 949.7267,327.335 956.4717,333.4273 963.2045,341.2566 971.0029,352.0427 977.5697,352.0427 982.8975,352.5383 979.2159,348.5506 977.3481,345.83 976.3577,343.258"/>
    <polygon points="1004.3673,414.1061 1001.6842,413.6533 999.0257,412.5642 996.0641,410.5783 993.4575,408.1369 990.5485,404.5155 987.8352,400.4188 986.8268,397.8528 986.4907,395.0369 983.8283,395.4219 982.0164,396.1245 980.5743,397.1741 979.502,398.5707 978.7033,400.7047 978.4426,403.6881 979.7552,410.3974 979.3973,411.1133 978.6814,411.4712 977.763,411.4714 977.0295,411.1145 975.8563,409.4316 974.9225,407.355 974.1199,403.0691 974.534,398.555 976.2415,394.7693 977.9961,392.7884 980.1596,391.3272 982.6922,390.3905 985.5938,389.9783 988.9688,390.0808 992.0581,390.748 994.8691,391.9104 997.4504,393.4802 1001.1264,396.4631 1004.5881,400.079 1007.2684,403.7404 1008.8766,407.0985 1009.4127,410.153 1008.8895,412.4659 1007.3201,413.7875"/>
    <polygon points="991.4468,457.0425 991.6946,456.4926 991.4816,455.2311 990.0839,452.156 986.0871,446.0815 982.1789,441.6392 981.7824,440.0136 982.0272,438.0556 982.7614,437.0277 988.8102,435.1517 991.7045,433.6252 992.0663,432.9512 991.7411,430.961 990.2955,428.476 987.287,425.9109 984.1266,424.2532 977.8175,422.0477 976.8263,421.442 976.2455,420.1118 976.3231,418.7636 976.9334,417.8045 977.6309,417.4557 986.2982,417.8756 1003.8371,420.1892 1005.138,420.7468 1005.5235,421.4626 1005.3927,422.681 1004.4531,423.2489 992.5619,423.1629 991.6327,423.4107 991.3229,424.1541 991.6533,424.8149 995.5103,427.7979 997.7847,430.5759 998.8244,433.1504 998.9286,435.5047 998.0708,436.9857 996.6984,437.9065 988.6005,440.0377 987.8846,440.4782 987.5267,441.1115 987.6207,442.1745 988.5227,443.7555 997.7261,456.2153 998.8195,458.4484 998.6913,459.6686 997.4467,460.9729 995.0406,462.1068 985.8528,464.2606 982.4613,465.5739 981.724,466.3393 981.2868,468.759 981.3694,472.5036 980.5021,473.1747 979.707,473.1922 978.7592,472.7833 977.4272,471.0115 976.6405,468.2634 976.7624,464.8406 977.6627,462.9356 978.863,461.8204 980.5434,460.8292 989.4644,458.0956"/>
    <polygon points="995.2786,404.6428 998.2201,407.6337 1000.8221,409.2444 1002.4064,409.7058 1004.1262,409.7125 1005.2619,408.6352 1004.9938,406.7989 1004.3752,405.2666 1001.9008,402.092 998.0693,399.1055 993.9249,396.7716 993.0278,396.717 992.3587,397.7578 992.5252,399.2221 993.7367,402.3059"/>
    <polygon points="986.0084,507.5 982.5197,508.3748 978.6848,510.2664 977.5697,509.9876 976.4546,509.1513 975.5253,508.0671 975.2156,507.0449 975.7112,505.9298 977.0529,504.8378 980.728,503.1584 985.3974,502.4735 992.1498,502.7994 992.9589,502.5364 993.3028,502.0104 993.1814,501.2215 992.2641,499.9431 979.6503,484.0166 978.3389,481.6128 977.8175,478.2995 978.4061,476.2242 980.583,474.2237 982.1937,473.5422 983.7494,473.2738 987.321,473.8696 991.4286,475.7158 996.4486,479.0277 1001.5328,483.3802 1005.3394,487.5361 1008.506,492.0333 1010.4383,496.2207 1011.2437,500.0238 1011.0876,502.9546 1010.124,505.1252 1008.3343,506.1118 1006.6249,505.9298 1006.3151,504.443 1008.1614,501.3772 1008.5057,499.0843 1007.118,495.527 1004.12,491.0309 998.929,485.66 992.7253,480.9529 987.784,478.3794 985.5959,477.9416 984.1568,478.0593 983.3072,478.7496 983.1453,479.5386 983.8053,481.875 986.4044,486.4614 990.8841,492.8915 995.5424,498.7281 999.8555,503.1838 1002.9775,505.6665 1007.496,507.949 1008.0652,508.9886 1008.143,510.3628 1007.8983,511.1337 1007.0723,511.8771 1005.0621,512.0809 1002.8803,511.4211 1000.7395,510.2664 993.2794,508.0819 989.1483,507.3364"/>
    <polygon points="988.8219,520.8271 994.6683,522.0371 1004.7044,525.3825 1005.7451,526.2448 1005.8117,528.1006 1005.4168,528.6969 1004.7586,528.9059 997.3941,527.1171 991.0206,525.9363 986.9224,525.7561 981.218,525.9607 979.6761,525.1347 978.795,523.5928 978.9327,521.8512 980.3963,521.0691 984.1396,520.625"/>
    <polygon points="1055.938,553.9481 1055.8761,555.6652 1055.1189,557.0264 1053.6734,558.1769 1051.5395,559.1167 1048.2138,559.9503 1044.9727,560.3684 1041.9833,560.3549 1038.6258,559.8583 1030.5173,557.4224 1020.9838,553.1063 1008.6692,546.0741 1002.2263,541.2419 996.2328,540.728 989.1027,540.673 983.5021,541.1845 979.3328,542.0557 976.4782,543.2581 975.5115,544.0691 975.0282,544.9702 975.2945,547.0808 976.8495,549.3575 978.3131,550.6585 984.7709,554.8067 985.0782,556.3084 984.6817,556.9032 983.8888,557.1014 976.2619,553.7285 971.7962,550.7245 970.2565,549.2004 968.9897,547.3353 968.4178,545.7508 968.3003,543.7733 969.2708,541.2539 971.272,539.3657 974.3483,537.7726 978.8252,536.5312 984.5121,535.7495 991.9119,535.4226 998.8413,535.5969 1006.5261,536.2722 1015.6055,537.6363 1026.3241,539.7573 1035.3464,541.8904 1042.9621,544.2338 1048.4966,546.5603 1052.2754,548.8409 1054.7443,551.2375"/>
    <polygon points="1046.9689,603.028 1043.4465,603.2859 1039.7468,602.9365 1035.3692,601.9276 1030.177,600.1615 1022.9279,596.9527 1014.8356,592.6314 1008.6692,588.9444 1002.2263,584.1122 996.6507,583.6166 989.1027,583.5433 982.278,584.2361 977.9281,585.4076 975.5115,586.9395 974.9829,588.0799 975.0854,589.3007 976.549,591.9026 978.3131,593.5288 984.7709,597.6771 985.0782,599.1788 984.6817,599.7735 983.8888,599.9718 975.8687,596.3893 971.453,593.2922 969.7639,591.4535 968.7081,589.5751 968.3122,587.9796 968.4113,585.9777 969.0727,584.4181 970.2827,583.0092 972.0412,581.7508 974.3483,580.643 979.8658,579.2084 986.6767,578.4615 995.4548,578.323 1004.8479,578.9586 1014.477,580.3111 1025.909,582.5374 1035.9083,584.9122 1043.8458,587.4283 1049.7989,590.12 1053.7676,592.9874 1055.0078,594.4869 1055.8101,596.2263 1055.9862,597.932 1055.5044,599.3775 1054.3342,600.6123 1052.4757,601.6364"/>
    <polygon points="985.3316,601.3972 988.8219,601.6116 993.264,602.474 1003.8675,605.8597 1005.1504,606.3949 1005.7451,607.0293 1005.8117,608.8851 1005.4168,609.4813 1004.7586,609.6904 997.3941,607.9016 991.0206,606.7208 986.9224,606.5406 981.218,606.7452 980.0512,606.2496 979.3732,605.544 978.6848,603.565 979.2424,602.3105 981.6217,601.6039"/>
    <polygon points="1010.9808,623.1841 1014.0608,626.371 1015.6562,629.3036 1015.8439,631.289 1015.5623,633.2363 1015.1048,634.2656 1014.1664,635.0633 1012.3863,635.4078 1010.768,634.9223 1010.4443,634.3155 1010.4727,633.3841 1011.488,631.8147 1011.6429,630.8235 1011.6429,630.2039 1010.9546,628.7696 1009.7155,627.0375 1008.2798,625.7409 1006.6475,624.8798 1004.7085,624.4661 1002.4833,624.914 1000.1959,626.0948 993.3351,631.7056 990.1458,633.7352 987.0904,634.828 983.9698,634.9688 981.8099,634.4304 979.8581,633.3535 978.1143,631.7382 976.3745,629.2458 975.1797,626.7868 974.3138,623.7862 973.9932,620.9941 974.1188,618.0659 974.9381,615.1631 976.1225,613.492 977.8014,612.7548 978.6799,612.7833 979.3341,613.1797 979.5522,613.9727 978.5558,616.3402 977.9967,619.15 978.0041,621.7567 978.5054,624.1393 979.5079,626.1228 980.7263,627.4707 982.6479,628.7224 984.8405,629.5051 986.564,629.3392 988.4112,628.5313 990.9977,626.8121 996.3341,622.4684 998.4079,621.3263 1000.9614,620.4497 1003.6592,620.064 1005.847,620.2367 1008.1908,621.2485"/>
    <polygon points="1017.5902,667.1889 1017.536,668.8539 1016.7229,669.4811 1015.5381,668.9236 1014.3836,667.3599 1012.5102,654.4889 994.5444,653.095 970.7367,652.5998 970.0943,652.3551 969.4748,651.529 969.4389,648.9671 970.1975,647.8292 971.563,647.197 977.45,647.0923 994.4004,647.8708 1012.2624,649.6567 1013.6213,642.5124 1014.3749,641.3655 1015.5768,641.1488 1016.3202,641.4792 1016.9707,642.5943 1017.0258,642.14 1017.838,650.4002 1023.1536,651.6851 1039.0837,656.8482 1040.3944,657.692 1040.9474,658.6688 1041.062,660.413 1040.5044,660.8467 1040.0166,660.808 1017.9619,655.1084"/>
    <polygon points="980.9151,675.7382 983.2667,676.7079 984.4805,677.9621 984.4624,679.675 983.9531,680.4763 983.1042,681.0538 980.3878,681.5374 976.8309,681.1753 974.4079,680.2989 973.3983,679.2109 973.2507,678.0678 973.5146,677.1845 974.9922,675.9546 977.7365,675.4406"/>
    <polygon points="1040.9023,692.7253 1027.6767,689.7617 997.9575,681.9836 996.4861,681.2092 996.2067,679.9681 996.9811,679.173 999.0049,679.0216 1022.7794,683.8122 1046.9722,688.0462 1052.0095,689.6381 1053.4226,690.7491 1053.8806,691.8057 1053.6945,692.9796 1053.0971,693.7002 1050.7076,694.4588 1048.0108,694.3508 1045.4683,693.5182"/>
    <polygon points="1017.8535,607.0962 1018.5853,606.3528 1019.9444,606.167 1025.0691,607.5574 1025.9777,608.7138 1025.8037,610.5494 1025.1681,611.356 1024.1087,611.5604 1019.3784,610.4469 1017.9482,609.0855"/>
    <polygon points="1039.4442,599.4864 1042.5256,599.5691 1045.9639,599.1044 1048.5968,598.3301 1049.8049,597.4937 1048.3529,595.4242 1045.8555,593.4901 1042.3126,591.6916 1037.7244,590.0286 1025.4116,587.1091 1008.9171,584.7318 1017.6716,590.6473 1025.8323,595.1601 1033.0898,598.1065"/>
    <polygon points="1018.4878,548.2743 1028.3518,553.4459 1032.7647,555.1313 1036.8315,556.2165 1040.5521,556.7013 1043.8644,556.5611 1047.7146,555.7769 1049.8049,554.6234 1048.3529,552.5538 1045.8555,550.6198 1042.3126,548.8212 1037.7244,547.1582 1025.4116,544.2388 1008.9171,541.8614"/>
    <polygon points="1025.0691,526.7729 1025.8642,527.5576 1025.9921,528.8926 1025.6389,530.1007 1024.5089,530.7747 1021.8339,530.4315 1019.3784,529.6625 1018.1302,528.6345 1017.7401,527.5423 1018.0278,526.002 1019.4217,525.3825"/>
  </g>
  <g fill="none" id="layer2" inkscape:groupmode="layer" inkscape:label="2" stroke="#000000" stroke-width="1.0" style="display:inline">
    <line x1="868.9373" x2="868.9373" y1="58.4537" y2="757.5463"/>
    <line x1="811.0081" x2="811.0081" y1="757.5463" y2="58.4537"/>
    <line x1="753.079" x2="753.079" y1="58.4537" y2="757.5463"/>
    <line x1="695.1499" x2="695.1499" y1="757.5463" y2="58.4537"/>
    <line x1="637.2207" x2="637.2207" y1="58.4537" y2="757.5463"/>
    <line x1="579.2916" x2="579.2916" y1="757.5463" y2="58.4537"/>
    <line x1="521.3624" x2="521.3624" y1="58.4537" y2="757.5463"/>
    <line x1="463.4332" x2="463.4332" y1="757.5463" y2="58.4537"/>
    <line x1="405.5041" x2="405.5041" y1="58.4537" y2="757.5463"/>
    <line x1="347.5749" x2="347.5749" y1="757.5463" y2="58.4537"/>
    <line x1="289.6458" x2="289.6458" y1="58.4537" y2="757.5463"/>
    <line x1="231.7166" x2="231.7166" y1="757.5463" y2="58.4537"/>
    <line x1="173.7874" x2="173.7874" y1="58.4537" y2="757.5463"/>
    <line x1="115.8583" x2="115.8583" y1="757.5463" y2="58.4537"/>
    <line x1="57.9292" x2="57.9292" y1="58.4537" y2="757.5463"/>
    <line x1="0.0" x2="0.0" y1="757.5463" y2="58.4537"/>
  </g>
</svg>
