<?xml version="1.0" encoding="UTF-8" standalone="no"?>
<!-- Created with Inkscape (http://www.inkscape.org/) -->

<svg
   width="8.5in"
   height="11in"
   viewBox="0 0 215.9 279.4"
   version="1.1"
   id="svg961"
   inkscape:version="1.1.2 (b8e25be833, 2022-02-05)"
   sodipodi:docname="Email List Signup.svg"
   xmlns:inkscape="http://www.inkscape.org/namespaces/inkscape"
   xmlns:sodipodi="http://sodipodi.sourceforge.net/DTD/sodipodi-0.dtd"
   xmlns="http://www.w3.org/2000/svg"
   xmlns:svg="http://www.w3.org/2000/svg">
  <sodipodi:namedview
     id="namedview963"
     pagecolor="#ffffff"
     bordercolor="#666666"
     borderopacity="1.0"
     inkscape:pageshadow="2"
     inkscape:pageopacity="0.0"
     inkscape:pagecheckerboard="0"
     inkscape:document-units="in"
     showgrid="false"
     units="in"
     inkscape:zoom="0.68087121"
     inkscape:cx="407.56606"
     inkscape:cy="527.26565"
     inkscape:window-width="1920"
     inkscape:window-height="1017"
     inkscape:window-x="-8"
     inkscape:window-y="-8"
     inkscape:window-maximized="1"
     inkscape:current-layer="layer1" />
  <defs
     id="defs958">
    <rect
       x="7.3435327"
       y="10.280946"
       width="793.10153"
       height="148.33936"
       id="rect56741" />
  </defs>
  <g
     inkscape:label="Layer 1"
     inkscape:groupmode="layer"
     id="layer1">
    <g
       aria-label="Join my email list!"
       transform="matrix(0.26458333,0,0,0.26458333,29.539113,-3.1950272)"
       id="text56739"
       style="font-size:40px;font-family:'Square Peg';-inkscape-font-specification:'Square Peg';white-space:pre">
      <path
         d="m 30.02375,48.677614 q -0.6,0 -1.08,-0.72 -0.48,-0.84 -0.48,-1.92 0,-2.04 1.68,-3.72 v 0.12 l 5.04,-3.96 q 2.52,-1.68 5.76,-2.64 0.48,-0.12 1.8,-0.12 1.32,-0.12 3.48,-0.12 0.72,0 2.88,-0.96 1.8,-0.84 3.24,-0.84 1.92,0 3.72,1.08 l 2.76,1.56 q 1.2,0.72 1.2,2.52 0,1.2 -0.6,2.4 -0.48,1.08 -1.44,1.08 -0.72,0 -3.36,-1.92 -1.32,-0.96 -2.52,-0.96 -1.08,0 -2.16,0.48 -1.44,0.48 -2.88,0.72 l -0.72,0.48 v -0.12 q -2.28,0 -5.52,1.08 -0.48,0.12 -1.68,0.6 -1.2,0.36 -3,0.96 -0.36,0.12 -1.32,0.96 -0.96,0.72 -2.52,2.04 l -1.44,1.56 q -0.36,0.36 -0.84,0.36 z m 0.72,64.319996 q -3.6,3.84 -7.08,4.8 0.48,0.12 -0.36,0.12 h -0.24 q 0,0 0,0 0.12,0 0.6,-0.12 -0.48,-0.24 -2.16,-0.6 -1.68,-0.36 -3.6,-1.2 -1.92,-0.72 -3,-1.8 l -0.36,-0.36 q -2.76,-2.76 -4.2,-6.96 -0.48,-1.56 -0.96,-3 -0.36,-1.56 -0.36,-3.12 0,-1.439996 0.72,-2.399996 0.72,-1.08 1.56,-1.08 1.08,0 1.44,1.68 0.84,2.759996 1.68,5.519996 0.96,2.64 3,4.68 2.88,2.88 5.16,2.88 2.4,0 5.76,-3.72 0.96,-0.96 1.8,-2.4 0.84,-1.44 1.32,-3.12 l 2.4,-7.919996 q 0.72,-2.28 1.68,-7.08 1.08,-4.8 2.4,-12.12 0.84,-4.56 1.56,-9.96 0.84,-5.4 1.44,-11.52 0.12,-0.84 0.36,-3 0.24,-2.28 0.48,-5.76 0.24,-3.12 2.16,-3.12 2.28,0 1.92,3.24 l -0.84,9 q -0.48,5.88 -1.32,11.4 -0.84,5.52 -1.8,10.68 l -1.8,10.08 q -0.48,2.64 -1.2,5.16 -0.72,2.52 -1.68,5.04 l -2.52,8.639996 q -1.68,4.8 -3.96,7.44 z"
         style="-inkscape-font-specification:'Square Peg, Normal'"
         id="path65032" />
      <path
         d="m 63.743715,110.71761 q -3.84,0 -6.48,-3 -2.4,-2.76 -2.4,-6.24 0,-6.479996 5.88,-13.799996 2.4,-3.12 5.16,-5.52 2.76,-2.4 5.76,-4.32 0.6,-0.36 1.68,-0.36 3.48,0 3.48,1.68 0,0.48 -0.72,1.08 v 0.12 q 1.8,2.52 3.6,5.28 1.8,2.76 1.8,6.48 0,3.12 -1.68,6.36 -1.56,3.239996 -4.32,6.119996 -2.64,2.76 -5.76,4.44 -3.12,1.68 -6,1.68 z m 0.12,-3.72 q 3,-0.12 6.36,-2.4 3.36,-2.4 5.76,-5.759996 2.52,-3.36 2.64,-6.36 0.24,-4.68 -4.8,-10.56 -5.16,3.72 -9.12,8.76 -4.68,6.12 -4.68,11.039996 0,5.28 3.84,5.28 z"
         style="-inkscape-font-specification:'Square Peg, Normal'"
         id="path65034" />
      <path
         d="m 93.143743,69.197614 q -1.8,0 -1.68,-2.16 l 1.2,-4.56 q 0.36,-1.32 1.68,-1.32 2.76,0 2.28,2.28 -0.12,1.68 -0.84,3.72 -0.72,2.04 -2.64,2.04 z m -4.2,37.799996 q -1.08,0 -1.44,-0.96 -0.48,-1.32 -0.6,-3.24 -0.12,-1.92 0,-4.319996 0.24,-2.76 1.32,-6.96 1.2,-4.2 3.24,-9.72 0.48,-1.2 1.68,-1.2 2.28,0 1.56,2.04 -0.48,1.56 -0.84,3.12 -0.36,1.56 -0.72,3.12 -0.6,2.76 -0.96,4.92 -0.36,2.16 -0.36,3.84 0,5.879996 0.12,6.119996 0.36,1.2 -0.72,2.28 -1.08,0.96 -2.28,0.96 z"
         style="-inkscape-font-specification:'Square Peg, Normal'"
         id="path65036" />
      <path
         d="m 103.94364,108.07761 q -1.8,0 -1.32,-3.24 0.36,-4.2 1.2,-10.319996 0.96,-6.24 2.28,-14.4 0.6,-1.8 1.92,-1.8 1.68,0 1.68,1.56 0,0.12 0,0.48 0,0.24 -0.12,0.6 -0.24,1.08 -0.48,2.4 -0.12,1.2 -0.12,2.64 0,1.68 0.12,3.6 0.24,1.92 0.72,4.08 0.72,0 5.88,-5.16 5.16,-4.92 8.4,-5.88 v -0.12 q 0.36,-0.12 0.72,-0.12 0.36,0 0.6,0 2.28,0 3,2.16 l 1.68,11.16 q 1.08,7.319996 3.96,7.319996 1.2,0 2.4,-0.84 1.68,-1.2 3.24,-2.519996 1.56,-1.44 2.76,-3 0.72,-0.24 0.96,-0.24 0.84,0 0.84,1.08 0,0.72 -0.96,1.92 -1.56,1.919996 -3.24,3.959996 -1.68,1.92 -3.36,3 -2.28,1.32 -3.84,1.32 -3.24,0 -4.92,-5.28 l -2.04,-9.719996 q -1.08,-4.92 -2.76,-4.44 -0.12,0 -0.36,0 -0.12,-0.12 -0.36,-0.12 -0.48,0 -1.2,0.24 -0.6,0.24 -1.2,0.84 l -2.88,3 q -3.72,3.84 -6.24,7.44 -2.52,3.599996 -4.08,6.719996 -0.96,1.68 -2.88,1.68 z"
         style="-inkscape-font-specification:'Square Peg, Normal'"
         id="path65038" />
      <path
         d="m 164.9037,109.39761 q -2.28,0 -2.28,-2.28 0.12,-5.04 1.08,-12.119996 0.6,-4.56 1.08,-7.68 0.48,-3.12 0.6,-4.68 0.24,-1.68 1.68,-1.68 1.32,0 1.32,1.56 0,4.32 0,7.08 0,2.64 -0.12,3.72 v 0.24 q 0,1.2 0.96,1.2 0.48,0 0.96,-0.72 4.32,-6.72 9.36,-6.72 2.28,0 3.36,3.12 0.24,0.6 0.6,2.28 0.48,1.56 0.96,4.2 0.36,1.56 1.56,1.56 0.72,0 1.92,-0.84 0.6,-0.36 1.8,-1.32 1.32,-0.96 3.24,-2.52 8.16,-6.36 9.84,-6.36 2.88,0 4.44,9 1.44,7.679996 3.12,7.679996 0.48,0 2.04,0.36 1.44,0.12 1.8,0 0.24,-0.12 0.48,-0.12 0.24,-0.12 0.48,-0.12 1.56,0 1.56,1.44 0,1.68 -2.64,2.76 -1.92,0.84 -4.8,0.48 -2.76,0 -4.56,-3.72 -0.72,-1.68 -2.16,-6.959996 -0.96,-3.84 -2.04,-3.84 -1.44,0 -4.2,1.56 -2.76,1.56 -5.52,3.6 -2.76,2.039996 -4.44,3.839996 -0.48,0.6 -1.8,0.6 -2.64,0 -3,-1.2 -2.28,-8.759996 -3.84,-8.759996 -3.96,0 -7.08,5.04 -0.84,1.319996 -1.68,3.479996 -0.84,2.16 -1.8,5.28 -0.48,1.2 -0.84,0.96 -0.6,0.6 -1.44,0.6 z"
         style="-inkscape-font-specification:'Square Peg, Normal'"
         id="path65040" />
      <path
         d="m 212.42376,157.99761 q -7.68,0 -7.68,-8.76 0,-14.88 28.2,-33.72 0.6,-0.24 1.44,-1.08 -0.12,-3.48 0,-6.36 0.12,-2.88 0.48,-5.16 -0.96,0.96 -2.04,1.92 -0.96,0.96 -2.16,1.92 -3.36,2.64 -6.12,2.64 -6,0 -6,-11.279996 0,-12.48 2.76,-19.08 0.6,-1.08 1.68,-1.08 2.4,0 2.4,3 0,2.28 -1.08,6.84 -1.44,5.88 -1.44,9 0,6.959996 3,6.959996 2.4,0 6.12,-4.319996 1.44,-1.56 2.64,-3.12 1.2,-1.56 2.04,-3.12 l 1.32,-2.28 3,-6.24 0.96,-2.16 q 0.6,-1.08 1.56,-1.08 1.8,0 1.8,1.68 0,0.24 -0.24,0.72 l -0.24,0.36 v 0.72 q -2.04,4.08 -3.6,11.04 -1.44,6.959996 -2.28,16.919996 l 6.48,-2.16 q 1.68,0 1.68,1.92 0,1.08 -1.08,1.32 -2.64,0.84 -7.56,2.16 -0.48,3.96 -0.96,6.96 -0.48,3 -0.96,5.04 -2.88,11.76 -8.52,19.92 -7.08,9.96 -15.6,9.96 z m 0.12,-3.36 q 6.24,0 12.36,-9.6 2.64,-4.2 4.32,-8.64 1.8,-4.44 2.64,-9 0.12,-1.56 0,-3.48 -0.48,-2.16 -1.56,-2.16 -0.48,0 -1.08,0.36 l -0.24,-0.12 q -20.88,14.16 -20.88,27.36 0,5.28 4.44,5.28 z"
         style="-inkscape-font-specification:'Square Peg, Normal'"
         id="path65042" />
      <path
         d="m 282.98386,111.43761 q -5.28,0 -8.64,-3.24 -3.24,-3.24 -3.24,-8.759996 0,-1.2 0.12,-2.4 0.24,-1.2 0.48,-2.4 1.32,-5.16 7.32,-11.04 6.72,-6.36 11.64,-6.36 4.08,0 3.84,4.56 -0.12,5.88 -6.48,11.52 -2.76,2.28 -5.76,4.2 -2.88,1.92 -6.12,1.92 h -0.12 q 0.36,7.799996 8.04,7.799996 2.52,0 5.64,-1.2 0.24,-0.12 0.72,-0.12 1.56,0 1.56,1.56 0,1.08 -1.08,1.68 -3.36,2.28 -7.92,2.28 z m -3.72,-17.639996 q 3.72,-0.84 6.36,-3.12 4.68,-3.96 4.68,-7.56 v -0.24 q 0,-0.84 -0.6,-1.32 -0.6,-0.48 -0.84,-0.24 -3.72,0 -7.92,5.4 -0.6,0.84 -1.44,2.28 -0.84,1.32 -1.8,3.24 -0.12,0.24 -0.12,0.48 0,1.08 1.68,1.08 z"
         style="-inkscape-font-specification:'Square Peg, Normal'"
         id="path65044" />
      <path
         d="m 299.90393,109.39761 q -2.28,0 -2.28,-2.28 0.12,-5.04 1.08,-12.119996 0.6,-4.56 1.08,-7.68 0.48,-3.12 0.6,-4.68 0.24,-1.68 1.68,-1.68 1.32,0 1.32,1.56 0,4.32 0,7.08 0,2.64 -0.12,3.72 v 0.24 q 0,1.2 0.96,1.2 0.48,0 0.96,-0.72 4.32,-6.72 9.36,-6.72 2.28,0 3.36,3.12 0.24,0.6 0.6,2.28 0.48,1.56 0.96,4.2 0.36,1.56 1.56,1.56 0.72,0 1.92,-0.84 0.6,-0.36 1.8,-1.32 1.32,-0.96 3.24,-2.52 8.16,-6.36 9.84,-6.36 2.88,0 4.44,9 1.44,7.679996 3.12,7.679996 0.48,0 2.04,0.36 1.44,0.12 1.8,0 0.24,-0.12 0.48,-0.12 0.24,-0.12 0.48,-0.12 1.56,0 1.56,1.44 0,1.68 -2.64,2.76 -1.92,0.84 -4.8,0.48 -2.76,0 -4.56,-3.72 -0.72,-1.68 -2.16,-6.959996 -0.96,-3.84 -2.04,-3.84 -1.44,0 -4.2,1.56 -2.76,1.56 -5.52,3.6 -2.76,2.039996 -4.44,3.839996 -0.48,0.6 -1.8,0.6 -2.64,0 -3,-1.2 -2.28,-8.759996 -3.84,-8.759996 -3.96,0 -7.08,5.04 -0.84,1.319996 -1.68,3.479996 -0.84,2.16 -1.8,5.28 -0.48,1.2 -0.84,0.96 -0.6,0.6 -1.44,0.6 z"
         style="-inkscape-font-specification:'Square Peg, Normal'"
         id="path65046" />
      <path
         d="m 384.504,110.35761 q -0.6,0 -1.08,-0.48 -3.24,-3.36 -3.36,-9.84 0,-0.479996 0.12,-1.079996 0.12,-0.72 0.12,-1.56 l 0.12,-2.52 v -0.36 q 0,-2.16 -1.56,-1.56 -2.4,1.68 -6.48,4.92 -3.96,3.119996 -9.6,7.679996 -2.4,2.28 -6.12,2.28 -2.16,0 -3.72,-2.28 -1.44,-2.4 -1.08,-4.56 0.36,-3.119996 2.52,-6.719996 2.16,-3.72 5.28,-7.32 3.24,-3.72 6.84,-6.48 3.72,-2.88 7.08,-4.08 1.32,-0.48 2.52,-0.72 1.2,-0.24 2.4,-0.24 5.16,0 5.16,3.6 0,1.2 -0.96,1.2 -0.36,0 -0.72,0 -0.36,-0.12 -0.72,-0.36 -2.16,-1.8 -3.96,-1.8 -1.8,0 -5.28,2.16 -2.76,1.68 -5.4,4.2 -2.64,2.52 -5.04,5.64 -2.28,3 -3.6,5.4 -1.32,2.28 -1.56,4.08 -0.12,0.479996 -0.12,1.199996 0,1.92 1.56,1.92 1.92,0 7.2,-3.479996 12.6,-8.4 17.52,-14.88 1.2,-1.56 2.16,-4.2 0.6,-1.68 2.52,-1.68 2.16,0 2.16,2.4 0,1.92 -1.8,4.8 -2.88,8.76 -2.88,12.12 0.24,5.159996 2.52,8.279996 0.36,0.36 0.36,0.96 0,1.08 -1.08,2.16 -1.08,1.2 -2.04,1.2 z"
         style="-inkscape-font-specification:'Square Peg, Normal'"
         id="path65048" />
      <path
         d="m 403.94397,69.197614 q -1.8,0 -1.68,-2.16 l 1.2,-4.56 q 0.36,-1.32 1.68,-1.32 2.76,0 2.28,2.28 -0.12,1.68 -0.84,3.72 -0.72,2.04 -2.64,2.04 z m -4.2,37.799996 q -1.08,0 -1.44,-0.96 -0.48,-1.32 -0.6,-3.24 -0.12,-1.92 0,-4.319996 0.24,-2.76 1.32,-6.96 1.2,-4.2 3.24,-9.72 0.48,-1.2 1.68,-1.2 2.28,0 1.56,2.04 -0.48,1.56 -0.84,3.12 -0.36,1.56 -0.72,3.12 -0.6,2.76 -0.96,4.92 -0.36,2.16 -0.36,3.84 0,5.879996 0.12,6.119996 0.36,1.2 -0.72,2.28 -1.08,0.96 -2.28,0.96 z"
         style="-inkscape-font-specification:'Square Peg, Normal'"
         id="path65050" />
      <path
         d="m 420.74389,117.07761 q -4.08,0.12 -6.48,-5.88 -2.28,-6 -2.28,-17.999996 0,-6.84 1.08,-15.24 1.2,-8.52 3.48,-18.72 5.88,-27.12 14.16,-27.12 3.24,0 4.68,5.88 1.08,4.44 0.72,8.04 -1.2,11.64 -13.8,31.92 -0.84,0.96 -2.04,2.52 -1.08,1.56 -2.64,3.72 -0.24,2.76 -0.48,5.4 -0.12,2.64 -0.12,5.04 0,4.32 0.72,8.879996 1.32,7.08 3.96,7.08 2.52,0 5.04,-3.24 l 3.48,-5.64 q 0.6,-0.96 1.56,-0.96 1.2,0 1.2,1.2 0,0.24 -0.12,0.48 0,0.24 -0.12,0.48 -1.32,3 -2.4,5.16 -0.96,2.04 -1.8,3.24 -3.72,5.76 -7.8,5.76 z m 9.84,-78.959996 q -8.28,3.6 -12.36,39.6 0.36,-0.36 1.08,-1.44 13.32,-18.96 13.32,-30.24 0,-0.84 -0.12,-1.8 -0.12,-1.08 -0.36,-2.4 -0.72,-3.24 -1.56,-3.72 z"
         style="-inkscape-font-specification:'Square Peg, Normal'"
         id="path65052" />
      <path
         d="m 462.26397,117.07761 q -4.08,0.12 -6.48,-5.88 -2.28,-6 -2.28,-17.999996 0,-6.84 1.08,-15.24 1.2,-8.52 3.48,-18.72 5.88,-27.12 14.16,-27.12 3.24,0 4.68,5.88 1.08,4.44 0.72,8.04 -1.2,11.64 -13.8,31.92 -0.84,0.96 -2.04,2.52 -1.08,1.56 -2.64,3.72 -0.24,2.76 -0.48,5.4 -0.12,2.64 -0.12,5.04 0,4.32 0.72,8.879996 1.32,7.08 3.96,7.08 2.52,0 5.04,-3.24 l 3.48,-5.64 q 0.6,-0.96 1.56,-0.96 1.2,0 1.2,1.2 0,0.24 -0.12,0.48 0,0.24 -0.12,0.48 -1.32,3 -2.4,5.16 -0.96,2.04 -1.8,3.24 -3.72,5.76 -7.8,5.76 z m 9.84,-78.959996 q -8.28,3.6 -12.36,39.6 0.36,-0.36 1.08,-1.44 13.32,-18.96 13.32,-30.24 0,-0.84 -0.12,-1.8 -0.12,-1.08 -0.36,-2.4 -0.72,-3.24 -1.56,-3.72 z"
         style="-inkscape-font-specification:'Square Peg, Normal'"
         id="path65054" />
      <path
         d="m 482.18403,69.197614 q -1.8,0 -1.68,-2.16 l 1.2,-4.56 q 0.36,-1.32 1.68,-1.32 2.76,0 2.28,2.28 -0.12,1.68 -0.84,3.72 -0.72,2.04 -2.64,2.04 z m -4.2,37.799996 q -1.08,0 -1.44,-0.96 -0.48,-1.32 -0.6,-3.24 -0.12,-1.92 0,-4.319996 0.24,-2.76 1.32,-6.96 1.2,-4.2 3.24,-9.72 0.48,-1.2 1.68,-1.2 2.28,0 1.56,2.04 -0.48,1.56 -0.84,3.12 -0.36,1.56 -0.72,3.12 -0.6,2.76 -0.96,4.92 -0.36,2.16 -0.36,3.84 0,5.879996 0.12,6.119996 0.36,1.2 -0.72,2.28 -1.08,0.96 -2.28,0.96 z"
         style="-inkscape-font-specification:'Square Peg, Normal'"
         id="path65056" />
      <path
         d="m 494.06394,111.55761 q -3,0 -5.16,-1.08 -2.04,-1.08 -2.04,-3 0,-1.32 1.2,-1.32 -0.12,0 1.92,0.84 2.04,0.72 4.32,0.72 6.96,0 8.76,-6.48 0.72,-2.759996 -5.04,-9.119996 -4.08,-4.44 -4.08,-10.08 0,-1.92 1.68,-4.44 1.68,-2.64 4.08,-4.56 2.4,-2.04 4.56,-2.04 3.84,0 4.32,1.92 0.12,0.36 0.12,0.72 0.12,0.36 0.12,0.72 0,1.92 -1.44,1.92 -0.84,0 -1.32,-0.6 -0.6,-0.6 -1.68,-0.6 -0.24,0 -0.6,0 -0.36,0 -0.6,0.24 -4.32,2.16 -4.92,6 -0.48,3.36 5.16,9.36 5.04,5.4 5.04,10.079996 0,5.16 -5.28,8.28 -4.08,2.52 -9.12,2.52 z"
         style="-inkscape-font-specification:'Square Peg, Normal'"
         id="path65058" />
      <path
         d="m 523.10404,116.11761 q -3,0 -3,-3.6 0,-17.879996 2.52,-38.039996 -1.2,-0.24 -2.52,-0.36 -1.2,-0.24 -2.4,-0.48 -3.36,-0.48 -3.36,-1.92 0,-1.44 1.44,-1.8 h -0.12 q -1.08,0 0.36,-0.12 1.44,-0.24 3.72,-0.48 2.28,-0.24 3.6,-0.24 0.72,-4.2 2.88,-9.96 1.2,-3.48 1.92,-6 0.84,-2.64 1.32,-4.2 0.6,-2.4 3.12,-2.4 1.08,0 0.84,1.08 -0.96,3.36 -2.4,8.76 -1.44,5.28 -3.12,12.6 1.08,0 2.64,0 1.68,0 3.84,0.12 2.16,0.12 3.72,0.24 1.68,0 2.64,0 1.08,0 1.08,0.84 0,0.72 -0.96,1.56 -0.84,0.84 -1.92,0.84 -1.44,0 -4.32,0.48 -2.88,0.36 -7.32,1.2 -1.8,14.76 -1.8,40.079996 0,1.8 -2.4,1.8 z"
         style="-inkscape-font-specification:'Square Peg, Normal'"
         id="path65060" />
      <path
         d="m 552.384,90.077614 q -1.32,0 -1.32,-1.8 0,-0.48 0,-0.96 0.12,-0.6 0.24,-1.08 4.8,-22.56 8.28,-44.16 1.32,-7.92 4.08,-7.92 2.4,0 2.4,4.2 0,1.8 -0.96,3.96 -1.2,7.8 -4.32,19.92 l -5.28,19.8 -1.44,5.76 q -0.48,2.28 -1.68,2.28 z m -1.92,22.199996 q -3,0 -2.88,-5.52 v 0.12 q 0.12,-2.16 0.96,-3.84 0.96,-1.8 2.16,-1.8 3.12,0 2.76,5.28 -0.48,5.76 -3,5.76 z"
         style="-inkscape-font-specification:'Square Peg, Normal'"
         id="path65062" />
    </g>
    <path
       style="fill:none;stroke:#000000;stroke-width:0.264583px;stroke-linecap:butt;stroke-linejoin:miter;stroke-opacity:1"
       d="M 16.321001,53.237551 H 195.46342"
       id="path64898" />
    <path
       style="fill:none;stroke:#000000;stroke-width:0.264583px;stroke-linecap:butt;stroke-linejoin:miter;stroke-opacity:1"
       d="M 16.321001,68.081893 H 195.46342"
       id="path65002" />
    <path
       style="fill:none;stroke:#000000;stroke-width:0.264583px;stroke-linecap:butt;stroke-linejoin:miter;stroke-opacity:1"
       d="M 16.321001,82.926225 H 195.46342"
       id="path65004" />
    <path
       style="fill:none;stroke:#000000;stroke-width:0.264583px;stroke-linecap:butt;stroke-linejoin:miter;stroke-opacity:1"
       d="M 16.321001,97.770563 H 195.46342"
       id="path65006" />
    <path
       style="fill:none;stroke:#000000;stroke-width:0.264583px;stroke-linecap:butt;stroke-linejoin:miter;stroke-opacity:1"
       d="M 16.321001,112.61491 H 195.46342"
       id="path65008" />
    <path
       style="fill:none;stroke:#000000;stroke-width:0.264583px;stroke-linecap:butt;stroke-linejoin:miter;stroke-opacity:1"
       d="M 16.321001,127.45924 H 195.46342"
       id="path65010" />
    <path
       style="fill:none;stroke:#000000;stroke-width:0.264583px;stroke-linecap:butt;stroke-linejoin:miter;stroke-opacity:1"
       d="M 16.321001,142.30359 H 195.46342"
       id="path65012" />
    <path
       style="fill:none;stroke:#000000;stroke-width:0.264583px;stroke-linecap:butt;stroke-linejoin:miter;stroke-opacity:1"
       d="M 16.321001,157.14794 H 195.46342"
       id="path65014" />
    <path
       style="fill:none;stroke:#000000;stroke-width:0.264583px;stroke-linecap:butt;stroke-linejoin:miter;stroke-opacity:1"
       d="M 16.321001,171.99227 H 195.46342"
       id="path65016" />
    <path
       style="fill:none;stroke:#000000;stroke-width:0.264583px;stroke-linecap:butt;stroke-linejoin:miter;stroke-opacity:1"
       d="M 16.321001,186.8366 H 195.46342"
       id="path65018" />
    <path
       style="fill:none;stroke:#000000;stroke-width:0.264583px;stroke-linecap:butt;stroke-linejoin:miter;stroke-opacity:1"
       d="M 16.321001,201.68094 H 195.46342"
       id="path65020" />
    <path
       style="fill:none;stroke:#000000;stroke-width:0.264583px;stroke-linecap:butt;stroke-linejoin:miter;stroke-opacity:1"
       d="M 16.321001,216.52529 H 195.46342"
       id="path65022" />
    <path
       style="fill:none;stroke:#000000;stroke-width:0.264583px;stroke-linecap:butt;stroke-linejoin:miter;stroke-opacity:1"
       d="M 16.321001,231.36963 H 195.46342"
       id="path65024" />
    <path
       style="fill:none;stroke:#000000;stroke-width:0.264583px;stroke-linecap:butt;stroke-linejoin:miter;stroke-opacity:1"
       d="M 16.321001,246.21397 H 195.46342"
       id="path65026" />
    <path
       style="fill:none;stroke:#000000;stroke-width:0.264583px;stroke-linecap:butt;stroke-linejoin:miter;stroke-opacity:1"
       d="M 16.321001,261.0583 H 195.46342"
       id="path65028" />
    <path
       style="fill:none;stroke:#000000;stroke-width:0.264583px;stroke-linecap:butt;stroke-linejoin:miter;stroke-opacity:1"
       d="M 16.321001,275.90264 H 195.46342"
       id="path65030" />
  </g>
</svg>
