<?xml version="1.0" encoding="utf-8" ?>
<svg xmlns="http://www.w3.org/2000/svg" xmlns:cc="http://creativecommons.org/ns" xmlns:dc="http://purl.org/dc/elements/1.1/" xmlns:ev="http://www.w3.org/2001/xml-events" xmlns:inkscape="http://www.inkscape.org/namespaces/inkscape" xmlns:rdf="http://www.w3.org/1999/02/22-rdf-syntax-ns" xmlns:sodipodi="http://sodipodi.sourceforge.net/DTD/sodipodi-0.dtd" xmlns:xlink="http://www.w3.org/1999/xlink" baseProfile="tiny" height="21.59cm" version="1.2" viewBox="0 0 1056.0 816.0" width="27.94cm">
  <metadata>
    <rdf:RDF>
      <cc:Work>
        <dc:format>image/svg+xml</dc:format>
        <dc:source>vpype read -a stroke --no-crop C:/Users/lewi0/Downloads/Postcard_Back_seed_347766_colors_12_scale_1.svg scaleto 8.5in 11.0in rotate 90 occult -i layout -l 8.5x11in linemerge -t 0.001968504 linesort reloop linesimplify -t0.001968504 write C:/Users/lewi0/Downloads/Postcard_Back_seed_347766_colors_12_scale_1_PROCESSED.svg
</dc:source>
        <dc:date>2023-02-10T10:15:04.756273</dc:date>
      </cc:Work>
    </rdf:RDF>
  </metadata>
  <defs/>
  <g fill="none" id="layer1" inkscape:groupmode="layer" inkscape:label="1" stroke="#000000" stroke-width="1.0" style="display:inline">
    <polygon points="1056.0,0.0 1056.0,816.0 0.0,816.0 0.0,0.0"/>
    <line x1="1056.0" x2="0.0" y1="408.0" y2="408.0"/>
    <line x1="528.0" x2="528.0" y1="816.0" y2="0.0"/>
  </g>
  <g fill="none" id="layer2" inkscape:groupmode="layer" inkscape:label="2" stroke="#0000ff" stroke-width="1.0" style="display:inline">
    <line x1="792.0" x2="792.0" y1="24.0" y2="384.0"/>
    <line x1="792.0" x2="792.0" y1="432.0" y2="792.0"/>
    <line x1="840.0" x2="1032.0" y1="756.0" y2="756.0"/>
    <line x1="1032.0" x2="840.0" y1="708.0" y2="708.0"/>
    <line x1="840.0" x2="1032.0" y1="660.0" y2="660.0"/>
    <line x1="1032.0" x2="840.0" y1="612.0" y2="612.0"/>
    <polygon points="1032.0,528.0 960.0,528.0 960.0,432.0 1032.0,432.0"/>
    <line x1="1032.0" x2="840.0" y1="348.0" y2="348.0"/>
    <line x1="840.0" x2="1032.0" y1="300.0" y2="300.0"/>
    <line x1="1032.0" x2="840.0" y1="252.0" y2="252.0"/>
    <line x1="840.0" x2="1032.0" y1="204.0" y2="204.0"/>
    <polygon points="960.0,24.0 1032.0,24.0 1032.0,120.0 960.0,120.0"/>
    <polygon points="432.0,120.0 432.0,24.0 504.0,24.0 504.0,120.0"/>
    <line x1="504.0" x2="312.0" y1="204.0" y2="204.0"/>
    <line x1="312.0" x2="504.0" y1="252.0" y2="252.0"/>
    <line x1="504.0" x2="312.0" y1="300.0" y2="300.0"/>
    <line x1="312.0" x2="504.0" y1="348.0" y2="348.0"/>
    <polygon points="504.0,432.0 504.0,528.0 432.0,528.0 432.0,432.0"/>
    <line x1="504.0" x2="312.0" y1="612.0" y2="612.0"/>
    <line x1="312.0" x2="504.0" y1="660.0" y2="660.0"/>
    <line x1="504.0" x2="312.0" y1="708.0" y2="708.0"/>
    <line x1="312.0" x2="504.0" y1="756.0" y2="756.0"/>
    <line x1="264.0" x2="264.0" y1="792.0" y2="432.0"/>
    <line x1="264.0" x2="264.0" y1="384.0" y2="24.0"/>
  </g>
</svg>
