<?xml version="1.0" encoding="utf-8" ?>
<svg xmlns="http://www.w3.org/2000/svg" xmlns:cc="http://creativecommons.org/ns" xmlns:dc="http://purl.org/dc/elements/1.1/" xmlns:ev="http://www.w3.org/2001/xml-events" xmlns:inkscape="http://www.inkscape.org/namespaces/inkscape" xmlns:rdf="http://www.w3.org/1999/02/22-rdf-syntax-ns" xmlns:sodipodi="http://sodipodi.sourceforge.net/DTD/sodipodi-0.dtd" xmlns:xlink="http://www.w3.org/1999/xlink" baseProfile="tiny" height="21.59cm" version="1.2" viewBox="0 0 1056.0 816.0" width="27.94cm">
  <metadata>
    <rdf:RDF>
      <cc:Work>
        <dc:format>image/svg+xml</dc:format>
        <dc:source>vpype read -a stroke --no-crop C:/Users/lewi0/Desktop/lewi0622.github.io/images/prices.svg scaleto 8.5in 11in rotate 90 layout -l 8.5x11in linemerge linesort reloop linesimplify write C:/Users/lewi0/Desktop/lewi0622.github.io/images/prices_PROCESSED.svg
</dc:source>
        <dc:date>2023-05-18T20:17:43.516638</dc:date>
      </cc:Work>
    </rdf:RDF>
  </metadata>
  <defs/>
  <g fill="none" id="layer1" inkscape:groupmode="layer" inkscape:label="1" stroke="#000000" stroke-width="1.0" style="display:inline">
    <polygon points="699.5014,6.8945 691.3571,8.0912 684.9003,9.8639 680.636,12.0328 678.2293,14.7698 677.3647,16.7036 676.7725,19.414 676.6662,22.5495 677.0175,24.4352 677.8793,26.4411 679.5873,29.0066 684.2465,33.7443 688.8536,37.0036 693.1583,39.114 715.2022,45.4392 723.5029,47.304 732.0513,48.826 756.8895,51.9618 758.1866,52.5672 758.965,53.4224 759.198,54.934 758.8023,55.9247 757.0875,56.8116 754.7659,56.8335 736.6874,54.5396 724.2109,52.5075 709.4128,49.3002 697.5466,45.8834 689.4559,43.0949 685.0755,41.0911 680.6253,38.4851 677.0868,35.8232 674.3373,33.0916 672.0604,30.0535 670.2765,26.5277 669.382,23.2976 669.1389,19.9067 669.5125,16.6634 670.6509,13.3633 672.5483,10.4968 675.2046,8.0641 678.1199,6.4449 681.9601,5.0991 692.9637,2.8293 698.8327,2.1631 705.2379,1.9493 731.7651,3.0444 756.9183,5.4844 758.5998,5.8399 759.8009,6.4453 760.655,7.6411 760.5162,9.6199 759.4245,10.6024 758.0327,10.8617 740.9243,8.9719 707.4756,6.7389"/>
    <polygon points="683.7746,100.1817 681.6243,101.0721 680.1677,102.133 679.4046,103.3646 679.3676,105.0638 680.0705,106.8209 682.7485,110.4022 684.9466,112.8036 687.428,114.9471 687.649,116.6478 686.9572,117.1859 685.6685,117.1165 684.3874,116.3991 678.8186,111.8723 676.1986,109.2233 674.705,107.0872 673.5775,104.4736 673.2839,102.6479 673.6334,100.8644 674.416,99.5862 675.6459,98.4401 678.8745,96.7525 693.2623,93.5551 696.6926,92.3732 698.1771,90.9751 698.2068,88.316 696.9598,86.1978 687.5943,77.5633 681.6083,73.168 674.2002,68.7453 673.0164,66.9619 672.8227,65.5967 673.1315,64.5561 674.0577,63.95 675.6015,63.7785 684.7762,64.7364 708.6441,68.364 710.0493,69.0702 710.806,70.0359 710.9094,71.3949 710.5831,72.2734 709.4818,72.9323 708.3366,72.9762 704.4931,72.2075 700.2376,72.0599 696.4986,72.2075 691.2715,73.1299 693.071,75.6409 700.5476,83.6143 703.8315,88.0502 705.6846,91.8862 705.6315,94.1122 704.8997,95.7081 702.9557,96.9596 687.9504,99.2218"/>
    <polygon points="730.874,139.2417 739.9069,142.1324 750.5362,146.6577 758.3576,151.1711 764.3935,155.9659 766.4207,158.2273 767.9412,160.4888 768.9548,162.7503 769.4616,165.0117 769.4505,167.3916 768.8547,169.7746 767.6633,172.0038 766.2153,173.744 763.8707,175.606 762.4358,175.4693 761.8721,174.8544 761.6842,173.8294 761.9148,172.8301 764.3205,170.1687 765.2893,168.2352 765.5277,166.6037 765.2294,164.6515 764.1579,162.3835 762.021,159.785 759.2935,157.4334 755.7868,155.0425 747.7554,150.7992 738.9923,147.5707 728.8015,144.9623 716.946,143.0815 710.1815,142.6203 709.3581,145.9848 708.8693,150.0614 709.1053,162.299 708.9123,164.0638 708.2597,165.7581 707.4738,166.5347 706.0305,166.9112 704.5785,166.6378 703.9332,166.152 703.4492,164.9676 703.4169,152.4596 703.0021,149.2149 701.8,144.938 699.8809,141.0829 680.4049,138.3079 667.0309,135.8089 659.9028,133.6555 658.3528,132.6026 657.91,131.5511 658.5933,130.0478 660.5236,128.5617 662.9834,127.4001 666.2119,126.7851 672.3743,127.5866 679.741,129.5524 681.1341,130.3525 681.5608,131.0428 681.5859,131.8585 697.4211,133.5497 697.8728,133.358 699.1483,132.1736 699.5657,130.1643 696.3449,114.0247 696.9598,112.4105 698.8624,112.0573 700.1884,112.5258 701.4183,114.0247 701.2646,113.871 702.6098,117.8298 705.6211,128.9147 707.0989,132.6215 708.7978,135.702 721.3245,137.2531"/>
    <polygon points="700.9571,169.371 709.8461,169.828 717.2817,169.5655 718.0347,169.8918 718.5995,170.9931 718.5859,171.9974 718.1759,172.7148 716.5511,173.2548 695.3328,174.0088 694.3078,174.2138 693.7954,174.6238 693.9943,175.5727 695.1633,176.7111 702.2962,181.4544 707.3515,185.5345 710.4624,188.6663 712.3722,191.5095 713.2453,194.5311 712.6828,197.8745 710.623,200.8366 709.4374,201.8347 708.0537,202.3881 706.4575,202.2371 705.6248,201.2506 705.8767,199.1965 707.8354,196.0863 707.9797,194.5387 707.0298,191.7785 704.4637,188.7949 698.6394,184.3957 692.448,180.5769 684.2758,176.8551 674.6388,174.1465 673.3832,173.096 672.8451,171.533 672.9642,170.4902 674.0957,169.6047 678.9824,168.7954 688.3504,168.6023"/>
    <polygon points="699.1634,242.5451 691.2373,240.3586 686.0443,239.6298 680.3001,240.5271 677.5055,241.6067 675.0947,243.1145 673.8111,243.2913 671.8344,242.303 670.184,240.4047 669.9017,239.3223 670.5166,237.9386 673.0046,236.0624 676.025,234.7186 679.1046,233.9795 682.0687,233.6704 690.8319,234.0639 692.0786,233.5955 692.3573,232.9709 692.1939,232.0965 690.2034,229.3606 675.4687,210.8294 674.1093,208.6063 673.2597,205.5865 673.2858,202.4184 674.5302,200.1915 676.9235,198.4087 680.2869,197.4298 684.2277,197.9569 688.3414,199.5466 693.7838,202.7968 699.5259,207.1925 704.4927,211.9269 709.0716,217.4456 712.1459,222.4109 713.41,225.332 714.3324,228.5605 714.6336,231.196 714.4726,233.9139 713.7928,236.0875 712.8724,237.2867 711.2514,238.1112 709.4742,238.1969 708.5518,237.459 708.4903,236.0938 710.9165,231.9401 711.244,230.4554 711.0847,228.8103 710.382,226.8225 708.8254,223.8823 704.6564,218.1158 701.2912,214.5931 697.6609,211.3715 693.5329,208.2358 689.6212,205.7155 686.6379,204.1768 684.1269,203.4081 681.6243,203.2247 680.0869,203.9742 679.7794,204.7237 679.8759,206.1779 681.6373,210.2315 686.1072,217.2288 691.8881,225.0933 696.9999,231.0841 701.7565,235.6546 704.6241,237.7794 709.8398,240.3301 710.5573,241.4063 710.7964,242.8583 710.5197,244.2696 710.0277,244.9338 708.8285,245.5149 707.7216,245.6256 705.1579,245.1234 701.572,243.3195"/>
    <polygon points="688.7946,290.3468 694.1275,297.2377 697.68,302.3766 699.1532,305.2702 699.074,306.8156 697.8141,308.2971 694.9345,309.7792 691.155,310.8912 682.9968,312.6372 678.9037,314.2311 677.9591,315.2347 677.4349,318.1907 677.5918,322.7056 677.14,323.3583 676.387,323.6846 674.7807,323.4738 673.7782,322.719 672.8901,321.4612 671.7889,318.4292 671.8054,313.4229 672.688,311.2933 674.2325,309.7274 676.5125,308.3514 687.9911,304.8126 689.8833,303.8074 690.349,302.9705 689.3911,299.6055 686.5584,294.6119 682.5253,288.9302 678.3266,284.1651 678.0499,282.5231 678.2959,280.2847 679.2952,278.8011 685.6425,276.8971 689.0781,275.4727 690.5812,274.3498 690.8007,273.3713 690.3422,271.1061 689.4348,269.3061 688.0498,267.5856 685.7573,265.6261 681.3241,263.124 672.054,259.6544 671.3238,258.3091 671.1608,256.7548 671.599,255.4404 672.5629,254.6517 674.0526,254.3888 677.5462,254.539 688.0446,255.5695 705.4155,257.9248 706.8651,258.4707 707.3922,259.1484 707.5679,260.0771 707.3458,261.0167 706.18,261.7213 691.4252,261.6145 690.1338,262.0573 689.8878,262.8445 690.2978,263.6644 694.6687,266.9817 697.6205,270.3552 698.9699,273.1625 699.4197,276.0661 699.2361,277.2473 698.6855,278.2874 696.952,279.7072 694.3078,280.7167 686.5903,282.5231 685.489,283.2479 685.1219,284.368 685.3909,285.4442"/>
    <polygon points="703.8645,356.0196 700.5143,354.9161 697.5625,353.2557 694.6353,350.9558 691.7327,348.0163 688.1302,343.2895 685.4251,339.0627 684.2259,335.7921 683.892,332.6423 680.9138,333.0385 678.4611,333.9279 676.8187,335.0459 675.3296,336.8395 674.2566,339.5555 673.9042,343.3253 674.2394,346.1517 675.5516,350.553 675.5493,351.6213 675.2229,352.4371 674.5703,352.9265 673.5914,353.0897 672.3615,352.7438 670.9725,350.9779 669.6591,348.2613 668.8426,345.2831 668.5383,342.5222 668.6604,339.1382 669.207,336.4556 670.1636,334.0161 671.5302,331.8194 673.592,329.6481 676.3813,327.8691 679.6475,326.7678 683.3906,326.3443 686.9668,326.4927 691.4073,327.5177 694.9066,329.0945 698.5273,331.4597 703.4154,335.7132 707.5124,340.3366 710.5981,345.0888 712.0713,349.0615 712.2024,352.8422 711.808,354.0367 710.8733,355.242 709.4712,356.0046 708.1129,356.2859"/>
    <polygon points="706.7992,350.1686 707.1835,349.5152 706.4403,346.0751 705.0007,343.6463 703.1252,341.5075 700.1884,338.9456 696.1835,336.4412 693.1164,334.7947 692.5014,334.6409 691.7327,334.8801 691.2715,335.5975 691.1177,336.7933 692.2054,340.2237 694.0691,343.6028 696.6651,346.6444 699.6999,349.1989 702.2836,350.5027 705.108,350.9373 706.0689,350.7451"/>
    <polygon points="675.3568,359.5224 678.6648,359.2394 681.7886,359.4692 685.0825,360.1586 688.5467,361.3077 692.6474,363.1498 696.7971,365.4739 700.2527,367.8669 702.9826,370.3117 704.894,372.6398 706.9086,375.7702 708.0598,378.2231 708.7314,380.8163 708.7363,383.1305 708.2443,385.7133 707.2604,388.2962 705.5009,390.8585 705.6461,391.4094 722.9232,393.3069 736.4204,395.4133 745.6769,397.0839 754.9544,399.6776 763.6142,402.8217 765.5455,403.8153 767.3878,405.2431 768.5949,406.8774 769.1666,408.7181 769.1289,410.6333 768.4203,412.6027 767.0031,414.2082 764.8774,415.4498 762.5646,416.2065 759.1398,416.7811 756.1496,417.0455 750.9251,416.9131 741.6712,415.4751 735.6043,413.7364 729.3989,411.3571 699.8809,396.5981 684.3532,397.0593 679.8947,397.5205 666.9806,399.6729 663.7712,399.3046 661.0306,398.1997 658.7333,396.3491 658.1158,395.278 657.91,394.1383 658.1202,392.9836 658.7508,391.9796 661.2734,390.4234 664.269,389.6516 668.2105,389.2186 680.5609,389.8165 683.1745,389.6115 684.6607,389.0649 678.8499,382.2263 674.7322,376.7589 671.845,372.1415 670.1885,368.3741 669.7585,365.4021 670.013,363.7671 670.6068,362.3836 672.4622,360.5678"/>
    <polygon points="749.8007,403.0181 742.313,401.5178 711.8726,397.9817 735.277,409.0896 742.7596,411.7088 749.6682,412.8751 755.7705,413.0886 761.8261,412.4291 763.8394,411.7702 764.8939,410.9022 765.0492,410.0645 764.6341,409.1759 761.6765,407.0416 756.1482,404.7819"/>
    <polygon points="677.6228,363.322 676.5466,364.0395 676.0513,365.2352 676.1424,368.4003 676.9623,371.7003 678.2776,374.6985 679.9901,377.5595 681.8861,380.01 684.4618,382.6061 687.8619,385.3538 692.8089,388.7574 696.5138,389.2129 699.8016,389.0077 702.0634,388.375 704.012,387.0591 704.8472,385.8443 705.3111,384.3597 705.3828,382.3776 705.0143,380.6014 703.0494,376.8444 699.5473,372.9242 694.1898,368.8138 687.6501,365.3149 681.6979,363.3309 679.2798,363.0829"/>
    <polygon points="749.3851,477.0038 750.6605,473.2078 754.7659,466.0883 757.5333,459.6313 761.838,451.1756 766.6039,445.7947 767.411,445.3335 770.0238,445.3492 772.7706,446.7342 773.4752,447.7463 773.4069,448.6773 769.0637,453.6354 767.4495,456.2922 763.6066,464.5268 757.687,475.0052 756.2905,479.3057 754.8001,481.8595 753.3652,483.1919 749.8292,485.4254 747.3533,486.383 744.2948,486.9417 740.3612,486.7981 736.0832,485.5833 731.9813,483.3937 727.6135,479.9465 721.8995,474.2565 719.3605,471.3128 712.9658,461.8349 706.496,454.6091 706.2227,453.7892 706.3935,452.9692 707.6338,451.8345 709.5665,451.4831 711.3656,451.7677 713.3287,452.9239 718.9446,459.3238 728.9377,472.438 732.9388,476.8462 736.4843,479.4503 740.4105,481.2605 743.3093,481.739 747.3864,479.9249 748.5779,478.6565"/>
    <polygon points="665.5813,446.9995 663.7992,446.3971 661.8303,444.6801 661.446,443.4886 662.0513,442.2779 664.3929,441.2011 668.0568,440.2216 671.6336,439.751 675.8879,439.6739 697.9423,440.9735 734.379,445.6269 753.8424,447.6823 755.3638,448.0154 756.4048,448.656 757.072,450.4069 756.851,451.5995 755.8685,452.7057 754.6158,453.1724 752.9211,453.3279 743.2355,451.3293 691.312,445.9373 677.7424,445.026 674.4588,445.0469 671.2469,445.4488 667.0148,446.888"/>
    <polygon points="766.1133,499.3483 768.7204,502.0517 769.9472,504.6515 770.0117,507.258 768.7159,509.388 766.0244,511.0908 761.6255,512.4369 756.5201,513.185 751.717,513.0668 746.6981,512.1352 741.4981,510.6092 735.8193,508.4513 729.2342,505.4534 721.1748,501.2216 711.9198,495.7678 703.4169,489.4568 691.8237,488.7006 681.7883,489.1807 676.6185,490.0408 672.8596,491.234 670.523,492.6925 669.6087,494.4161 669.7095,495.7601 670.222,497.195 672.1053,499.7061 673.7452,501.141 681.7581,506.2882 682.1516,507.1245 682.1393,508.1515 681.6474,508.8895 680.6634,509.1355 679.4335,508.828 671.3514,505.0291 665.9341,501.4552 663.8281,499.4239 662.1697,497.0041 661.4327,494.8872 661.3125,492.6914 662.0609,490.2084 664.207,487.725 667.7297,485.6194 671.6578,484.2443 677.3635,483.1056 683.7999,482.465 691.8864,482.231 699.8273,482.489 709.4712,483.3745 718.3648,484.6973 730.2537,486.9601 742.3941,489.7107 750.3175,491.9437 756.9119,494.2943 762.1771,496.7624"/>
    <polygon points="758.2535,501.5443 755.1579,499.7767 751.2848,498.1099 741.2061,495.0786 728.0175,492.4505 711.7188,490.2255 720.7692,496.4334 729.6593,501.6218 737.7298,505.3888 744.9808,507.7343 749.5688,508.5303 753.6529,508.6189 758.3543,507.9045 761.9244,506.5891 762.4529,506.0607 761.685,504.7143 760.2392,503.0943"/>
    <polygon points="678.2705,510.2809 680.3959,509.935 683.1791,510.0015 688.6489,511.3089 694.3367,514.1417 700.3815,518.5708 706.0305,524.0483 711.5651,531.4278 712.0079,533.0513 711.9665,534.9424 711.6527,536.5215 711.0697,537.5432 709.874,538.0386 708.3366,537.1162 699.7272,542.7373 696.886,543.6655 693.2701,544.0344 689.8767,543.6529 686.4289,542.5081 682.5271,540.4546 678.9822,537.8753 675.0776,534.0243 672.0153,529.7238 670.1048,525.4756 669.4471,521.6919 669.9982,517.7558 671.6716,514.6768 674.7352,511.8721"/>
    <polygon points="674.4562,523.3853 676.2234,527.8795 679.7602,532.6385 682.2542,535.0641 685.09,537.2776 689.6603,539.7297 693.5196,540.3575 697.2327,539.7191 701.6244,537.6651 706.338,534.1951 701.8998,528.7651 696.4913,523.6258 691.1843,519.8238 686.2596,517.4744 683.5537,516.7549 680.9709,516.515 678.1332,516.7939 676.4152,517.4187 675.1881,518.4004 674.4518,519.739 674.2064,521.4347"/>
    <polygon points="709.9133,560.3936 715.8698,561.0996 717.672,551.9564 718.825,550.6111 720.3471,550.6422 721.3354,551.4328 721.7119,552.3364 721.7803,551.7727 722.7881,562.022 729.5282,563.6599 749.5559,570.1873 750.6449,570.9304 751.3495,571.9809 751.6047,574.4461 751.3452,574.8208 750.3075,574.9362 735.3432,570.8691 722.9418,567.8641 722.4806,584.3143 722.2116,585.352 721.0293,585.6487 719.4058,584.468 718.4492,582.8965 717.9837,578.2031 716.1773,567.0954 706.0654,566.1012 693.8851,565.3659 664.3901,564.7586 663.3524,564.2974 662.8911,563.6824 662.5222,561.7145 662.7067,560.3309 663.5266,558.9643 665.0025,558.1444 667.1344,557.8711 687.7373,558.489"/>
    <polygon points="704.8429,589.8948 707.6526,590.0246 710.9658,591.4302 715.0242,594.3842 718.4081,598.1006 719.8482,600.642 720.3149,602.6736 720.0145,606.0355 719.5251,607.2873 718.8097,608.1439 717.8684,608.6051 716.0236,608.9126 714.9474,608.7973 713.9096,608.1919 713.6118,606.5584 714.8244,604.6632 715.1011,603.2242 715.1011,602.4555 714.2961,600.7603 712.6082,598.4132 710.9778,596.9529 708.7527,595.795 706.5554,595.3372 704.0859,595.7648 700.8024,597.4174 697.8787,599.5603 692.2214,604.4431 687.8422,607.1172 685.1621,608.0719 682.931,608.4276 680.4844,608.3311 678.4696,607.8425 676.2434,606.7602 674.548,605.4449 672.9978,603.7538 671.3663,601.3119 669.1714,596.1522 668.3684,590.4623 668.7578,586.209 669.4036,584.1489 670.2867,582.5278 671.2282,581.5558 672.3297,580.9726 673.5914,580.7782 674.8598,581.1626 675.2826,582.3156 673.9245,585.6552 673.3096,589.3449 673.4635,592.7897 674.1529,595.3879 675.3594,597.5743 677.4205,599.6047 680.1855,601.0746 682.5752,601.6329 684.676,601.1424 687.6529,599.5452 695.0852,593.5701 697.7526,591.8907 701.3982,590.4665"/>
    <polygon points="710.6176,623.2857 714.3324,623.441 717.4264,624.6998 718.3345,625.6583 718.6035,626.3693 718.4465,628.0748 717.8746,629.1079 716.5189,630.0262 713.8712,630.4362 711.3753,630.104 709.3124,629.0369 708.3083,627.4304 708.2812,625.4796 709.0111,623.8881"/>
    <polygon points="674.3048,623.6348 674.8213,622.288 675.6873,621.6668 677.8961,621.3656 680.356,621.5962 682.5083,622.288 683.8199,623.16 684.5262,624.1617 684.5759,625.8199 683.8981,627.263 682.5425,628.1814 680.509,628.5749 677.8601,628.3788 676.1291,627.741 674.9908,626.8374 674.3319,625.5856"/>
    <polygon points="681.1302,680.3381 672.2266,677.3613 671.323,676.0561 671.5067,674.6517 672.1709,674.1598 672.8188,674.1009 676.4684,674.7575 692.3477,679.7867 693.0726,676.5656 694.3539,674.326 696.157,673.0734 698.3606,673.0392 698.9243,673.5517 699.1122,674.4058 697.6325,678.1916 697.12,681.9155 697.2931,684.8799 697.9826,687.478 699.1891,689.6644 700.9127,691.4391 703.577,692.9891 706.1431,693.724 708.5057,693.2326 711.0769,691.8954 719.2869,685.3897 722.7704,683.4142 725.2278,682.5567 727.7933,682.0666 730.3779,681.9507 732.3584,682.3618 735.4506,683.8638 739.2094,686.8298 742.3695,690.3288 743.8504,693.3157 756.1188,698.6344 762.2333,701.7997 764.9222,704.6485 765.3457,705.8345 765.2373,707.3402 764.8273,708.0064 764.1441,708.2285 762.3865,707.7372 752.4598,702.5401 743.6967,698.3891 743.1037,699.7163 742.1154,700.5352 739.8532,701.0027 738.3542,700.7433 737.7393,700.2821 737.3934,699.1578 737.5855,698.197 738.654,696.7534 738.9,695.8432 738.9308,694.5457 738.1257,692.8504 736.7395,690.8495 735.1498,689.299 732.9736,688.0331 730.9363,687.4736 728.2474,687.7479 725.0233,689.2627 721.7083,691.6504 716.0511,696.5333 711.6718,699.2074 709.3696,700.0612 707.1283,700.4881 704.7345,700.4739 702.6906,700.0605 700.7919,699.2713 699.0384,698.1063 695.967,694.6488 693.452,689.7257 692.5915,686.6823 692.1939,683.9376"/>
    <polygon points="737.6017,758.9402 733.9144,757.5279 730.3304,755.6858 722.4607,750.0878 716.5813,744.917 703.9999,732.1237 695.576,725.5044 692.0003,723.3094 687.6944,721.2662 682.8723,719.5268 677.5886,718.0678 678.4428,723.3804 677.2812,735.5941 678.494,741.4533 678.1865,744.2719 676.5968,748.4762 674.7335,751.3885 673.4816,751.8591 672.3135,751.8713 669.8632,751.1987 668.9408,749.9688 668.8639,748.4314 671.123,744.0242 671.5928,741.59 670.5166,735.4404 671.5846,722.1771 671.5586,719.6394 670.5508,715.2151 670.9435,712.9474 672.2243,711.9817 673.7452,711.7645 679.7958,712.7504 687.6375,714.9919 695.7857,718.7124 700.8033,721.9113 707.757,727.4095 724.3549,743.4426 729.9088,747.9972 734.2759,750.8077 738.0798,752.7189 741.7555,753.9501 746.1348,754.7548 751.2808,754.8484 753.4788,754.3735 755.4864,753.5334 757.3033,752.3279 759.2396,750.4363 760.4975,748.6544 761.3742,746.7136 761.9231,744.1749 761.9364,741.4362 761.2722,737.7788 760.3805,735.6802 757.6604,732.2246 753.2021,727.5925 750.6084,725.3686 747.5402,723.3804 747.079,722.6117 746.956,721.078 747.4172,719.8327 748.0321,719.2793 750.4858,718.8611 753.1498,719.8534 757.055,722.1334 760.4382,724.8641 763.2994,728.0457 765.7325,731.8065 767.5066,735.8707 768.5094,740.0946 768.7339,744.5701 768.1977,748.23 766.9465,751.4644 764.9803,754.2732 762.2992,756.6564 758.9525,758.6004 755.2856,759.904 751.2985,760.5673 746.654,760.6098 742.2506,760.1163"/>
    <polygon points="723.9918,815.2209 710.6585,813.6236 699.7471,811.159 689.246,807.3696 684.0998,804.8887 679.4655,802.2203 675.9561,799.8277 672.891,797.2082 670.507,794.4716 668.8041,791.618 667.7824,788.6473 667.4418,785.5595 667.7662,783.0869 668.9644,780.4402 671.4149,777.7293 675.6531,774.8347 680.356,772.9529 686.6099,771.5411 693.3983,770.9253 703.2192,770.8131 711.1757,771.3901 718.6453,772.4927 725.7954,774.0036 733.4215,776.0271 745.6289,780.0482 752.5377,783.1715 759.3397,787.0585 764.9238,791.2395 768.617,795.0257 770.7522,798.8778 771.3012,801.2599 771.3336,803.3306 770.9267,805.4053 769.8415,807.7545 768.5014,809.5248 766.7235,811.1145 764.5188,812.4532 761.8875,813.5409 758.5812,814.4501 754.7659,815.0776 743.317,815.9435 734.102,815.8689"/>
    <polygon points="697.3721,803.9818 706.2909,806.7089 717.2582,808.711 729.0705,809.8959 740.527,810.1199 750.9958,809.2603 758.8062,807.5689 761.6794,806.4538 763.3631,805.3551 764.6066,803.7049 764.9128,802.1634 764.7196,801.0402 763.935,799.4647 761.4244,796.5475 757.4587,793.2521 751.8025,789.5103 745.9958,786.5764 738.5787,783.4891 732.0034,781.2844 725.1331,779.5058 718.4864,778.2307 711.4624,777.3127 704.9667,776.869 697.1136,776.7964 689.0824,777.6103 683.2662,778.7759 678.904,780.3435 675.9959,782.3129 674.6218,784.4291 674.4295,786.8749 675.4705,789.5397 677.7605,792.3583 681.2998,795.3306 686.8899,798.9723 692.1868,801.7809"/>
    <polygon points="295.1229,67.011 305.2594,66.4737 313.81,66.4391 323.6782,67.132 336.4404,68.5177 355.1967,69.5938 367.957,70.8238 368.4183,70.5163 368.7257,70.2088 368.5536,70.0551 364.421,68.8251 354.0153,63.0269 344.4922,57.1719 325.7986,42.0437 322.2495,38.5154 321.0811,36.4245 321.667,34.0464 324.6025,30.8515 330.4169,26.6505 336.758,23.3821 343.7056,21.2332 361.9612,18.8598 356.5803,17.4761 335.6205,13.2227 334.7493,13.0177 334.7493,12.7102 311.3809,9.9429 304.7924,8.4151 286.0138,5.0232 283.7508,4.2545 282.6193,3.1476 282.7108,1.3201 283.7462,0.3726 285.0663,0.0408 287.5512,0.1035 300.6191,2.4096 312.6108,5.0232 335.3643,7.9443 349.9695,10.4041 368.5365,15.2164 370.1331,16.4263 370.2395,17.3706 369.9557,18.0911 375.7978,17.3224 380.8712,16.0925 386.2862,15.1871 388.7589,15.353 389.9482,15.9019 390.4361,16.4711 390.655,18.0227 389.8222,18.9964 382.1166,21.1777 374.0607,22.7114 362.4224,23.7794 353.289,25.069 347.3232,26.0974 342.9932,27.2309 339.3019,28.648 335.8691,30.4961 328.446,36.2323 342.2661,48.0546 354.1205,57.1409 369.7831,65.4303 374.1931,67.2365 376.4127,68.6714 376.5665,68.2102 377.5705,69.9421 377.7075,71.4459 376.7076,72.68 374.5967,74.0043 370.6016,75.6888 366.5734,76.2047 356.4266,74.7057 345.5072,74.1667 326.5983,72.473 308.921,71.4387 301.2341,71.4387 291.241,72.9761 289.8958,72.7647 288.9349,72.1306 288.1875,70.1341 288.2238,69.0365 288.6851,68.2678"/>
    <polygon points="344.0385,97.3611 340.8989,96.4983 339.2262,95.5144 338.3114,93.5927 338.422,92.2126 338.8319,91.5521 339.9594,91.0169 341.0526,90.9637 346.8947,92.5011 348.1631,93.2698 348.5389,94.1239 348.5617,95.2621 348.1996,96.6762 347.7168,97.2759 346.6304,97.6609"/>
    <polygon points="296.5801,91.4553 293.1423,91.6916 291.4857,91.0139 290.4848,89.853 289.9577,88.6011 289.9065,87.2186 290.3001,86.4069 292.7423,85.4348 296.9464,85.0533 301.4985,85.1939 306.6272,86.0794 313.0705,87.832 322.1426,90.9637 322.9968,91.4762 323.5092,92.1936 323.6478,93.7177 323.1638,94.9534 322.099,95.3349 313.072,93.1161 306.2706,91.8061 302.652,91.4402"/>
    <polygon points="289.7087,105.3058 291.9042,105.1737 301.8394,106.2685 324.295,109.7198 326.0246,110.7191 326.5651,111.7713 326.234,113.6292 325.1327,114.2881 323.9875,114.332 320.144,113.5633 315.8885,113.4157 312.1496,113.5633 306.9224,114.4857 308.4345,116.6692 315.1239,123.7381 318.5682,128.0148 321.2202,132.7808 321.3511,134.9865 320.5506,137.0639 318.6066,138.3154 301.0487,141.0852 297.6498,142.2362 295.6105,143.7215 294.9307,145.5412 295.4798,147.7374 299.2354,152.7669 303.0789,156.3029 303.2999,158.0037 302.6081,158.5418 301.3195,158.4724 300.0383,157.7549 294.4695,153.2281 291.8496,150.5791 290.3559,148.443 289.2285,145.8294 288.9349,144.0038 289.2843,142.2202 290.067,140.942 291.2969,139.7959 294.5254,138.1083 308.9132,134.9109 312.3435,133.729 313.8281,132.331 313.8578,129.6718 312.6108,127.5536 303.2452,118.9191 297.6498,114.7836 289.5283,109.7936 288.818,108.7236 288.4737,106.9525 288.7824,105.9119"/>
    <polygon points="344.8669,170.212 340.8989,169.2171 339.2262,168.2332 338.3114,166.3114 338.422,164.9314 338.8319,164.2709 339.9594,163.7356 341.0526,163.6825 347.8342,165.664 348.3979,166.3815 348.5859,167.3722 348.4893,168.5208 347.9823,169.7292 347.0408,170.32"/>
    <polygon points="289.8573,160.454 290.0541,159.4946 290.6445,158.8305 293.6837,157.9941 299.765,157.7977 304.3288,158.335 311.1547,159.9606 322.1426,163.6825 322.9968,164.195 323.5092,164.9124 323.6478,166.4365 323.1638,167.6721 322.099,168.0536 313.072,165.8348 305.305,164.3877 301.849,164.1437 292.7188,164.3539 291.4857,163.7327 290.7609,162.9765 290.0832,161.7435"/>
    <polygon points="341.5926,226.8997 341.0526,226.7156 341.1209,230.4225 342.8975,240.091 343.6662,253.9275 343.5144,254.7171 342.7172,255.5314 339.953,255.9091 337.5935,255.3112 336.844,254.5425 336.6219,253.8592 335.8255,240.091 334.0176,228.6222 333.6731,224.102 328.5075,222.5769 319.2216,220.692 301.1744,218.8341 292.5221,218.7895 288.7811,219.4899 287.705,220.5276 286.6288,220.8735 285.817,220.6275 285.1037,219.8896 284.0921,217.9525 283.8615,216.8763 285.1683,215.1083 287.5512,213.3403 293.5855,213.225 319.5291,215.8001 334.1343,219.4899 334.3279,216.4568 334.6468,215.7659 336.2411,214.9764 338.7872,214.9539 340.566,215.5638 341.233,216.4214 341.3601,221.6422 351.6606,224.717 372.723,227.9455 367.4788,219.3383 366.2659,217.1838 366.1122,216.2613 366.4166,215.0852 367.7695,214.1628 370.0544,213.9761 371.8765,214.4772 373.0305,215.6464 379.527,226.3281 381.8611,230.8466 383.9586,236.9131 385.1519,243.9387 385.3273,248.3505 385.0943,252.2615 384.1785,259.5665 383.1431,263.9334 382.0802,266.8929 380.8731,269.0965 379.4506,270.968 377.1814,273.145 373.5655,273.9198 370.4169,274.0674 369.5299,273.86 365.036,272.2226 363.6523,270.9542 362.5762,269.3015 363.2403,268.2868 365.446,267.7812 367.0346,267.7641 369.819,268.7549 371.9543,268.9364 372.8767,268.4751 374.1955,267.1419 375.6921,264.4683 376.6784,259.8304 377.6426,251.0065 376.7571,239.5252 375.9515,234.0951 375.6056,233.557 375.1828,233.1727 372.9963,232.831 359.3798,231.3764 354.5182,230.535"/>
    <polygon points="319.3735,275.0672 325.7531,280.7958 327.8158,283.6656 328.7326,285.9773 328.8019,288.7656 327.9592,291.2106 325.9111,293.7241 324.6394,294.6438 323.7046,294.939 322.1085,294.788 321.2757,293.8015 321.5277,291.7473 323.3357,288.9616 323.6677,287.4953 323.3716,285.8896 322.6807,284.3294 320.5217,281.7087 313.1317,276.1658 305.7694,271.9149 298.755,268.9939 289.9086,266.4828 288.6754,264.9294 288.6151,263.0411 289.7466,262.1555 291.3378,261.7174 299.0913,261.1547 309.4519,261.3669 324.4282,262.3569 332.4432,262.0756 333.3468,262.2387 333.9492,262.7282 334.2368,264.5482 333.8268,265.2657 333.0069,265.6757 327.4743,266.1589 310.9837,266.5597 309.9588,266.7646 309.4463,267.1746 309.6453,268.1235 310.8142,269.262"/>
    <polygon points="325.8276,318.9254 323.2373,314.4759 320.3074,310.6667 316.3107,306.5467 311.8964,302.789 306.635,299.0874 302.2889,296.7276 298.945,295.8126 296.3528,296.0254 295.7379,296.525 295.392,297.7429 296.4117,301.0804 299.4711,306.3872 305.1532,314.5257 310.9864,321.7958 316.3811,327.3125 320.275,330.3303 325.4907,332.881 326.3411,334.3994 326.3244,336.4054 325.6787,337.4846 324.9407,337.9274 322.3394,338.0842 319.978,337.3463 317.223,335.8704 312.0439,334.2561 306.0897,332.7386 301.9398,332.1835 298.6726,332.4787 295.5267,333.2071 293.1564,334.1576 290.3356,335.8191 289.0667,335.7574 287.8807,335.1644 286.0546,333.3289 285.584,332.2277 285.6209,331.3777 287.0382,329.7235 289.7258,328.0469 292.9459,326.9027 296.6983,326.291 306.4828,326.6147 307.7295,326.1463 308.0082,325.5218 307.8449,324.6474 305.3289,321.2139 290.1486,301.9356 289.1776,299.4877 288.8135,297.1901 288.9367,294.9692 289.6281,293.4482 291.7022,291.4396 294.7001,290.1713 297.1474,290.0018 301.0835,290.8748 304.8485,292.5409 310.1589,295.8462 315.1768,299.7434 319.5253,303.8299 323.3032,308.1314 326.5349,312.7037 328.6429,316.7994 329.8892,320.669 330.2804,324.8007 329.6215,328.2636 328.241,330.0624 327.2683,330.5571 325.6787,330.7969 324.3872,330.3542 324.1413,328.6446 326.2399,325.266 326.854,323.3692 326.7356,321.3612"/>
    <polygon points="322.516,351.0216 323.0431,351.6993 323.1633,353.1447 322.7192,353.8963 321.8309,354.2722 307.0762,354.1654 305.7847,354.6082 305.5388,355.3953 305.9487,356.2153 310.6781,359.8632 313.4893,363.2517 314.8176,366.4302 314.989,369.4201 314.0713,371.1536 312.1339,372.4949 309.9588,373.2675 302.2412,375.074 301.1399,375.7988 300.8136,376.5016 301.0419,377.995 302.0241,379.6563 309.7784,389.7886 313.5354,395.2623 314.8534,397.9979 314.6169,399.5887 312.8892,401.2396 310.1175,402.4995 298.6478,405.188 294.5546,406.782 293.61,407.7856 293.0859,410.7416 293.2427,415.2565 292.7909,415.9091 292.0379,416.2354 290.4316,416.0246 289.4291,415.2699 288.541,414.012 287.4398,410.98 287.4563,405.9737 288.3389,403.8442 289.8834,402.2783 292.1634,400.9022 303.642,397.3635 305.2722,396.563 306.0,395.5213 305.0421,392.1564 302.2093,387.1628 298.1763,381.481 293.9775,376.7159 293.7008,375.074 293.9468,372.8355 294.9461,371.3519 301.2935,369.448 304.7291,368.0235 306.2322,366.9007 306.4516,365.9221 306.1173,364.0266 305.506,362.5674 303.013,359.4705 300.4913,357.5492 297.8391,356.0662 287.705,352.2052 286.8306,350.3796 287.0454,348.3709 287.8341,347.407 289.1486,346.9688 294.8608,347.2023 321.0665,350.4756"/>
    <polygon points="285.4672,441.2162 284.3515,436.935 284.2601,432.1597 285.1313,428.1663 286.9249,424.7195 289.5655,421.9395 292.8041,420.0811 297.1103,419.0222 301.7392,418.9683 306.373,419.8477 310.2022,421.4522 314.5469,424.2904 318.683,427.8895 322.8365,432.4717 325.8419,436.878 327.5508,440.9174 327.9701,444.4583 327.6196,446.2171 326.8017,447.5331 325.5165,448.4063 323.7638,448.8368 321.0144,448.801 318.3952,448.2925 315.7949,447.2944 313.2134,445.8066 310.2862,443.5066 307.7451,440.9695 302.7511,434.3337 300.3674,429.9987 299.7133,427.4997 299.5429,425.1932 296.1194,425.7033 293.7544,426.675 291.9149,428.1398 290.4331,430.4722 289.7323,433.0057 289.5552,435.8762 289.9807,439.1276 291.2025,443.1038 290.8739,444.9879 289.7726,445.5997 288.0124,445.2946 286.8517,443.8955"/>
    <polygon points="311.035,428.537 308.1523,427.1918 307.3836,427.4309 306.8071,428.6865 306.8754,429.7949 307.8564,432.7745 310.2263,436.8355 313.4643,440.2862 316.4663,442.415 319.7392,443.4527 321.2682,443.4401 322.1138,443.0558 322.8345,442.0661 322.626,440.3169 321.935,438.2833 320.6517,436.1971 318.7761,434.0583 316.3082,431.8668"/>
    <polygon points="288.9413,457.7626 289.3945,462.0775 291.0104,465.5115 293.7896,468.0191 295.8364,469.0118 297.9644,469.5711 300.327,469.0796 302.8982,467.7425 311.1082,461.2368 314.5917,459.2613 317.0491,458.4037 320.0527,457.8677 322.5537,457.83 324.4872,458.3242 327.0662,459.6419 330.0147,461.752 332.2268,463.8445 334.3657,466.4692 335.3258,468.1635 335.9259,470.2107 335.929,472.3254 335.5274,474.4339 334.7242,475.8395 333.8582,476.4325 331.6745,476.8498 329.8296,476.3886 329.2531,475.4373 329.2627,474.4956 330.4753,472.6004 330.7521,470.3927 329.6861,468.2613 327.9493,466.0223 326.2782,464.652 324.0044,463.6023 321.9207,463.2743 319.3985,463.8244 316.4534,465.3546 313.5296,467.4975 307.8724,472.3803 303.4931,475.0545 300.8131,476.0091 298.5819,476.3648 296.1354,476.2683 294.1205,475.7797 290.8597,473.9533 288.0693,470.9093 285.6624,466.5367 284.3488,461.9637 284.0398,456.934 284.9008,452.479 286.5475,449.7738 287.9807,448.9098 289.2424,448.7154 290.5107,449.0998 290.9335,450.2528 289.4538,454.0387"/>
    <polygon points="325.7565,497.5231 324.3358,496.2336 323.8652,494.8876 324.2273,492.5067 325.3147,491.4489 328.0401,491.1569 330.8812,491.5997 333.0774,492.637 334.1535,493.9438 334.2669,495.1592 333.9492,496.3892 333.2502,497.3239 332.1699,497.9635 328.985,498.3602"/>
    <polygon points="289.9557,491.572 290.4723,490.2252 291.3382,489.604 293.5471,489.3028 296.0069,489.5334 298.1593,490.2252 299.4708,491.0972 300.1771,492.0989 300.2269,493.7571 299.5491,495.2003 298.1934,496.1186 296.16,496.5122 293.511,496.316 291.78,495.6782 290.6417,494.7747 289.9828,493.5228"/>
    <polygon points="321.6814,568.4787 319.1416,568.2081 316.811,567.3964 314.6893,566.0435 312.7768,564.1494 310.8371,561.3247 309.4273,558.501 308.3392,555.0647 307.8449,551.8748 288.2917,545.5307 287.0869,544.3761 287.1577,542.5889 287.8218,542.097 288.4697,542.0381 292.1194,542.6947 307.9986,547.7238 308.7235,544.5028 310.0048,542.2632 311.8079,541.0106 314.0115,540.9764 314.5752,541.4889 314.7631,542.343 313.2834,546.1288 312.7709,549.8527 312.9441,552.8171 313.4827,555.0108 314.603,557.2658 316.5636,559.3763 318.8043,560.7392 321.5419,561.6449 323.5084,561.3963 326.3317,560.0755 329.306,558.0127 334.9379,553.3269 338.4213,551.3514 340.8788,550.4939 343.4443,550.0038 346.0289,549.888 348.0093,550.299 351.1015,551.801 354.8604,554.767 358.0204,558.266 359.5014,561.2529 371.7697,566.5716 377.8842,569.7369 380.5731,572.5857 380.9967,573.7717 380.9907,574.7778 380.7174,575.666 380.1708,576.1102 378.4168,575.8245 368.1108,570.4773 359.3476,566.3263 358.7546,567.6535 357.7663,568.4724 355.5041,568.9399 354.0052,568.6805 353.198,567.9022 353.0443,567.095 353.2365,566.1342 354.305,564.6906 354.551,563.7804 354.5817,562.4829 353.7767,560.7877 352.3904,558.7867 350.4583,556.9802 348.6245,555.9703 346.3149,555.38 343.5665,555.7922 340.283,557.4447 337.3593,559.5876 332.1103,564.1562 328.4968,566.5576 325.0205,567.9984"/>
    <polygon points="338.8181,618.5836 332.2323,612.8543 319.9698,600.3527 312.7333,594.4937 308.7359,591.8566 304.1667,589.5523 298.9829,587.6096 293.2396,586.005 294.0937,591.3176 292.9321,603.5314 294.1449,609.3905 293.8375,612.2091 292.2478,616.4134 290.3844,619.3257 289.1326,619.7964 287.9644,619.8085 285.5142,619.1359 284.5917,617.906 284.5149,616.3686 286.774,611.9614 287.2437,609.5272 286.1676,603.3776 287.2355,590.1143 287.2096,587.5766 286.2017,583.1523 286.5945,580.8846 287.8752,579.919 289.3961,579.7017 296.4784,580.9332 304.5841,583.4235 312.188,587.0766 317.182,590.3822 323.7368,595.6311 339.669,611.0646 344.1424,614.8823 347.7217,617.4046 351.7973,619.7647 357.8304,621.9945 361.3338,622.6383 365.036,622.9025 367.8338,622.6395 370.3572,621.8505 372.9542,620.2652 375.1726,618.0299 376.7202,615.4462 377.4521,612.9838 377.4889,608.451 376.259,604.031 373.8667,600.7938 369.2476,595.9098 366.6118,593.5767 362.9221,590.9631 362.6146,590.0749 362.6991,588.5448 363.6831,587.2165 365.6509,586.7737 367.5204,587.1673 371.5891,589.3393 375.129,591.9348 377.8685,594.6562 379.9487,597.3818 381.8,600.5438 383.1576,603.808 384.1604,608.0318 384.4016,612.0199 384.0497,615.2922 382.9772,618.6329 381.4524,621.207 379.0393,623.7498 376.1304,625.7527 372.6058,627.3409 368.761,628.2888 365.0747,628.5937 360.0822,628.3688 355.3405,627.4943 351.1937,626.142 347.1638,624.2862 343.6535,622.1493"/>
    <polygon points="332.2239,682.405 320.7009,680.4579 310.1965,677.4123 300.153,673.0355 292.0381,668.084 289.2444,665.8112 286.9721,663.4487 285.0138,660.639 283.8591,658.0845 283.2258,655.4403 283.1288,652.6516 283.6694,650.2418 284.8586,648.0202 287.4533,645.3512 291.7022,642.5812 296.7633,640.6686 303.196,639.3335 309.9269,638.827 319.3094,638.766 327.6266,639.4185 335.6003,640.6751 346.1591,643.1389 356.1674,646.2411 362.9197,648.6345 369.4775,651.7733 376.0646,655.7122 381.4338,659.945 384.817,663.7215 386.6471,667.6032 387.0131,670.003 386.8761,672.1104 386.2882,674.1425 384.986,676.4407 383.3167,678.2882 381.3254,679.7524 378.9074,680.9656 375.8386,681.9982 368.672,683.2148 356.8266,683.9356 344.9937,683.5638"/>
    <polygon points="313.2087,644.7336 307.467,645.1938 301.6435,646.0801 297.4558,647.1412 293.857,648.6424 291.436,650.4692 290.2728,652.3663 290.0805,654.8121 290.9441,657.1732 293.0953,659.9747 296.4958,662.9299 301.8085,666.4712 307.0628,669.3447 312.2086,671.6059 317.6112,673.475 323.2706,674.9521 329.8553,676.1852 338.1525,677.2927 346.4759,677.9274 354.8398,678.0856 362.0203,677.7144 369.0241,676.8236 374.8303,675.3841 378.2487,673.8662 379.6262,672.6691 380.2576,671.6421 380.5516,669.8313 379.7912,667.7323 377.8478,665.2597 374.7216,662.4136 366.7396,657.0487 356.2239,652.2027 346.3886,648.8556 335.4653,646.3911 324.5047,645.024"/>
  </g>
</svg>
