<?xml version="1.0" encoding="UTF-8" standalone="no"?>
<!-- Created with Inkscape (http://www.inkscape.org/) -->

<svg
   width="8.5in"
   height="11in"
   viewBox="0 0 215.9 279.4"
   version="1.1"
   id="svg961"
   inkscape:version="1.1.2 (b8e25be833, 2022-02-05)"
   sodipodi:docname="prices.svg"
   xmlns:inkscape="http://www.inkscape.org/namespaces/inkscape"
   xmlns:sodipodi="http://sodipodi.sourceforge.net/DTD/sodipodi-0.dtd"
   xmlns="http://www.w3.org/2000/svg"
   xmlns:svg="http://www.w3.org/2000/svg">
  <sodipodi:namedview
     id="namedview963"
     pagecolor="#ffffff"
     bordercolor="#666666"
     borderopacity="1.0"
     inkscape:pageshadow="2"
     inkscape:pageopacity="0.0"
     inkscape:pagecheckerboard="0"
     inkscape:document-units="in"
     showgrid="false"
     units="in"
     inkscape:zoom="0.68087121"
     inkscape:cx="407.56606"
     inkscape:cy="593.35744"
     inkscape:window-width="1920"
     inkscape:window-height="1017"
     inkscape:window-x="-8"
     inkscape:window-y="-8"
     inkscape:window-maximized="1"
     inkscape:current-layer="layer1" />
  <defs
     id="defs958">
    <rect
       x="1.4687065"
       y="1.4687065"
       width="813.66342"
       height="1056"
       id="rect46967" />
    <rect
       x="73.435327"
       y="76.37274"
       width="411.23783"
       height="769.60222"
       id="rect3617" />
  </defs>
  <g
     inkscape:label="Layer 1"
     inkscape:groupmode="layer"
     id="layer1">
    <g
       aria-label="Unframed Plots: $20

Mini Frames: $20"
       transform="matrix(0.26458333,0,0,0.26458333,11.706515,77.329565)"
       id="text46965"
       style="font-size:40px;font-family:'Square Peg';-inkscape-font-specification:'Square Peg';white-space:pre">
      <path
         d="m 27.602017,113.33109 q -7.066649,0 -10.933306,-5.59999 -2.799993,-4.13332 -4.533322,-16.666619 -0.266666,-2.133328 -0.399999,-4.266656 -0.133333,-2.133328 -0.133333,-4.399989 0,-3.599991 0.266666,-7.333315 0.266666,-3.733323 0.399999,-7.59998 0.133333,-3.066659 0.266666,-8.133313 0.266666,-5.066653 1.066664,-12.266635 l 1.066664,-9.866641 q 0.399999,-3.333325 2.533327,-3.333325 2.66666,0 1.999995,3.99999 l -1.199997,9.466642 q -0.266666,2.533327 -0.533332,7.466648 -0.266666,4.93332 -0.799998,12.399968 l -0.799998,11.59997 q -0.133333,1.066664 -0.133333,2.133328 0,0.933331 0,1.999995 0,3.333325 0.399999,6.399984 1.33333,9.733308 3.99999,13.733298 2.799993,3.99999 9.333309,3.73332 2.533327,-0.13333 5.599986,-2.53332 3.066659,-2.4 5.599986,-5.999988 2.66666,-3.733324 3.733324,-7.466647 L 48.401963,76.79785 q 1.599996,-5.599985 2.933326,-12.666634 1.33333,-7.066648 2.266661,-15.59996 l 1.066664,-9.733308 q 0.399999,-3.599991 2.533327,-3.599991 2.399994,0 1.999995,3.866657 l -1.199997,9.599975 q -0.933331,7.866647 -2.266661,15.333294 -1.33333,7.466648 -3.066659,14.399963 -0.933331,3.333325 -1.999995,7.066649 -1.066664,3.733324 -2.399994,7.59998 -1.733329,5.066654 -4.133322,8.933315 -2.266661,3.86665 -5.199987,6.53331 -5.33332,4.79999 -11.333304,4.79999 z"
         style="-inkscape-font-specification:'Square Peg, Normal'"
         id="path52929" />
      <path
         d="m 66.801979,110.1311 q -1.999995,0 -1.466663,-3.59999 0.399999,-4.66666 1.33333,-11.46664 1.066664,-6.933315 2.533327,-15.999959 0.666665,-1.999995 2.133328,-1.999995 1.866662,0 1.866662,1.733329 0,0.133333 0,0.533332 0,0.266666 -0.133333,0.666665 -0.266666,1.199997 -0.533332,2.66666 -0.133333,1.33333 -0.133333,2.933326 0,1.866662 0.133333,3.99999 0.266666,2.133328 0.799998,4.533321 0.799998,0 6.533316,-5.733318 5.733319,-5.466653 9.33331,-6.533317 v -0.133333 q 0.399999,-0.133333 0.799998,-0.133333 0.399999,0 0.666665,0 2.533327,0 3.333324,2.399994 L 95.868571,96.3978 q 1.199997,8.13331 4.399989,8.13331 1.33333,0 2.66666,-0.93333 1.86666,-1.33333 3.59999,-2.79999 1.73333,-1.599997 3.06666,-3.333326 0.8,-0.266666 1.06666,-0.266666 0.93333,0 0.93333,1.199997 0,0.799998 -1.06666,2.133325 -1.73333,2.13333 -3.59999,4.39999 -1.86666,2.13333 -3.73332,3.33333 -2.53333,1.46666 -4.26666,1.46666 -3.599991,0 -5.466652,-5.86665 L 91.201917,93.064475 q -1.199997,-5.466652 -3.066659,-4.93332 -0.133333,0 -0.399999,0 -0.133333,-0.133333 -0.399999,-0.133333 -0.533332,0 -1.33333,0.266666 -0.666665,0.266666 -1.33333,0.933331 l -3.199992,3.333325 q -4.133323,4.266655 -6.933315,8.266646 -2.799993,3.99999 -4.533322,7.46665 -1.066664,1.86666 -3.199992,1.86666 z"
         style="-inkscape-font-specification:'Square Peg, Normal'"
         id="path52931" />
      <path
         d="m 124.00189,123.0644 q -0.93334,0 -2,-1.33333 -0.93333,-1.33333 -1.6,-3.06666 -0.53333,-1.73333 -0.53333,-2.79999 0.26667,-5.19999 2.4,-11.73331 0.66666,-1.86666 1.99999,-1.59999 0.26667,-2.26666 0.53333,-5.733321 0.4,-3.466658 0.93333,-7.999979 -0.66666,-1.866662 -2.79999,-1.866662 -0.53333,0 -3.99999,0.666665 -3.33332,0.666665 -9.86664,1.999995 -0.13333,0 -0.26667,0.133333 -0.13333,0 -0.4,-0.133333 -1.33332,0 -1.33332,-1.599996 0,-1.866662 1.73332,-2.66666 l -0.13333,0.133333 q 2,-0.933331 9.73331,-2.799993 5.73332,-1.466663 9.19998,-3.733324 l 0.79999,-6.799982 q 0.53334,-4.933321 1.73333,-10.133308 1.2,-5.333319 3.33333,-10.799972 4.39999,-11.866637 10.39997,-19.066618 5.06665,-5.866652 10.13331,-5.866652 4.39999,0 7.73331,4.133323 0.53333,0.533332 0.53333,1.199997 0,1.466663 -1.59999,1.466663 -0.93333,0 -1.6,-0.799998 -2.13333,-2.533327 -4.66665,-2.533327 -5.99999,0 -12.66664,13.199966 -2.66666,5.33332 -4.66665,12.666635 -2,7.199981 -3.06666,16.266625 l -0.13333,2.266661 -0.26667,3.59999 q 3.86666,1.199997 8.53331,1.199997 l 8.53331,-0.266666 q 3.99999,0.133333 3.99999,2.66666 0,2.266661 -2.13332,2.266661 h -10.39998 q -5.59998,0.399999 -9.86664,3.066659 -3.99999,30.933258 -6.79998,35.333238 -0.66667,1.06667 -1.46666,1.06667 z"
         style="-inkscape-font-specification:'Square Peg, Normal'"
         id="path52933" />
      <path
         d="m 158.26847,110.1311 q -1.33333,0 -1.73333,-3.06666 -0.4,-3.19999 -0.4,-6.53332 0,-2.133325 0,-3.866654 0.13333,-1.866662 0.13333,-2.799993 0,-1.333329 0.13333,-3.333324 0.13334,-2.133328 0.4,-4.799988 0.4,-5.466653 0.4,-8.266646 0,-1.33333 -0.13333,-2.533326 -0.13333,-1.33333 -0.13333,-2.399994 v -0.533332 q 0,-1.599996 1.73333,-1.599996 1.33333,0 1.46666,1.599996 0.26666,1.466663 0.4,5.999984 0.13333,4.533322 0.26666,11.99997 0,1.999995 0.8,1.999995 0.93333,0 2.79999,-3.066659 3.86666,-6.399984 8.39998,-10.799973 3.33333,-3.066659 6.13332,-3.066659 3.33333,0 5.73332,2.933326 0.8,0.933331 0.8,1.999995 0,1.733329 -1.46667,1.733329 -0.53333,0 -1.19999,-0.399999 l -0.13334,0.133333 q -2.53332,-1.866662 -3.33332,-1.866662 -3.19999,0 -5.99999,3.466658 -9.7333,11.999969 -11.99996,24.266609 -0.53334,2.79999 -3.06666,2.79999 z"
         style="-inkscape-font-specification:'Square Peg, Normal'"
         id="path52935" />
      <path
         d="m 217.46811,112.66443 q -0.66666,0 -1.19999,-0.53334 -3.59999,-3.73332 -3.73333,-10.9333 0,-0.53333 0.13334,-1.199999 0.13333,-0.799998 0.13333,-1.733329 l 0.13333,-2.799993 V 95.06447 q 0,-2.399993 -1.73333,-1.733329 -2.66666,1.866662 -7.19998,5.466653 -4.39999,3.466656 -10.66664,8.533316 -2.66666,2.53332 -6.79998,2.53332 -2.39999,0 -4.13332,-2.53332 -1.6,-2.66666 -1.2,-5.06666 0.4,-3.466656 2.79999,-7.466646 2.4,-4.133322 5.86665,-8.133312 3.6,-4.133323 7.59998,-7.199982 4.13333,-3.199992 7.86665,-4.533321 1.46666,-0.533332 2.79999,-0.799998 1.33333,-0.266666 2.66666,-0.266666 5.73332,0 5.73332,3.999989 0,1.33333 -1.06666,1.33333 -0.4,0 -0.8,0 -0.4,-0.133333 -0.8,-0.399999 -2.39999,-1.999995 -4.39999,-1.999995 -1.99999,0 -5.86665,2.399994 -3.06666,1.866662 -5.99998,4.666655 -2.93333,2.799993 -5.59999,6.266651 -2.53332,3.333324 -3.99999,5.999984 -1.46666,2.533327 -1.73333,4.533326 -0.13333,0.53333 -0.13333,1.33333 0,2.13332 1.73333,2.13332 2.13333,0 7.99998,-3.86665 13.99996,-9.333312 19.46662,-16.533294 1.33333,-1.733329 2.39999,-4.666655 0.66666,-1.866662 2.79999,-1.866662 2.4,0 2.4,2.66666 0,2.133328 -2,5.33332 -3.19999,9.733308 -3.19999,13.466632 0.26667,5.733319 2.79999,9.199979 0.4,0.4 0.4,1.06666 0,1.2 -1.2,2.4 -1.19999,1.33333 -2.26666,1.33333 z"
         style="-inkscape-font-specification:'Square Peg, Normal'"
         id="path52937" />
      <path
         d="m 233.06808,111.59776 q -2.53333,0 -2.53333,-2.53333 0.13333,-5.59998 1.2,-13.466628 0.66666,-5.066653 1.19999,-8.533311 0.53334,-3.466658 0.66667,-5.199987 0.26666,-1.866662 1.86666,-1.866662 1.46666,0 1.46666,1.733329 0,4.799988 0,7.866647 0,2.933326 -0.13333,4.133322 v 0.266666 q 0,1.33333 1.06666,1.33333 0.53334,0 1.06667,-0.799998 4.79999,-7.466647 10.39997,-7.466647 2.53333,0 3.73333,3.466658 0.26666,0.666665 0.66666,2.533326 0.53333,1.733329 1.06666,4.666655 0.4,1.733329 1.73333,1.733329 0.8,0 2.13333,-0.933331 0.66667,-0.399999 2,-1.466663 1.46666,-1.066664 3.59999,-2.799993 9.06664,-7.066648 10.9333,-7.066648 3.19999,0 4.93332,9.999974 1.6,8.533312 3.46666,8.533312 0.53333,0 2.26666,0.4 1.6,0.13333 2,0 0.26666,-0.13333 0.53333,-0.13333 0.26666,-0.13334 0.53333,-0.13334 1.73333,0 1.73333,1.6 0,1.86666 -2.93333,3.06666 -2.13332,0.93333 -5.33332,0.53333 -3.06666,0 -5.06665,-4.13332 -0.8,-1.86667 -2.39999,-7.733317 -1.06667,-4.266656 -2.26667,-4.266656 -1.59999,0 -4.66665,1.733329 -3.06666,1.733329 -6.13332,3.999994 -3.06666,2.26666 -4.93332,4.26665 -0.53333,0.66667 -1.99999,0.66667 -2.93333,0 -3.33333,-1.33333 -2.53332,-9.733312 -4.26665,-9.733312 -4.39999,0 -7.86665,5.599982 -0.93333,1.46667 -1.86666,3.86666 -0.93333,2.39999 -2,5.86665 -0.53333,1.33333 -0.93333,1.06667 -0.66666,0.66666 -1.59999,0.66666 z"
         style="-inkscape-font-specification:'Square Peg, Normal'"
         id="path52939" />
      <path
         d="m 306.13461,113.86442 q -5.86665,0 -9.59997,-3.59999 -3.6,-3.59999 -3.6,-9.73331 0,-1.333327 0.13334,-2.666657 0.26666,-1.33333 0.53333,-2.66666 1.46666,-5.733318 8.13331,-12.266635 7.46665,-7.066649 12.9333,-7.066649 4.53332,0 4.26666,5.066654 -0.13333,6.533317 -7.19998,12.799967 -3.06666,2.533327 -6.39999,4.666655 -3.19999,2.133325 -6.79998,2.133325 h -0.13333 q 0.4,8.66665 8.93331,8.66665 2.79999,0 6.26665,-1.33333 0.26666,-0.13334 0.8,-0.13334 1.73333,0 1.73333,1.73333 0,1.2 -1.2,1.86667 -3.73333,2.53332 -8.79998,2.53332 z m -4.13332,-19.599948 q 4.13332,-0.933331 7.06665,-3.466657 5.19998,-4.399989 5.19998,-8.399979 V 82.13117 q 0,-0.933331 -0.66666,-1.466663 -0.66667,-0.533332 -0.93333,-0.266666 -4.13333,0 -8.79998,5.999985 -0.66666,0.933331 -1.6,2.533327 -0.93333,1.466663 -1.99999,3.599991 -0.13333,0.266666 -0.13333,0.533331 0,1.199997 1.86666,1.199997 z"
         style="-inkscape-font-specification:'Square Peg, Normal'"
         id="path52941" />
      <path
         d="m 351.73458,123.0644 q -3.73332,0 -4.26665,-8.93331 l 0.4,-7.46665 q 0.4,-5.59998 -0.53333,-6.799982 -14.5333,12.933302 -20.13329,12.933302 -5.73331,0 -5.73331,-7.73332 0,-5.599981 3.59999,-12.533296 3.46665,-6.66665 7.19998,-9.599976 5.19998,-3.99999 8.79998,-3.99999 2.79999,0 5.59998,1.33333 0.26667,0.133333 0.53333,0.399999 0.4,0.266666 0.8,0.533332 0.93333,0.666665 1.06666,0.666665 0.4,0 0.4,-0.799998 0.53334,-6.666649 1.6,-14.799962 1.2,-8.266646 2.93333,-17.999954 0.66666,-3.199992 1.86666,-7.333315 1.33333,-4.133322 3.19999,-9.066643 2.13333,-5.33332 5.99998,-5.33332 5.73332,0 6.39999,9.866642 0.13333,0.666665 0.13333,1.466663 0,0.666665 0,1.333329 0,10.399974 -4.93332,21.866611 l -12.79997,25.599935 q -0.13333,4.533322 0.4,13.466628 0.13333,1.33333 0.4,3.86666 0.4,2.39999 0.8,4.93332 0.4,2.53333 0.66666,4.26666 0.4,1.86666 0.4,1.99999 0,3.19999 -1.46666,5.46665 -1.46666,2.4 -3.33333,2.4 z m 3.33333,-46.799882 8.93331,-18.799952 q 2.66666,-5.466652 3.46666,-10.399973 0.93333,-5.066654 0.66666,-9.599975 -0.4,-7.333315 -2.39999,-7.333315 -1.86666,0 -4.13332,5.999985 -1.2,3.066658 -2,6.533316 -0.8,3.333325 -1.33333,7.066649 l -0.13333,0.133333 q -0.53333,4.266656 -1.33333,10.933305 -0.8,6.533317 -1.73333,15.466627 z m -28.39993,31.066592 q 4.53332,0.39999 9.73331,-2.8 3.06666,-1.86666 5.59999,-4.799985 2.66666,-3.066659 4.93332,-6.933315 h 0.13333 q 0.4,-1.866662 0.4,-3.599991 0,-7.333315 -5.33332,-7.333315 -3.86666,0 -8.53331,4.799988 -3.33333,3.599991 -5.59999,7.999979 -3.19999,6.133319 -3.19999,9.866639 0,2.53333 1.86666,2.8 z"
         style="-inkscape-font-specification:'Square Peg, Normal'"
         id="path52943" />
      <path
         d="m 402.40106,80.79784 q -0.93333,-0.799998 -0.93333,-2.533327 0,-2.266661 1.86666,-3.866656 l 4.93332,-4.266656 q 1.86667,-1.199997 4.53333,-3.333325 2.79999,-2.133328 6.53331,-5.066654 2,-1.733329 3.86666,-3.466658 1.86666,-1.866661 3.06666,-4.399988 0.93333,-1.866662 1.19999,-2.933326 0.26667,-1.066664 0.26667,-1.599996 0,-0.799998 -0.66666,-1.866662 -0.66667,-1.199997 -0.93334,-1.999995 -0.93333,-1.199997 -2.53332,-1.733329 -2.8,-0.799998 -3.46666,-1.199997 -0.93333,-0.533332 -2.53333,-1.33333 -1.46666,-0.933331 -3.46665,-2.133327 -2.26667,-0.933331 -5.59999,-2.399994 -3.19999,-1.599996 -7.33332,-3.733324 -0.66666,-0.799998 -1.86666,-1.733329 -1.19999,-1.066664 -2.79999,-2.399994 -0.53333,-0.533332 -0.53333,-1.733329 0,-1.466663 0.8,-2.799993 0.79999,-1.466663 1.73333,-1.466663 0.53333,0 0.93333,0.399999 l 0.13333,0.133333 q 1.2,1.066664 3.73332,3.333325 1.2,0.799998 2.66666,1.599996 1.46667,0.666665 3.19999,1.33333 1.06667,0.533332 2.66666,1.33333 1.6,0.799998 3.73333,1.999995 1.06666,0.533332 2.53332,1.466663 1.6,0.799998 3.73333,2.133328 l 3.33332,1.066664 q 1.2,0.399999 2.26666,1.199997 1.06667,0.666664 1.73333,1.866661 3.06666,3.866657 3.06666,8.666645 0,4.266656 -2.53332,8.533311 -2.13333,3.733324 -7.99998,9.199977 -2.53333,2.533327 -5.99999,4.799988 -2.93332,1.866662 -4.39999,2.799993 -1.33333,0.93333 -2.66666,2.133327 -1.19999,1.199997 -4.13332,3.866657 -1.06666,0.933331 -2.13333,0.133333 z m -7.86664,39.1999 q -0.8,0 -1.33333,-0.93333 -2,-4.39999 -2,-10.39997 0,-2.13333 0.4,-6.26666 0.13333,-1.99999 0.13333,-3.466653 0.13334,-1.466663 0.13334,-2.399994 0,-2.933326 0.26666,-5.866651 0.26667,-3.066659 0.66667,-6.266651 l 1.46666,-11.59997 q 0.53333,-3.733324 1.33333,-9.733309 0.8,-6.133317 1.73333,-14.533296 0.53333,-4.533322 0.8,-8.133313 0.13333,-3.333324 2.39999,-3.333324 2.53333,0 2.53333,3.59999 -0.26667,1.33333 -0.8,3.466658 -0.4,1.999995 -0.93333,4.933321 l -2.53333,24.133272 q -0.4,3.59999 -1.06666,9.199976 -0.66667,5.599986 -1.2,13.466632 l -0.4,6.799982 q -0.13333,1.86666 -0.26666,3.19999 0,1.33333 0,2 0,3.86665 1.46666,6.79998 0.26666,0.8 0.26666,1.33333 0,1.46666 -1.06666,2.66666 -0.93333,1.33333 -1.99999,1.33333 z"
         style="-inkscape-font-specification:'Square Peg, Normal'"
         id="path52945" />
      <path
         d="m 437.86767,120.13107 q -4.53332,0.13334 -7.19998,-6.53331 -2.53333,-6.66665 -2.53333,-19.999953 0,-7.59998 1.2,-16.93329 1.33333,-9.466642 3.86665,-20.799946 6.53332,-30.133257 15.7333,-30.133257 3.59999,0 5.19998,6.533317 1.2,4.933321 0.8,8.93331 -1.33333,12.933301 -15.33329,35.466576 -0.93333,1.066664 -2.26666,2.799993 -1.2,1.733329 -2.93333,4.133323 -0.26666,3.066659 -0.53333,5.999985 -0.13333,2.933326 -0.13333,5.599985 0,4.799988 0.79999,9.866637 1.46667,7.86665 4.39999,7.86665 2.8,0 5.59999,-3.59999 l 3.86666,-6.26665 q 0.66666,-1.06666 1.73332,-1.06666 1.33333,0 1.33333,1.33333 0,0.26666 -0.13333,0.53333 0,0.26666 -0.13333,0.53333 -1.46666,3.33332 -2.66666,5.73332 -1.06667,2.26666 -2,3.59999 -4.13332,6.39998 -8.66664,6.39998 z m 10.9333,-87.733106 q -9.19997,3.99999 -13.73329,43.999887 0.39999,-0.399999 1.19999,-1.599995 14.79997,-21.066613 14.79997,-33.599915 0,-0.933331 -0.13334,-1.999995 -0.13333,-1.199996 -0.4,-2.666659 -0.79999,-3.599991 -1.73333,-4.133323 z"
         style="-inkscape-font-specification:'Square Peg, Normal'"
         id="path52947" />
      <path
         d="m 462.00101,113.06442 q -4.26666,0 -7.19998,-3.33332 -2.66666,-3.06666 -2.66666,-6.93332 0,-7.199978 6.53331,-15.33329 2.66666,-3.466658 5.73332,-6.133318 3.06666,-2.66666 6.39999,-4.799988 0.66666,-0.399999 1.86666,-0.399999 3.86665,0 3.86665,1.866662 0,0.533332 -0.79999,1.199997 v 0.133333 q 1.99999,2.799993 3.99999,5.866652 1.99999,3.066659 1.99999,7.199982 0,3.466657 -1.86666,7.066648 -1.73333,3.599991 -4.79999,6.799981 -2.93332,3.06666 -6.39998,4.93332 -3.46666,1.86666 -6.66665,1.86666 z m 0.13333,-4.13332 q 3.33333,-0.13333 7.06665,-2.66666 3.73332,-2.66666 6.39998,-6.399982 2.8,-3.733324 2.93333,-7.066648 0.26667,-5.199987 -5.33332,-11.733304 -5.73332,4.133323 -10.13331,9.733309 -5.19998,6.799982 -5.19998,12.266635 0,5.86665 4.26665,5.86665 z"
         style="-inkscape-font-specification:'Square Peg, Normal'"
         id="path52949" />
      <path
         d="m 497.06763,119.06441 q -3.33332,0 -3.33332,-3.99999 0,-19.866617 2.79999,-42.266559 -1.33333,-0.266666 -2.79999,-0.399999 -1.33333,-0.266666 -2.66666,-0.533332 -3.73332,-0.533332 -3.73332,-2.133328 0,-1.599996 1.59999,-1.999995 h -0.13333 q -1.2,0 0.4,-0.133333 1.59999,-0.266666 4.13332,-0.533332 2.53333,-0.266666 3.99999,-0.266666 0.8,-4.666655 3.19999,-11.066638 1.33333,-3.866657 2.13333,-6.66665 0.93333,-2.933326 1.46666,-4.666655 0.66667,-2.66666 3.46666,-2.66666 1.2,0 0.93333,1.199997 -1.06666,3.733324 -2.66666,9.733309 -1.59999,5.866651 -3.46666,13.999964 1.2,0 2.93333,0 1.86666,0 4.26665,0.133333 2.4,0.133333 4.13333,0.266666 1.86666,0 2.93332,0 1.2,0 1.2,0.933331 0,0.799998 -1.06666,1.733329 -0.93333,0.933331 -2.13333,0.933331 -1.6,0 -4.79999,0.533332 -3.19999,0.399999 -8.13331,1.33333 -2,16.399958 -2,44.533215 0,2 -2.66666,2 z"
         style="-inkscape-font-specification:'Square Peg, Normal'"
         id="path52951" />
      <path
         d="m 521.60088,113.99776 q -3.33333,0 -5.73332,-1.2 -2.26666,-1.2 -2.26666,-3.33333 0,-1.46666 1.33333,-1.46666 -0.13334,0 2.13332,0.93333 2.26666,0.8 4.79999,0.8 7.73332,0 9.73331,-7.19998 0.8,-3.066661 -5.59999,-10.133309 -4.53332,-4.933321 -4.53332,-11.199972 0,-2.133328 1.86666,-4.933321 1.86667,-2.933325 4.53333,-5.066653 2.66666,-2.266661 5.06665,-2.266661 4.26666,0 4.79999,2.133328 0.13333,0.399999 0.13333,0.799998 0.13333,0.399999 0.13333,0.799998 0,2.133328 -1.59999,2.133328 -0.93333,0 -1.46666,-0.666665 -0.66667,-0.666665 -1.86667,-0.666665 -0.26666,0 -0.66666,0 -0.4,0 -0.66667,0.266666 -4.79998,2.399993 -5.46665,6.666649 -0.53333,3.733324 5.73332,10.399974 5.59998,5.999984 5.59998,11.199975 0,5.73331 -5.86665,9.19997 -4.53332,2.8 -10.1333,2.8 z"
         style="-inkscape-font-specification:'Square Peg, Normal'"
         id="path52953" />
      <path
         d="m 553.20086,79.46451 q -1.06666,0 -1.99999,-0.533332 -0.8,-0.533332 -0.8,-2.66666 0,-2.26666 0.8,-3.999989 0.93333,-1.866662 2.26666,-1.866662 3.19999,0 3.19999,4.133323 0,2.133327 -0.93333,3.59999 -0.93333,1.33333 -2.53333,1.33333 z m -1.59999,29.46659 q -1.06666,0 -2,-0.53333 -0.79999,-0.53333 -0.79999,-2.66666 0,-2.26666 0.79999,-3.99999 0.93334,-1.866662 2.26666,-1.866662 3.2,0 3.2,4.133322 0,2.13333 -0.93333,3.59999 -0.93334,1.33333 -2.53333,1.33333 z"
         style="-inkscape-font-specification:'Square Peg, Normal'"
         id="path52955" />
      <path
         d="m 595.86745,111.46443 q -1.33333,0 -1.33333,-1.2 0,-2.93332 4.93332,-17.066622 -2.66666,-0.266666 -4.39999,-1.466662 -1.59999,-1.199997 -1.59999,-2.933326 0,-1.466663 1.33333,-1.466663 -0.13334,0 2.13332,0.933331 2.26666,0.799998 4.79999,0.799998 7.73332,0 9.73331,-7.199982 0.8,-3.066659 -5.59999,-10.133307 -4.53332,-4.933321 -4.53332,-11.199972 0,-1.866662 1.46667,-4.399988 1.59999,-2.533327 3.86665,-4.666655 2.26666,-2.266661 4.53332,-2.933326 4.53333,-10.933305 6.93332,-15.333294 0.66666,-1.066664 1.86666,-2.133328 1.2,-1.199997 2.4,-1.199997 1.73332,0 1.73332,1.066664 0,1.066664 -1.99999,4.666655 -1.2,2.133328 -2.93333,5.466652 -1.59999,3.333325 -3.59999,7.599981 1.6,0.399999 2,1.733329 0.13333,0.399999 0.13333,0.799998 0.13333,0.399999 0.13333,0.799998 0,2.133328 -1.59999,2.133328 -0.93333,0 -1.46666,-0.666665 -0.66667,-0.666665 -1.86667,-0.666665 -0.26666,0 -0.66666,0 -0.4,0 -0.66667,0.266666 -4.79998,2.399994 -5.46665,6.666649 -0.53333,3.733324 5.73332,10.399974 5.59998,5.999984 5.59998,11.199971 0,5.733319 -5.86665,9.199977 -3.86665,2.399993 -8.53331,2.799992 -1.86666,5.599986 -3.33332,10.266639 -1.46667,4.66666 -2,6.26665 -0.53333,1.6 -1.86666,1.6 z"
         style="-inkscape-font-specification:'Square Peg, Normal'"
         id="path52957" />
      <path
         d="m 659.60061,113.59776 q -0.66667,0 -1.06667,-0.13334 l -3.06666,-1.73333 q -0.79999,-0.39999 -2.39999,-0.53333 l -2.26666,0.4 q -0.93333,0.13333 -1.86666,0.26667 -0.8,0.26666 -1.2,0.26666 -1.06666,0 -2.66666,-0.13333 -1.59999,-0.13333 -3.46666,-0.4 -3.73332,-0.4 -5.99998,-0.4 -0.53333,0 -1.2,0 -0.53333,0 -1.2,0.26667 -1.06666,0.26666 -1.99999,0.4 -0.8,0.26666 -1.46666,0.26666 -2.53333,0 -2.53333,-2.79999 0,-2.39999 2,-9.733308 2.53332,-7.866646 6.79998,-13.733298 4.26665,-5.866652 9.06664,-10.66664 4.93332,-4.93332 9.33331,-9.466642 4.39999,-4.666655 7.19998,-9.866641 2.93333,-5.33332 3.06666,-12.133303 0,-4.666654 -3.06666,-7.733313 -3.06666,-3.199992 -7.46665,-3.199992 -1.99999,0 -3.99998,0.533332 -1.86667,0.399999 -3.6,1.866662 -2.13332,1.733329 -4.93332,4.533321 -2.79999,2.799993 -3.86665,4.933321 -0.53334,1.199997 -2,1.199997 -2.39999,0 -2.39999,-2.66666 0,-1.066664 0.53333,-1.999995 3.06666,-6.666649 8.66664,-10.399973 5.73332,-3.866657 12.26664,-3.866657 7.33331,0 11.3333,5.599986 3.59999,5.066654 3.46666,11.999969 0,5.33332 -1.73333,10.133308 -1.59999,4.666654 -4.79998,8.93331 -3.99999,5.599986 -8.39998,9.866642 -4.39999,4.133322 -8.53331,8.266645 -3.99999,4.133323 -7.46665,9.33331 -3.33333,5.066653 -5.33332,12.399969 -0.13334,0.4 -0.26667,1.06666 -0.13333,0.53333 -0.4,1.46667 0.53333,-0.26667 0.93333,-0.26667 3.59999,-0.66667 4.66666,-0.4 l 9.59997,0.93333 q -0.13333,0 0.93334,-0.13333 1.19999,-0.26667 1.33333,-0.4 1.06666,-0.26667 1.86666,-0.4 0.93333,-0.13333 1.19999,-0.13333 3.06666,0 7.46665,2.53332 1.33333,0.66667 1.33333,2.26667 0,3.59999 -2.39999,3.59999 z"
         style="-inkscape-font-specification:'Square Peg, Normal'"
         id="path52959" />
      <path
         d="m 691.20057,114.79775 q -4.26665,0 -7.33331,-4.13332 -1.33333,-1.6 -2.13333,-3.33332 -0.8,-1.73333 -1.46666,-3.73333 -0.93333,-3.06666 -1.46666,-7.066647 -0.4,-4.133322 -0.4,-9.466642 0,-1.199997 0,-2.533327 0,-1.33333 0.13333,-2.66666 0.4,-10.26664 4.26666,-23.866606 1.46666,-4.666654 2.66666,-8.266645 1.19999,-3.733324 2.53332,-6.399984 4.26666,-9.199976 9.46665,-14.533296 3.99999,-4.133323 8.39997,-4.133323 3.2,0 5.86666,2.266661 2.66666,2.266661 3.99999,6.799983 0.66666,2.133328 1.06666,5.33332 0.4,3.199991 0.53333,6.533316 0.26667,3.199992 0.26667,5.599986 0,8.666644 -1.06667,18.533286 -0.93333,9.733308 -3.33332,17.733288 -1.73333,5.733318 -3.99999,10.399973 -2.13333,4.533317 -4.79999,8.399977 -5.86665,8.53331 -13.19997,8.53331 z m 0.4,-5.99998 q 4.39999,0 9.86665,-8.66665 6.26665,-9.599971 8.66664,-21.733274 2.39999,-12.266635 2.39999,-24.666603 0,-5.199987 -0.66666,-10.533307 -0.66667,-5.466652 -2.13333,-9.199976 -1.46666,-3.733324 -4.13332,-3.733324 -2.53333,0 -6.66665,5.066654 -2,2.533327 -4.13332,5.999984 -2,3.466658 -3.86666,7.99998 -3.59999,8.266645 -5.46665,17.733288 -1.86667,9.466642 -1.86667,18.533286 0,1.733329 0,3.466658 0.13334,1.599996 0.26667,3.333325 1.6,16.399959 7.73331,16.399959 z"
         style="-inkscape-font-specification:'Square Peg, Normal'"
         id="path52961" />
      <path
         d="m 12.002056,448.66357 q -2.5333264,0 -1.999994,-4.39998 l 1.999994,-11.33331 q 0.399999,-1.73333 0.933331,-4.26665 0.666665,-2.66666 1.33333,-6.13332 0.266666,-3.06666 0.933331,-7.86665 0.666665,-4.93332 1.599996,-11.86664 l 2.133328,-12.66663 q 0.666665,-2.26666 1.599996,-5.86665 0.933331,-3.73332 2.133328,-8.66665 0.799998,-3.99999 2.933326,-2.79999 l -0.666665,-5.06665 q -0.666665,-2.4 -1.066664,-4.39999 -0.399999,-2.13333 -0.666665,-3.86666 -0.133333,-0.4 -0.133333,-1.46666 0,-3.19999 2.133328,-3.19999 1.066664,0 1.599996,1.73333 0.533332,1.73333 1.066664,3.99999 0.533331,2.13332 1.066663,4.79998 0.799998,3.73333 1.199997,8.93331 0.266666,3.06666 0.399999,5.06666 0.266666,1.99999 0.399999,3.06666 0.666665,4.66665 1.199997,7.86664 0.533332,3.06666 1.066664,4.79999 1.733329,6.39998 6.133318,11.19997 l 1.999995,2.53333 q 6.399983,-7.19998 9.599975,-11.19997 1.466663,-1.73333 3.466658,-4.39999 2.133328,-2.79999 5.066654,-6.66665 1.599996,-2.53333 6.533316,-12.66663 l 0.133333,-0.13334 q 0.266666,0 1.199997,-2.39999 1.066664,-3.06666 2.133328,-4.13332 l -0.399999,-0.13334 q 1.466663,-1.06666 2.399994,-1.06666 1.599996,0 3.599991,4.93332 0.933331,1.99999 0.933331,4.79999 0,0.93333 -0.266666,2.26666 -0.133333,1.33333 -0.399999,2.93332 -0.266666,1.6 -0.533332,2.66666 -0.133333,1.06667 -0.133333,1.6 v 0.13333 q 0,1.86666 -0.266666,6.13332 -0.266666,4.26666 -0.799998,10.93331 -0.266666,1.19999 -0.666665,5.86665 -0.399999,4.66665 -0.799998,12.79996 -0.133333,2.53333 -0.266666,4.66666 0,1.99999 0,3.73332 0,1.73333 0,2.93333 0.133333,1.2 0.266666,1.99999 l 0.933331,5.59999 q 0.133333,0.4 0.133333,1.06666 0,2.66666 -2.933326,2.66666 -1.066664,0 -1.33333,-0.79999 -0.266666,-1.06667 -0.533332,-2.66666 -0.266666,-1.6 -0.533332,-3.86666 -0.399999,-8.26665 -0.399999,-12.66664 0,-2.13332 0.399999,-7.59998 0.399999,-5.46665 1.466663,-14.26663 0.133333,-2.39999 0.266666,-6.39998 0.266666,-4.13332 0.666665,-9.86664 l 1.066664,-11.06664 q -0.133333,-0.26667 -0.266666,-0.4 -0.133333,-0.13333 -0.266666,-0.26666 -0.266666,0 -1.199997,3.73332 h -0.133333 q -1.733329,3.33332 -3.599991,6.66665 -1.733328,3.19999 -3.59999,6.39998 -3.066659,5.19999 -8.933311,11.86664 l -6.133318,7.59998 q -4.266655,5.06665 -5.866651,5.06665 -1.599996,0 -2.933326,-1.33333 l -1.733329,-1.73333 -0.533332,-0.66666 q -4.133323,-5.06665 -6.533317,-11.33331 -0.533332,-1.59999 -1.066664,-3.46665 -0.399998,-2 -0.666664,-4.13333 -0.533332,-3.99999 -1.066664,-7.99998 -0.533332,-4.13332 -0.533332,-4.79998 -0.533332,1.73333 -1.199997,4.66665 -0.533332,2.93333 -1.466663,6.93332 -0.399999,2.39999 -1.199997,6.13332 -0.399999,1.73332 -0.666665,3.33332 -0.266666,1.46666 -0.533332,2.53333 h -0.266666 q -0.266666,3.06666 -0.933331,8.13331 -0.533332,5.06665 -1.466663,12.1333 -0.399999,1.73333 -1.066664,4.39999 -0.533332,2.66666 -1.199997,6.39998 -0.533332,3.33333 -1.999995,11.19998 h -0.133333 q -0.399999,3.06665 -2.133328,3.06665 z"
         style="-inkscape-font-specification:'Square Peg, Normal'"
         id="path52963" />
      <path
         d="m 90.668578,400.2637 q -1.999995,0 -1.866662,-2.4 l 1.33333,-5.06665 q 0.399999,-1.46666 1.866662,-1.46666 3.066659,0 2.533327,2.53332 -0.133333,1.86667 -0.933331,4.13333 -0.799998,2.26666 -2.933326,2.26666 z m -4.666655,41.99989 q -1.199997,0 -1.599996,-1.06666 -0.533331,-1.46667 -0.666664,-3.59999 -0.133333,-2.13333 0,-4.79999 0.266665,-3.06666 1.466662,-7.73332 1.33333,-4.66665 3.599991,-10.79997 0.533332,-1.33333 1.866662,-1.33333 2.533327,0 1.733329,2.26666 -0.533332,1.73333 -0.933331,3.46666 -0.399999,1.73333 -0.799998,3.46666 -0.666665,3.06666 -1.066664,5.46665 -0.399999,2.4 -0.399999,4.26666 0,6.53331 0.133333,6.79998 0.399999,1.33333 -0.799998,2.53333 -1.199997,1.06666 -2.533327,1.06666 z"
         style="-inkscape-font-specification:'Square Peg, Normal'"
         id="path52965" />
      <path
         d="m 102.66843,443.46359 q -1.99999,0 -1.46666,-3.59999 0.4,-4.66666 1.33333,-11.46664 1.06667,-6.93332 2.53333,-15.99996 0.66666,-1.99999 2.13333,-1.99999 1.86666,0 1.86666,1.73332 0,0.13334 0,0.53334 0,0.26666 -0.13334,0.66666 -0.26666,1.2 -0.53333,2.66666 -0.13333,1.33333 -0.13333,2.93333 0,1.86666 0.13333,3.99999 0.26667,2.13332 0.8,4.53332 0.8,0 6.53332,-5.73332 5.73332,-5.46665 9.33331,-6.53332 v -0.13333 q 0.4,-0.13333 0.79999,-0.13333 0.4,0 0.66667,0 2.53333,0 3.33332,2.39999 l 1.86667,12.39997 q 1.19999,8.13331 4.39999,8.13331 1.33333,0 2.66666,-0.93333 1.86666,-1.33333 3.59999,-2.79999 1.73332,-1.6 3.06665,-3.33333 0.8,-0.26666 1.06667,-0.26666 0.93333,0 0.93333,1.19999 0,0.8 -1.06666,2.13333 -1.73333,2.13333 -3.6,4.39999 -1.86666,2.13333 -3.73332,3.33333 -2.53333,1.46666 -4.26665,1.46666 -3.6,0 -5.46666,-5.86665 l -2.26666,-10.79998 q -1.2,-5.46665 -3.06666,-4.93332 -0.13333,0 -0.4,0 -0.13333,-0.13333 -0.4,-0.13333 -0.53333,0 -1.33332,0.26667 -0.66667,0.26666 -1.33333,0.93333 l -3.2,3.33332 q -4.13332,4.26666 -6.93331,8.26665 -2.8,3.99999 -4.53332,7.46665 -1.06667,1.86666 -3.2,1.86666 z"
         style="-inkscape-font-specification:'Square Peg, Normal'"
         id="path52967" />
      <path
         d="m 153.73502,400.2637 q -1.99999,0 -1.86666,-2.4 l 1.33333,-5.06665 q 0.4,-1.46666 1.86666,-1.46666 3.06666,0 2.53333,2.53332 -0.13333,1.86667 -0.93333,4.13333 -0.8,2.26666 -2.93333,2.26666 z m -4.66665,41.99989 q -1.2,0 -1.6,-1.06666 -0.53333,-1.46667 -0.66666,-3.59999 -0.13334,-2.13333 0,-4.79999 0.26666,-3.06666 1.46666,-7.73332 1.33333,-4.66665 3.59999,-10.79997 0.53333,-1.33333 1.86666,-1.33333 2.53333,0 1.73333,2.26666 -0.53333,1.73333 -0.93333,3.46666 -0.4,1.73333 -0.8,3.46666 -0.66666,3.06666 -1.06666,5.46665 -0.4,2.4 -0.4,4.26666 0,6.53331 0.13333,6.79998 0.4,1.33333 -0.8,2.53333 -1.19999,1.06666 -2.53332,1.06666 z"
         style="-inkscape-font-specification:'Square Peg, Normal'"
         id="path52969" />
      <path
         d="m 198.00148,447.46358 -0.4,-0.26667 q -0.93333,-0.26666 -2.66666,-2.93332 -0.13333,-0.53334 -0.13333,-2.26667 0,-0.79999 0,-1.86666 0,-1.06666 0.13333,-2.26666 0.26667,-4.26665 1.2,-13.06663 l 0.93333,-8.26665 q 0.4,-2.53332 3.19999,-12.66663 -0.66666,-0.13333 -1.2,-0.13333 -0.53333,-0.13334 -1.06666,0 -1.73333,0 -1.73333,-2.8 0,-3.33332 2,-3.33332 3.46665,0 3.86665,0 0.4,-1.46666 1.06667,-3.73333 0.66666,-2.26666 1.59999,-5.19998 -0.13333,-1.06667 0.8,-5.46666 0.8,-3.86665 2,-12.79996 -1.33333,0.93333 -3.73333,2.39999 -2.26666,1.33333 -5.59998,3.19999 -0.26667,0.13334 -0.8,0.13334 -2,0 -2,-2.93333 0,-2.26666 1.46667,-3.06666 l 8.53331,-5.19999 q 4.39999,-2.66665 8.39998,-3.86665 5.46665,-1.6 11.06663,-1.6 2.53333,0 5.33332,0.4 5.46666,0.53333 7.33332,1.2 3.73332,0.8 6.26665,2.66666 1.2,0.8 2.93333,2.79999 0.79999,2.13333 0.79999,5.86665 -0.26666,1.46667 -1.59999,4.66666 -0.93333,1.33333 -2.53333,2.13333 -0.93333,0 -1.2,-1.6 -0.13333,-0.53333 -0.13333,-1.46666 0,-0.4 0,-0.8 0.13333,-0.53333 0.26667,-0.93333 0.66666,-1.06667 0.66666,-2.26666 0.13333,-0.26667 0.13333,-0.66667 0,-0.8 -0.79999,-1.59999 -2,-2.13333 -5.59999,-2.66666 -3.46666,-0.53334 -7.06665,-0.93334 -0.4,-0.13333 -0.93333,-0.13333 -0.53333,0 -1.2,0 -2.66666,0 -6.13331,0.4 -3.46666,0.26667 -5.99999,0.66667 -2.53332,0.39999 -2.53332,0.39999 -0.53334,0.26667 -0.8,0.66667 -0.13334,0.66666 -0.53333,3.59999 -0.26667,2.93333 -0.8,7.99998 -0.26667,3.06666 -0.8,5.46665 -0.4,2.4 -1.06666,4.26666 l -0.53334,1.59999 q -0.4,2.4 -1.86666,6.66665 h 1.73333 q 1.06666,0 2.26666,-0.13333 1.2,-0.26666 2.53333,-0.53333 1.73333,-0.4 2.93332,-0.53333 1.33333,-0.26667 2.13333,-0.4 3.06666,-0.26667 5.99999,-0.4 3.06666,-0.26667 5.99998,-0.26667 1.73333,0 1.73333,2.66666 0,3.46666 -2.13333,3.46666 -2.93332,0 -5.86665,0.26667 -2.79999,0.13333 -5.73332,0.4 l -6.93331,1.06666 q -4.13333,0.8 -6.93332,0.8 -0.93333,2.53332 -1.6,5.73332 -0.66666,3.06666 -1.33333,6.66665 -0.13333,0.66666 -0.53333,4.53332 -0.4,3.86665 -1.06666,10.79997 -0.13333,1.6 -0.13333,2.93333 0,1.33333 0,2.39999 0,0.93333 0,1.73333 0,0.8 0.13333,1.2 l 0.4,1.59999 0.13333,1.33333 q 1.2,0.93333 1.2,1.86666 0,0.93333 -1.33333,1.6 -1.33333,0.8 -2.13333,0.8 z"
         style="-inkscape-font-specification:'Square Peg, Normal'"
         id="path52971" />
      <path
         d="m 238.53458,443.46359 q -1.33333,0 -1.73333,-3.06666 -0.4,-3.19999 -0.4,-6.53332 0,-2.13333 0,-3.86665 0.13333,-1.86667 0.13333,-2.8 0,-1.33333 0.13334,-3.33332 0.13333,-2.13333 0.4,-4.79999 0.4,-5.46665 0.4,-8.26665 0,-1.33333 -0.13334,-2.53332 -0.13333,-1.33333 -0.13333,-2.4 v -0.53333 q 0,-1.59999 1.73333,-1.59999 1.33333,0 1.46666,1.59999 0.26667,1.46666 0.4,5.99999 0.13333,4.53332 0.26667,11.99997 0,1.99999 0.79999,1.99999 0.93334,0 2.8,-3.06666 3.86665,-6.39998 8.39998,-10.79997 3.33332,-3.06666 6.13331,-3.06666 3.33333,0 5.73332,2.93333 0.8,0.93333 0.8,1.99999 0,1.73333 -1.46666,1.73333 -0.53333,0 -1.2,-0.4 l -0.13333,0.13333 q -2.53333,-1.86666 -3.33333,-1.86666 -3.19999,0 -5.99998,3.46666 -9.73331,11.99997 -11.99997,24.2666 -0.53333,2.8 -3.06666,2.8 z"
         style="-inkscape-font-specification:'Square Peg, Normal'"
         id="path52973" />
      <path
         d="m 297.73421,445.99691 q -0.66666,0 -1.2,-0.53333 -3.59999,-3.73332 -3.73332,-10.9333 0,-0.53333 0.13333,-1.2 0.13334,-0.8 0.13334,-1.73333 l 0.13333,-2.79999 v -0.4 q 0,-2.39999 -1.73333,-1.73333 -2.66666,1.86666 -7.19998,5.46665 -4.39999,3.46666 -10.66664,8.53331 -2.66666,2.53333 -6.79998,2.53333 -2.4,0 -4.13333,-2.53333 -1.59999,-2.66666 -1.19999,-5.06665 0.4,-3.46666 2.79999,-7.46665 2.39999,-4.13332 5.86665,-8.13331 3.59999,-4.13332 7.59998,-7.19998 4.13333,-3.19999 7.86665,-4.53332 1.46666,-0.53333 2.79999,-0.8 1.33333,-0.26667 2.66666,-0.26667 5.73332,0 5.73332,3.99999 0,1.33333 -1.06666,1.33333 -0.4,0 -0.8,0 -0.4,-0.13333 -0.8,-0.4 -2.39999,-1.99999 -4.39999,-1.99999 -1.99999,0 -5.86665,2.39999 -3.06666,1.86667 -5.99998,4.66666 -2.93333,2.79999 -5.59999,6.26665 -2.53333,3.33332 -3.99999,5.99998 -1.46666,2.53333 -1.73333,4.53333 -0.13333,0.53333 -0.13333,1.33333 0,2.13332 1.73333,2.13332 2.13333,0 7.99998,-3.86665 13.99996,-9.33331 19.46661,-16.53329 1.33333,-1.73333 2.4,-4.66666 0.66666,-1.86666 2.79999,-1.86666 2.39999,0 2.39999,2.66666 0,2.13333 -1.99999,5.33332 -3.19999,9.73331 -3.19999,13.46663 0.26666,5.73332 2.79999,9.19998 0.4,0.4 0.4,1.06666 0,1.2 -1.2,2.39999 -1.19999,1.33333 -2.26666,1.33333 z"
         style="-inkscape-font-specification:'Square Peg, Normal'"
         id="path52975" />
      <path
         d="m 313.33419,444.93025 q -2.53333,0 -2.53333,-2.53333 0.13334,-5.59998 1.2,-13.46663 0.66666,-5.06665 1.2,-8.53331 0.53333,-3.46666 0.66666,-5.19999 0.26667,-1.86666 1.86666,-1.86666 1.46667,0 1.46667,1.73333 0,4.79999 0,7.86665 0,2.93332 -0.13334,4.13332 v 0.26667 q 0,1.33333 1.06667,1.33333 0.53333,0 1.06666,-0.8 4.79999,-7.46665 10.39997,-7.46665 2.53333,0 3.73333,3.46666 0.26666,0.66666 0.66666,2.53332 0.53334,1.73333 1.06667,4.66666 0.4,1.73333 1.73333,1.73333 0.79999,0 2.13332,-0.93333 0.66667,-0.4 2,-1.46667 1.46666,-1.06666 3.59999,-2.79999 9.06664,-7.06665 10.93331,-7.06665 3.19999,0 4.93332,9.99998 1.59999,8.53331 3.46665,8.53331 0.53334,0 2.26666,0.4 1.6,0.13333 2,0 0.26667,-0.13334 0.53333,-0.13334 0.26667,-0.13333 0.53333,-0.13333 1.73333,0 1.73333,1.6 0,1.86666 -2.93332,3.06666 -2.13333,0.93333 -5.33332,0.53333 -3.06666,0 -5.06666,-4.13332 -0.79999,-1.86667 -2.39999,-7.73332 -1.06666,-4.26665 -2.26666,-4.26665 -1.6,0 -4.66666,1.73333 -3.06666,1.73332 -6.13331,3.99999 -3.06666,2.26666 -4.93332,4.26665 -0.53334,0.66667 -2,0.66667 -2.93333,0 -3.33332,-1.33333 -2.53333,-9.73331 -4.26666,-9.73331 -4.39999,0 -7.86665,5.59998 -0.93333,1.46667 -1.86666,3.86666 -0.93333,2.39999 -1.99999,5.86665 -0.53334,1.33333 -0.93333,1.06667 -0.66667,0.66666 -1.6,0.66666 z"
         style="-inkscape-font-specification:'Square Peg, Normal'"
         id="path52977" />
      <path
         d="m 386.40072,447.19691 q -5.86665,0 -9.59997,-3.59999 -3.59999,-3.59999 -3.59999,-9.73331 0,-1.33333 0.13333,-2.66666 0.26667,-1.33333 0.53333,-2.66666 1.46667,-5.73332 8.13332,-12.26663 7.46664,-7.06665 12.9333,-7.06665 4.53332,0 4.26665,5.06665 -0.13333,6.53332 -7.19998,12.79997 -3.06666,2.53333 -6.39998,4.66665 -3.2,2.13333 -6.79999,2.13333 h -0.13333 q 0.4,8.66665 8.93331,8.66665 2.79999,0 6.26665,-1.33333 0.26667,-0.13334 0.8,-0.13334 1.73333,0 1.73333,1.73333 0,1.2 -1.2,1.86666 -3.73332,2.53333 -8.79998,2.53333 z m -4.13332,-19.59995 q 4.13332,-0.93333 7.06665,-3.46666 5.19999,-4.39999 5.19999,-8.39997 v -0.26667 q 0,-0.93333 -0.66667,-1.46666 -0.66666,-0.53334 -0.93333,-0.26667 -4.13332,0 -8.79998,5.99998 -0.66666,0.93334 -1.59999,2.53333 -0.93333,1.46666 -2,3.59999 -0.13333,0.26667 -0.13333,0.53333 0,1.2 1.86666,1.2 z"
         style="-inkscape-font-specification:'Square Peg, Normal'"
         id="path52979" />
      <path
         d="m 407.06743,447.33024 q -3.33333,0 -5.73332,-1.19999 -2.26666,-1.2 -2.26666,-3.33333 0,-1.46666 1.33333,-1.46666 -0.13333,0 2.13333,0.93333 2.26666,0.8 4.79998,0.8 7.73332,0 9.73331,-7.19998 0.8,-3.06666 -5.59998,-10.13331 -4.53332,-4.93332 -4.53332,-11.19997 0,-2.13333 1.86666,-4.93332 1.86666,-2.93333 4.53332,-5.06666 2.66666,-2.26666 5.06665,-2.26666 4.26666,0 4.79999,2.13333 0.13333,0.4 0.13333,0.8 0.13334,0.4 0.13334,0.8 0,2.13332 -1.6,2.13332 -0.93333,0 -1.46666,-0.66666 -0.66667,-0.66667 -1.86666,-0.66667 -0.26667,0 -0.66667,0 -0.4,0 -0.66666,0.26667 -4.79999,2.39999 -5.46666,6.66665 -0.53333,3.73332 5.73332,10.39997 5.59999,5.99999 5.59999,11.19998 0,5.73331 -5.86665,9.19997 -4.53333,2.79999 -10.13331,2.79999 z"
         style="-inkscape-font-specification:'Square Peg, Normal'"
         id="path52981" />
      <path
         d="m 438.66745,412.797 q -1.06667,0 -2,-0.53333 -0.79999,-0.53333 -0.79999,-2.66666 0,-2.26666 0.79999,-3.99999 0.93333,-1.86666 2.26666,-1.86666 3.2,0 3.2,4.13332 0,2.13333 -0.93334,3.59999 -0.93333,1.33333 -2.53332,1.33333 z m -1.6,29.46659 q -1.06666,0 -1.99999,-0.53333 -0.8,-0.53333 -0.8,-2.66666 0,-2.26666 0.8,-3.99999 0.93333,-1.86666 2.26666,-1.86666 3.19999,0 3.19999,4.13332 0,2.13333 -0.93333,3.59999 -0.93333,1.33333 -2.53333,1.33333 z"
         style="-inkscape-font-specification:'Square Peg, Normal'"
         id="path52983" />
      <path
         d="m 481.334,444.79692 q -1.33333,0 -1.33333,-1.2 0,-2.93333 4.93332,-17.06662 -2.66666,-0.26667 -4.39999,-1.46667 -1.59999,-1.19999 -1.59999,-2.93332 0,-1.46666 1.33333,-1.46666 -0.13333,0 2.13333,0.93333 2.26666,0.79999 4.79998,0.79999 7.73332,0 9.73331,-7.19998 0.8,-3.06666 -5.59998,-10.1333 -4.53332,-4.93333 -4.53332,-11.19998 0,-1.86666 1.46666,-4.39998 1.59999,-2.53333 3.86666,-4.66666 2.26666,-2.26666 4.53332,-2.93333 4.53332,-10.9333 6.93331,-15.33329 0.66667,-1.06666 1.86666,-2.13333 1.2,-1.19999 2.4,-1.19999 1.73333,0 1.73333,1.06666 0,1.06666 -2,4.66665 -1.19999,2.13333 -2.93332,5.46666 -1.6,3.33332 -3.59999,7.59998 1.59999,0.4 1.99999,1.73333 0.13333,0.4 0.13333,0.79999 0.13334,0.4 0.13334,0.8 0,2.13333 -1.6,2.13333 -0.93333,0 -1.46666,-0.66666 -0.66667,-0.66667 -1.86666,-0.66667 -0.26667,0 -0.66667,0 -0.4,0 -0.66666,0.26667 -4.79999,2.39999 -5.46666,6.66665 -0.53333,3.73332 5.73332,10.39997 5.59999,5.99998 5.59999,11.19997 0,5.73332 -5.86665,9.19998 -3.86666,2.39999 -8.53332,2.79999 -1.86666,5.59999 -3.33332,10.26664 -1.46666,4.66666 -2,6.26665 -0.53333,1.6 -1.86666,1.6 z"
         style="-inkscape-font-specification:'Square Peg, Normal'"
         id="path52985" />
      <path
         d="m 545.06719,446.93025 q -0.66666,0 -1.06666,-0.13334 l -3.06666,-1.73333 q -0.8,-0.4 -2.4,-0.53333 l -2.26666,0.4 q -0.93333,0.13333 -1.86666,0.26667 -0.8,0.26666 -1.2,0.26666 -1.06666,0 -2.66666,-0.13333 -1.59999,-0.13333 -3.46665,-0.4 -3.73333,-0.4 -5.99999,-0.4 -0.53333,0 -1.19999,0 -0.53334,0 -1.2,0.26667 -1.06667,0.26666 -2,0.4 -0.79999,0.26666 -1.46666,0.26666 -2.53333,0 -2.53333,-2.79999 0,-2.39999 2,-9.73331 2.53333,-7.86665 6.79998,-13.7333 4.26666,-5.86665 9.06664,-10.66664 4.93333,-4.93332 9.33331,-9.46664 4.39999,-4.66665 7.19999,-9.86664 2.93332,-5.33332 3.06665,-12.1333 0,-4.66666 -3.06665,-7.73332 -3.06666,-3.19999 -7.46665,-3.19999 -2,0 -3.99999,0.53333 -1.86666,0.4 -3.59999,1.86667 -2.13333,1.73332 -4.93332,4.53332 -2.8,2.79999 -3.86666,4.93332 -0.53333,1.2 -1.99999,1.2 -2.4,0 -2.4,-2.66666 0,-1.06667 0.53333,-2 3.06666,-6.66665 8.66665,-10.39997 5.73332,-3.86666 12.26663,-3.86666 7.33332,0 11.33331,5.59999 3.59999,5.06665 3.46666,11.99997 0,5.33331 -1.73333,10.1333 -1.6,4.66666 -4.79999,8.93331 -3.99999,5.59999 -8.39998,9.86664 -4.39999,4.13333 -8.53331,8.26665 -3.99999,4.13332 -7.46665,9.33331 -3.33332,5.06665 -5.33332,12.39997 -0.13333,0.4 -0.26666,1.06666 -0.13334,0.53333 -0.4,1.46666 0.53333,-0.26666 0.93333,-0.26666 3.59999,-0.66667 4.66665,-0.4 l 9.59998,0.93333 q -0.13334,0 0.93333,-0.13333 1.2,-0.26667 1.33333,-0.4 1.06666,-0.26667 1.86666,-0.4 0.93333,-0.13333 1.2,-0.13333 3.06666,0 7.46664,2.53332 1.33333,0.66667 1.33333,2.26666 0,3.6 -2.39999,3.6 z"
         style="-inkscape-font-specification:'Square Peg, Normal'"
         id="path52987" />
      <path
         d="m 576.66713,448.13024 q -4.26666,0 -7.33332,-4.13332 -1.33333,-1.6 -2.13332,-3.33333 -0.8,-1.73332 -1.46667,-3.73332 -0.93333,-3.06666 -1.46666,-7.06665 -0.4,-4.13332 -0.4,-9.46664 0,-1.2 0,-2.53333 0,-1.33333 0.13333,-2.66666 0.4,-10.26664 4.26666,-23.8666 1.46666,-4.66666 2.66666,-8.26665 1.2,-3.73332 2.53333,-6.39998 4.26665,-9.19998 9.46664,-14.5333 3.99999,-4.13332 8.39998,-4.13332 3.19999,0 5.86665,2.26666 2.66666,2.26666 3.99999,6.79998 0.66666,2.13333 1.06666,5.33332 0.4,3.19999 0.53333,6.53332 0.26667,3.19999 0.26667,5.59998 0,8.66665 -1.06666,18.53329 -0.93333,9.73331 -3.33333,17.73329 -1.73333,5.73332 -3.99999,10.39997 -2.13333,4.53332 -4.79999,8.39998 -5.86665,8.53331 -13.19996,8.53331 z m 0.4,-5.99998 q 4.39999,0 9.86664,-8.66665 6.26665,-9.59997 8.66664,-21.73327 2.4,-12.26664 2.4,-24.66661 0,-5.19999 -0.66667,-10.5333 -0.66666,-5.46666 -2.13333,-9.19998 -1.46666,-3.73332 -4.13332,-3.73332 -2.53333,0 -6.66665,5.06665 -1.99999,2.53333 -4.13332,5.99998 -2,3.46666 -3.86666,7.99998 -3.59999,8.26665 -5.46665,17.73329 -1.86666,9.46664 -1.86666,18.53329 0,1.73333 0,3.46665 0.13333,1.6 0.26666,3.33333 1.6,16.39996 7.73332,16.39996 z"
         style="-inkscape-font-specification:'Square Peg, Normal'"
         id="path52989" />
    </g>
  </g>
</svg>
