<?xml version="1.0" encoding="UTF-8" standalone="no"?>
<!DOCTYPE svg PUBLIC "-//W3C//DTD SVG 1.1//EN" "http://www.w3.org/Graphics/SVG/1.1/DTD/svg11.dtd">
<svg width="100%" height="100%" viewBox="0 0 612 792" version="1.1" xmlns="http://www.w3.org/2000/svg" xmlns:xlink="http://www.w3.org/1999/xlink" xml:space="preserve" xmlns:serif="http://www.serif.com/" style="fill-rule:evenodd;clip-rule:evenodd;stroke-linejoin:round;stroke-miterlimit:2;">
    <g transform="matrix(1,0,0,1,10.9134,21.002)">
        <g id="Layer-1" serif:id="Layer 1">
            <g>
                <g transform="matrix(1,0,0,1,8.07703,10.3937)">
                    <g id="path52929" transform="matrix(0.264583,0,0,0.264583,143.308,219.202)">
                        <path d="M78.242,321.253C64.888,321.253 54.557,315.962 47.25,305.379C41.959,297.568 37.675,281.821 34.4,258.136C33.896,254.104 33.518,250.073 33.266,246.041C33.014,242.01 32.888,237.852 32.888,233.569C32.888,226.766 33.14,219.836 33.644,212.781C34.148,205.726 34.526,198.545 34.777,191.238C35.029,185.443 35.281,177.758 35.533,168.183C36.037,158.608 37.045,147.018 38.557,133.411L41.581,105.443C42.337,99.144 44.73,95.994 48.762,95.994C53.801,95.994 55.691,99.774 54.431,107.333L51.029,134.167C50.525,138.955 50.022,146.01 49.518,155.333C49.014,164.655 48.258,176.372 47.25,190.482L44.982,223.364C44.73,225.38 44.604,227.395 44.604,229.411L44.604,235.08C44.604,241.38 44.982,247.427 45.738,253.222C48.258,271.616 52.037,284.592 57.077,292.151C62.368,299.71 71.187,303.238 83.533,302.734C88.321,302.482 93.612,300.088 99.407,295.553C105.202,291.017 110.494,285.348 115.281,278.545C120.321,271.49 123.848,264.435 125.864,257.38L137.202,217.695C140.226,207.112 142.998,195.144 145.517,181.789C148.037,168.435 150.179,153.695 151.943,137.569L154.966,109.978C155.722,103.175 158.116,99.774 162.147,99.774C166.683,99.774 168.572,103.427 167.817,110.734L164.415,137.947C162.651,152.813 160.509,167.301 157.99,181.411C155.47,195.522 152.572,209.128 149.297,222.23C147.533,228.529 145.643,235.206 143.628,242.262C141.612,249.317 139.344,256.498 136.824,263.805C133.549,273.38 129.643,281.821 125.108,289.128C120.825,296.435 115.911,302.608 110.368,307.647C100.289,316.718 89.58,321.253 78.242,321.253Z" style="fill-rule:nonzero;"/>
                    </g>
                    <g id="path52931" transform="matrix(0.264583,0,0,0.264583,143.308,219.202)">
                        <path d="M189.36,312.183C185.58,312.183 184.195,308.781 185.202,301.978C185.958,293.159 187.218,282.324 188.982,269.474C190.998,256.372 193.391,241.254 196.163,224.12C197.423,220.34 199.439,218.451 202.21,218.451C205.738,218.451 207.502,220.088 207.502,223.364L207.502,224.876C207.502,225.38 207.376,226.01 207.124,226.766C206.62,229.033 206.116,231.553 205.612,234.325C205.36,236.844 205.234,239.616 205.234,242.64C205.234,246.167 205.36,249.947 205.612,253.978C206.116,258.01 206.872,262.293 207.88,266.828C209.391,266.828 215.565,261.411 226.399,250.577C237.234,240.246 246.053,234.073 252.856,232.057L252.856,231.679C253.612,231.427 254.368,231.301 255.124,231.301L257.013,231.301C261.801,231.301 264.95,233.569 266.462,238.104L271.753,273.254C274.021,288.624 278.179,296.309 284.226,296.309C286.746,296.309 289.265,295.427 291.785,293.663C295.312,291.143 298.714,288.498 301.99,285.726C305.265,282.702 308.163,279.553 310.682,276.277C312.194,275.773 313.202,275.521 313.706,275.521C315.47,275.521 316.352,276.655 316.352,278.923C316.352,280.435 315.344,282.45 313.328,284.97C310.053,289.002 306.651,293.159 303.123,297.443C299.596,301.474 296.068,304.624 292.541,306.891C287.753,309.663 283.722,311.049 280.446,311.049C273.643,311.049 268.478,305.505 264.95,294.419L258.525,263.805C256.257,253.474 253.36,248.813 249.832,249.821L248.698,249.821C248.446,249.569 248.068,249.443 247.565,249.443C246.557,249.443 245.297,249.695 243.785,250.199C242.525,250.702 241.265,251.584 240.005,252.844L230.935,262.293C223.124,270.356 216.572,278.167 211.281,285.726C205.99,293.285 201.706,300.34 198.431,306.891C196.415,310.419 193.391,312.183 189.36,312.183Z" style="fill-rule:nonzero;"/>
                    </g>
                    <g id="path52933" transform="matrix(0.264583,0,0,0.264583,143.308,219.202)">
                        <path d="M351.501,348.844C349.738,348.844 347.848,347.584 345.832,345.064C344.068,342.545 342.557,339.647 341.297,336.372C340.289,333.096 339.785,330.45 339.785,328.435C340.289,318.608 342.557,307.521 346.588,295.175C347.848,291.647 349.738,290.135 352.257,290.639C352.761,286.356 353.265,280.939 353.769,274.387C354.525,267.836 355.407,260.277 356.415,251.71C355.155,248.183 352.509,246.419 348.478,246.419C347.47,246.419 343.69,247.049 337.139,248.309C330.84,249.569 321.517,251.458 309.171,253.978C308.919,253.978 308.667,254.104 308.415,254.356C308.163,254.356 307.785,254.23 307.281,253.978C304.761,253.978 303.502,252.466 303.502,249.443C303.502,245.915 305.139,243.395 308.415,241.884L308.037,242.262C311.816,240.498 321.013,237.852 335.627,234.325C346.462,231.553 355.155,228.025 361.706,223.742L363.974,204.466C364.982,195.144 366.619,185.569 368.887,175.742C371.155,165.663 374.305,155.459 378.336,145.128C386.651,122.703 396.478,104.687 407.816,91.081C417.391,79.994 426.966,74.451 436.541,74.451C444.856,74.451 452.163,78.356 458.462,86.167C459.47,87.175 459.974,88.309 459.974,89.569C459.974,92.341 458.462,93.727 455.438,93.727C453.674,93.727 452.163,92.971 450.903,91.459C446.871,86.671 442.462,84.278 437.674,84.278C426.336,84.278 414.367,96.75 401.769,121.695C396.73,131.774 392.32,143.742 388.541,157.6C384.761,171.207 381.864,186.577 379.848,203.71L379.47,210.136L378.714,220.34C386.021,222.608 394.084,223.742 402.903,223.742L427.092,222.986C434.651,223.238 438.43,225.758 438.43,230.545C438.43,234.829 436.415,236.97 432.383,236.97L402.903,236.97C392.32,237.726 382.997,240.624 374.934,245.663C367.375,304.12 360.95,337.505 355.659,345.82C354.399,347.836 353.013,348.844 351.501,348.844Z" style="fill-rule:nonzero;"/>
                    </g>
                    <g id="path52935" transform="matrix(0.264583,0,0,0.264583,143.308,219.202)">
                        <path d="M448.635,312.183C446.115,312.183 444.478,309.285 443.722,303.49C442.966,297.443 442.588,291.269 442.588,284.97L442.588,274.01C442.84,270.482 442.966,267.836 442.966,266.073C442.966,263.553 443.092,260.403 443.344,256.624C443.596,252.592 443.974,248.057 444.478,243.017C445.233,232.687 445.611,224.876 445.611,219.584C445.611,217.065 445.485,214.671 445.233,212.403C444.981,209.884 444.856,207.616 444.856,205.6L444.856,204.088C444.856,201.065 446.493,199.553 449.769,199.553C452.289,199.553 453.674,201.065 453.926,204.088C454.43,206.86 454.808,212.529 455.06,221.096C455.312,229.663 455.564,241.002 455.816,255.112C455.816,258.891 456.572,260.781 458.084,260.781C459.848,260.781 462.493,257.884 466.021,252.088C473.328,239.994 481.265,229.789 489.832,221.474C496.131,215.679 501.926,212.781 507.218,212.781C513.517,212.781 518.934,215.553 523.469,221.096C524.981,222.86 525.737,224.75 525.737,226.766C525.737,230.041 524.351,231.679 521.58,231.679C520.572,231.679 519.438,231.301 518.178,230.545L517.8,230.923C513.013,227.395 509.863,225.632 508.351,225.632C502.304,225.632 496.635,228.907 491.344,235.458C472.95,258.136 461.611,281.065 457.328,304.246C456.32,309.537 453.422,312.183 448.635,312.183Z" style="fill-rule:nonzero;"/>
                    </g>
                    <g id="path52937" transform="matrix(0.264583,0,0,0.264583,143.308,219.202)">
                        <path d="M616.445,319.364C615.185,319.364 614.051,318.86 613.043,317.852C606.24,310.797 602.713,300.466 602.461,286.86C602.461,285.852 602.587,284.718 602.839,283.458C603.091,281.946 603.217,280.309 603.217,278.545L603.595,270.608L603.595,269.474C603.595,264.939 601.957,263.301 598.681,264.561C593.642,268.088 586.839,273.254 578.272,280.057C569.957,286.608 559.878,294.671 548.036,304.246C542.996,309.033 536.571,311.427 528.76,311.427C524.225,311.427 520.319,309.033 517.044,304.246C514.02,299.206 512.886,294.419 513.642,289.883C514.398,283.332 517.044,276.277 521.579,268.718C526.115,260.907 531.658,253.222 538.209,245.663C545.012,237.852 552.193,231.049 559.752,225.254C567.563,219.207 574.996,214.923 582.051,212.403C584.823,211.395 587.469,210.64 589.988,210.136C592.508,209.632 595.028,209.38 597.547,209.38C608.382,209.38 613.799,213.159 613.799,220.718C613.799,223.238 612.792,224.498 610.776,224.498L608.508,224.498C607.752,224.246 606.996,223.868 606.24,223.364C601.705,219.584 597.547,217.695 593.768,217.695C589.988,217.695 584.445,219.962 577.138,224.498C571.343,228.025 565.674,232.435 560.13,237.726C554.587,243.017 549.296,248.939 544.256,255.49C539.469,261.789 535.689,267.458 532.918,272.498C530.146,277.285 528.508,281.569 528.004,285.348C527.752,286.356 527.626,287.616 527.626,289.128C527.626,293.159 529.264,295.175 532.54,295.175C536.571,295.175 544.13,291.521 555.217,284.214C581.673,266.576 600.067,250.954 610.398,237.348C612.918,234.073 615.185,229.663 617.201,224.12C618.461,220.592 621.106,218.829 625.138,218.829C629.673,218.829 631.941,221.348 631.941,226.388C631.941,230.419 630.051,235.458 626.272,241.506C620.225,259.899 617.201,272.624 617.201,279.679C617.705,290.513 620.351,299.206 625.138,305.757C625.894,306.513 626.272,307.521 626.272,308.781C626.272,311.049 625.138,313.317 622.87,315.584C620.603,318.104 618.461,319.364 616.445,319.364Z" style="fill-rule:nonzero;"/>
                    </g>
                    <g id="path52939" transform="matrix(0.264583,0,0,0.264583,143.308,219.202)">
                        <path d="M660.665,316.34C655.878,316.34 653.484,313.946 653.484,309.159C653.736,298.576 654.87,285.852 656.886,270.986C658.146,261.411 659.28,253.348 660.287,246.797C661.295,240.246 661.925,235.332 662.177,232.057C662.681,228.529 664.445,226.766 667.469,226.766C670.24,226.766 671.626,228.403 671.626,231.679L671.626,253.978C671.626,259.521 671.5,263.427 671.248,265.695L671.248,266.45C671.248,268.97 672.256,270.23 674.272,270.23C675.28,270.23 676.287,269.474 677.295,267.962C686.366,253.852 696.193,246.797 706.776,246.797C711.563,246.797 715.09,250.073 717.358,256.624C717.862,257.884 718.492,260.277 719.248,263.805C720.256,267.08 721.264,271.49 722.272,277.033C723.027,280.309 724.665,281.946 727.185,281.946C728.697,281.946 730.712,281.065 733.232,279.301C734.492,278.545 736.382,277.159 738.901,275.143C741.673,273.128 745.075,270.482 749.106,267.206C766.24,253.852 776.571,247.175 780.098,247.175C786.145,247.175 790.807,256.624 794.082,275.521C797.106,291.647 800.382,299.71 803.909,299.71C804.917,299.71 807.059,300.088 810.334,300.844C813.358,301.096 815.248,301.096 816.004,300.844C816.508,300.592 817.011,300.466 817.515,300.466C818.019,300.214 818.523,300.088 819.027,300.088C822.303,300.088 823.941,301.6 823.941,304.624C823.941,308.151 821.169,311.049 815.626,313.317C811.594,315.08 806.555,315.584 800.508,314.828C794.712,314.828 789.925,310.923 786.145,303.112C784.634,299.584 782.366,292.277 779.342,281.191C777.327,273.128 775.185,269.096 772.917,269.096C769.893,269.096 765.484,270.734 759.689,274.01C753.894,277.285 748.098,281.065 742.303,285.348C736.508,289.632 731.846,293.663 728.319,297.443C727.311,298.702 725.421,299.332 722.65,299.332C717.106,299.332 713.957,298.072 713.201,295.553C708.413,277.159 704.382,267.962 701.106,267.962C692.791,267.962 685.358,273.254 678.807,283.836C677.043,286.608 675.28,290.261 673.516,294.797C671.752,299.332 669.862,304.876 667.846,311.427C666.839,313.946 665.957,314.954 665.201,314.45C663.941,315.71 662.429,316.34 660.665,316.34Z" style="fill-rule:nonzero;"/>
                    </g>
                    <g id="path52941" transform="matrix(0.264583,0,0,0.264583,143.308,219.202)">
                        <path d="M867.783,322.765C856.697,322.765 847.626,319.364 840.571,312.561C833.767,305.757 830.366,296.561 830.366,284.97C830.366,282.45 830.492,279.931 830.744,277.411C831.248,274.891 831.752,272.372 832.256,269.852C835.027,259.017 842.712,247.427 855.311,235.08C869.421,221.726 881.641,215.049 891.972,215.049C900.539,215.049 904.57,219.836 904.067,229.411C903.815,241.758 897.011,253.852 883.657,265.695C877.862,270.482 871.815,274.891 865.515,278.923C859.468,282.954 853.043,284.97 846.24,284.97L845.862,284.97C846.618,301.348 855.059,309.537 871.185,309.537C876.476,309.537 882.397,308.277 888.948,305.757C889.452,305.505 890.208,305.379 891.216,305.379C894.492,305.379 896.13,307.017 896.13,310.293C896.13,312.561 894.996,314.324 892.728,315.584C885.673,320.372 877.358,322.765 867.783,322.765ZM856.067,267.206C863.878,265.443 870.555,262.167 876.098,257.38C885.925,249.065 890.838,241.128 890.838,233.569L890.838,232.813C890.838,231.049 890.208,229.663 888.948,228.655C887.689,227.647 886.807,227.395 886.303,227.899C878.492,227.899 870.177,233.569 861.358,244.907C860.098,246.671 858.586,249.065 856.823,252.088C855.059,254.86 853.169,258.262 851.153,262.293C850.901,262.797 850.775,263.301 850.775,263.805C850.775,266.073 852.539,267.206 856.067,267.206Z" style="fill-rule:nonzero;"/>
                    </g>
                    <g id="path52943" transform="matrix(0.264583,0,0,0.264583,143.308,219.202)">
                        <path d="M997.043,348.844C989.988,348.844 985.956,340.403 984.948,323.521L986.082,302.356C986.838,291.773 986.334,285.348 984.571,283.08C957.106,307.521 938.082,319.742 927.5,319.742C916.665,319.742 911.248,312.435 911.248,297.82C911.248,287.238 914.649,275.395 921.453,262.293C928.004,249.695 934.807,240.624 941.862,235.08C951.689,227.521 960.004,223.742 966.807,223.742C972.098,223.742 977.389,225.002 982.681,227.521C983.185,227.773 983.689,228.151 984.193,228.655C984.948,229.159 985.704,229.663 986.46,230.167C988.224,231.427 989.232,232.057 989.484,232.057C990.24,232.057 990.618,231.301 990.618,229.789C991.626,217.191 993.137,203.207 995.153,187.837C997.421,172.214 1000.19,155.207 1003.47,136.813C1004.73,130.766 1006.49,123.837 1008.76,116.026C1011.28,108.215 1014.3,99.648 1017.83,90.325C1021.86,80.246 1027.53,75.207 1034.84,75.207C1045.67,75.207 1051.72,84.53 1052.98,103.175C1053.23,104.435 1053.36,105.821 1053.36,107.333L1053.36,111.112C1053.36,130.766 1048.7,151.427 1039.37,173.096L1003.09,245.663C1002.84,254.23 1003.22,266.954 1004.22,283.836C1004.48,286.356 1004.85,290.009 1005.36,294.797C1006.11,299.332 1006.87,303.994 1007.63,308.781C1008.38,313.568 1009.01,317.6 1009.51,320.876C1010.27,324.403 1010.65,326.293 1010.65,326.545C1010.65,332.592 1009.26,337.757 1006.49,342.041C1003.72,346.576 1000.57,348.844 997.043,348.844ZM1006.49,216.183L1031.81,162.892C1036.85,152.561 1040.13,142.734 1041.64,133.411C1043.4,123.837 1044.04,114.766 1043.53,106.199C1042.78,92.341 1040.51,85.412 1036.73,85.412C1033.2,85.412 1029.3,91.081 1025.01,102.419C1022.74,108.215 1020.85,114.388 1019.34,120.939C1017.83,127.238 1016.57,133.915 1015.56,140.97L1015.19,141.348C1014.18,149.411 1012.92,159.742 1011.4,172.34C1009.89,184.687 1008.25,199.301 1006.49,216.183ZM925.988,304.246C934.555,305.002 943.752,302.356 953.578,296.309C959.374,292.781 964.665,288.246 969.452,282.702C974.492,276.907 979.153,270.356 983.437,263.049L983.815,263.049C984.571,259.521 984.948,256.12 984.948,252.844C984.948,238.986 979.909,232.057 969.83,232.057C962.523,232.057 954.46,236.592 945.641,245.663C939.342,252.466 934.051,260.025 929.767,268.34C923.72,279.931 920.697,289.254 920.697,296.309C920.697,301.096 922.46,303.742 925.988,304.246Z" style="fill-rule:nonzero;"/>
                    </g>
                </g>
                <g transform="matrix(1,0,0,1,-104.932,0)">
                    <g id="path52945" transform="matrix(0.264583,0,0,0.264583,42.4895,321.06)">
                        <path d="M1140.66,229.033C1138.9,227.521 1138.02,225.128 1138.02,221.852C1138.02,217.569 1139.78,213.915 1143.31,210.892L1157.29,198.797C1160.82,196.529 1165.11,193.38 1170.14,189.348C1175.44,185.317 1181.61,180.529 1188.66,174.986C1192.44,171.711 1196.1,168.435 1199.62,165.159C1203.15,161.632 1206.05,157.474 1208.32,152.687C1210.08,149.159 1211.21,146.388 1211.72,144.372C1212.22,142.356 1212.48,140.844 1212.48,139.837C1212.48,138.325 1211.85,136.561 1210.59,134.545C1209.33,132.278 1208.44,130.388 1207.94,128.876C1206.18,126.608 1203.78,124.971 1200.76,123.963C1195.47,122.451 1192.19,121.317 1190.93,120.561C1189.17,119.553 1186.78,118.293 1183.75,116.782C1180.98,115.018 1177.7,113.002 1173.92,110.734C1169.64,108.971 1164.35,106.703 1158.05,103.931C1152,100.908 1145.07,97.38 1137.26,93.349C1136,91.837 1134.24,90.199 1131.97,88.435C1129.7,86.419 1127.06,84.152 1124.04,81.632C1123.03,80.624 1122.52,78.986 1122.52,76.719C1122.52,73.947 1123.28,71.301 1124.79,68.782C1126.3,66.01 1127.94,64.624 1129.7,64.624C1130.71,64.624 1131.59,65.002 1132.35,65.758L1132.73,66.136C1135,68.152 1138.52,71.301 1143.31,75.585C1145.58,77.097 1148.1,78.608 1150.87,80.12C1153.64,81.38 1156.66,82.64 1159.94,83.9C1161.96,84.908 1164.48,86.167 1167.5,87.679C1170.52,89.191 1174.05,91.081 1178.08,93.349C1180.1,94.356 1182.49,95.742 1185.26,97.506C1188.29,99.018 1191.81,101.034 1195.85,103.553L1205.29,106.577C1207.56,107.333 1209.7,108.467 1211.72,109.978C1213.74,111.238 1215.37,113.002 1216.63,115.27C1222.43,122.577 1225.33,130.766 1225.33,139.837C1225.33,147.9 1222.93,155.963 1218.14,164.026C1214.11,171.081 1206.55,179.774 1195.47,190.104C1190.68,194.892 1185.01,199.427 1178.46,203.71C1172.92,207.238 1168.76,209.884 1165.99,211.647C1163.47,213.411 1160.95,215.427 1158.43,217.695C1156.16,219.962 1152.26,223.616 1146.71,228.655C1144.7,230.419 1142.68,230.545 1140.66,229.033ZM1118.37,340.151C1116.85,340.151 1115.59,339.269 1114.59,337.505C1110.81,329.19 1108.92,319.364 1108.92,308.025C1108.92,303.994 1109.29,298.072 1110.05,290.261C1110.3,286.482 1110.43,283.206 1110.43,280.435C1110.68,277.663 1110.81,275.395 1110.81,273.632C1110.81,268.088 1111.06,262.545 1111.56,257.002C1112.07,251.206 1112.7,245.285 1113.45,239.238L1117.61,206.356C1118.62,199.301 1119.88,190.104 1121.39,178.766C1122.9,167.175 1124.54,153.443 1126.3,137.569C1127.31,129.002 1128.07,121.317 1128.57,114.514C1128.82,108.215 1131.09,105.065 1135.37,105.065C1140.16,105.065 1142.55,108.467 1142.55,115.27C1142.05,117.789 1141.29,121.065 1140.29,125.097C1139.53,128.876 1138.65,133.537 1137.64,139.081L1130.46,207.49C1129.7,214.293 1128.7,222.986 1127.44,233.569C1126.18,244.151 1125.04,256.876 1124.04,271.742L1122.9,291.017C1122.65,294.545 1122.4,297.568 1122.14,300.088L1122.14,305.757C1122.14,313.065 1123.53,319.49 1126.3,325.033C1126.81,326.545 1127.06,327.805 1127.06,328.813C1127.06,331.584 1126.05,334.104 1124.04,336.372C1122.27,338.891 1120.38,340.151 1118.37,340.151Z" style="fill-rule:nonzero;"/>
                    </g>
                    <g id="path52947" transform="matrix(0.264583,0,0,0.264583,42.4895,321.06)">
                        <path d="M1241.2,340.529C1232.63,340.781 1225.83,334.608 1220.79,322.009C1216,309.411 1213.61,290.513 1213.61,265.317C1213.61,250.954 1214.74,234.954 1217.01,217.317C1219.53,199.427 1223.18,179.774 1227.97,158.356C1240.32,101.412 1255.18,72.939 1272.57,72.939C1279.37,72.939 1284.29,79.112 1287.31,91.459C1289.58,100.782 1290.33,109.223 1289.58,116.782C1287.06,141.222 1272.57,174.734 1246.11,217.317C1244.35,219.332 1242.21,221.978 1239.69,225.254C1237.42,228.529 1234.65,232.435 1231.37,236.97C1230.87,242.765 1230.37,248.435 1229.86,253.978C1229.61,259.521 1229.48,264.813 1229.48,269.852C1229.48,278.923 1230.24,288.246 1231.75,297.82C1234.52,312.687 1238.68,320.12 1244.22,320.12C1249.52,320.12 1254.81,316.718 1260.1,309.915L1271.06,292.151C1272.32,290.135 1273.96,289.128 1275.97,289.128C1278.49,289.128 1279.75,290.387 1279.75,292.907C1279.75,293.411 1279.62,293.915 1279.37,294.419C1279.37,294.923 1279.25,295.427 1279,295.931C1276.22,302.23 1273.7,307.647 1271.44,312.183C1269.42,316.466 1267.53,319.868 1265.77,322.387C1257.96,334.482 1249.77,340.529 1241.2,340.529ZM1272.19,91.837C1254.81,99.396 1241.83,140.97 1233.26,216.561C1234.02,215.805 1235.15,214.293 1236.66,212.025C1264.63,172.214 1278.62,140.467 1278.62,116.782C1278.62,115.018 1278.49,113.128 1278.24,111.112C1277.99,108.845 1277.61,106.325 1277.11,103.553C1275.59,96.75 1273.96,92.845 1272.19,91.837Z" style="fill-rule:nonzero;"/>
                    </g>
                    <g id="path52949" transform="matrix(0.264583,0,0,0.264583,42.4895,321.06)">
                        <path d="M1309.61,320.498C1301.55,320.498 1294.74,317.348 1289.2,311.049C1284.16,305.254 1281.64,298.702 1281.64,291.395C1281.64,277.789 1287.81,263.301 1300.16,247.931C1305.2,241.38 1310.62,235.584 1316.41,230.545C1322.21,225.506 1328.26,220.97 1334.55,216.939C1335.81,216.183 1337.58,215.805 1339.85,215.805C1347.15,215.805 1350.81,217.569 1350.81,221.096C1350.81,222.104 1350.05,223.238 1348.54,224.498L1348.54,224.876C1352.32,230.167 1356.1,235.71 1359.88,241.506C1363.66,247.301 1365.55,254.104 1365.55,261.915C1365.55,268.466 1363.78,275.143 1360.26,281.946C1356.98,288.75 1352.44,295.175 1346.65,301.222C1341.11,307.017 1335.06,311.679 1328.51,315.206C1321.96,318.734 1315.66,320.498 1309.61,320.498ZM1309.99,308.781C1316.29,308.529 1322.96,306.009 1330.02,301.222C1337.07,296.183 1343.12,290.135 1348.16,283.08C1353.45,276.025 1356.22,269.348 1356.48,263.049C1356.98,253.222 1351.94,242.136 1341.36,229.789C1330.52,237.6 1320.95,246.797 1312.63,257.38C1302.81,270.23 1297.89,281.821 1297.89,292.151C1297.89,303.238 1301.92,308.781 1309.99,308.781Z" style="fill-rule:nonzero;"/>
                    </g>
                    <g id="path52951" transform="matrix(0.264583,0,0,0.264583,42.4895,321.06)">
                        <path d="M1409.01,337.505C1402.71,337.505 1399.56,333.726 1399.56,326.167C1399.56,288.624 1402.21,248.687 1407.5,206.356C1404.98,205.852 1402.33,205.474 1399.56,205.222C1397.04,204.718 1394.52,204.214 1392,203.71C1384.95,202.703 1381.42,200.687 1381.42,197.663C1381.42,194.64 1382.93,192.75 1385.96,191.994L1385.58,191.994C1383.31,191.994 1383.69,191.868 1386.71,191.616C1389.74,191.112 1393.64,190.608 1398.43,190.104C1403.21,189.6 1407,189.348 1409.77,189.348C1411.28,180.529 1414.3,170.073 1418.84,157.978C1421.36,150.671 1423.37,144.372 1424.88,139.081C1426.65,133.537 1428.03,129.128 1429.04,125.852C1430.3,120.813 1433.58,118.293 1438.87,118.293C1441.14,118.293 1442.02,119.427 1441.51,121.695C1439.5,128.75 1436.98,137.947 1433.95,149.285C1430.93,160.372 1427.66,173.6 1424.13,188.97L1432.44,188.97C1435.97,188.97 1440,189.096 1444.54,189.348C1449.07,189.6 1452.98,189.852 1456.26,190.104L1464.57,190.104C1466.84,190.104 1467.97,190.986 1467.97,192.75C1467.97,194.262 1466.96,195.899 1464.95,197.663C1463.18,199.427 1461.17,200.309 1458.9,200.309C1455.88,200.309 1451.34,200.813 1445.29,201.821C1439.25,202.577 1431.56,203.836 1422.24,205.6C1418.46,236.592 1416.57,278.671 1416.57,331.836C1416.57,335.616 1414.05,337.505 1409.01,337.505Z" style="fill-rule:nonzero;"/>
                    </g>
                    <g id="path52953" transform="matrix(0.264583,0,0,0.264583,42.4895,321.06)">
                        <path d="M1478.55,323.143C1472.25,323.143 1466.84,322.009 1462.3,319.742C1458.02,317.474 1455.88,314.324 1455.88,310.293C1455.88,307.521 1457.14,306.135 1459.66,306.135C1459.4,306.135 1461.42,307.017 1465.7,308.781C1469.99,310.293 1474.52,311.049 1479.31,311.049C1493.92,311.049 1503.12,304.246 1506.9,290.639C1508.41,284.844 1503.12,275.269 1491.03,261.915C1482.46,252.592 1478.18,242.01 1478.18,230.167C1478.18,226.136 1479.94,221.474 1483.47,216.183C1487,210.64 1491.28,205.852 1496.32,201.821C1501.36,197.537 1506.14,195.396 1510.68,195.396C1518.74,195.396 1523.28,197.411 1524.29,201.443C1524.54,202.199 1524.66,202.955 1524.66,203.71C1524.92,204.466 1525.04,205.222 1525.04,205.978C1525.04,210.01 1523.53,212.025 1520.51,212.025C1518.74,212.025 1517.36,211.395 1516.35,210.136C1515.09,208.876 1513.33,208.246 1511.06,208.246L1509.17,208.246C1508.41,208.246 1507.78,208.498 1507.28,209.002C1498.21,213.537 1493.04,219.836 1491.78,227.899C1490.77,234.954 1496.19,244.781 1508.03,257.38C1518.62,268.718 1523.91,279.301 1523.91,289.128C1523.91,299.962 1518.37,308.655 1507.28,315.206C1498.71,320.498 1489.14,323.143 1478.55,323.143Z" style="fill-rule:nonzero;"/>
                    </g>
                    <g id="path52955" transform="matrix(0.264583,0,0,0.264583,42.4895,321.06)">
                        <path d="M1568.13,225.254C1566.11,225.254 1564.22,224.75 1562.46,223.742C1560.95,222.734 1560.19,220.214 1560.19,216.183C1560.19,211.899 1560.95,208.12 1562.46,204.844C1564.22,201.317 1566.37,199.553 1568.88,199.553C1574.93,199.553 1577.95,203.459 1577.95,211.27C1577.95,215.301 1577.07,218.703 1575.31,221.474C1573.55,223.994 1571.15,225.254 1568.13,225.254ZM1563.59,308.781C1561.58,308.781 1559.69,308.277 1557.92,307.269C1556.41,306.261 1555.66,303.742 1555.66,299.71C1555.66,295.427 1556.41,291.647 1557.92,288.372C1559.69,284.844 1561.83,283.08 1564.35,283.08C1570.4,283.08 1573.42,286.986 1573.42,294.797C1573.42,298.828 1572.54,302.23 1570.77,305.002C1569.01,307.521 1566.62,308.781 1563.59,308.781Z" style="fill-rule:nonzero;"/>
                    </g>
                </g>
                <g transform="matrix(1,0,0,1,-99.7777,0)">
                    <g id="path52957" transform="matrix(0.264583,0,0,0.264583,-98.8649,414.603)">
                        <path d="M1689.07,315.962C1686.55,315.962 1685.29,314.828 1685.29,312.561C1685.29,307.017 1689.95,290.891 1699.28,264.183C1694.24,263.679 1690.08,262.293 1686.81,260.025C1683.78,257.758 1682.27,254.986 1682.27,251.71C1682.27,248.939 1683.53,247.553 1686.05,247.553C1685.8,247.553 1687.81,248.435 1692.1,250.199C1696.38,251.71 1700.92,252.466 1705.7,252.466C1720.32,252.466 1729.51,245.663 1733.29,232.057C1734.81,226.262 1729.51,216.687 1717.42,203.333C1708.85,194.01 1704.57,183.427 1704.57,171.585C1704.57,168.057 1705.95,163.9 1708.73,159.112C1711.75,154.325 1715.4,149.915 1719.69,145.884C1723.97,141.6 1728.25,138.829 1732.54,137.569C1741.1,116.908 1747.66,102.419 1752.19,94.104C1753.45,92.089 1755.22,90.073 1757.48,88.057C1759.75,85.79 1762.02,84.656 1764.29,84.656C1767.56,84.656 1769.2,85.664 1769.2,87.679C1769.2,89.695 1767.31,94.104 1763.53,100.908C1761.26,104.939 1758.49,110.104 1755.22,116.404C1752.19,122.703 1748.79,129.884 1745.01,137.947C1748.03,138.703 1749.92,140.341 1750.68,142.86C1750.93,143.616 1751.06,144.372 1751.06,145.128C1751.31,145.884 1751.43,146.64 1751.43,147.396C1751.43,151.427 1749.92,153.443 1746.9,153.443C1745.14,153.443 1743.75,152.813 1742.74,151.553C1741.48,150.293 1739.72,149.663 1737.45,149.663L1735.56,149.663C1734.81,149.663 1734.17,149.915 1733.67,150.419C1724.6,154.955 1719.43,161.254 1718.17,169.317C1717.17,176.372 1722.59,186.199 1734.43,198.797C1745.01,210.136 1750.3,220.718 1750.3,230.545C1750.3,241.38 1744.76,250.073 1733.67,256.624C1726.36,261.159 1718.3,263.805 1709.48,264.561C1705.95,275.143 1702.81,284.844 1700.03,293.663C1697.26,302.482 1695.37,308.403 1694.36,311.427C1693.36,314.45 1691.59,315.962 1689.07,315.962Z" style="fill-rule:nonzero;"/>
                    </g>
                    <g id="path52959" transform="matrix(0.264583,0,0,0.264583,-98.8649,414.603)">
                        <path d="M1869.73,322.009C1868.47,322.009 1867.47,321.883 1866.71,321.631L1858.02,316.718C1856.51,315.962 1854.24,315.458 1851.21,315.206L1844.79,316.34C1843.03,316.592 1841.26,316.844 1839.5,317.096C1837.99,317.6 1836.85,317.852 1836.1,317.852C1834.08,317.852 1831.56,317.726 1828.54,317.474C1825.51,317.222 1822.24,316.844 1818.71,316.34C1811.65,315.584 1805.99,315.206 1801.7,315.206L1798.3,315.206C1797.29,315.206 1796.16,315.458 1794.9,315.962C1792.88,316.466 1790.99,316.844 1789.23,317.096C1787.72,317.6 1786.33,317.852 1785.07,317.852C1780.29,317.852 1777.89,315.206 1777.89,309.915C1777.89,305.38 1779.78,296.183 1783.56,282.324C1788.35,267.458 1794.77,254.482 1802.84,243.395C1810.9,232.309 1819.47,222.23 1828.54,213.159C1837.86,203.836 1846.68,194.892 1854.99,186.325C1863.31,177.506 1870.11,168.183 1875.4,158.356C1880.95,148.278 1883.84,136.813 1884.1,123.963C1884.1,115.144 1881.2,107.837 1875.4,102.041C1869.61,95.994 1862.55,92.971 1854.24,92.971C1850.46,92.971 1846.68,93.475 1842.9,94.482C1839.37,95.238 1835.97,97.002 1832.69,99.774C1828.66,103.049 1824,107.333 1818.71,112.624C1813.42,117.915 1809.77,122.577 1807.75,126.608C1806.74,128.876 1804.85,130.01 1802.08,130.01C1797.55,130.01 1795.28,127.49 1795.28,122.451C1795.28,120.435 1795.78,118.545 1796.79,116.782C1802.59,104.183 1810.77,94.356 1821.36,87.301C1832.19,79.994 1843.78,76.341 1856.13,76.341C1869.99,76.341 1880.69,81.632 1888.25,92.215C1895.06,101.789 1898.33,113.128 1898.08,126.23C1898.08,136.309 1896.44,145.884 1893.17,154.955C1890.14,163.774 1885.61,172.214 1879.56,180.277C1872,190.86 1864.07,200.183 1855.75,208.246C1847.43,216.057 1839.37,223.868 1831.56,231.679C1824,239.49 1816.95,248.309 1810.4,258.136C1804.1,267.71 1799.06,279.427 1795.28,293.285C1795.03,294.041 1794.77,295.049 1794.52,296.309C1794.27,297.317 1793.89,298.702 1793.39,300.466C1794.4,299.962 1795.28,299.71 1796.03,299.71C1802.84,298.45 1807.25,298.072 1809.26,298.576L1836.47,301.222C1836.22,301.222 1837.1,301.096 1839.12,300.844C1841.39,300.34 1842.65,299.962 1842.9,299.71C1844.91,299.206 1846.68,298.828 1848.19,298.576C1849.95,298.324 1851.09,298.198 1851.59,298.198C1857.39,298.198 1864.44,300.592 1872.76,305.379C1875.28,306.639 1876.54,308.781 1876.54,311.805C1876.54,318.608 1874.27,322.009 1869.73,322.009Z" style="fill-rule:nonzero;"/>
                    </g>
                    <g id="path52961" transform="matrix(0.264583,0,0,0.264583,-98.8649,414.603)">
                        <path d="M1959.31,325.411C1951.25,325.411 1944.32,321.505 1938.52,313.694C1936,310.671 1933.99,307.521 1932.47,304.246C1930.96,300.97 1929.58,297.443 1928.32,293.663C1926.55,287.868 1925.17,281.191 1924.16,273.632C1923.4,265.821 1923.03,256.876 1923.03,246.797L1923.03,239.616C1923.03,237.096 1923.15,234.577 1923.4,232.057C1924.16,212.655 1928.19,190.104 1935.5,164.403C1938.27,155.585 1940.79,147.774 1943.06,140.97C1945.32,133.915 1947.72,127.868 1950.24,122.829C1958.3,105.443 1967.25,91.711 1977.07,81.632C1984.63,73.821 1992.57,69.916 2000.88,69.916C2006.93,69.916 2012.47,72.057 2017.51,76.341C2022.55,80.624 2026.33,87.049 2028.85,95.616C2030.11,99.648 2031.12,104.687 2031.88,110.734C2032.63,116.782 2033.13,122.955 2033.39,129.254C2033.89,135.301 2034.14,140.593 2034.14,145.128C2034.14,161.506 2033.13,179.018 2031.12,197.663C2029.36,216.057 2026.21,232.813 2021.67,247.931C2018.39,258.765 2014.62,268.592 2010.33,277.411C2006.3,285.978 2001.77,293.915 1996.73,301.222C1985.64,317.348 1973.17,325.411 1959.31,325.411ZM1960.44,308.403C1968.76,308.403 1978.08,300.214 1988.41,283.836C2000.25,265.695 2008.44,245.159 2012.98,222.23C2017.51,199.049 2019.78,175.742 2019.78,152.309C2019.78,142.482 2019.15,132.53 2017.89,122.451C2016.63,112.12 2014.62,103.427 2011.84,96.372C2009.07,89.317 2005.17,85.79 2000.13,85.79C1995.34,85.79 1989.04,90.577 1981.23,100.152C1977.45,104.939 1973.55,110.608 1969.51,117.16C1965.73,123.711 1962.08,131.27 1958.55,139.837C1951.75,155.459 1946.58,172.214 1943.06,190.104C1939.53,207.994 1937.77,225.506 1937.77,242.64L1937.77,252.466C1938.02,255.49 1938.27,258.639 1938.52,261.915C1941.55,292.907 1948.85,308.403 1960.44,308.403Z" style="fill-rule:nonzero;"/>
                    </g>
                </g>
            </g>
        </g>
    </g>
</svg>
