<?xml version="1.0" encoding="utf-8" ?>
<svg xmlns="http://www.w3.org/2000/svg" xmlns:cc="http://creativecommons.org/ns" xmlns:dc="http://purl.org/dc/elements/1.1/" xmlns:ev="http://www.w3.org/2001/xml-events" xmlns:inkscape="http://www.inkscape.org/namespaces/inkscape" xmlns:rdf="http://www.w3.org/1999/02/22-rdf-syntax-ns" xmlns:sodipodi="http://sodipodi.sourceforge.net/DTD/sodipodi-0.dtd" xmlns:xlink="http://www.w3.org/1999/xlink" baseProfile="tiny" height="21.59cm" version="1.2" viewBox="0 0 1056.0 816.0" width="27.94cm">
  <metadata>
    <rdf:RDF>
      <cc:Work>
        <dc:format>image/svg+xml</dc:format>
        <dc:source>vpype 
</dc:source>
        <dc:date>2023-08-19T09:22:15.321439</dc:date>
      </cc:Work>
    </rdf:RDF>
  </metadata>
  <defs/>
  <g fill="none" id="layer1" inkscape:groupmode="layer" inkscape:label="1" stroke="#000000" stroke-width="0.2646" style="display:inline">
    <polygon points="606.2885,301.3898 600.5632,299.3166 595.8478,296.745 592.2573,293.7732 589.8784,290.5553 588.5479,286.7801 588.6458,282.5944 589.217,280.8008 590.1242,279.1992 591.3674,277.7896 592.9904,276.5559 596.2249,275.2064 600.5686,274.1445 605.9037,273.3065 611.1802,273.0018 633.4897,274.0341 645.5036,275.3002 646.8924,275.6447 647.7258,276.278 648.0036,277.2002 647.7336,278.1752 646.9235,278.7002 646.0835,278.8002 636.6709,277.6858 613.5037,276.1251 608.7537,276.1751 604.4058,276.7063 599.1246,277.983 595.8118,279.6172 594.5918,280.9122 593.9038,282.2001 593.2957,285.4481 593.3843,287.0445 593.8288,288.4001 595.9104,291.4484 599.3697,294.561 603.5537,296.9829 616.4827,300.7907 623.2276,302.392 631.8293,303.8602 645.3703,305.4975 646.1703,305.8235 646.8702,306.5531 646.9677,307.5741 646.4307,308.3852 644.1037,308.7001 626.1517,306.2321 615.3228,303.9779"/>
    <polygon points="595.0119,344.7536 592.6383,342.3222 591.4433,340.1295 591.1189,338.1867 591.8498,336.4968 593.2962,335.3359 595.5037,334.3999 604.2558,332.5465 606.2391,331.8631 607.2224,331.0687 607.3536,329.3501 606.5038,327.7999 600.4119,322.1837 596.7574,319.4838 591.5181,316.2776 590.918,315.249 590.9724,313.7688 592.3225,313.2188 597.798,313.7463 614.1037,316.2 614.937,316.6001 615.6036,317.8 615.3956,318.6961 614.7717,319.1441 608.7995,318.6021 606.2037,318.7001 602.8038,319.3001 610.5945,328.4149 612.1037,331.2 612.0912,333.1687 611.5005,334.1671 610.4037,334.7999 599.3294,336.5215 597.0483,337.2238 595.4261,338.3407 595.0206,339.2515 595.2557,340.7 597.8038,344.2 600.3038,346.4998 600.5038,347.2999 600.1038,347.9222 599.2787,347.95 598.4788,347.5499"/>
    <polygon points="606.5071,347.5875 606.1037,345.9 606.5037,344.85 607.8481,344.6362 608.9148,345.1777 609.8794,347.3766 612.2956,356.0376 614.2037,359.9999 624.1981,361.3311 632.4046,363.4526 641.8414,367.373 645.4163,369.3969 648.7936,371.7838 651.8321,374.8433 653.4956,378.1477 653.5505,381.2271 652.9286,382.8999 652.0867,384.1493 650.1786,385.8999 648.8785,385.6999 648.6701,384.3553 650.4196,382.2718 650.9325,381.2128 651.0962,379.8561 650.8431,378.6272 649.8814,376.8759 648.4929,375.3463 644.154,372.2083 639.2775,369.7035 633.3605,367.5733 626.7106,365.9214 619.5038,364.7999 615.1038,364.4999 614.2535,369.2861 614.2917,378.3799 613.3817,380.0298 612.4037,380.2997 611.571,380.1692 611.0159,379.7774 610.7384,379.1243 610.7038,370.8999 610.4475,368.8624 609.7317,366.2198 608.4037,363.4998 588.2454,360.3352 583.0603,358.9468 581.9039,358.3999 581.1927,357.6887 581.3538,356.575 582.4455,355.5721 584.4037,354.6 586.5037,354.2 590.4629,354.7115 595.3037,355.9999 596.1678,356.48 596.5039,357.4998 606.8038,358.6 607.9466,357.6693 608.2037,356.5"/>
    <polygon points="612.6292,395.8381 608.767,392.5014 603.0641,388.9171 597.9993,386.6763 591.737,384.8665 590.9074,383.7701 590.9915,382.4855 592.4935,381.7999 597.5878,381.402 613.7959,382.1704 619.4038,382.0 620.1717,382.2079 620.5557,382.8318 620.5287,383.7436 619.4038,384.3997 605.9037,384.8998 604.4975,385.2373 604.5475,385.8936 605.3021,386.6483 610.0535,389.8166 613.263,392.4134 615.144,394.2821 616.4369,396.1223 617.0901,398.1744 616.7783,400.3193 615.5286,402.2293 613.7974,403.3622 612.5717,403.2237 612.1557,402.6957 612.3037,401.2997 613.7036,398.7997 613.372,397.1237"/>
    <polygon points="542.9661,379.7254 534.7049,378.1311 524.6393,376.7707 529.6381,380.2388 535.1603,383.5636 539.8664,385.9198 544.1667,387.572 548.061,388.5201 551.517,388.7608 555.6257,388.1002 557.6392,387.0709 555.9691,384.9367 552.8942,382.9843 548.4145,381.2138"/>
    <polygon points="561.9392,352.9715 558.0642,360.6712 554.5393,366.8727 553.6072,369.7266 552.6234,371.3799 549.0778,373.8129 546.8852,374.495 544.9392,374.6726 542.6804,374.4354 540.0451,373.5598 537.5698,372.1593 534.8302,369.9513 529.9096,364.8457 525.4505,358.3055 521.4395,353.8711 521.0644,353.0717 521.6075,352.0189 522.7474,351.5998 524.0581,351.6592 525.5081,352.3588 529.3394,356.6704 535.6394,364.9703 538.2394,367.8702 541.1643,369.9868 543.456,370.9905 544.9392,371.2727 547.8393,370.0715 548.6143,369.2466 549.9475,365.7465 552.6394,361.0704 557.2391,351.3708 560.3393,347.873 561.0948,347.5157 563.3352,347.8555 564.5642,348.6962 564.8393,349.3705 564.5392,350.0717"/>
    <polygon points="494.5074,348.64 493.3074,348.1603 492.1895,347.1467 492.0173,345.9935 492.6396,345.3727 496.8028,344.148 501.3332,343.8909 515.8735,344.7562 552.1639,349.1134 553.6454,349.6762 554.1393,350.8707 553.6059,352.1844 551.4392,352.7704 545.1392,351.4713 511.3783,347.966 500.5975,347.3768 498.5116,347.605 495.3894,348.6221"/>
    <polygon points="507.4724,375.8773 503.1396,376.3712 500.0015,377.1755 498.0402,378.1993 497.2557,379.4421 497.6388,381.2876 498.8371,382.9031 505.2394,387.3471 505.3769,388.5086 504.877,389.0087 503.6394,388.8727 502.4332,388.334 496.2131,385.0899 493.5155,382.7858 491.9982,380.0983 491.9243,377.8828 493.0145,375.8212 495.3543,374.1029 498.6427,372.8643 502.9895,372.0463 508.8519,371.6144 515.3134,371.6541 521.9369,372.1735 530.5678,373.455 540.6805,375.5115 547.6541,377.2603 553.2994,379.1264 557.6165,381.11 560.6053,383.2111 562.2657,385.43 562.5715,387.7858 562.0289,388.8904 560.9438,389.8291 557.7392,391.0714 552.8644,391.744 548.1209,391.1924 541.7335,389.1998 534.2749,385.7938 524.4393,380.1706 519.2395,376.2707 513.5543,375.8242"/>
    <polygon points="498.3324,401.5735 497.4376,399.2303 497.1394,396.9716 497.491,394.7123 498.3211,393.044 499.9487,391.3137 501.9168,390.1402 504.0769,389.6068 506.8263,389.7332 509.5472,390.4529 512.3505,391.7487 515.2361,393.6207 518.4995,396.2791 521.4656,399.3882 524.5393,403.5703 524.806,404.4162 524.7702,406.1175 523.9925,407.7291 523.4395,407.8725 522.4393,407.2719 516.4172,411.1057 513.8474,411.7124 510.7696,411.5934 507.7248,410.5652 503.7687,408.111 500.6411,405.066"/>
    <polygon points="517.8992,401.4625 512.6757,396.9231 510.0642,395.3484 507.5977,394.3384 505.2762,393.8938 502.7145,394.0707 501.0817,394.8833 500.3942,395.9839 500.2608,397.4069 500.6075,399.1198 502.6938,402.9837 506.4272,406.7169 508.5115,408.1488 510.6395,409.0824 512.9453,409.3771 515.4873,408.8748 518.2187,407.5398 521.1394,405.3721"/>
    <polygon points="501.9633,425.3274 493.7415,425.2306 493.1293,424.904 492.762,424.2509 492.7388,422.4446 493.2594,421.5148 494.2263,420.9568 498.136,420.7855 512.1489,421.3741 527.3394,422.8717 528.3949,417.2159 529.1455,416.1097 530.0834,416.0193 530.7553,416.4034 531.1393,417.1725 531.1643,416.6966 531.8394,423.4723 536.4297,424.5996 549.0591,428.7017 550.2443,429.6208 550.6394,431.1716 550.5394,431.6496 549.7393,431.8701 531.9394,427.2717 531.6394,437.9714 531.5616,438.4716 530.9393,438.871 529.9832,438.4212 528.9831,436.9089 527.5394,426.7716 516.3633,425.8156"/>
    <polygon points="499.6468,441.4515 499.927,444.3188 500.9894,446.5958 502.8347,448.2497 505.4622,449.2346 507.0025,448.9351 508.5979,448.1243 513.9006,443.9331 516.5894,442.422 519.88,441.6255 521.3644,441.5864 522.7644,441.922 526.3429,444.1379 529.1013,447.0925 530.1831,449.5098 529.9087,452.5018 529.3931,453.3453 528.6393,453.7723 527.4394,453.9708 526.2394,453.6711 525.8839,453.1384 525.895,452.3381 526.7143,451.0719 526.8393,449.7718 526.1964,448.4676 524.0374,446.1086 522.7253,445.4438 521.1576,445.1394 519.5284,445.4705 517.6242,446.4393 511.714,451.2453 508.9876,452.8586 505.7523,453.6651 502.8752,453.2265 500.6552,451.8903 499.0263,450.0356 497.5109,447.2633 496.6728,444.3825 496.4693,440.7844 497.042,438.0489 498.1129,436.3357 499.8394,435.6722 500.6645,435.9222 500.9396,436.6723 500.0024,439.0366"/>
    <polygon points="500.8475,462.4546 503.0582,462.0816 505.6394,462.6702 506.884,463.7382 506.8089,465.5024 506.1172,466.2758 504.9642,466.692 503.066,466.7142 501.5639,466.2564 500.5995,465.4312 500.2795,464.6311 500.3395,463.3965"/>
    <polygon points="522.3393,465.3716 522.9474,463.6556 525.1581,463.2803 526.7082,463.5058 528.1672,464.1128 528.7894,464.6463 529.1394,465.5701 528.4988,467.2562 527.4996,467.7915 526.0392,467.9698 524.374,467.7418 523.3394,467.2713 522.6994,466.6316"/>
    <polygon points="588.5505,490.2634 589.5225,488.1994 590.7037,486.6994 592.0972,485.5667 594.0536,484.6115 596.3203,484.0973 599.2038,484.0354 602.0037,484.4994 603.8088,485.1214 606.2953,486.4703 608.8732,488.4127 611.2038,490.5994 613.7246,493.5748 615.2685,495.9911 616.1949,498.2325 616.5037,500.2993 616.2335,501.8566 615.6762,502.6886 614.8149,503.2326 612.0513,503.4629 609.1372,502.7269 606.2592,501.0548 603.1036,498.0992 599.3833,492.9548 598.2977,490.4585 598.0038,488.0993 595.8896,488.401 594.4968,488.9224 593.1288,489.9244 592.3328,491.006 591.711,492.7082 591.5107,495.1528 592.5519,500.5673 592.1358,501.1914 590.8787,501.3431 590.1788,500.8931 589.505,499.8647 588.2912,496.7036 588.0106,493.4633"/>
    <polygon points="609.4669,499.5215 611.8036,499.9992 612.9038,499.4992 613.1538,499.0743 613.0119,497.9055 612.0833,495.7562 610.8078,494.1667 608.6038,492.1993 604.0037,489.4992 603.2099,489.4867 602.7038,490.7994 603.3037,492.766 604.3757,494.862 606.9349,497.8055"/>
    <polygon points="599.8057,509.0752 597.5317,508.2833 595.2882,507.9054 593.6874,508.1565 592.9955,508.9278 592.9224,511.0306 593.3904,513.1906 594.3444,515.4405 595.869,517.8809 598.8937,521.048 603.8037,524.5993 607.5487,524.8591 609.3087,524.5391 610.6287,523.8992 611.6599,522.6492 611.9937,520.5922 611.515,518.6809 610.3184,516.6499 608.4037,514.4992 605.7113,512.3103"/>
    <polygon points="639.596,530.3531 647.2265,532.7546 651.6129,534.7259 652.7379,535.8103 653.441,537.3947 653.3969,539.0766 652.7457,540.4619 650.8395,541.891 647.773,542.7245 642.9363,542.9826 637.8569,542.4475 632.6156,541.1628 627.6037,539.2983 608.4037,529.6992 598.3038,529.9982 586.5732,531.6903 584.5939,531.3716 582.9038,530.5988 581.5538,529.4241 581.1038,528.0993 581.3469,527.1197 582.0761,526.3142 584.9932,525.2257 587.8038,524.8991 596.1464,525.282 598.5038,524.7994 591.6498,516.2151 589.751,512.9786 588.8711,510.4458 589.0141,508.2172 590.1189,506.5791 592.1707,505.6431 595.2559,505.4153 599.4168,506.1821 603.6052,507.8957 608.1458,510.6321 611.0072,513.2562 613.3727,516.9248 614.1954,519.8118 613.6748,523.1538 612.0037,526.0993 612.6037,526.3993 626.8724,528.0741"/>
    <polygon points="648.8035,536.5997 643.3592,534.5043 636.0037,532.9006 616.2036,530.5988 631.851,538.0093 637.7504,539.8386 643.4864,540.4424 649.0632,539.9078 650.2663,539.4202 650.8034,538.5998 650.3035,537.633"/>
    <polygon points="602.9039,441.8994 602.0149,442.255 602.0537,443.0994 605.1132,445.4813 606.9108,447.5503 607.8966,449.7063 607.9997,452.0195 607.4537,452.9494 605.9976,453.9093 599.6357,455.5474 599.0118,456.0113 598.8476,457.0244 599.9287,458.9244 606.7826,468.1112 607.868,470.1131 607.947,471.1084 607.0963,472.2358 605.2249,473.2135 596.9483,475.2215 594.5976,476.237 594.1236,476.8444 593.8038,478.6992 593.9558,481.4673 593.5718,482.0914 592.4615,482.265 591.249,481.44 590.1738,479.0673 590.1222,475.7503 590.7642,474.1466 593.2037,472.2992 600.6357,470.0104 601.6917,469.5034 602.2038,468.7993 601.6259,466.7104 599.7159,463.328 597.0662,459.6056 594.485,456.7557 594.2038,455.4995 594.3875,453.9627 595.2037,452.9995 601.4444,450.8769 602.3548,450.1831 602.4933,449.4711 601.8318,447.2714 600.1412,445.2431 596.6554,443.0245 590.4705,440.7439 589.7594,439.5438 589.8226,438.2682 590.446,437.4666 591.6038,437.1994 598.6501,437.7194 612.0037,439.4994 612.8997,439.8194 613.4036,440.8996 613.1956,441.6035 612.5717,441.9554"/>
    <polygon points="617.6703,424.7883 617.1504,425.763 616.3904,426.3936 615.0038,426.6994 614.1148,426.344 614.0036,425.2995 615.7295,422.081 615.6036,420.2439 613.2073,415.78 609.6987,411.6816 605.8037,408.2995 601.8853,405.6302 598.9481,404.2329 596.4148,403.9356 595.7037,404.2245 595.3482,404.8024 595.665,406.6778 597.5616,410.203 600.9398,415.1435 605.0512,420.3889 608.6079,424.1162 611.1597,426.1916 615.0465,428.2301 615.3893,428.875 615.4723,430.1214 614.7224,431.2463 612.8954,431.4499 606.021,428.9164 599.6173,427.6028 595.3484,428.281 592.1538,429.9245 591.3437,429.9635 590.2637,429.4235 589.0637,428.0556 589.0037,426.9244 590.0784,425.8393 591.5661,424.9357 593.6758,424.1759 596.1393,423.7699 602.6398,423.9635 603.3287,423.6746 603.5064,423.0967 601.557,420.1895 591.7889,407.7306 591.1588,405.8811 591.0037,404.1995 591.1747,403.1646 591.9347,401.9246 593.3017,400.8746 594.8538,400.2746 596.3418,400.1546 598.4816,400.5663 603.2802,402.888 608.7117,406.9703 613.0956,411.5062 616.3815,416.3995 617.8756,420.7995 617.9903,422.9536"/>
    <polygon points="465.683,443.2436 464.8546,441.4168 462.7377,439.1835 459.8213,436.9461 456.1284,434.6696 446.8011,430.6899 441.9714,429.2487 436.947,428.1537 431.6353,427.3806 426.4096,427.0087 421.5965,426.972 416.6433,427.4612 412.5546,428.2681 409.5563,429.3759 407.6483,430.7849 406.8306,432.4953 407.1175,434.4769 408.3034,436.3341 410.7286,438.5879 414.2437,440.9711 417.855,442.9624 422.0425,444.7568 426.1083,446.0553 430.7233,447.0847 437.1232,448.0399 443.5472,448.5624 449.6603,448.6504 455.1972,448.2654 459.7713,447.5208 463.3822,446.3624 465.1177,445.1031 465.6036,444.1689"/>
    <polygon points="419.3213,423.1461 428.2971,423.2382 436.0716,424.2587 444.8965,426.3714 455.262,429.9659 462.3893,433.8555 465.2942,436.0161 467.6979,438.3251 469.0375,440.28 469.7587,442.2942 469.8489,444.459 469.3177,446.3339 468.4677,447.7337 467.1687,449.0655 463.5421,450.9324 458.3555,451.9588 449.9963,452.4699 440.138,452.0527 430.078,450.8695 422.7964,449.1705 415.6394,446.4763 409.3125,442.9884 405.0527,439.4163 403.7027,437.5858 402.8027,435.678 402.3527,433.6928 402.393,431.5701 402.8221,430.1889 403.8412,428.6021 407.527,425.75 412.7964,423.926"/>
    <polygon points="407.8415,409.3357 406.7445,410.6116 405.3297,410.7493 403.7299,410.2155 403.1966,408.9698 403.2966,408.1707 404.734,405.5342 404.9965,404.0697 404.2965,400.0718 404.9965,390.9702 404.3293,386.1254 404.8215,385.1461 405.9043,384.7002 408.9318,385.0071 414.0882,386.2988 418.5282,388.0616 422.1765,390.043 429.22,395.4598 441.7776,407.3768 446.1721,410.2929 449.8723,411.8948 455.19,412.7602 457.2712,412.628 458.7962,412.1964 460.4916,411.2522 461.9589,409.8797 463.0369,408.2668 463.6462,406.4583 463.6962,403.3712 462.8963,400.4955 461.3537,398.4048 458.2498,395.1299 454.2213,391.9954 454.0275,390.6493 454.7775,389.5248 456.39,389.2964 458.2249,390.0225 461.2052,391.8608 463.4439,393.849 465.2963,396.1719 466.6929,398.6261 467.6348,401.175 468.1219,403.8184 468.0968,407.0046 467.3015,409.9152 465.711,412.3523 463.3793,414.2843 460.3813,415.7047 457.0203,416.3986 453.0213,416.3894 449.2213,415.7396 443.9713,413.6707 438.738,410.1134 434.3459,406.3196 425.9939,397.8393 420.0963,393.2721 415.146,390.72 408.8965,388.7715 409.4509,392.5218 408.6965,400.1697 409.4881,404.4816 409.0828,406.5353"/>
    <polygon points="406.4201,362.7097 404.9885,361.8747 404.8528,360.7326 405.3027,360.2326 409.1251,360.8497 418.4964,363.8716 418.9347,361.8651 419.9075,360.2049 420.9742,359.5043 422.2777,359.4335 422.8964,360.3712 422.0704,362.3519 421.6631,364.3269 421.6684,366.8518 422.1077,368.733 422.9465,370.2957 424.1846,371.5402 425.8221,372.4667 427.419,372.934 428.6742,372.7361 430.5547,371.824 435.8574,367.632 438.198,366.2684 441.4574,365.3656 444.3395,365.4881 446.2964,366.3719 448.9776,368.4521 450.9643,370.6308 451.9963,372.6716 463.8163,378.0869 465.6722,379.991 465.9462,381.6401 465.5462,382.2899 464.2523,382.1312 451.8963,375.971 451.5442,376.7863 450.5964,377.4712 449.3962,377.6696 448.1963,377.37 447.8407,376.8373 447.8518,376.0381 448.6714,374.7708 448.7964,373.9707 448.3798,372.5578 446.298,370.0272 443.5963,368.8696 441.7758,369.0716 439.9175,369.9348 433.6709,374.9453 430.9445,376.5577 428.0243,377.3437 425.1773,377.0435 422.612,375.5892 420.7362,373.3616 419.1345,370.108 418.3964,366.5703"/>
  </g>
</svg>
