<svg width="29" height="29" viewBox="0 0 29 29" xmlns="http://www.w3.org/2000/svg">
            <path d="M0.5,0.5H6.5V0.5" fill="none" stroke="black" stroke-width="1" stroke-linecap="round" opacity="0.5"/><path d="M12.5,0.5H15.5V0.5" fill="none" stroke="black" stroke-width="1" stroke-linecap="round" opacity="0.5"/><path d="M19.5,0.5H20.5V0.5" fill="none" stroke="black" stroke-width="1" stroke-linecap="round" opacity="0.5"/><path d="M22.5,0.5H28.5V0.5" fill="none" stroke="black" stroke-width="1" stroke-linecap="round" opacity="0.5"/><path d="M13.5,1.5H18.5V1.5" fill="none" stroke="black" stroke-width="1" stroke-linecap="round" opacity="0.5"/><path d="M2.5,2.5H4.5V2.5" fill="none" stroke="black" stroke-width="1" stroke-linecap="round" opacity="0.5"/><path d="M12.5,2.5H13.5V2.5" fill="none" stroke="black" stroke-width="1" stroke-linecap="round" opacity="0.5"/><path d="M24.5,2.5H26.5V2.5" fill="none" stroke="black" stroke-width="1" stroke-linecap="round" opacity="0.5"/><path d="M2.5,3.5H4.5V3.5" fill="none" stroke="black" stroke-width="1" stroke-linecap="round" opacity="0.5"/><path d="M8.5,3.5H10.5V3.5" fill="none" stroke="black" stroke-width="1" stroke-linecap="round" opacity="0.5"/><path d="M14.5,3.5H15.5V3.5" fill="none" stroke="black" stroke-width="1" stroke-linecap="round" opacity="0.5"/><path d="M24.5,3.5H26.5V3.5" fill="none" stroke="black" stroke-width="1" stroke-linecap="round" opacity="0.5"/><path d="M2.5,4.5H4.5V4.5" fill="none" stroke="black" stroke-width="1" stroke-linecap="round" opacity="0.5"/><path d="M15.5,4.5H16.5V4.5" fill="none" stroke="black" stroke-width="1" stroke-linecap="round" opacity="0.5"/><path d="M19.5,4.5H20.5V4.5" fill="none" stroke="black" stroke-width="1" stroke-linecap="round" opacity="0.5"/><path d="M24.5,4.5H26.5V4.5" fill="none" stroke="black" stroke-width="1" stroke-linecap="round" opacity="0.5"/><path d="M8.5,5.5H9.5V5.5" fill="none" stroke="black" stroke-width="1" stroke-linecap="round" opacity="0.5"/><path d="M11.5,5.5H12.5V5.5" fill="none" stroke="black" stroke-width="1" stroke-linecap="round" opacity="0.5"/><path d="M0.5,6.5H6.5V6.5" fill="none" stroke="black" stroke-width="1" stroke-linecap="round" opacity="0.5"/><path d="M22.5,6.5H28.5V6.5" fill="none" stroke="black" stroke-width="1" stroke-linecap="round" opacity="0.5"/><path d="M9.5,7.5H11.5V7.5" fill="none" stroke="black" stroke-width="1" stroke-linecap="round" opacity="0.5"/><path d="M18.5,7.5H20.5V7.5" fill="none" stroke="black" stroke-width="1" stroke-linecap="round" opacity="0.5"/><path d="M0.5,8.5H4.5V8.5" fill="none" stroke="black" stroke-width="1" stroke-linecap="round" opacity="0.5"/><path d="M6.5,8.5H9.5V8.5" fill="none" stroke="black" stroke-width="1" stroke-linecap="round" opacity="0.5"/><path d="M16.5,8.5H17.5V8.5" fill="none" stroke="black" stroke-width="1" stroke-linecap="round" opacity="0.5"/><path d="M20.5,8.5H21.5V8.5" fill="none" stroke="black" stroke-width="1" stroke-linecap="round" opacity="0.5"/><path d="M12.5,9.5H15.5V9.5" fill="none" stroke="black" stroke-width="1" stroke-linecap="round" opacity="0.5"/><path d="M17.5,9.5H20.5V9.5" fill="none" stroke="black" stroke-width="1" stroke-linecap="round" opacity="0.5"/><path d="M22.5,9.5H24.5V9.5" fill="none" stroke="black" stroke-width="1" stroke-linecap="round" opacity="0.5"/><path d="M2.5,10.5H4.5V10.5" fill="none" stroke="black" stroke-width="1" stroke-linecap="round" opacity="0.5"/><path d="M13.5,10.5H17.5V10.5" fill="none" stroke="black" stroke-width="1" stroke-linecap="round" opacity="0.5"/><path d="M0.5,11.5H1.5V11.5" fill="none" stroke="black" stroke-width="1" stroke-linecap="round" opacity="0.5"/><path d="M7.5,11.5H8.5V11.5" fill="none" stroke="black" stroke-width="1" stroke-linecap="round" opacity="0.5"/><path d="M12.5,11.5H13.5V11.5" fill="none" stroke="black" stroke-width="1" stroke-linecap="round" opacity="0.5"/><path d="M20.5,11.5H21.5V11.5" fill="none" stroke="black" stroke-width="1" stroke-linecap="round" opacity="0.5"/><path d="M6.5,12.5H7.5V12.5" fill="none" stroke="black" stroke-width="1" stroke-linecap="round" opacity="0.5"/><path d="M9.5,12.5H10.5V12.5" fill="none" stroke="black" stroke-width="1" stroke-linecap="round" opacity="0.5"/><path d="M14.5,12.5H15.5V12.5" fill="none" stroke="black" stroke-width="1" stroke-linecap="round" opacity="0.5"/><path d="M25.5,12.5H26.5V12.5" fill="none" stroke="black" stroke-width="1" stroke-linecap="round" opacity="0.5"/><path d="M8.5,13.5H9.5V13.5" fill="none" stroke="black" stroke-width="1" stroke-linecap="round" opacity="0.5"/><path d="M15.5,13.5H20.5V13.5" fill="none" stroke="black" stroke-width="1" stroke-linecap="round" opacity="0.5"/><path d="M22.5,13.5H24.5V13.5" fill="none" stroke="black" stroke-width="1" stroke-linecap="round" opacity="0.5"/><path d="M3.5,14.5H7.5V14.5" fill="none" stroke="black" stroke-width="1" stroke-linecap="round" opacity="0.5"/><path d="M9.5,14.5H12.5V14.5" fill="none" stroke="black" stroke-width="1" stroke-linecap="round" opacity="0.5"/><path d="M25.5,14.5H26.5V14.5" fill="none" stroke="black" stroke-width="1" stroke-linecap="round" opacity="0.5"/><path d="M0.5,15.5H4.5V15.5" fill="none" stroke="black" stroke-width="1" stroke-linecap="round" opacity="0.5"/><path d="M20.5,15.5H23.5V15.5" fill="none" stroke="black" stroke-width="1" stroke-linecap="round" opacity="0.5"/><path d="M10.5,16.5H11.5V16.5" fill="none" stroke="black" stroke-width="1" stroke-linecap="round" opacity="0.5"/><path d="M25.5,16.5H26.5V16.5" fill="none" stroke="black" stroke-width="1" stroke-linecap="round" opacity="0.5"/><path d="M0.5,17.5H4.5V17.5" fill="none" stroke="black" stroke-width="1" stroke-linecap="round" opacity="0.5"/><path d="M12.5,17.5H15.5V17.5" fill="none" stroke="black" stroke-width="1" stroke-linecap="round" opacity="0.5"/><path d="M20.5,17.5H24.5V17.5" fill="none" stroke="black" stroke-width="1" stroke-linecap="round" opacity="0.5"/><path d="M4.5,18.5H7.5V18.5" fill="none" stroke="black" stroke-width="1" stroke-linecap="round" opacity="0.5"/><path d="M13.5,18.5H17.5V18.5" fill="none" stroke="black" stroke-width="1" stroke-linecap="round" opacity="0.5"/><path d="M22.5,18.5H24.5V18.5" fill="none" stroke="black" stroke-width="1" stroke-linecap="round" opacity="0.5"/><path d="M2.5,19.5H3.5V19.5" fill="none" stroke="black" stroke-width="1" stroke-linecap="round" opacity="0.5"/><path d="M12.5,19.5H13.5V19.5" fill="none" stroke="black" stroke-width="1" stroke-linecap="round" opacity="0.5"/><path d="M18.5,19.5H22.5V19.5" fill="none" stroke="black" stroke-width="1" stroke-linecap="round" opacity="0.5"/><path d="M2.5,20.5H4.5V20.5" fill="none" stroke="black" stroke-width="1" stroke-linecap="round" opacity="0.5"/><path d="M6.5,20.5H7.5V20.5" fill="none" stroke="black" stroke-width="1" stroke-linecap="round" opacity="0.5"/><path d="M9.5,20.5H10.5V20.5" fill="none" stroke="black" stroke-width="1" stroke-linecap="round" opacity="0.5"/><path d="M14.5,20.5H15.5V20.5" fill="none" stroke="black" stroke-width="1" stroke-linecap="round" opacity="0.5"/><path d="M19.5,20.5H24.5V20.5" fill="none" stroke="black" stroke-width="1" stroke-linecap="round" opacity="0.5"/><path d="M26.5,20.5H28.5V20.5" fill="none" stroke="black" stroke-width="1" stroke-linecap="round" opacity="0.5"/><path d="M15.5,21.5H16.5V21.5" fill="none" stroke="black" stroke-width="1" stroke-linecap="round" opacity="0.5"/><path d="M24.5,21.5H28.5V21.5" fill="none" stroke="black" stroke-width="1" stroke-linecap="round" opacity="0.5"/><path d="M0.5,22.5H6.5V22.5" fill="none" stroke="black" stroke-width="1" stroke-linecap="round" opacity="0.5"/><path d="M8.5,22.5H12.5V22.5" fill="none" stroke="black" stroke-width="1" stroke-linecap="round" opacity="0.5"/><path d="M18.5,22.5H20.5V22.5" fill="none" stroke="black" stroke-width="1" stroke-linecap="round" opacity="0.5"/><path d="M24.5,22.5H26.5V22.5" fill="none" stroke="black" stroke-width="1" stroke-linecap="round" opacity="0.5"/><path d="M10.5,23.5H11.5V23.5" fill="none" stroke="black" stroke-width="1" stroke-linecap="round" opacity="0.5"/><path d="M27.5,23.5H28.5V23.5" fill="none" stroke="black" stroke-width="1" stroke-linecap="round" opacity="0.5"/><path d="M2.5,24.5H4.5V24.5" fill="none" stroke="black" stroke-width="1" stroke-linecap="round" opacity="0.5"/><path d="M20.5,24.5H24.5V24.5" fill="none" stroke="black" stroke-width="1" stroke-linecap="round" opacity="0.5"/><path d="M2.5,25.5H4.5V25.5" fill="none" stroke="black" stroke-width="1" stroke-linecap="round" opacity="0.5"/><path d="M8.5,25.5H9.5V25.5" fill="none" stroke="black" stroke-width="1" stroke-linecap="round" opacity="0.5"/><path d="M12.5,25.5H15.5V25.5" fill="none" stroke="black" stroke-width="1" stroke-linecap="round" opacity="0.5"/><path d="M18.5,25.5H19.5V25.5" fill="none" stroke="black" stroke-width="1" stroke-linecap="round" opacity="0.5"/><path d="M25.5,25.5H26.5V25.5" fill="none" stroke="black" stroke-width="1" stroke-linecap="round" opacity="0.5"/><path d="M2.5,26.5H4.5V26.5" fill="none" stroke="black" stroke-width="1" stroke-linecap="round" opacity="0.5"/><path d="M8.5,26.5H9.5V26.5" fill="none" stroke="black" stroke-width="1" stroke-linecap="round" opacity="0.5"/><path d="M13.5,26.5H19.5V26.5" fill="none" stroke="black" stroke-width="1" stroke-linecap="round" opacity="0.5"/><path d="M21.5,26.5H27.5V26.5" fill="none" stroke="black" stroke-width="1" stroke-linecap="round" opacity="0.5"/><path d="M12.5,27.5H13.5V27.5" fill="none" stroke="black" stroke-width="1" stroke-linecap="round" opacity="0.5"/><path d="M15.5,27.5H16.5V27.5" fill="none" stroke="black" stroke-width="1" stroke-linecap="round" opacity="0.5"/><path d="M24.5,27.5H25.5V27.5" fill="none" stroke="black" stroke-width="1" stroke-linecap="round" opacity="0.5"/><path d="M0.5,28.5H6.5V28.5" fill="none" stroke="black" stroke-width="1" stroke-linecap="round" opacity="0.5"/><path d="M8.5,28.5H10.5V28.5" fill="none" stroke="black" stroke-width="1" stroke-linecap="round" opacity="0.5"/><path d="M14.5,28.5H15.5V28.5" fill="none" stroke="black" stroke-width="1" stroke-linecap="round" opacity="0.5"/><path d="M0.5,0.5H0.5V6.5" fill="none" stroke="black" stroke-width="1" stroke-linecap="round" opacity="0.5"/><path d="M0.5,11.5H0.5V13.5" fill="none" stroke="black" stroke-width="1" stroke-linecap="round" opacity="0.5"/><path d="M0.5,17.5H0.5V20.5" fill="none" stroke="black" stroke-width="1" stroke-linecap="round" opacity="0.5"/><path d="M0.5,22.5H0.5V28.5" fill="none" stroke="black" stroke-width="1" stroke-linecap="round" opacity="0.5"/><path d="M1.5,8.5H1.5V9.5" fill="none" stroke="black" stroke-width="1" stroke-linecap="round" opacity="0.5"/><path d="M2.5,2.5H2.5V4.5" fill="none" stroke="black" stroke-width="1" stroke-linecap="round" opacity="0.5"/><path d="M2.5,15.5H2.5V17.5" fill="none" stroke="black" stroke-width="1" stroke-linecap="round" opacity="0.5"/><path d="M2.5,19.5H2.5V20.5" fill="none" stroke="black" stroke-width="1" stroke-linecap="round" opacity="0.5"/><path d="M2.5,24.5H2.5V26.5" fill="none" stroke="black" stroke-width="1" stroke-linecap="round" opacity="0.5"/><path d="M3.5,2.5H3.5V4.5" fill="none" stroke="black" stroke-width="1" stroke-linecap="round" opacity="0.5"/><path d="M3.5,10.5H3.5V11.5" fill="none" stroke="black" stroke-width="1" stroke-linecap="round" opacity="0.5"/><path d="M3.5,14.5H3.5V15.5" fill="none" stroke="black" stroke-width="1" stroke-linecap="round" opacity="0.5"/><path d="M3.5,19.5H3.5V20.5" fill="none" stroke="black" stroke-width="1" stroke-linecap="round" opacity="0.5"/><path d="M3.5,24.5H3.5V26.5" fill="none" stroke="black" stroke-width="1" stroke-linecap="round" opacity="0.5"/><path d="M4.5,2.5H4.5V4.5" fill="none" stroke="black" stroke-width="1" stroke-linecap="round" opacity="0.5"/><path d="M4.5,8.5H4.5V10.5" fill="none" stroke="black" stroke-width="1" stroke-linecap="round" opacity="0.5"/><path d="M4.5,13.5H4.5V18.5" fill="none" stroke="black" stroke-width="1" stroke-linecap="round" opacity="0.5"/><path d="M4.5,24.5H4.5V26.5" fill="none" stroke="black" stroke-width="1" stroke-linecap="round" opacity="0.5"/><path d="M6.5,0.5H6.5V6.5" fill="none" stroke="black" stroke-width="1" stroke-linecap="round" opacity="0.5"/><path d="M6.5,22.5H6.5V28.5" fill="none" stroke="black" stroke-width="1" stroke-linecap="round" opacity="0.5"/><path d="M7.5,11.5H7.5V12.5" fill="none" stroke="black" stroke-width="1" stroke-linecap="round" opacity="0.5"/><path d="M7.5,14.5H7.5V15.5" fill="none" stroke="black" stroke-width="1" stroke-linecap="round" opacity="0.5"/><path d="M8.5,5.5H8.5V6.5" fill="none" stroke="black" stroke-width="1" stroke-linecap="round" opacity="0.5"/><path d="M8.5,8.5H8.5V11.5" fill="none" stroke="black" stroke-width="1" stroke-linecap="round" opacity="0.5"/><path d="M8.5,21.5H8.5V22.5" fill="none" stroke="black" stroke-width="1" stroke-linecap="round" opacity="0.5"/><path d="M8.5,24.5H8.5V28.5" fill="none" stroke="black" stroke-width="1" stroke-linecap="round" opacity="0.5"/><path d="M9.5,3.5H9.5V5.5" fill="none" stroke="black" stroke-width="1" stroke-linecap="round" opacity="0.5"/><path d="M9.5,7.5H9.5V8.5" fill="none" stroke="black" stroke-width="1" stroke-linecap="round" opacity="0.5"/><path d="M9.5,12.5H9.5V14.5" fill="none" stroke="black" stroke-width="1" stroke-linecap="round" opacity="0.5"/><path d="M9.5,25.5H9.5V26.5" fill="none" stroke="black" stroke-width="1" stroke-linecap="round" opacity="0.5"/><path d="M10.5,0.5H10.5V1.5" fill="none" stroke="black" stroke-width="1" stroke-linecap="round" opacity="0.5"/><path d="M10.5,6.5H10.5V7.5" fill="none" stroke="black" stroke-width="1" stroke-linecap="round" opacity="0.5"/><path d="M10.5,9.5H10.5V10.5" fill="none" stroke="black" stroke-width="1" stroke-linecap="round" opacity="0.5"/><path d="M10.5,20.5H10.5V23.5" fill="none" stroke="black" stroke-width="1" stroke-linecap="round" opacity="0.5"/><path d="M11.5,7.5H11.5V8.5" fill="none" stroke="black" stroke-width="1" stroke-linecap="round" opacity="0.5"/><path d="M11.5,14.5H11.5V16.5" fill="none" stroke="black" stroke-width="1" stroke-linecap="round" opacity="0.5"/><path d="M11.5,22.5H11.5V24.5" fill="none" stroke="black" stroke-width="1" stroke-linecap="round" opacity="0.5"/><path d="M12.5,2.5H12.5V3.5" fill="none" stroke="black" stroke-width="1" stroke-linecap="round" opacity="0.5"/><path d="M12.5,5.5H12.5V6.5" fill="none" stroke="black" stroke-width="1" stroke-linecap="round" opacity="0.5"/><path d="M12.5,11.5H12.5V12.5" fill="none" stroke="black" stroke-width="1" stroke-linecap="round" opacity="0.5"/><path d="M12.5,19.5H12.5V20.5" fill="none" stroke="black" stroke-width="1" stroke-linecap="round" opacity="0.5"/><path d="M12.5,27.5H12.5V28.5" fill="none" stroke="black" stroke-width="1" stroke-linecap="round" opacity="0.5"/><path d="M13.5,0.5H13.5V2.5" fill="none" stroke="black" stroke-width="1" stroke-linecap="round" opacity="0.5"/><path d="M13.5,9.5H13.5V11.5" fill="none" stroke="black" stroke-width="1" stroke-linecap="round" opacity="0.5"/><path d="M13.5,17.5H13.5V19.5" fill="none" stroke="black" stroke-width="1" stroke-linecap="round" opacity="0.5"/><path d="M13.5,25.5H13.5V27.5" fill="none" stroke="black" stroke-width="1" stroke-linecap="round" opacity="0.5"/><path d="M14.5,0.5H14.5V1.5" fill="none" stroke="black" stroke-width="1" stroke-linecap="round" opacity="0.5"/><path d="M14.5,6.5H14.5V7.5" fill="none" stroke="black" stroke-width="1" stroke-linecap="round" opacity="0.5"/><path d="M14.5,9.5H14.5V10.5" fill="none" stroke="black" stroke-width="1" stroke-linecap="round" opacity="0.5"/><path d="M14.5,17.5H14.5V18.5" fill="none" stroke="black" stroke-width="1" stroke-linecap="round" opacity="0.5"/><path d="M14.5,25.5H14.5V26.5" fill="none" stroke="black" stroke-width="1" stroke-linecap="round" opacity="0.5"/><path d="M15.5,0.5H15.5V4.5" fill="none" stroke="black" stroke-width="1" stroke-linecap="round" opacity="0.5"/><path d="M15.5,9.5H15.5V13.5" fill="none" stroke="black" stroke-width="1" stroke-linecap="round" opacity="0.5"/><path d="M15.5,17.5H15.5V21.5" fill="none" stroke="black" stroke-width="1" stroke-linecap="round" opacity="0.5"/><path d="M15.5,25.5H15.5V28.5" fill="none" stroke="black" stroke-width="1" stroke-linecap="round" opacity="0.5"/><path d="M16.5,6.5H16.5V8.5" fill="none" stroke="black" stroke-width="1" stroke-linecap="round" opacity="0.5"/><path d="M16.5,15.5H16.5V16.5" fill="none" stroke="black" stroke-width="1" stroke-linecap="round" opacity="0.5"/><path d="M16.5,26.5H16.5V27.5" fill="none" stroke="black" stroke-width="1" stroke-linecap="round" opacity="0.5"/><path d="M17.5,8.5H17.5V10.5" fill="none" stroke="black" stroke-width="1" stroke-linecap="round" opacity="0.5"/><path d="M17.5,12.5H17.5V14.5" fill="none" stroke="black" stroke-width="1" stroke-linecap="round" opacity="0.5"/><path d="M18.5,6.5H18.5V7.5" fill="none" stroke="black" stroke-width="1" stroke-linecap="round" opacity="0.5"/><path d="M18.5,21.5H18.5V22.5" fill="none" stroke="black" stroke-width="1" stroke-linecap="round" opacity="0.5"/><path d="M18.5,25.5H18.5V26.5" fill="none" stroke="black" stroke-width="1" stroke-linecap="round" opacity="0.5"/><path d="M19.5,3.5H19.5V4.5" fill="none" stroke="black" stroke-width="1" stroke-linecap="round" opacity="0.5"/><path d="M19.5,19.5H19.5V20.5" fill="none" stroke="black" stroke-width="1" stroke-linecap="round" opacity="0.5"/><path d="M19.5,25.5H19.5V26.5" fill="none" stroke="black" stroke-width="1" stroke-linecap="round" opacity="0.5"/><path d="M20.5,0.5H20.5V1.5" fill="none" stroke="black" stroke-width="1" stroke-linecap="round" opacity="0.5"/><path d="M20.5,4.5H20.5V11.5" fill="none" stroke="black" stroke-width="1" stroke-linecap="round" opacity="0.5"/><path d="M20.5,17.5H20.5V24.5" fill="none" stroke="black" stroke-width="1" stroke-linecap="round" opacity="0.5"/><path d="M21.5,14.5H21.5V17.5" fill="none" stroke="black" stroke-width="1" stroke-linecap="round" opacity="0.5"/><path d="M21.5,19.5H21.5V20.5" fill="none" stroke="black" stroke-width="1" stroke-linecap="round" opacity="0.5"/><path d="M22.5,0.5H22.5V6.5" fill="none" stroke="black" stroke-width="1" stroke-linecap="round" opacity="0.5"/><path d="M22.5,17.5H22.5V20.5" fill="none" stroke="black" stroke-width="1" stroke-linecap="round" opacity="0.5"/><path d="M23.5,8.5H23.5V10.5" fill="none" stroke="black" stroke-width="1" stroke-linecap="round" opacity="0.5"/><path d="M23.5,17.5H23.5V18.5" fill="none" stroke="black" stroke-width="1" stroke-linecap="round" opacity="0.5"/><path d="M24.5,2.5H24.5V4.5" fill="none" stroke="black" stroke-width="1" stroke-linecap="round" opacity="0.5"/><path d="M24.5,17.5H24.5V18.5" fill="none" stroke="black" stroke-width="1" stroke-linecap="round" opacity="0.5"/><path d="M24.5,20.5H24.5V24.5" fill="none" stroke="black" stroke-width="1" stroke-linecap="round" opacity="0.5"/><path d="M24.5,26.5H24.5V27.5" fill="none" stroke="black" stroke-width="1" stroke-linecap="round" opacity="0.5"/><path d="M25.5,2.5H25.5V4.5" fill="none" stroke="black" stroke-width="1" stroke-linecap="round" opacity="0.5"/><path d="M25.5,11.5H25.5V12.5" fill="none" stroke="black" stroke-width="1" stroke-linecap="round" opacity="0.5"/><path d="M25.5,21.5H25.5V22.5" fill="none" stroke="black" stroke-width="1" stroke-linecap="round" opacity="0.5"/><path d="M25.5,25.5H25.5V27.5" fill="none" stroke="black" stroke-width="1" stroke-linecap="round" opacity="0.5"/><path d="M26.5,2.5H26.5V4.5" fill="none" stroke="black" stroke-width="1" stroke-linecap="round" opacity="0.5"/><path d="M26.5,16.5H26.5V18.5" fill="none" stroke="black" stroke-width="1" stroke-linecap="round" opacity="0.5"/><path d="M26.5,20.5H26.5V22.5" fill="none" stroke="black" stroke-width="1" stroke-linecap="round" opacity="0.5"/><path d="M26.5,24.5H26.5V26.5" fill="none" stroke="black" stroke-width="1" stroke-linecap="round" opacity="0.5"/><path d="M27.5,19.5H27.5V21.5" fill="none" stroke="black" stroke-width="1" stroke-linecap="round" opacity="0.5"/><path d="M27.5,26.5H27.5V27.5" fill="none" stroke="black" stroke-width="1" stroke-linecap="round" opacity="0.5"/><path d="M28.5,0.5H28.5V6.5" fill="none" stroke="black" stroke-width="1" stroke-linecap="round" opacity="0.5"/><path d="M28.5,20.5H28.5V21.5" fill="none" stroke="black" stroke-width="1" stroke-linecap="round" opacity="0.5"/><path d="M28.5,23.5H28.5V24.5" fill="none" stroke="black" stroke-width="1" stroke-linecap="round" opacity="0.5"/><path d="M8.5,1.5H8.5V1.4" fill="none" stroke="black" stroke-width="1" stroke-linecap="round" opacity="0.5"/><path d="M17.5,3.5H17.5V3.4" fill="none" stroke="black" stroke-width="1" stroke-linecap="round" opacity="0.5"/><path d="M25.5,8.5H25.5V8.4" fill="none" stroke="black" stroke-width="1" stroke-linecap="round" opacity="0.5"/><path d="M27.5,8.5H27.5V8.4" fill="none" stroke="black" stroke-width="1" stroke-linecap="round" opacity="0.5"/><path d="M28.5,9.5H28.5V9.4" fill="none" stroke="black" stroke-width="1" stroke-linecap="round" opacity="0.5"/><path d="M6.5,10.5H6.5V10.4" fill="none" stroke="black" stroke-width="1" stroke-linecap="round" opacity="0.5"/><path d="M27.5,11.5H27.5V11.4" fill="none" stroke="black" stroke-width="1" stroke-linecap="round" opacity="0.5"/><path d="M28.5,13.5H28.5V13.4" fill="none" stroke="black" stroke-width="1" stroke-linecap="round" opacity="0.5"/><path d="M14.5,15.5H14.5V15.4" fill="none" stroke="black" stroke-width="1" stroke-linecap="round" opacity="0.5"/><path d="M18.5,15.5H18.5V15.4" fill="none" stroke="black" stroke-width="1" stroke-linecap="round" opacity="0.5"/><path d="M27.5,15.5H27.5V15.4" fill="none" stroke="black" stroke-width="1" stroke-linecap="round" opacity="0.5"/><path d="M6.5,16.5H6.5V16.4" fill="none" stroke="black" stroke-width="1" stroke-linecap="round" opacity="0.5"/><path d="M8.5,16.5H8.5V16.4" fill="none" stroke="black" stroke-width="1" stroke-linecap="round" opacity="0.5"/><path d="M19.5,16.5H19.5V16.4" fill="none" stroke="black" stroke-width="1" stroke-linecap="round" opacity="0.5"/><path d="M9.5,17.5H9.5V17.4" fill="none" stroke="black" stroke-width="1" stroke-linecap="round" opacity="0.5"/><path d="M18.5,17.5H18.5V17.4" fill="none" stroke="black" stroke-width="1" stroke-linecap="round" opacity="0.5"/><path d="M28.5,17.5H28.5V17.4" fill="none" stroke="black" stroke-width="1" stroke-linecap="round" opacity="0.5"/><path d="M17.5,20.5H17.5V20.4" fill="none" stroke="black" stroke-width="1" stroke-linecap="round" opacity="0.5"/><path d="M22.5,22.5H22.5V22.4" fill="none" stroke="black" stroke-width="1" stroke-linecap="round" opacity="0.5"/><path d="M14.5,23.5H14.5V23.4" fill="none" stroke="black" stroke-width="1" stroke-linecap="round" opacity="0.5"/><path d="M16.5,23.5H16.5V23.4" fill="none" stroke="black" stroke-width="1" stroke-linecap="round" opacity="0.5"/><path d="M17.5,24.5H17.5V24.4" fill="none" stroke="black" stroke-width="1" stroke-linecap="round" opacity="0.5"/><path d="M20.5,27.5H20.5V27.4" fill="none" stroke="black" stroke-width="1" stroke-linecap="round" opacity="0.5"/><path d="M17.5,28.5H17.5V28.4" fill="none" stroke="black" stroke-width="1" stroke-linecap="round" opacity="0.5"/><path d="M19.5,28.5H19.5V28.4" fill="none" stroke="black" stroke-width="1" stroke-linecap="round" opacity="0.5"/><path d="M23.5,28.5H23.5V28.4" fill="none" stroke="black" stroke-width="1" stroke-linecap="round" opacity="0.5"/><path d="M26.5,28.5H26.5V28.4" fill="none" stroke="black" stroke-width="1" stroke-linecap="round" opacity="0.5"/>
        </svg>