<?xml version="1.0" encoding="utf-8" ?>
<svg xmlns="http://www.w3.org/2000/svg" xmlns:cc="http://creativecommons.org/ns" xmlns:dc="http://purl.org/dc/elements/1.1/" xmlns:ev="http://www.w3.org/2001/xml-events" xmlns:inkscape="http://www.inkscape.org/namespaces/inkscape" xmlns:rdf="http://www.w3.org/1999/02/22-rdf-syntax-ns" xmlns:sodipodi="http://sodipodi.sourceforge.net/DTD/sodipodi-0.dtd" xmlns:xlink="http://www.w3.org/1999/xlink" baseProfile="tiny" height="5.08cm" version="1.2" viewBox="0 0 312.0 192.0" width="8.255cm">
  <metadata>
    <rdf:RDF>
      <cc:Work>
        <dc:format>image/svg+xml</dc:format>
        <dc:source>vpype eval 'file_in='&quot;'&quot;'C:/Users/ericl/Downloads/QR_Back_seed_331580_colors_10_scale_1.svg'&quot;'&quot;'' eval 'file_out='&quot;'&quot;'C:/Users/ericl/Downloads/QR_Back_seed_331580_colors_10_scale_1_P.svg'&quot;'&quot;'' read -a stroke --no-crop %file_in% layout -l 3.25x2.0in rotate 0 linemerge linesort reloop linesimplify write C:/Users/ericl/Downloads/ppp_temp/QR_Back_seed_331580_colors_10_scale_1_P.svg show
</dc:source>
        <dc:date>2026-03-23T21:23:16.279669</dc:date>
      </cc:Work>
    </rdf:RDF>
  </metadata>
  <defs/>
  <g fill="none" id="layer1" inkscape:groupmode="layer" inkscape:label="1" stroke="#000000" stroke-width="2.7586" style="display:inline">
    <polygon points="13.6481,42.09 13.5102,25.5383 30.1999,25.5383 30.1999,42.09"/>
    <polygon points="19.0275,36.5728 19.0275,31.0555 24.6826,31.0555 24.6826,36.5728"/>
    <line x1="19.0275" x2="24.5447" y1="33.8142" y2="33.8142"/>
    <line x1="21.924" x2="21.7861" y1="36.5728" y2="31.0555"/>
    <line x1="35.5792" x2="41.0964" y1="33.8142" y2="33.8142"/>
    <polyline points="38.3378,33.8142 38.4757,39.3314 35.5792,39.3314 35.7171,42.09"/>
    <line x1="41.0964" x2="41.2343" y1="42.09" y2="44.8486"/>
    <polyline points="43.993,47.6073 43.993,44.8486 38.3378,44.8486 38.4757,47.6073 30.0619,47.6073"/>
    <line x1="30.1999" x2="30.0619" y1="52.8486" y2="53.1245"/>
    <polyline points="30.0619,58.6417 32.9585,58.6417 32.8206,55.8831 35.7171,55.8831 35.5792,47.6073"/>
    <line x1="41.0964" x2="41.2343" y1="50.3659" y2="53.1245"/>
    <polyline points="41.0964,58.6417 38.3378,58.6417 38.3378,64.159 46.6137,64.159"/>
    <polyline points="43.855,64.159 43.993,69.6762 41.0964,69.6762"/>
    <line x1="38.4757" x2="38.3378" y1="72.159" y2="72.4348"/>
    <line x1="35.5792" x2="35.7171" y1="69.6762" y2="69.4004"/>
    <polyline points="32.9585,66.9176 32.9585,64.159 21.7861,64.159 21.924,66.9176"/>
    <line x1="24.5447" x2="13.5102" y1="66.9176" y2="66.9176"/>
    <line x1="19.0275" x2="19.1654" y1="66.9176" y2="72.4348"/>
    <polyline points="24.5447,72.4348 13.5102,72.4348 13.6481,80.7107"/>
    <polygon points="13.6481,86.2279 30.1999,86.2279 30.1999,102.7797 13.5102,102.7797"/>
    <polygon points="19.0275,91.7452 24.6826,91.7452 24.6826,97.2624 19.0275,97.2624"/>
    <line x1="19.0275" x2="24.5447" y1="94.5038" y2="94.5038"/>
    <line x1="21.924" x2="21.7861" y1="97.2624" y2="91.7452"/>
    <polyline points="21.924,80.7107 21.924,77.9521 19.0275,77.9521 19.0275,80.7107 24.5447,80.7107"/>
    <line x1="30.0619" x2="32.8206" y1="80.7107" y2="80.7107"/>
    <polyline points="35.5792,83.4693 35.5792,86.2279 46.6137,86.2279"/>
    <line x1="43.855" x2="43.993" y1="86.2279" y2="91.7452"/>
    <polyline points="43.855,88.9866 41.0964,88.9866 41.2343,80.7107 38.3378,80.7107"/>
    <polyline points="32.8206,75.1935 24.5447,75.1935 24.5447,61.4004"/>
    <line x1="21.924" x2="21.7861" y1="55.8831" y2="53.1245"/>
    <polyline points="19.0275,53.1245 24.6826,53.1245 24.6826,47.6073 13.5102,47.6073"/>
    <line x1="16.2688" x2="16.4068" y1="47.6073" y2="50.3659"/>
    <polyline points="16.2688,55.8831 13.5102,55.8831 13.6481,61.4004"/>
    <line x1="30.0619" x2="30.1999" y1="69.6762" y2="69.4004"/>
    <line x1="35.5792" x2="38.3378" y1="61.4004" y2="61.4004"/>
    <polyline points="46.7516,58.6417 46.6137,55.8831 49.5102,55.8831 49.3723,50.3659"/>
    <polyline points="46.6137,50.3659 55.0275,50.3659 54.8895,61.4004 68.6826,61.4004"/>
    <line x1="71.4412" x2="71.5792" y1="64.159" y2="72.4348"/>
    <line x1="74.1999" x2="74.3378" y1="72.4348" y2="80.7107"/>
    <line x1="71.5792" x2="71.4412" y1="80.7107" y2="77.9521"/>
    <line x1="74.1999" x2="63.1654" y1="77.9521" y2="77.9521"/>
    <polyline points="65.924,77.9521 65.924,80.7107 79.855,80.7107 79.855,91.7452 68.6826,91.7452 68.6826,72.4348 79.855,72.4348 79.855,75.1935 74.1999,75.1935"/>
    <line x1="77.0964" x2="76.9585" y1="75.1935" y2="72.4348"/>
    <line x1="76.9585" x2="68.6826" y1="66.9176" y2="66.9176"/>
    <line x1="66.0619" x2="65.924" y1="69.4004" y2="69.6762"/>
    <line x1="63.3033" x2="63.1654" y1="72.159" y2="72.4348"/>
    <line x1="60.4068" x2="49.3723" y1="75.1935" y2="75.1935"/>
    <polyline points="49.3723,72.4348 49.5102,77.9521 46.6137,77.9521 46.7516,80.7107"/>
    <line x1="52.1309" x2="54.8895" y1="80.7107" y2="80.7107"/>
    <polyline points="57.6481,83.4693 54.8895,83.4693 55.0275,72.4348 46.6137,72.4348"/>
    <line x1="52.1309" x2="52.2688" y1="72.4348" y2="75.1935"/>
    <line x1="57.7861" x2="57.6481" y1="69.6762" y2="66.9176"/>
    <line x1="60.5447" x2="60.4068" y1="64.159" y2="58.6417"/>
    <line x1="54.8895" x2="52.1309" y1="58.6417" y2="58.6417"/>
    <line x1="52.2688" x2="52.1309" y1="53.1245" y2="50.3659"/>
    <polyline points="49.3723,53.1245 60.5447,53.1245 60.5447,47.6073 57.6481,47.6073 57.6481,42.09"/>
    <polyline points="63.1654,42.09 63.1654,44.8486 68.6826,44.8486"/>
    <line x1="68.6826" x2="71.4412" y1="47.6073" y2="47.6073"/>
    <line x1="74.1999" x2="79.7171" y1="50.3659" y2="50.3659"/>
    <line x1="77.0964" x2="76.9585" y1="53.1245" y2="47.6073"/>
    <line x1="82.4757" x2="82.6137" y1="47.6073" y2="47.3314"/>
    <line x1="87.993" x2="88.1309" y1="47.6073" y2="47.3314"/>
    <line x1="90.8895" x2="90.7516" y1="50.09" y2="50.3659"/>
    <line x1="88.1309" x2="87.993" y1="55.6073" y2="55.8831"/>
    <polyline points="85.2343,58.6417 82.4757,58.6417 82.4757,55.8831"/>
    <line x1="79.7171" x2="74.1999" y1="61.4004" y2="61.4004"/>
    <polyline points="71.4412,55.8831 68.6826,55.8831 68.8206,36.5728 65.924,36.5728 65.924,33.8142"/>
    <line x1="60.5447" x2="60.4068" y1="33.5383" y2="33.8142"/>
    <polyline points="57.6481,36.5728 54.8895,36.5728 55.0275,25.5383 46.6137,25.5383"/>
    <polyline points="49.3723,25.5383 49.5102,31.0555 46.6137,31.0555 46.7516,33.8142"/>
    <line x1="52.1309" x2="54.8895" y1="33.8142" y2="33.8142"/>
    <line x1="52.2688" x2="52.1309" y1="28.2969" y2="25.5383"/>
    <line x1="49.3723" x2="63.1654" y1="28.2969" y2="28.2969"/>
    <polyline points="65.924,25.5383 68.8206,25.5383 68.8206,28.2969"/>
    <polygon points="74.1999,25.5383 90.8895,25.5383 90.8895,42.09 74.1999,42.09"/>
    <polygon points="85.2343,36.5728 79.7171,36.5728 79.7171,31.0555 85.3723,31.0555"/>
    <line x1="79.7171" x2="85.2343" y1="33.8142" y2="33.8142"/>
    <line x1="82.6137" x2="82.4757" y1="36.5728" y2="31.0555"/>
    <line x1="68.6826" x2="60.4068" y1="50.3659" y2="50.3659"/>
    <line x1="52.2688" x2="52.1309" y1="44.8486" y2="42.09"/>
    <polyline points="46.7516,42.09 46.7516,39.3314 43.855,39.3314"/>
    <line x1="41.2343" x2="41.0964" y1="28.2969" y2="25.5383"/>
    <line x1="35.7171" x2="35.5792" y1="28.021" y2="28.2969"/>
    <line x1="52.2688" x2="52.1309" y1="66.6417" y2="66.9176"/>
    <line x1="63.1654" x2="63.3033" y1="66.9176" y2="66.6417"/>
    <line x1="60.5447" x2="60.4068" y1="80.4348" y2="80.7107"/>
    <polyline points="63.1654,83.4693 63.1654,86.2279 68.6826,86.2279"/>
    <line x1="74.1999" x2="74.3378" y1="86.2279" y2="85.9521"/>
    <polyline points="79.7171,86.2279 85.3723,86.2279 85.2343,80.7107 90.8895,80.7107 90.8895,83.4693 79.7171,83.4693"/>
    <line x1="82.4757" x2="82.6137" y1="83.4693" y2="86.2279"/>
    <polyline points="87.993,88.9866 90.8895,88.9866 90.8895,91.7452"/>
    <line x1="85.2343" x2="85.3723" y1="91.7452" y2="97.2624"/>
    <polyline points="85.2343,94.5038 82.4757,94.5038 82.6137,100.021 79.7171,100.021 79.7171,97.2624"/>
    <line x1="77.0964" x2="76.9585" y1="102.5038" y2="102.7797"/>
    <polyline points="71.4412,97.2624 88.1309,97.2624 88.1309,100.021"/>
    <line x1="85.3723" x2="85.2343" y1="102.5038" y2="102.7797"/>
    <line x1="68.8206" x2="68.6826" y1="99.7452" y2="100.021"/>
    <line x1="66.0619" x2="65.924" y1="102.5038" y2="102.7797"/>
    <line x1="60.5447" x2="60.4068" y1="102.5038" y2="102.7797"/>
    <polyline points="57.6481,97.2624 57.7861,100.021 54.8895,100.021"/>
    <line x1="52.2688" x2="52.1309" y1="97.2624" y2="94.5038"/>
    <polyline points="49.3723,94.5038 49.5102,100.021 46.6137,100.021 46.7516,102.7797"/>
    <polyline points="52.1309,102.7797 55.0275,102.7797 55.0275,94.5038 46.6137,94.5038"/>
    <polyline points="49.3723,97.2624 66.0619,97.2624 66.0619,94.5038 63.1654,94.5038 63.3033,97.2624"/>
    <line x1="60.4068" x2="60.5447" y1="91.7452" y2="91.4693"/>
    <line x1="57.6481" x2="57.7861" y1="88.9866" y2="88.7107"/>
    <line x1="52.2688" x2="52.1309" y1="88.7107" y2="88.9866"/>
    <polyline points="35.5792,91.7452 35.5792,102.7797 41.0964,102.7797"/>
    <polyline points="35.5792,97.2624 38.4757,97.2624 38.4757,94.5038 35.5792,94.5038"/>
    <polyline points="82.4757,69.6762 85.3723,69.6762 85.3723,75.1935"/>
    <line x1="87.993" x2="88.1309" y1="77.9521" y2="83.4693"/>
    <line x1="90.7516" x2="90.8895" y1="72.4348" y2="72.159"/>
    <line x1="87.993" x2="88.1309" y1="66.9176" y2="66.6417"/>
    <line x1="85.2343" x2="82.4757" y1="64.159" y2="64.159"/>
    <line x1="90.7516" x2="90.8895" y1="61.4004" y2="61.1245"/>
  </g>
  <g fill="none" id="layer2" inkscape:groupmode="layer" inkscape:label="2" stroke="#000000" stroke-width="1.1328" style="display:inline">
    <polygon points="122.0543,29.6436 124.7889,31.1785 126.6197,33.7721 127.1324,37.0216 126.3116,40.0005 124.5568,41.9719 122.2812,43.1405 119.8671,43.6213 115.1089,43.6814 115.1089,51.159 109.7959,51.159 109.7959,29.1199 119.0076,29.1264"/>
    <polygon points="118.5904,39.5794 120.3227,39.2363 121.394,38.2221 121.7539,36.6277 121.3292,34.7387 120.6271,33.8779 119.5423,33.333 115.1089,33.222 115.1089,39.5794"/>
    <polygon points="134.4408,40.3999 134.2266,41.3807 139.3731,41.3807 138.9856,39.379 137.7698,38.5216 135.8038,38.6345 134.9872,39.2965"/>
    <polygon points="154.5697,38.5071 152.7338,38.545 151.4219,39.5945 151.4219,51.159 146.3208,51.159 146.3208,34.781 151.104,34.781 151.2705,36.7034 153.2875,35.0346 155.9478,34.4783 157.6371,34.6805 158.9841,35.2869 159.972,36.2726 160.7291,37.9219 161.0791,40.6087 161.0791,51.159 155.9629,51.159 155.943,40.3505 155.4634,38.9966"/>
    <polygon points="134.4806,45.4272 135.7453,46.9796 137.3397,47.5043 139.7968,47.1759 141.5982,45.8309 143.9292,48.5857 142.3046,50.1028 140.1545,51.0797 137.8659,51.4539 134.9845,51.1817 132.8614,50.3417 131.0996,48.9448 129.8413,47.1331 129.1638,44.9839 129.0606,42.1186 129.5583,39.5028 130.6011,37.4296 132.0024,35.9859 134.0697,34.9043 136.9209,34.4783 139.4494,34.821 141.5128,35.8491 143.0131,37.4287 143.9257,39.361 144.306,41.2925 144.3682,44.5745 134.2266,44.5745"/>
    <polygon points="153.3251,78.1869 154.1049,78.5211 154.9423,79.3918 155.2256,80.5579 154.9423,81.724 154.1049,82.5947 153.3251,82.9289 151.9113,83.0125 150.6852,82.5947 149.6904,81.3668 149.596,80.1377 149.8479,79.3918 151.0564,78.3261"/>
    <polygon points="149.8672,101.159 149.8672,84.781 154.9834,84.781 154.9834,101.159"/>
    <polygon points="157.9587,89.5424 158.6992,87.7312 159.5808,86.4839 160.69,85.5152 162.1476,84.7983 163.8025,84.4911 165.5591,84.6067 167.0493,85.1771 168.2432,86.2039 168.4248,84.781 173.0567,84.781 173.0164,101.3815 172.2413,103.9748 170.518,105.9491 167.4418,107.3162 163.9214,107.5736 160.8178,106.7494 158.6465,105.1551 160.7808,102.158 161.9357,103.1578 163.3308,103.7132 165.0018,103.8204 166.5241,103.3941 167.6485,102.0619 167.9253,99.8421 166.4311,100.9798 164.2168,101.4617 161.8592,101.0405 159.9242,99.7769 158.6063,98.0034 157.7564,95.5512 157.5332,92.4023"/>
    <polygon points="162.6807,92.1917 162.8318,94.97 163.9713,97.0048 164.6777,97.3958 165.9718,97.5036 167.6909,96.7143 167.9253,96.4212 167.9253,89.534 167.4286,88.9853 165.9977,88.4367 164.3341,88.7185 163.2526,89.9167"/>
    <polygon points="180.0868,82.7897 177.8181,82.9289 176.4213,82.0498 176.0435,81.3668 175.949,80.1377 176.7046,78.7718 177.8181,78.1869 179.2319,78.1033 180.0868,78.3261 181.0749,79.066 181.5472,80.1377 181.4527,81.3668 181.0749,82.0498"/>
    <polygon points="176.2203,84.781 181.3365,84.781 181.3365,101.159 176.2203,101.159"/>
    <polygon points="190.7515,97.1023 191.4848,97.4253 193.3399,97.3748 193.3399,101.0227 190.8896,101.4528 188.3542,101.2053 186.5738,100.2205 185.6315,98.6576 185.33,96.9442 185.3174,88.323 183.2286,88.323 183.2286,84.781 185.3174,84.781 185.3174,80.7093 190.4185,80.7093 190.4185,84.781 193.1128,84.781 193.1128,88.323 190.4185,88.323 190.4185,95.8157"/>
    <polygon points="199.6939,97.0805 200.296,97.6372 201.1504,97.8289 202.3978,97.599 203.1115,97.136 203.6329,96.4969 203.6329,93.8782 201.1904,93.9739 200.1514,94.4761 199.512,95.8154"/>
    <polygon points="195.2679,87.6684 196.166,86.481 197.3836,85.5682 200.6458,84.5464 204.5493,84.804 205.9788,85.3829 207.1777,86.2698 208.0935,87.4782 208.6847,89.3435 208.7636,97.9386 209.4454,101.159 204.3443,101.159 203.8599,99.6907 201.991,101.0958 199.1052,101.4154 197.2588,100.8947 195.6811,99.7743 194.7741,98.4817 194.3692,96.5423 194.7108,94.5482 195.4761,93.2784 196.8934,92.1768 198.5625,91.5411 203.6329,91.1536 203.6329,90.2908 203.2471,88.7315 202.4516,88.1468 201.6802,88.0354 200.7905,88.1812 200.1974,88.6187 199.8638,89.8216 194.7627,89.8216"/>
    <polygon points="216.9532,77.909 216.9532,101.159 211.837,101.159 211.837,77.909"/>
    <polygon points="239.295,92.9397 236.9185,85.2957 234.5572,92.9397"/>
    <polygon points="239.4161,79.1199 247.5596,101.159 241.8531,101.159 240.5664,97.0418 233.2857,97.0418 232.0142,101.159 226.3379,101.159 234.4209,79.1199"/>
    <polygon points="254.0684,90.7903 254.0684,101.159 248.9673,101.159 248.9673,84.781 253.7505,84.781 253.917,86.8851 254.8875,85.548 256.0833,84.7457 257.5044,84.4783 258.9273,84.66 258.8365,89.3977 255.7435,89.4448 254.7142,89.9494"/>
    <polygon points="270.295,97.3748 270.295,101.0227 269.498,101.2378 266.9515,101.4515 264.9556,101.0924 263.5289,100.2205 262.7248,99.0217 262.2851,96.9442 262.2725,88.323 260.1836,88.323 260.1836,84.781 262.2725,84.781 262.2725,80.7093 267.3736,80.7093 267.3736,84.781 270.0679,84.781 270.0679,88.323 267.3736,88.323 267.3736,95.8157 267.5216,96.7979 268.0009,97.3042"/>
    <polygon points="247.2842,34.5164 250.3454,35.4302 252.4819,37.4287 253.6641,40.4849 253.837,44.5745 243.6954,44.5745 244.3479,46.1487 245.5673,47.1763 246.8085,47.5043 248.525,47.4001 249.9361,46.8396 251.0669,45.8309 253.398,48.5857 252.0932,49.8831 250.3438,50.8303 248.1187,51.3916 246.0677,51.4306 242.6591,50.5206 240.0844,48.3784 238.7938,45.7378 238.5293,42.1186 239.2857,38.8292 241.1567,36.2398 243.9128,34.7913"/>
    <polygon points="247.2386,38.5216 245.9671,38.4384 244.9703,38.8062 244.0616,39.9831 243.6954,41.3807 248.8418,41.3807 248.4543,39.379"/>
    <polygon points="231.5617,50.9591 230.2272,49.9594 229.4105,48.2679 229.2095,38.323 227.1206,38.323 227.1206,34.781 229.2095,34.781 229.2095,30.7093 234.3106,30.7093 234.3106,34.781 237.0049,34.781 237.0049,38.323 234.3106,38.323 234.3476,46.369 234.9379,47.3042 237.232,47.3748 237.232,51.0227 234.356,51.4617"/>
    <polygon points="222.8027,51.4207 220.3271,50.6308 219.0207,49.0217 218.581,46.9442 218.5684,38.323 216.4795,38.323 216.4795,34.781 218.5684,34.781 218.5684,30.7093 223.6695,30.7093 223.6695,34.781 226.3638,34.781 226.3638,38.323 223.6695,38.323 223.6695,45.8157 223.8175,46.7979 224.2968,47.3042 226.5909,47.3748 226.5909,51.0227"/>
    <polygon points="204.9194,44.9155 205.4903,46.4666 206.7416,47.4084 208.5776,47.3585 209.7428,46.3335 210.3159,44.3769 210.3294,41.7223 209.929,39.9996 208.8654,38.7271 207.9269,38.4334 206.8324,38.5038 205.4894,39.5154 204.8405,41.6511"/>
    <polygon points="213.3614,36.7564 214.8866,39.2642 215.4732,42.4993 215.1199,46.0221 213.5966,48.944 211.2047,50.7505 208.0425,51.4529 204.7984,51.0604 202.2488,49.6191 201.041,48.2239 200.3476,46.8961 199.6929,43.6814 200.064,39.9153 201.5275,37.0615 204.0412,35.1673 207.1315,34.4868 209.3057,34.6207 210.8525,35.0478"/>
    <polygon points="192.064,27.909 197.1802,27.909 197.1802,51.159 192.064,51.159"/>
    <polygon points="181.1452,39.5579 182.7144,39.0433 183.612,37.8765 183.7975,36.1993 183.2028,34.4369 181.6029,33.333 177.1695,33.222 177.1695,39.5794"/>
    <polygon points="187.1923,41.4884 185.3883,42.7198 183.1882,43.441 177.1695,43.6814 177.1695,51.159 171.8565,51.159 171.8565,29.1199 182.2714,29.2233 184.4593,29.7664 186.5394,30.9215 188.5202,33.4054 189.1925,36.1661 188.7005,39.3248"/>
    <polygon points="141.3379,93.6059 141.6644,91.5586 141.6644,88.7096 140.8156,85.3772 139.9321,84.2585 138.5928,83.4811 135.1089,83.222 135.1089,97.0721 137.8275,97.007 139.3169,96.4863 140.4673,95.4449"/>
    <polygon points="146.8774,93.0882 146.1726,95.3369 144.9473,97.4127 143.5617,98.8565 141.5559,100.1488 137.8528,101.1273 129.7959,101.159 129.7959,79.1199 138.9065,79.2889 141.4694,80.093 143.4853,81.3626 145.3608,83.4661 146.6725,86.3596 147.1036,89.1693"/>
    <polygon points="147.4815,151.5596 148.0533,152.9219 148.3873,155.1073 148.4034,166.159 143.2872,166.159 143.2072,154.933 142.5551,153.7868 140.9712,153.4139 139.6657,153.709 138.7461,154.5945 138.7461,166.159 133.6451,166.159 133.6451,149.781 138.4283,149.781 138.5948,151.7034 139.6685,150.6136 140.9524,149.887 142.4463,149.5237 144.1595,149.5289 146.0037,150.0974"/>
    <polygon points="123.1995,153.4363 122.227,153.7736 121.3192,154.8527 120.8556,156.6511 120.8291,159.0858 121.1102,160.6257 121.7615,161.7904 122.7567,162.4084 123.9609,162.5075 125.1298,162.0603 125.9199,161.0167 126.3311,159.3769 126.3445,156.7223 126.0817,155.3715 125.381,154.1186 124.2799,153.4922"/>
    <polygon points="118.264,164.6191 116.5132,162.2455 115.7365,159.124 115.9766,155.3034 117.2936,152.3825 119.3863,150.5076 122.3125,149.5549 125.7258,149.7008 128.527,150.9822 130.4397,153.2385 131.4297,156.6223 131.2307,160.6427 129.8399,163.6631 127.5621,165.5837 124.4941,166.4266 120.8136,166.0604"/>
    <polygon points="112.1274,161.369 112.7177,162.3042 115.0118,162.3748 115.0118,166.0227 112.5615,166.4528 110.026,166.2053 108.4855,165.4359 107.4416,164.0217 107.0019,161.9442 106.9893,153.323 104.9004,153.323 104.9004,149.781 106.9893,149.781 106.9893,145.7093 112.0904,145.7093 112.0904,149.781 114.7847,149.781 114.7847,153.323 112.0904,153.323"/>
    <polygon points="96.566,159.9353 93.09,158.9109 91.0352,157.5336 89.9571,155.4708 90.131,153.1199 91.4235,151.2112 93.7103,149.9018 96.6206,149.4783 99.9075,149.9577 101.5401,150.7443 102.7546,151.8161 103.5353,153.1892 103.7955,154.8064 98.6792,154.8064 98.1608,153.3306 96.6055,152.8387 95.6502,153.0371 94.9556,153.6073 94.7874,154.8233 95.6776,155.6662 100.5191,157.0167 102.5966,158.3478 103.2458,159.2257 103.7075,160.6163 103.6994,162.1932 103.3539,163.2706 102.1202,164.7912 100.5415,165.7435 98.3326,166.3468 95.7972,166.4314 93.8976,166.0909 92.0872,165.2924 90.5357,163.9632 89.6717,162.5055 89.3702,160.9065 94.1382,160.9065 94.4252,162.0481 95.202,162.752 96.7569,163.0862 98.0298,162.8478 98.7877,161.9829 98.7701,161.1521 98.1646,160.513"/>
    <polygon points="82.0137,166.159 82.0137,149.781 87.1299,149.781 87.1299,166.159"/>
    <polygon points="87.3406,145.9781 87.0888,146.724 86.2514,147.5947 84.0578,148.0125 83.2029,147.7897 82.2147,147.0498 81.8369,146.3668 81.7425,145.1377 81.9943,144.3918 82.8317,143.5211 85.0253,143.1033 85.8802,143.3261 86.8684,144.066 87.2462,144.749"/>
    <polygon points="66.3169,166.159 62.003,166.159 58.1431,149.781 63.0323,149.781 64.6519,159.6653 67.2554,149.781 70.8125,149.781 73.3858,159.4383 75.0357,149.781 79.9248,149.781 76.065,166.159 71.751,166.159 69.0415,156.4412"/>
    <polygon points="51.8069,154.379 50.5911,153.5216 48.6251,153.6345 47.5963,154.6153 47.0479,156.3807 52.1944,156.3807"/>
    <polygon points="57.0789,155.8829 57.1895,159.5745 47.0479,159.5745 47.954,161.4603 49.717,162.4387 52.2566,162.302 53.2886,161.8396 54.4195,160.8309 56.7505,163.5857 55.4457,164.8831 53.6963,165.8303 50.2872,166.4617 46.6994,165.8317 43.9209,163.9448 42.3722,161.4542 41.9286,159.5929 41.8625,157.5251 42.5025,154.1619 44.2119,151.5112 46.5277,150.0347 50.1959,149.4878 52.2707,149.821 53.698,150.4302 54.9186,151.3441 56.0211,152.7215"/>
    <polygon points="31.1089,162.0721 40.3575,162.0721 40.3575,166.159 25.7959,166.159 25.7959,144.1199 31.1089,144.1199"/>
    <polygon points="166.2041,144.1199 166.2041,148.222 156.774,148.222 156.774,153.2928 165.3414,153.2928 165.3414,157.3797 156.774,157.3797 156.774,166.159 151.461,166.159 151.461,144.1199"/>
    <polygon points="172.8424,162.6372 174.5691,162.7267 175.9581,161.8282 176.1792,161.4969 176.1792,158.8782 173.7368,158.9739 172.458,159.7392 172.0584,160.8154 172.0839,161.7046"/>
    <polygon points="167.7092,164.1568 167.0613,162.7491 166.9292,161.1073 167.2572,159.5482 168.2821,158.0062 169.7419,157.0255 171.4904,156.4503 176.1792,156.1536 175.9623,154.0378 175.5766,153.4809 174.6364,153.0633 173.0033,153.3635 172.5585,153.9467 172.4102,154.8216 167.3091,154.8216 167.6599,152.9962 168.4458,151.7592 170.9152,150.0914 174.042,149.4859 177.4764,149.9216 179.7241,151.2698 180.6398,152.4782 181.2311,154.3435 181.31,162.9386 181.9917,166.159 176.8907,166.159 176.4063,164.6907 174.5373,166.0958 171.6516,166.4154 169.4704,165.7211"/>
    <polygon points="187.9707,165.9017 185.5337,164.2215 183.931,161.3658 183.4827,157.357 184.232,153.7716 185.7814,151.4579 188.0208,150.0187 191.1192,149.4783 194.3393,150.0566 195.9151,151.0053 197.1093,152.3639 197.8275,154.0455 198.0669,156.0476 193.2837,156.0476 193.0603,154.7344 192.3263,153.797 190.9981,153.4139 189.9568,153.6414 189.2126,154.3239 188.6822,155.9417 188.8386,160.7686 189.7502,162.1829 191.0435,162.5262 192.7085,161.9434 193.2837,160.3162 198.0669,160.3162 197.6558,162.5969 196.137,164.7361 193.9289,166.0303 190.724,166.453"/>
    <polygon points="204.3886,150.0347 207.1627,149.487 210.1315,149.821 212.4936,151.0871 214.0548,153.0261 214.9397,155.8829 215.0503,159.5745 204.9087,159.5745 205.8148,161.4603 207.5778,162.4387 210.1174,162.302 211.1494,161.8396 212.2803,160.8309 214.6114,163.5857 212.2882,165.5023 208.9427,166.4305 205.2879,166.0806 202.6163,164.7117 200.5234,162.1331 199.7249,158.7827 199.8203,156.3302 200.2405,154.5028 201.7925,151.7999"/>
    <polygon points="208.4519,153.5216 207.1805,153.4384 206.1837,153.8062 205.275,154.9831 204.9087,156.3807 210.0552,156.3807 209.6677,154.379"/>
    <polygon points="219.3455,161.3255 221.5634,161.4681 222.784,162.5676 223.0407,163.3354 222.9444,164.5993 222.5594,165.3028 221.5634,166.0666 219.3455,166.2092 218.5717,165.8605 217.728,164.9571 217.4419,163.7674 217.728,162.5776 218.5717,161.6743"/>
    <polygon points="233.9031,162.4897 235.3184,161.6232 235.6363,160.3162 240.4195,160.3162 239.8599,162.9369 238.2082,164.9738 235.9206,166.1448 233.0765,166.453 230.3233,165.9017 228.1495,164.4928 226.6896,162.4252 225.9416,159.7862 226.0169,155.6672 227.1422,152.6967 228.1339,151.4579 229.3848,150.5 232.231,149.5543 235.1893,149.6229 237.6776,150.5716 239.4618,152.3639 240.3333,154.8079 240.4195,156.0476 235.6363,156.0476 235.2391,154.3911 234.2891,153.5841 232.9705,153.4391 231.7802,154.0458 231.2339,155.0317 230.9966,156.2868 231.1911,160.7686 232.1028,162.1829"/>
    <polygon points="242.3193,154.9153 243.0858,153.0776 244.0485,151.7583 246.6469,150.0227 250.2731,149.4872 251.966,149.7008 253.8081,150.3682 256.086,152.3151 257.4719,155.3921 257.6697,159.4389 256.6762,162.7548 254.7587,164.9778 251.9731,166.2422 248.5869,166.388 245.6929,165.4708 243.5079,163.5267 242.3478,161.1623 241.9331,157.8186"/>
    <polygon points="252.6149,158.8737 252.4346,155.7827 251.6213,154.1186 250.8329,153.5901 249.8194,153.4139 248.1987,153.9759 247.4019,155.2348 247.0494,157.2132 247.1748,159.9155 248.0017,161.7904 249.4044,162.4967 251.1133,162.228 252.1601,161.0167"/>
    <polygon points="266.5807,153.5238 265.1226,154.761 265.1226,166.159 260.0215,166.159 260.0215,149.781 264.8047,149.781 264.9712,151.7034 267.0109,150.0346 269.6485,149.4783 271.3674,149.7119 272.4065,150.1937 273.8414,151.9456 275.541,150.284 277.7855,149.5287 280.5911,149.763 282.5328,151.1182 283.3703,152.7695 283.7107,154.5006 283.771,166.159 278.6548,166.159 278.587,154.9245 277.9756,153.7374 276.6871,153.4139 275.5314,153.6613 274.4317,154.761 274.4468,166.159 269.3306,166.159 269.2652,154.9354 268.6712,153.7374 267.8917,153.4498"/>
    <polygon points="285.4014,47.2634 286.9573,47.5241 289.0596,46.9207 285.0938,42.41 284.3105,43.6285 284.0948,44.8924 284.3454,46.0985"/>
    <polygon points="281.2308,32.7081 281.9018,31.3294 282.9285,30.2014 285.5539,28.9575 288.8698,29.0032 290.344,29.6067 291.5836,30.6059 292.813,32.9243 292.7407,35.4679 291.4679,37.6706 288.6812,39.8973 292.0718,43.7874 292.7399,41.8392 292.9043,40.1394 297.188,40.1394 296.6734,44.162 295.1294,47.2991 298.4898,51.159 292.7984,51.159 291.7691,49.9935 288.3885,51.2915 284.8422,51.398 282.177,50.6003 280.3874,49.2046 279.1649,46.8613 279.1217,43.9829 280.2931,41.7631 282.8384,39.5491 281.058,35.9579 280.9432,34.3139"/>
    <polygon points="286.1836,32.9764 285.6084,33.5649 285.336,34.6902 285.5473,35.6818 286.4864,37.2635 288.2607,36.0088 288.8326,34.4632 288.6173,33.6155 288.0,32.9663 287.1524,32.7376"/>
    <polygon points="261.4148,40.1923 261.0269,40.7903 261.0269,51.159 255.9258,51.159 255.9258,34.781 260.709,34.781 260.8755,36.8851 261.846,35.548 263.0418,34.7457 264.4629,34.4783 265.8858,34.66 265.795,39.3977 263.1303,39.3514"/>
  </g>
</svg>
