<?xml version="1.0" encoding="utf-8" ?>
<svg xmlns="http://www.w3.org/2000/svg" xmlns:cc="http://creativecommons.org/ns" xmlns:dc="http://purl.org/dc/elements/1.1/" xmlns:ev="http://www.w3.org/2001/xml-events" xmlns:inkscape="http://www.inkscape.org/namespaces/inkscape" xmlns:rdf="http://www.w3.org/1999/02/22-rdf-syntax-ns" xmlns:sodipodi="http://sodipodi.sourceforge.net/DTD/sodipodi-0.dtd" xmlns:xlink="http://www.w3.org/1999/xlink" baseProfile="tiny" height="5.08cm" version="1.2" viewBox="0 0 336.0 192.0" width="8.89cm">
  <metadata>
    <rdf:RDF>
      <cc:Work>
        <dc:format>image/svg+xml</dc:format>
        <dc:source>vpype eval 'files_in=['&quot;'&quot;'C:/Users/lewi0/Desktop/lewi0622.github.io/plotter_projects/Business_Cards/QR_Back/QR_Back_Single.svg'&quot;'&quot;']' eval 'files_out=['&quot;'&quot;'C:/Users/lewi0/Desktop/lewi0622.github.io/plotter_projects/Business_Cards/QR_Back/QR_Back_Single_P.svg'&quot;'&quot;']' repeat 1 read -a stroke --no-crop '%files_in[_i]%' layout -l 3.5x2.0in rotate 0 linemerge -t 0.0019in linesort reloop linesimplify -t 0.0019in end write C:/Users/lewi0/Desktop/lewi0622.github.io/plotter_projects/Business_Cards/QR_Back/ppp_temp/QR_Back_Single_P.svg show
</dc:source>
        <dc:date>2025-06-20T12:27:06.291667</dc:date>
      </cc:Work>
    </rdf:RDF>
  </metadata>
  <defs/>
  <g fill="none" id="layer1" inkscape:groupmode="layer" inkscape:label="1" stroke="#000000" stroke-width="2.4138" style="display:inline">
    <polygon points="91.7969,73.9147 91.7969,59.4319 106.2797,59.4319 106.2797,73.9147"/>
    <polygon points="101.4521,64.2595 101.4521,69.0871 96.6245,69.0871 96.6245,64.2595"/>
    <line x1="96.6245" x2="101.4521" y1="66.6733" y2="66.6733"/>
    <line x1="99.0383" x2="99.0383" y1="64.2595" y2="69.0871"/>
    <line x1="94.2107" x2="94.2107" y1="78.7422" y2="81.156"/>
    <polyline points="91.7969,78.7422 101.4521,78.7422 101.4521,83.5698 96.6245,83.5698"/>
    <line x1="99.0383" x2="99.0383" y1="83.5698" y2="85.9836"/>
    <polyline points="94.2107,85.9836 91.7969,85.9836 91.7969,90.8112"/>
    <line x1="91.7969" x2="101.4521" y1="95.6388" y2="95.6388"/>
    <polyline points="99.0383,95.6388 99.0383,93.225 108.6934,93.225 108.6934,95.6388"/>
    <line x1="106.2797" x2="106.2797" y1="97.8112" y2="98.0526"/>
    <line x1="111.1072" x2="111.1072" y1="98.0526" y2="97.8112"/>
    <line x1="113.521" x2="113.521" y1="100.225" y2="100.4664"/>
    <polyline points="115.9348,98.0526 118.3486,98.0526 118.3486,93.225"/>
    <polyline points="120.7624,93.225 113.521,93.225 113.521,88.3974 115.9348,88.3974"/>
    <line x1="113.521" x2="111.1072" y1="90.8112" y2="90.8112"/>
    <polyline points="106.2797,88.3974 108.6934,88.3974 108.6934,85.9836 111.1072,85.9836 111.1072,78.7422"/>
    <polyline points="111.1072,73.9147 111.1072,71.5009 113.521,71.5009 113.521,66.6733"/>
    <line x1="111.1072" x2="115.9348" y1="66.6733" y2="66.6733"/>
    <polyline points="120.7624,66.6733 120.7624,64.2595 123.1762,64.2595 123.1762,59.4319"/>
    <polyline points="120.7624,59.4319 128.0038,59.4319 128.0038,69.0871 130.4176,69.0871"/>
    <line x1="132.8314" x2="132.8314" y1="66.6733" y2="66.4319"/>
    <polyline points="137.659,66.6733 137.659,69.0871 140.0728,69.0871 140.0728,85.9836 142.4866,85.9836"/>
    <line x1="144.9003" x2="149.7279" y1="90.8112" y2="90.8112"/>
    <line x1="152.1417" x2="154.5555" y1="93.225" y2="93.225"/>
    <line x1="156.9693" x2="156.9693" y1="95.3974" y2="95.6388"/>
    <line x1="159.3831" x2="159.3831" y1="100.225" y2="100.4664"/>
    <line x1="156.9693" x2="156.9693" y1="105.294" y2="110.1216"/>
    <line x1="152.1417" x2="152.1417" y1="110.1216" y2="112.5353"/>
    <polyline points="149.7279,112.5353 154.5555,112.5353 154.5555,107.7078 159.3831,107.7078 159.3831,110.1216 149.7279,110.1216"/>
    <line x1="144.9003" x2="144.9003" y1="112.294" y2="112.5353"/>
    <line x1="144.9003" x2="144.9003" y1="107.7078" y2="100.4664"/>
    <line x1="147.3141" x2="147.3141" y1="100.4664" y2="102.8802"/>
    <polyline points="144.9003,102.8802 149.7279,102.8802 149.7279,100.4664 140.0728,100.4664 140.0728,117.3629 149.7279,117.3629 149.7279,107.7078 137.659,107.7078 137.659,105.294"/>
    <line x1="135.2452" x2="144.9003" y1="105.294" y2="105.294"/>
    <line x1="142.4866" x2="142.4866" y1="105.294" y2="107.7078"/>
    <polyline points="140.0728,112.5353 135.2452,112.5353 135.2452,110.1216"/>
    <line x1="132.8314" x2="132.8314" y1="107.7078" y2="107.4664"/>
    <polyline points="130.4176,110.1216 128.0038,110.1216 128.0038,100.4664 120.7624,100.4664"/>
    <polyline points="123.1762,100.4664 123.1762,105.294 120.7624,105.294 120.7624,107.7078"/>
    <line x1="125.59" x2="128.0038" y1="107.7078" y2="107.7078"/>
    <line x1="125.59" x2="125.59" y1="102.8802" y2="100.4664"/>
    <line x1="123.1762" x2="132.8314" y1="102.8802" y2="102.8802"/>
    <line x1="135.2452" x2="135.2452" y1="100.4664" y2="100.225"/>
    <line x1="137.659" x2="137.659" y1="98.0526" y2="97.8112"/>
    <line x1="140.0728" x2="147.3141" y1="95.6388" y2="95.6388"/>
    <polyline points="152.1417,98.0526 154.5555,98.0526 154.5555,102.8802"/>
    <polyline points="156.9693,114.9491 159.3831,114.9491 159.3831,117.3629"/>
    <line x1="154.5555" x2="154.5555" y1="117.3629" y2="122.1905"/>
    <polyline points="154.5555,119.7767 152.1417,119.7767 152.1417,124.6043 149.7279,124.6043 149.7279,122.1905"/>
    <line x1="147.3141" x2="147.3141" y1="126.7767" y2="127.0181"/>
    <polyline points="142.4866,122.1905 156.9693,122.1905 156.9693,124.6043"/>
    <line x1="154.5555" x2="154.5555" y1="126.7767" y2="127.0181"/>
    <line x1="140.0728" x2="140.0728" y1="124.6043" y2="124.3629"/>
    <line x1="137.659" x2="137.659" y1="126.7767" y2="127.0181"/>
    <line x1="132.8314" x2="132.8314" y1="127.0181" y2="126.7767"/>
    <polyline points="135.2452,122.1905 135.2452,119.7767 137.659,119.7767 137.659,122.1905 123.1762,122.1905"/>
    <polyline points="123.1762,119.7767 123.1762,124.6043 120.7624,124.6043 120.7624,127.0181"/>
    <polyline points="115.9348,127.0181 111.1072,127.0181 111.1072,117.3629"/>
    <polyline points="111.1072,119.7767 113.521,119.7767 113.521,122.1905 111.1072,122.1905"/>
    <line x1="118.3486" x2="118.3486" y1="117.3629" y2="112.5353"/>
    <polyline points="120.7624,112.5353 111.1072,112.5353 111.1072,110.1216"/>
    <polyline points="113.521,107.7078 115.9348,107.7078 115.9348,114.9491 118.3486,114.9491"/>
    <polyline points="120.7624,119.7767 128.0038,119.7767 128.0038,127.0181 125.59,127.0181"/>
    <polyline points="128.0038,124.6043 130.4176,124.6043 130.4176,122.1905"/>
    <line x1="125.59" x2="125.59" y1="122.1905" y2="119.7767"/>
    <line x1="125.59" x2="125.59" y1="114.9491" y2="114.7078"/>
    <line x1="130.4176" x2="130.4176" y1="114.7078" y2="114.9491"/>
    <line x1="132.8314" x2="132.8314" y1="117.1216" y2="117.3629"/>
    <line x1="142.4866" x2="142.4866" y1="100.4664" y2="93.225"/>
    <polyline points="140.0728,90.8112 128.0038,90.8112 128.0038,81.156 120.7624,81.156"/>
    <polyline points="123.1762,81.156 123.1762,85.9836 120.7624,85.9836 120.7624,88.3974"/>
    <line x1="125.59" x2="128.0038" y1="88.3974" y2="88.3974"/>
    <line x1="132.8314" x2="132.8314" y1="88.3974" y2="93.225"/>
    <line x1="135.2452" x2="135.2452" y1="95.3974" y2="95.6388"/>
    <line x1="130.4176" x2="130.4176" y1="95.6388" y2="98.0526"/>
    <line x1="125.59" x2="125.59" y1="95.6388" y2="95.3974"/>
    <line x1="125.59" x2="125.59" y1="83.5698" y2="81.156"/>
    <polyline points="123.1762,83.5698 132.8314,83.5698 132.8314,78.7422 130.4176,78.7422 130.4176,73.9147"/>
    <polyline points="135.2452,73.9147 135.2452,76.3284 140.0728,76.3284"/>
    <line x1="140.0728" x2="142.4866" y1="78.7422" y2="78.7422"/>
    <line x1="144.9003" x2="149.7279" y1="81.156" y2="81.156"/>
    <line x1="147.3141" x2="147.3141" y1="78.7422" y2="83.5698"/>
    <polyline points="152.1417,85.9836 152.1417,88.3974 154.5555,88.3974"/>
    <line x1="156.9693" x2="156.9693" y1="85.9836" y2="85.7422"/>
    <line x1="159.3831" x2="159.3831" y1="81.156" y2="80.9147"/>
    <line x1="156.9693" x2="156.9693" y1="78.7422" y2="78.5009"/>
    <line x1="152.1417" x2="152.1417" y1="78.5009" y2="78.7422"/>
    <line x1="152.1417" x2="152.1417" y1="69.0871" y2="64.2595"/>
    <polygon points="154.5555,64.2595 154.5555,69.0871 149.7279,69.0871 149.7279,64.2595"/>
    <line x1="149.7279" x2="154.5555" y1="66.6733" y2="66.6733"/>
    <polygon points="144.9003,59.4319 159.3831,59.4319 159.3831,73.9147 144.9003,73.9147"/>
    <polyline points="140.0728,61.8457 140.0728,59.4319 137.659,59.4319"/>
    <line x1="135.2452" x2="123.1762" y1="61.8457" y2="61.8457"/>
    <line x1="125.59" x2="125.59" y1="61.8457" y2="59.4319"/>
    <line x1="125.59" x2="128.0038" y1="66.6733" y2="66.6733"/>
    <line x1="125.59" x2="125.59" y1="73.9147" y2="76.3284"/>
    <polyline points="120.7624,73.9147 120.7624,71.5009 118.3486,71.5009"/>
    <line x1="115.9348" x2="115.9348" y1="73.9147" y2="76.3284"/>
    <polyline points="118.3486,78.7422 118.3486,76.3284 113.521,76.3284 113.521,78.7422 106.2797,78.7422"/>
    <line x1="106.2797" x2="106.2797" y1="83.3284" y2="83.5698"/>
    <polyline points="101.4521,90.8112 101.4521,102.8802 108.6934,102.8802"/>
    <line x1="108.6934" x2="106.2797" y1="107.7078" y2="107.7078"/>
    <polyline points="101.4521,107.7078 96.6245,107.7078 96.6245,105.294 99.0383,105.294 99.0383,107.7078"/>
    <polyline points="91.7969,107.7078 91.7969,100.4664 101.4521,100.4664"/>
    <line x1="96.6245" x2="96.6245" y1="100.4664" y2="95.6388"/>
    <polygon points="91.7969,112.5353 106.2797,112.5353 106.2797,127.0181 91.7969,127.0181"/>
    <polygon points="96.6245,117.3629 101.4521,117.3629 101.4521,122.1905 96.6245,122.1905"/>
    <line x1="99.0383" x2="99.0383" y1="117.3629" y2="122.1905"/>
    <line x1="96.6245" x2="101.4521" y1="119.7767" y2="119.7767"/>
    <line x1="115.9348" x2="115.9348" y1="83.5698" y2="81.156"/>
    <line x1="132.8314" x2="140.0728" y1="81.156" y2="81.156"/>
    <line x1="159.3831" x2="159.3831" y1="90.5698" y2="90.8112"/>
    <line x1="115.9348" x2="115.9348" y1="61.8457" y2="59.4319"/>
    <line x1="111.1072" x2="111.1072" y1="61.6043" y2="61.8457"/>
  </g>
  <g fill="none" id="layer2" inkscape:groupmode="layer" inkscape:label="2" stroke="#000000" stroke-width="1.8898" style="display:inline">
    <polygon points="74.22,32.36 65.85,32.45 65.625,32.675 65.625,41.27 56.715,41.27 56.715,12.695 73.3645,12.7084 75.5398,13.1759 76.6535,14.0309 77.1234,14.9527 77.28,16.115 77.258,29.5902 76.4865,31.3902 75.66,31.96"/>
    <polygon points="65.625,25.52 65.85,25.745 68.055,25.745 68.37,25.43 68.37,19.76 68.055,19.445 65.85,19.445 65.625,19.67"/>
    <polygon points="100.095,16.115 100.095,30.245 88.665,30.245 88.44,30.47 88.44,33.98 88.755,34.295 90.87,34.295 91.185,33.98 91.185,32.495 100.095,32.495 100.0725,38.1402 99.5325,39.6537 98.13,40.64 96.1258,40.99 83.4992,40.99 81.8392,40.75 80.6325,40.19 79.89,39.3304 79.53,37.67 79.53,16.115 79.6866,14.9527 80.1565,14.0309 81.2702,13.1759 83.4455,12.7084 96.6841,12.7484 98.3548,13.1759 99.2423,13.7771 99.8166,14.6188"/>
    <polygon points="90.96,23.99 91.185,23.765 91.185,19.76 90.87,19.445 88.755,19.445 88.44,19.76 88.44,23.765 88.665,23.99"/>
    <polygon points="112.4078,13.9715 115.4324,12.9393 118.9945,12.7084 121.1698,13.1759 122.0573,13.7771 122.6316,14.6188 122.91,16.115 122.91,41.0 114.0,41.0 114.0,19.76 113.685,19.445 111.57,19.445 111.255,19.76 111.255,41.0 102.345,41.0 102.345,12.695 111.255,12.695 111.255,14.315 111.615,14.495"/>
    <polygon points="154.9665,31.3902 153.825,32.09 152.265,32.41 144.33,32.45 144.105,32.675 144.105,41.27 135.195,41.27 135.195,12.695 151.8445,12.7084 153.6543,13.029 154.9073,13.7771 155.4816,14.6188 155.76,16.115 155.738,29.5902"/>
    <polygon points="144.33,19.445 144.105,19.67 144.105,25.52 144.33,25.745 146.535,25.745 146.85,25.43 146.85,19.76 146.535,19.445"/>
    <polygon points="166.92,5.045 166.92,41.0 158.01,41.0 158.01,5.045"/>
    <polygon points="186.3241,12.7484 188.6213,13.55 189.4566,14.6188 189.7176,15.7009 189.735,37.67 189.375,39.3304 188.0858,40.51 185.7658,40.99 173.1392,40.99 170.5317,40.36 169.53,39.3304 169.17,37.67 169.17,16.115 169.6051,14.3115 170.5796,13.3496 172.5809,12.7484"/>
    <polygon points="180.51,34.295 180.825,33.98 180.825,19.76 180.51,19.445 178.395,19.445 178.08,19.76 178.08,33.98 178.395,34.295"/>
    <polygon points="202.38,34.295 204.54,34.295 204.855,33.98 204.855,29.615 212.37,29.57 212.3475,38.1402 212.01,39.3304 211.0083,40.36 208.4008,40.99 197.1242,40.99 195.12,40.64 193.7175,39.6537 193.155,37.67 193.155,21.065 192.93,20.84 190.86,20.84 190.86,14.18 193.155,14.18 193.155,5.45 202.065,5.45 202.065,14.18 212.37,14.18 212.37,20.84 202.11,20.84 202.065,33.98"/>
    <polygon points="215.8125,38.1402 215.79,21.065 215.565,20.84 213.495,20.84 213.495,14.18 215.79,14.18 215.79,5.45 224.7,5.45 224.7,14.18 235.005,14.18 235.005,20.84 224.745,20.84 224.7,33.98 225.015,34.295 227.175,34.295 227.49,33.98 227.49,29.615 235.005,29.57 234.915,38.5737 233.9025,40.19 231.9225,40.91 219.7592,40.99 218.0992,40.75 216.8925,40.19 216.15,39.3304"/>
    <polygon points="257.01,39.9402 255.855,40.64 254.3083,40.96 241.71,41.0 239.22,40.64 237.8175,39.6537 237.255,37.67 237.255,16.115 237.5334,14.6188 238.3688,13.55 239.7609,12.9087 241.1705,12.7084 253.9045,12.7084 255.7143,13.029 257.1935,14.0309 257.6634,14.9527 257.82,16.115 257.82,30.245 246.39,30.245 246.165,30.47 246.165,33.98 246.48,34.295 248.595,34.295 248.91,33.98 248.91,32.495 257.82,32.495 257.7975,38.1402"/>
    <polygon points="246.39,23.99 248.685,23.99 248.91,23.765 248.91,19.76 248.595,19.445 246.48,19.445 246.165,19.76 246.165,23.765"/>
    <polygon points="271.77,19.715 271.455,19.4 269.295,19.4 268.98,19.715 268.98,41.0 260.07,41.0 260.07,16.025 260.43,14.3646 261.1725,13.505 262.035,13.055 264.525,12.695 275.7733,12.735 277.6358,13.185 278.7225,14.0413 279.2625,15.5548 279.285,24.125 271.77,24.08"/>
    <polygon points="241.57,84.445 241.255,84.76 241.255,98.98 241.57,99.295 243.775,99.295 244.0,99.07 244.0,84.67 243.775,84.445"/>
    <polygon points="234.625,105.75 233.1385,104.9402 232.367,103.1402 232.345,81.115 232.7801,79.3115 233.7546,78.3496 235.286,77.8152 243.775,77.695 244.0,77.47 244.0,70.495 252.91,70.495 252.91,106.0 236.8,106.0"/>
    <polygon points="221.1535,78.2983 224.2728,77.7399 227.154,77.8152 228.9812,78.55 229.9384,79.9527 230.095,106.0 221.185,106.0 221.185,84.76 220.87,84.445 218.755,84.445 218.44,84.76 218.44,106.0 209.53,106.0 209.53,77.695 218.44,77.695 218.44,79.315 218.8,79.495"/>
    <polygon points="198.37,99.07 198.37,94.57 198.145,94.345 195.94,94.345 195.625,94.66 195.625,98.98 195.94,99.295 198.145,99.295"/>
    <polygon points="204.7741,77.9088 205.8704,78.3496 206.6535,79.0309 207.2626,80.7009 207.28,106.0 190.6842,105.99 188.0767,105.36 187.075,104.3304 186.7375,103.1402 186.715,91.825 187.075,90.1646 188.0767,89.135 189.7975,88.585 198.145,88.495 198.37,88.27 198.37,84.76 198.055,84.445 195.94,84.445 195.625,84.76 195.625,86.2 186.715,86.2 186.7324,80.7009 187.1501,79.3115 188.4552,78.1759 190.1259,77.7484 202.825,77.695"/>
    <polygon points="212.535,156.445 212.22,156.76 212.22,160.27 212.445,160.495 214.74,160.495 214.965,160.27 214.965,156.76 214.65,156.445"/>
    <polygon points="226.215,152.1213 226.6875,151.0413 227.4867,150.335 230.0942,149.705 242.2575,149.785 244.2375,150.505 245.1375,151.7246 245.34,161.125 237.825,161.08 237.825,156.715 237.51,156.4 235.35,156.4 235.035,156.715 235.035,178.0 226.125,178.0"/>
    <polygon points="248.085,157.84 246.015,157.84 246.015,151.18 248.31,151.18 248.31,142.45 257.22,142.45 257.22,151.18 267.525,151.18 267.525,157.84 257.265,157.84 257.22,158.065 257.22,170.98 257.535,171.295 259.695,171.295 260.01,170.98 260.01,166.615 267.525,166.57 267.5025,175.1402 266.715,176.9402 265.2158,177.75 263.07,178.0 251.8217,177.96 250.275,177.64 249.12,176.9402 248.3325,175.1402 248.31,158.065"/>
    <polygon points="212.445,167.245 212.22,167.47 212.22,178.0 203.31,178.0 203.31,153.115 203.7451,151.3115 205.0502,150.1759 207.2255,149.7084 219.9595,149.7084 222.4654,150.3496 223.4399,151.3115 223.8576,152.7009 223.875,178.0 214.965,178.0 214.965,167.47 214.74,167.245"/>
    <polygon points="182.115,178.0 182.115,142.045 191.025,142.045 191.025,178.0"/>
    <polygon points="168.21,166.66 168.21,170.98 168.525,171.295 170.73,171.295 170.955,171.07 170.955,166.57 170.73,166.345 168.525,166.345"/>
    <polygon points="159.8625,161.8413 160.9492,160.985 162.3825,160.585 170.73,160.495 170.955,160.27 170.955,156.76 170.64,156.445 168.525,156.445 168.21,156.76 168.21,158.2 159.3,158.2 159.3696,152.3134 159.7351,151.3115 160.7096,150.3496 163.2155,149.7084 175.41,149.695 177.3591,149.9088 178.7512,150.55 179.5866,151.6187 179.865,153.115 179.865,178.0 163.2692,177.99 161.6092,177.75 160.4025,177.19 159.5025,175.9704 159.3,174.67 159.3,163.825"/>
    <polygon points="153.9675,177.91 141.3467,177.96 139.4842,177.51 138.195,176.3304 137.835,174.67 137.835,158.065 137.61,157.84 135.54,157.84 135.54,151.18 137.835,151.18 137.835,142.45 146.745,142.45 146.745,151.18 157.05,151.18 157.05,157.84 146.79,157.84 146.745,158.065 146.745,170.98 147.06,171.295 149.22,171.295 149.535,170.98 149.535,166.615 157.05,166.57 156.96,175.5737 155.9475,177.19"/>
    <polygon points="125.505,148.075 125.505,142.225 134.415,142.225 134.415,148.075"/>
    <polygon points="114.12,171.295 114.345,171.07 114.345,156.67 114.12,156.445 111.915,156.445 111.6,156.76 111.6,170.98 111.915,171.295"/>
    <polygon points="134.415,178.0 125.505,178.0 125.505,149.695 134.415,149.695"/>
    <polygon points="103.5,176.9402 102.8925,175.9704 102.69,174.67 102.69,153.115 102.8466,151.9527 103.3165,151.0309 104.7957,150.029 106.6055,149.7084 123.255,149.695 123.255,183.625 122.6925,185.6087 121.6058,186.465 119.7433,186.915 102.69,186.955 102.69,180.25 114.03,180.25 114.345,179.935 114.345,178.225 114.12,178.0 106.2017,177.96 104.655,177.64"/>
    <polygon points="100.44,178.0 91.53,178.0 91.53,149.695 100.44,149.695"/>
    <polygon points="77.85,156.445 77.625,156.67 77.625,171.07 77.85,171.295 80.055,171.295 80.37,170.98 80.37,156.76 80.055,156.445"/>
    <polygon points="85.7683,177.96 68.715,178.0 68.715,149.695 85.8691,149.7484 87.5398,150.1759 88.8449,151.3115 89.28,153.115 89.2575,175.1402 88.92,176.3304 88.1775,177.19"/>
    <polygon points="91.53,142.225 100.44,142.225 100.44,148.075 91.53,148.075"/>
  </g>
</svg>
